<svg width="604" height="472" viewBox="0 0 604 472" fill="none" xmlns="http://www.w3.org/2000/svg">
<path fill-rule="evenodd" clip-rule="evenodd" d="M236 472C301.17 472 360.17 445.585 402.877 402.877L319.439 319.439C298.085 340.792 268.585 354 236 354C170.83 354 118 301.17 118 236C118 170.83 170.83 118 236 118C268.585 118 298.085 131.208 319.439 152.561L402.877 69.1228C360.17 26.4152 301.17 0 236 0C105.661 0 0 105.661 0 236C0 366.339 105.661 472 236 472ZM456.339 71L295 238L453.145 401L600.451 401L443 238L603.631 71L456.339 71Z" fill="#212121" style="fill:#212121;fill:color(display-p3 0.1294 0.1294 0.1294);fill-opacity:1;"/>
</svg>
