<?xml version="1.0" encoding="UTF-8"?>
<svg xmlns="http://www.w3.org/2000/svg" viewBox="0 0 26.05859375 30.201171875" width="26.05859375" height="30.201171875" fill="currentColor">
  <path d="M13.0337 0.0048C12.4537 0.0048 11.7437 0.2548 11.2337 0.8048L1.0937 11.7048C0.3437 12.5048 0.0037 13.1748 0.0037 14.0448C0.0037 15.3148 0.9537 16.2648 2.2237 16.2648H6.6437V26.1848C6.6437 28.7148 8.1037 30.2048 10.6237 30.2048H15.3637C17.8837 30.2048 19.3437 28.7148 19.3437 26.1848V16.2648H23.7937C25.0637 16.2648 26.0537 15.3148 26.0537 14.0148C26.0537 13.1948 25.7437 12.5948 24.9237 11.7048L14.8337 0.8048C14.3037 0.2448 13.6437 0.0048 13.0337 0.0048ZM13.0337 3.9348C13.1137 3.9348 13.1837 3.9748 13.2737 4.0848L21.5837 12.8148C21.6437 12.8748 21.6737 12.9648 21.6737 13.0448C21.6737 13.1648 21.5837 13.2648 21.4337 13.2648H16.6637C16.3537 13.2648 16.2137 13.3948 16.2137 13.6948V25.8448C16.2137 26.6348 15.8337 27.0548 15.0137 27.0548H10.9937C10.1737 27.0548 9.7737 26.6348 9.7737 25.8448V13.6948C9.7737 13.3948 9.6437 13.2648 9.3337 13.2648H4.6737C4.5437 13.2648 4.4337 13.1648 4.4337 13.0448C4.4337 12.9648 4.4737 12.8948 4.5437 12.8248L12.7837 4.0848C12.8937 3.9748 12.9637 3.9348 13.0337 3.9348Z"/>
</svg>
