<svg width="20" height="20" viewBox="0 0 20 20" fill="currentColor" xmlns="http://www.w3.org/2000/svg">
<path d="M6.64123 10.0531V7.48802C6.64123 6.93767 6.2383 6.50033 5.71251 6.50033C5.19164 6.50033 4.75922 6.93767 4.75922 7.50276L4.7543 14.225C4.7543 14.8294 5.16216 15.2421 5.77148 15.2421H12.5035C13.0784 15.2421 13.501 14.8097 13.501 14.2888C13.501 13.768 13.0637 13.365 12.5133 13.365H10.022L7.84513 13.4535L8.90653 12.4805L14.926 6.45611C15.3929 5.96963 15.3142 5.41436 14.9359 5.05074C14.5477 4.66745 14.0022 4.6478 13.5551 5.08513L7.52573 11.1046L6.53804 12.1759L6.64123 10.0531Z" fill="currentColor"/>
</svg>
