<svg width="20" height="20" viewBox="0 0 20 20" fill="currentColor" xmlns="http://www.w3.org/2000/svg">
<path d="M10.0024 18.202C10.3337 18.202 10.6921 18.0662 10.9799 17.7621L16.459 11.8431C16.9043 11.3599 17.0726 11.034 17.0726 10.5833C17.0726 9.88282 16.535 9.36695 15.8454 9.36695H13.4289V3.98014C13.4289 2.61172 12.6361 1.80261 11.2677 1.80261H8.69374C7.32532 1.80261 6.53251 2.61172 6.53251 3.98014V9.36695H4.13233C3.44269 9.36695 2.92682 9.88282 2.92682 10.5779C2.92682 11.0449 3.11145 11.4087 3.51872 11.8431L9.02499 17.7621C9.30193 18.0608 9.68748 18.202 10.0024 18.202ZM10.0024 16.057C9.96442 16.057 9.92641 16.0407 9.86668 15.981L5.39215 11.235C5.35414 11.1969 5.33242 11.1535 5.33242 11.1155C5.33242 11.0503 5.39215 10.996 5.46275 10.996H7.99324C8.16158 10.996 8.23217 10.9254 8.23217 10.7625V4.15934C8.23217 3.73035 8.44938 3.50228 8.89466 3.50228H11.0776C11.5229 3.50228 11.7293 3.73035 11.7293 4.15934V10.7625C11.7293 10.9254 11.8053 10.996 11.9736 10.996H14.5638C14.6453 10.996 14.6942 11.0503 14.6942 11.1155C14.6942 11.1644 14.6779 11.1969 14.6453 11.235L10.1328 15.981C10.0839 16.0407 10.0459 16.057 10.0024 16.057Z" fill="currentColor"/>
</svg>
