<?xml version="1.0" encoding="UTF-8"?>
<svg xmlns="http://www.w3.org/2000/svg" viewBox="0 0 21.35155734831219 21.33158500614134" width="21.35155734831219" height="21.33158500614134" fill="currentColor">
  <path d="M3.83 10.5515L3.62 6.2315L5.63 8.4115L17.9 20.6715C18.81 21.5615 19.92 21.5215 20.71 20.7415C21.48 20.0015 21.66 18.8715 20.69 17.8815L8.44 5.6215L6.28 3.6415L10.72 3.8115H15.78C16.9 3.8115 17.8 2.9915 17.8 1.9415C17.8 0.8715 16.93 0.0015 15.76 0.0015H2.08C0.82 0.0015 0 0.8315 0 2.0615V15.7515C0 16.8815 0.88 17.7915 1.94 17.7915C3.01 17.7915 3.83 16.9015 3.83 15.7615Z"/>
</svg>
