<svg width="20" height="20" viewBox="0 0 20 20" fill="currentColor" xmlns="http://www.w3.org/2000/svg">
<path d="M5.4411 9.87176C5.74177 9.87176 5.9773 9.7515 6.15269 9.56608L7.69612 8.03267L9.07418 6.41908L9.00403 7.92744V15.5344C9.00403 16.1507 9.40993 16.5616 9.99623 16.5616C10.5926 16.5616 10.9884 16.1507 10.9884 15.5344V7.92744L10.9283 6.42911L12.3064 8.03267L13.8448 9.56608C14.0302 9.7515 14.2657 9.87176 14.5614 9.87176C15.0926 9.87176 15.4985 9.47588 15.4985 8.91464C15.4985 8.65406 15.3932 8.41352 15.1878 8.20305L10.7279 3.74313C10.5424 3.5477 10.2718 3.43745 9.99623 3.43745C9.73064 3.43745 9.45002 3.5477 9.26461 3.74313L4.8097 8.20305C4.60424 8.41352 4.50402 8.65406 4.50402 8.91464C4.50402 9.47588 4.90491 9.87176 5.4411 9.87176Z" fill="currentColor"/>
</svg>
