<?xml version="1.0" encoding="UTF-8"?>
<svg xmlns="http://www.w3.org/2000/svg" viewBox="0 0 28.875 31.351422542051147" width="28.875" height="31.351422542051147" fill="currentColor">
  <path d="M14.4327 31.355C22.4127 31.355 28.8727 24.875 28.8727 16.915C28.8727 12.735 27.0427 8.795 23.8827 6.095C22.9727 5.235 21.8227 5.345 21.1827 6.095C20.4627 6.935 20.7227 7.985 21.5027 8.765C23.8427 10.785 25.2827 13.635 25.2827 16.915C25.2827 22.905 20.4427 27.755 14.4327 27.755C8.4527 27.755 3.5927 22.905 3.5927 16.915C3.5927 11.935 6.9327 7.755 11.5027 6.465V7.875C11.5027 8.955 12.4327 9.215 13.1927 8.645L17.7327 5.275C18.3027 4.845 18.3227 4.115 17.7327 3.695L13.2027 0.305C12.4327 -0.285 11.5027 -0.015 11.5027 1.085V2.775C4.9227 4.145 0.0027 9.955 0.0027 16.915C0.0027 24.875 6.4627 31.355 14.4327 31.355Z"/>
</svg>
