<svg width="20" height="20" viewBox="0 0 20 20" fill="currentColor" xmlns="http://www.w3.org/2000/svg">
<path d="M10.3916 15.7245C10.7693 15.7245 11.0635 15.5751 11.4193 15.2458L16.2065 10.788C16.4436 10.5596 16.5578 10.2565 16.5578 9.99741C16.5578 9.73389 16.4524 9.43963 16.2065 9.21125L11.4193 4.77981C11.0284 4.41967 10.7649 4.27473 10.4004 4.27473C9.8338 4.27473 9.41217 4.71832 9.41217 5.27609V7.22171H9.30677C5.41553 7.22171 3.43912 9.73828 3.43912 13.9721C3.43912 15.0876 3.79925 15.6542 4.37464 15.6542C4.78309 15.6542 5.11687 15.4961 5.38478 14.9735C6.17094 13.5417 7.31283 12.8082 9.30677 12.8082H9.41217V14.7407C9.41217 15.2985 9.8338 15.7245 10.3916 15.7245ZM10.8308 13.7745C10.778 13.7745 10.7341 13.7305 10.7341 13.6734V11.6048C10.7341 11.4731 10.677 11.416 10.5453 11.416H9.82936C7.21621 11.416 5.56924 12.1187 4.82701 13.5944C4.80944 13.6295 4.79626 13.6471 4.77431 13.6471C4.74791 13.6471 4.73034 13.6251 4.73034 13.5856C4.79626 10.7001 6.31587 8.59199 9.82936 8.59199H10.5453C10.677 8.59199 10.7341 8.53051 10.7341 8.39436V6.3038C10.7341 6.24231 10.778 6.20279 10.8308 6.20279C10.8659 6.20279 10.8966 6.22036 10.9273 6.24231L14.7659 9.88761C14.8142 9.93592 14.823 9.96227 14.823 9.99741C14.823 10.0325 14.8142 10.0633 14.7659 10.1028L10.9273 13.7261C10.8966 13.7613 10.8615 13.7745 10.8308 13.7745Z" fill="currentColor"/>
</svg>
