<svg width="20" height="20" viewBox="0 0 20 20" fill="currentColor" xmlns="http://www.w3.org/2000/svg">
<path d="M1.80267 9.99684C1.80267 10.3174 1.93849 10.6922 2.23729 10.9747L8.14808 16.4889C8.59356 16.8964 8.95755 17.0811 9.41933 17.0811C10.1202 17.0811 10.6363 16.5541 10.6363 15.8642V13.4738H16.0255C17.4 13.4738 18.1986 12.6697 18.1986 11.3116V8.73101C18.1986 7.3674 17.4 6.56336 16.0255 6.56336H10.6363V4.15667C10.6363 3.46672 10.1202 2.91801 9.4139 2.91801C8.96842 2.91801 8.64246 3.09729 8.14808 3.54278L2.23729 9.02438C1.93306 9.30688 1.80267 9.67087 1.80267 9.99684ZM3.93773 9.99684C3.93773 9.95337 3.95946 9.92078 4.01922 9.86102L8.76198 5.35187C8.79457 5.32471 8.84347 5.30297 8.87606 5.30297C8.95212 5.30297 9.00645 5.35187 9.00645 5.42793V8.0302C9.00645 8.19861 9.07707 8.2638 9.24005 8.2638H15.8354C16.27 8.2638 16.4982 8.48111 16.4982 8.92659V11.1105C16.4982 11.556 16.27 11.7733 15.8354 11.7733H9.24005C9.07707 11.7733 9.00645 11.844 9.00645 12.0069V14.544C9.00645 14.6146 8.95212 14.669 8.88693 14.669C8.84347 14.669 8.80544 14.6527 8.76198 14.6092L4.01922 10.1272C3.95946 10.0783 3.93773 10.0403 3.93773 9.99684Z" fill="currentColor"/>
</svg>
