<svg width="20" height="20" viewBox="0 0 20 20" fill="currentColor" xmlns="http://www.w3.org/2000/svg">
<path d="M5.06033 5.04958C4.6917 5.41329 4.60323 5.96869 5.07507 6.45527L11.1009 12.4811L12.1625 13.4542L9.98025 13.3658H7.49326C6.94278 13.3658 6.50043 13.7688 6.50043 14.2898C6.50043 14.8108 6.92312 15.2433 7.49817 15.2433H14.2268C14.8461 15.2433 15.2491 14.8304 15.2491 14.2259V7.50217C15.2491 6.93694 14.8166 6.49951 14.2956 6.49951C13.7697 6.49951 13.3667 6.93694 13.3667 7.48743V10.0531L13.4601 12.1763L12.482 11.1049L6.45128 5.08399C6.00401 4.64655 5.44861 4.66621 5.06033 5.04958Z" fill="currentColor"/>
</svg>
