<?xml version="1.0" encoding="UTF-8"?>
<svg xmlns="http://www.w3.org/2000/svg" viewBox="0 0 26.05859375 30.201171875" width="26.05859375" height="30.201171875" fill="currentColor">
  <path d="M13.0337 30.2048C13.6437 30.2048 14.3037 29.9548 14.8337 29.3948L24.9237 18.4948C25.7437 17.6048 26.0537 17.0048 26.0537 16.1748C26.0537 14.8848 25.0637 13.9348 23.7937 13.9348H19.3437V4.0148C19.3437 1.4948 17.8837 0.0048 15.3637 0.0048H10.6237C8.1037 0.0048 6.6437 1.4948 6.6437 4.0148V13.9348H2.2237C0.9537 13.9348 0.0037 14.8848 0.0037 16.1648C0.0037 17.0248 0.3437 17.6948 1.0937 18.4948L11.2337 29.3948C11.7437 29.9448 12.4537 30.2048 13.0337 30.2048ZM13.0337 26.2548C12.9637 26.2548 12.8937 26.2248 12.7837 26.1148L4.5437 17.3748C4.4737 17.3048 4.4337 17.2248 4.4337 17.1548C4.4337 17.0348 4.5437 16.9348 4.6737 16.9348H9.3337C9.6437 16.9348 9.7737 16.8048 9.7737 16.5048V4.3448C9.7737 3.5548 10.1737 3.1348 10.9937 3.1348H15.0137C15.8337 3.1348 16.2137 3.5548 16.2137 4.3448V16.5048C16.2137 16.8048 16.3537 16.9348 16.6637 16.9348H21.4337C21.5837 16.9348 21.6737 17.0348 21.6737 17.1548C21.6737 17.2448 21.6437 17.3048 21.5837 17.3748L13.2737 26.1148C13.1837 26.2248 13.1137 26.2548 13.0337 26.2548Z"/>
</svg>
