<?xml version="1.0" encoding="UTF-8"?>
<svg xmlns="http://www.w3.org/2000/svg" viewBox="0 0 21.354994583266397 21.33158500614134" width="21.354994583266397" height="21.33158500614134" fill="currentColor">
  <path d="M0.6269 0.5929C-0.1231 1.3329 -0.3031 2.4629 0.6569 3.4529L12.9169 15.7129L15.0769 17.6929L10.6369 17.5129H5.5769C4.4569 17.5129 3.5569 18.3329 3.5569 19.3929C3.5569 20.4529 4.4169 21.3329 5.5869 21.3329H19.2769C20.5369 21.3329 21.3569 20.4929 21.3569 19.2629V5.5829C21.3569 4.4329 20.4769 3.5429 19.4169 3.5429C18.3469 3.5429 17.5269 4.4329 17.5269 5.5529V10.7729L17.7169 15.0929L15.7269 12.9129L3.4569 0.6629C2.5469 -0.2271 1.4169 -0.1871 0.6269 0.5929Z"/>
</svg>
