<?xml version="1.0" encoding="UTF-8"?>
<svg xmlns="http://www.w3.org/2000/svg" viewBox="0 0 21.359899949273792 21.33158500614134" width="21.359899949273792" height="21.33158500614134" fill="currentColor">
  <path d="M3.8437 10.7729V5.5529C3.8437 4.4329 3.0237 3.5429 1.9537 3.5429C0.8937 3.5429 0.0137 4.4329 0.0137 5.5829L0.0037 19.2629C0.0037 20.4929 0.8337 21.3329 2.0737 21.3329H15.7737C16.9437 21.3329 17.8037 20.4529 17.8037 19.3929C17.8037 18.3329 16.9137 17.5129 15.7937 17.5129H10.7237L6.2937 17.6929L8.4537 15.7129L20.7037 3.4529C21.6537 2.4629 21.4937 1.3329 20.7237 0.5929C19.9337 -0.1871 18.8237 -0.2271 17.9137 0.6629L5.6437 12.9129L3.6337 15.0929Z"/>
</svg>
