<svg width="20" height="20" viewBox="0 0 20 20" fill="currentColor" xmlns="http://www.w3.org/2000/svg">
<path d="M9.60001 15.7245C10.1666 15.7245 10.5838 15.2985 10.5838 14.7407V12.8082H10.6936C12.6875 12.8082 13.8294 13.5417 14.6068 14.9735C14.8967 15.4917 15.2173 15.6542 15.6257 15.6542C16.2011 15.6542 16.5612 15.0876 16.5612 13.9721C16.5612 9.73828 14.5848 7.22171 10.6936 7.22171H10.5838V5.27609C10.5838 4.71832 10.1666 4.27473 9.59562 4.27473C9.23548 4.27473 8.97196 4.41967 8.5723 4.77981L3.79389 9.21125C3.54794 9.43963 3.44254 9.73389 3.44254 9.99741C3.44254 10.2565 3.55233 10.5596 3.79389 10.788L8.5723 15.2458C8.93244 15.5751 9.22669 15.7245 9.60001 15.7245ZM9.1696 13.7745C9.13446 13.7745 9.10372 13.7613 9.06859 13.7261L5.23444 10.1028C5.18613 10.0633 5.16856 10.0325 5.16856 9.99741C5.16856 9.96227 5.18613 9.93592 5.23444 9.88761L9.06859 6.24231C9.09494 6.22036 9.13446 6.20279 9.16082 6.20279C9.2223 6.20279 9.26622 6.24231 9.26622 6.3038V8.39436C9.26622 8.53051 9.32332 8.59199 9.45507 8.59199H10.171C13.6801 8.59199 15.1953 10.7001 15.2656 13.5856C15.2656 13.6251 15.2524 13.6471 15.2261 13.6471C15.2041 13.6471 15.1865 13.6295 15.1734 13.5944C14.4487 12.1055 12.7754 11.416 10.171 11.416H9.45507C9.32332 11.416 9.26622 11.4731 9.26622 11.6048V13.6734C9.26622 13.7305 9.2223 13.7745 9.1696 13.7745Z" fill="currentColor"/>
</svg>
