<svg width="20" height="20" viewBox="0 0 20 20" fill="currentColor" xmlns="http://www.w3.org/2000/svg">
<path d="M5.06307 14.9526C5.45135 15.336 6.00183 15.3556 6.45402 14.9182L12.4798 8.8924L13.4628 7.82093L13.3645 9.94421V12.5049C13.3645 13.0652 13.7675 13.5027 14.2935 13.5027C14.8194 13.5027 15.247 13.0554 15.247 12.5V5.77137C15.247 5.16683 14.8439 4.75888 14.2246 4.75888H7.50091C6.92094 4.75888 6.49825 5.18649 6.49825 5.71239C6.49825 6.22847 6.9406 6.6315 7.49108 6.6315H9.97808L12.1653 6.54794L11.1036 7.52112L5.0729 13.5469C4.60597 14.0335 4.68953 14.5889 5.06307 14.9526Z" fill="currentColor"/>
</svg>
