<svg width="20" height="20" viewBox="0 0 20 20" fill="currentColor" xmlns="http://www.w3.org/2000/svg">
<path d="M8.80977 15.4062C9.38151 15.4062 9.77581 15.0119 9.77581 14.4846C9.77581 14.1938 9.64766 13.9572 9.4653 13.7847L7.95709 12.2765L6.47352 10.9013L7.93737 10.9802H15.5474C16.1586 10.9802 16.5627 10.581 16.5627 10.0043C16.5627 9.41776 16.1586 9.02839 15.5474 9.02839H7.93737L6.47352 9.10725L7.95709 7.73212L9.4653 6.21405C9.64766 6.04155 9.77581 5.80989 9.77581 5.51417C9.77581 4.99172 9.38151 4.59248 8.80977 4.59248C8.57319 4.59248 8.33168 4.69106 8.12467 4.903L3.73805 9.27976C3.55568 9.46212 3.44232 9.73813 3.44232 10.0043C3.44232 10.2655 3.55568 10.5415 3.73805 10.7239L8.1296 15.1056C8.33168 15.3077 8.57319 15.4062 8.80977 15.4062Z" fill="currentColor"/>
</svg>
