<svg width="20" height="20" viewBox="0 0 20 20" fill="currentColor" xmlns="http://www.w3.org/2000/svg">
<path d="M3.52155 10.0148C3.52155 14.0272 6.29102 16.558 10.2493 16.558C11.2491 16.558 12.0146 16.4544 12.4964 16.2878C12.8837 16.1482 13.0323 15.9365 13.0323 15.6348C13.0323 15.3151 12.8252 15.0899 12.4334 15.0899C12.3253 15.0899 12.2127 15.0989 12.0776 15.126C11.5688 15.2295 11.1049 15.3106 10.461 15.3106C7.11511 15.3106 4.91754 13.3157 4.91754 10.0508C4.91754 6.86707 7.02954 4.68301 10.1458 4.68301C12.9963 4.68301 15.1308 6.47078 15.1308 9.49244C15.1308 11.055 14.622 12.1088 13.8024 12.1088C13.262 12.1088 12.9513 11.744 12.9513 11.1226V7.56957C12.9513 7.07421 12.6811 6.79051 12.1992 6.79051C11.7264 6.79051 11.4517 7.07421 11.4517 7.56957V7.95684H11.3391C11.0329 7.21832 10.3169 6.79051 9.42975 6.79051C7.86714 6.79051 6.79538 8.10095 6.79538 10.0328C6.79538 12.0097 7.88966 13.3652 9.52432 13.3652C10.4475 13.3652 11.1049 12.8969 11.4427 12.0728H11.5508C11.7399 12.8788 12.4739 13.3517 13.4691 13.3517C15.3425 13.3517 16.4818 11.744 16.4818 9.34383C16.4818 5.7908 13.8699 3.44012 10.1593 3.44012C6.24599 3.44012 3.52155 6.08801 3.52155 10.0148ZM9.89809 12.0097C9.01996 12.0097 8.47507 11.2712 8.47507 10.0688C8.47507 8.87099 9.02447 8.12346 9.90709 8.12346C10.7897 8.12346 11.3436 8.86199 11.3436 10.0508C11.3436 11.2577 10.7852 12.0097 9.89809 12.0097Z" fill="currentColor"/>
</svg>
