<?xml version="1.0" encoding="UTF-8"?>
<svg xmlns="http://www.w3.org/2000/svg" viewBox="0 0 25.484375 29.0390625" width="25.484375" height="29.0390625" fill="currentColor">
  <path d="M4.8237 29.0406H20.8937C23.7937 29.0406 25.4837 27.3406 25.4837 24.2406V10.1306C25.4837 7.0406 23.7737 5.3306 20.6537 5.3306H18.8537C18.5437 2.2306 16.0637 0.0006 12.7437 0.0006C9.4337 0.0006 6.9437 2.2306 6.6337 5.3306H4.8237C1.7137 5.3306 0.0037 7.0306 0.0037 10.1306V24.2406C0.0037 27.3406 1.7137 29.0406 4.8237 29.0406ZM12.7437 2.9306C14.2037 2.9306 15.2837 3.9006 15.5437 5.3306H9.9537C10.2137 3.9006 11.2837 2.9306 12.7437 2.9306ZM5.2137 25.5106C4.1137 25.5106 3.5237 24.9806 3.5237 23.8206V10.5706C3.5237 9.4106 4.1137 8.8606 5.2137 8.8606H20.2737C21.3737 8.8606 21.9537 9.4106 21.9537 10.5706V23.8206C21.9537 24.9806 21.3737 25.5106 20.5037 25.5106Z"/>
</svg>
