<svg width="20" height="20" viewBox="0 0 20 20" fill="currentColor" xmlns="http://www.w3.org/2000/svg">
<path d="M8.34426 17.8628L15.137 9.31351C15.269 9.14598 15.3401 8.98352 15.3401 8.80583C15.3401 8.48599 15.0913 8.24738 14.7563 8.24738H10.7202L12.7509 2.73398C13.0555 1.89123 12.1874 1.45462 11.6493 2.13492L4.86157 10.6842C4.72958 10.8518 4.6585 11.0193 4.6585 11.1919C4.6585 11.5168 4.90219 11.7453 5.24233 11.7453H9.28347L7.24767 17.2638C6.94306 18.1065 7.81119 18.5482 8.34426 17.8628ZM11.2533 10.4761H6.88214L10.573 5.61252L8.74532 9.52166H13.1215L9.42562 14.3852L11.2533 10.4761Z" fill="currentColor"/>
</svg>
