<?xml version="1.0" encoding="UTF-8"?>
<svg xmlns="http://www.w3.org/2000/svg" viewBox="0 0 41.48046875 32.333984375" width="41.48046875" height="32.333984375" fill="currentColor">
  <path d="M21.9937 27.0476H25.7737L30.3237 30.9376C31.3337 31.8176 32.2837 32.3376 33.1237 32.3376C34.4537 32.3376 35.2737 31.3776 35.2737 29.9376V27.0476H35.4737C39.2637 27.0476 41.4837 24.8376 41.4837 21.1676V12.7976C41.4837 8.9776 39.1537 6.6876 35.2337 6.6876H30.5437C30.5437 2.5476 28.0237 -0.0024 23.8437 -0.0024H6.7037C2.5137 -0.0024 0.0037 2.5476 0.0037 6.6976V17.5276C0.0037 21.6876 2.6837 24.2376 6.4637 24.2376H6.8537V27.2776C6.8537 28.7676 7.6737 29.6776 9.0237 29.6776C9.9537 29.6776 10.6937 29.2876 11.8437 28.2876L16.4437 24.2376C17.4137 26.0276 19.3337 27.0476 21.9937 27.0476ZM9.8737 21.9876C9.8737 21.0576 9.4337 20.7176 8.6037 20.7176H6.9137C4.6337 20.7176 3.5237 19.5676 3.5237 17.3176V6.9076C3.5237 4.6576 4.6337 3.5276 6.9137 3.5276H23.6237C25.8137 3.5276 26.9337 4.5776 27.0137 6.6876H21.9937C18.0737 6.6876 15.7537 8.9776 15.7537 12.7976V20.7276C15.0937 20.7776 14.7137 20.9976 14.1537 21.5576L9.8737 25.7676ZM22.5037 23.6676C20.3137 23.6676 19.1937 22.5076 19.1937 20.3976L19.2137 13.3276C19.2137 11.2276 20.3137 10.0476 22.5037 10.0476H34.7237C36.9137 10.0476 38.0337 11.2276 38.0337 13.3276V20.3976C38.0337 22.5076 36.9137 23.6676 34.7237 23.6676H33.6237C32.8237 23.6676 32.2637 24.1676 32.2637 25.0776V28.5876L28.0037 24.6476C27.3437 24.0176 26.5537 23.6676 25.7737 23.6676Z"/>
</svg>
