<?xml version="1.0" encoding="UTF-8"?>
<svg xmlns="http://www.w3.org/2000/svg" viewBox="0 0 31.5 29.681640625" width="31.5" height="29.681640625" fill="currentColor">
  <path d="M9.5037 29.6795C10.4337 29.6795 11.1737 29.2895 12.3137 28.2895L16.9437 24.2395H24.8037C28.9837 24.2395 31.5037 21.6795 31.5037 17.5395V6.6995C31.5037 2.5395 28.9837 -0.0005 24.8037 -0.0005H6.7037C2.5137 -0.0005 0.0037 2.5395 0.0037 6.6995V17.5395C0.0037 21.6795 2.6837 24.2395 6.4637 24.2395H7.3437V27.2795C7.3437 28.7695 8.1437 29.6795 9.5037 29.6795ZM10.3537 25.7695V21.9795C10.3537 21.0595 9.9137 20.7095 9.0737 20.7095H6.9137C4.6337 20.7095 3.5237 19.5595 3.5237 17.3195V6.8995C3.5237 4.6595 4.6337 3.5295 6.9137 3.5295H24.5837C26.8537 3.5295 27.9737 4.6595 27.9737 6.8995V17.3195C27.9737 19.5595 26.8537 20.7095 24.5837 20.7095H16.6837C15.7337 20.7095 15.3137 20.8895 14.6337 21.5695Z"/>
</svg>
