<svg width="20" height="20" viewBox="0 0 20 20" fill="currentColor" xmlns="http://www.w3.org/2000/svg">
<path d="M10.4956 14.3018H11.9901L13.789 15.8398C14.1883 16.1877 14.5639 16.3933 14.896 16.3933C15.4219 16.3933 15.7461 16.0138 15.7461 15.4444V14.3018H15.8251C17.3236 14.3018 18.2013 13.4281 18.2013 11.9771V8.66784C18.2013 7.15754 17.2801 6.25215 15.7302 6.25215H13.876C13.876 4.61533 12.8796 3.60715 11.227 3.60715H4.45042C2.79383 3.60715 1.80146 4.61533 1.80146 6.25611V10.5379C1.80146 12.1827 2.86104 13.1908 4.35553 13.1908H4.50972V14.3928C4.50972 14.9819 4.83392 15.3416 5.36767 15.3416C5.73536 15.3416 6.02793 15.1874 6.48261 14.7921L8.30129 13.1908C8.6848 13.8986 9.4439 14.3018 10.4956 14.3018ZM5.70373 12.3013C5.70373 11.9336 5.52977 11.7992 5.20162 11.7992H4.53345C3.63201 11.7992 3.19315 11.3445 3.19315 10.4549V6.33913C3.19315 5.44956 3.63201 5.00279 4.53345 5.00279H11.14C12.0059 5.00279 12.4487 5.41793 12.4803 6.25215H10.4956C8.94574 6.25215 8.02849 7.15754 8.02849 8.66784V11.8031C7.76755 11.8229 7.61731 11.9099 7.3959 12.1313L5.70373 13.7958V12.3013ZM10.6972 12.9655C9.83136 12.9655 9.38855 12.5069 9.38855 11.6726L9.39646 8.87739C9.39646 8.04712 9.83136 7.58059 10.6972 7.58059H15.5286C16.3945 7.58059 16.8373 8.04712 16.8373 8.87739V11.6726C16.8373 12.5069 16.3945 12.9655 15.5286 12.9655H15.0937C14.7774 12.9655 14.556 13.1632 14.556 13.523V14.9107L12.8717 13.3529C12.6108 13.1039 12.2985 12.9655 11.9901 12.9655H10.6972Z" fill="currentColor"/>
</svg>
