<svg width="20" height="20" viewBox="0 0 20 20" fill="currentColor" xmlns="http://www.w3.org/2000/svg">
<path d="M7.54804 13.4429H15.6335C16.0571 13.4429 16.4349 13.1315 16.4349 12.6568C16.4349 12.1923 16.0571 11.886 15.6335 11.886H7.76754C7.52763 11.886 7.3847 11.7176 7.34897 11.4674L7.24178 10.763H15.756C16.9045 10.763 17.5323 10.079 17.6957 8.92032L18.1653 5.73004C18.1806 5.63306 18.201 5.50034 18.201 5.40336C18.201 4.88271 17.859 4.52029 17.221 4.52029H6.35871L6.28214 3.96901C6.17495 3.25949 5.84827 2.89708 4.9703 2.89708H2.6733C2.2037 2.89708 1.80045 3.29523 1.80045 3.77504C1.80045 4.25486 2.2037 4.65301 2.6733 4.65301H4.58237L5.60325 11.6104C5.7768 12.7486 6.39955 13.4429 7.54804 13.4429ZM16.3379 6.07715L15.9755 8.79271C15.9295 9.04283 15.807 9.20617 15.562 9.20617H7.02739L6.5782 6.07715H16.3379ZM8.14526 17.1027C8.89562 17.1027 9.49794 16.5055 9.49794 15.7501C9.49794 15.0048 8.89562 14.4025 8.14526 14.4025C7.40512 14.4025 6.79769 15.0048 6.79769 15.7501C6.79769 16.5055 7.40512 17.1027 8.14526 17.1027ZM14.4748 17.1027C15.22 17.1027 15.8223 16.5055 15.8223 15.7501C15.8223 15.0048 15.22 14.4025 14.4748 14.4025C13.7244 14.4025 13.117 15.0048 13.117 15.7501C13.117 16.5055 13.7244 17.1027 14.4748 17.1027Z" fill="currentColor"/>
</svg>
