<svg width="20" height="20" viewBox="0 0 20 20" fill="currentColor" xmlns="http://www.w3.org/2000/svg">
<path d="M9.99784 16.5617C13.6237 16.5617 16.559 13.622 16.559 10.0006C16.559 6.37927 13.6237 3.43948 9.99784 3.43948C6.3765 3.43948 3.44125 6.37927 3.44125 10.0006C3.44125 13.622 6.3765 16.5617 9.99784 16.5617ZM10.5295 9.21001V5.09794C11.9925 5.25243 13.2602 6.04758 14.0554 7.19714L10.5295 9.21001ZM9.99784 14.926C7.2807 14.926 5.07245 12.7223 5.07245 10.0006C5.07245 7.52883 6.88994 5.48416 9.26176 5.12975V10.2096C9.26176 10.4368 9.32991 10.5595 9.46623 10.6913L12.874 13.9991C12.0698 14.5852 11.0747 14.926 9.99784 14.926ZM11.0429 10.3868L14.6415 8.32853C14.8278 8.85105 14.9278 9.41448 14.9278 10.0006C14.9278 11.182 14.5143 12.2634 13.8282 13.1131L11.0429 10.3868Z" fill="currentColor"/>
</svg>
