<?xml version="1.0" encoding="UTF-8"?>
<svg xmlns="http://www.w3.org/2000/svg" viewBox="0 0 33.701171875 28.396484375" width="33.701171875" height="28.396484375" fill="currentColor">
  <path d="M16.8427 28.3989C26.5627 28.3989 33.7027 22.4089 33.7027 14.1889C33.7027 5.9189 26.5227 -0.0011 16.8427 -0.0011C7.1627 -0.0011 0.0027 5.9189 0.0027 14.1889C0.0027 17.3789 0.9427 19.5689 2.0927 21.3389C2.7227 22.3489 3.0727 23.1189 3.0727 23.9489C3.0727 24.8189 2.8427 25.3989 2.1227 26.0889C1.0827 26.9989 1.6527 28.3989 3.1027 28.3989C4.9727 28.3989 6.9627 27.8089 8.4627 26.7689C10.8827 27.8389 13.7027 28.3989 16.8427 28.3989ZM16.8427 24.9389C14.2827 24.9389 12.0027 24.4689 10.0627 23.6089C9.0527 23.1589 8.2727 23.2389 7.3927 23.6789C7.0527 23.8889 6.6627 24.0589 6.1927 24.1989C6.3427 23.8189 6.4427 23.5189 6.4427 23.1189C6.4427 22.0689 5.9427 20.9089 5.0827 19.5889C4.0227 18.0789 3.4427 16.2189 3.4427 14.1889C3.4427 7.9889 8.9427 3.4489 16.8427 3.4489C24.7627 3.4489 30.2527 7.9989 30.2527 14.1889C30.2527 20.3689 24.7627 24.9389 16.8427 24.9389ZM15.4127 20.6989C15.9727 20.6989 16.4727 20.4089 16.8027 19.9189L22.6827 10.8589C22.8827 10.5289 23.0327 10.1689 23.0327 9.8389C23.0327 9.0489 22.3227 8.4889 21.5627 8.4889C21.0527 8.4889 20.6327 8.7589 20.2927 9.3089L15.3827 17.2089L13.0927 14.4089C12.7527 13.9889 12.4027 13.8089 11.9327 13.8089C11.1427 13.8089 10.5027 14.4389 10.5027 15.2289C10.5027 15.6089 10.6227 15.9289 10.9227 16.2989L13.9727 19.9489C14.3827 20.4389 14.8327 20.6989 15.4127 20.6989Z"/>
</svg>
