<svg width="20" height="20" viewBox="0 0 20 20" fill="currentColor" xmlns="http://www.w3.org/2000/svg">
<path d="M5.38471 9.0753C5.22582 9.23806 5.14832 9.43183 5.14832 9.6566C5.14832 10.1294 5.52422 10.5131 5.98927 10.5131C6.22179 10.5131 6.43881 10.4123 6.6132 10.2418L10.0041 6.74234L13.3912 10.2418C13.5656 10.4162 13.7826 10.5131 14.0112 10.5131C14.4763 10.5131 14.8522 10.1294 14.8522 9.6566C14.8522 9.42408 14.7747 9.23419 14.6158 9.0753L10.6939 5.06427C10.4808 4.85116 10.2638 4.75037 10.0003 4.75037C9.74061 4.75037 9.52359 4.84725 9.30657 5.06427L5.38471 9.0753ZM5.38471 13.8071C5.22582 13.9699 5.14832 14.1636 5.14832 14.3962C5.14832 14.8651 5.52422 15.2487 5.98927 15.2487C6.22179 15.2487 6.43881 15.148 6.6132 14.9736L10.0041 11.4819L13.3912 14.9736C13.5656 15.1519 13.7826 15.2487 14.0112 15.2487C14.4763 15.2487 14.8522 14.8651 14.8522 14.3962C14.8522 14.1636 14.7747 13.9699 14.6158 13.8071L10.6939 9.79995C10.4886 9.59072 10.2638 9.48996 10.0003 9.48221C9.74061 9.48221 9.52359 9.58297 9.30657 9.79995L5.38471 13.8071Z" fill="currentColor"/>
</svg>
