<svg width="20" height="20" viewBox="0 0 20 20" fill="currentColor" xmlns="http://www.w3.org/2000/svg">
<path d="M13.112 10.0007C13.112 9.71573 13.0072 9.47687 12.7726 9.25478L8.44374 5.00976C8.27192 4.83795 8.05821 4.75414 7.80677 4.75414C7.29972 4.75414 6.88905 5.16481 6.88905 5.66348C6.88905 5.91491 6.99381 6.14959 7.18238 6.33397L10.9581 9.9965L7.18238 13.6632C6.99381 13.8518 6.88905 14.0781 6.88905 14.3379C6.88905 14.8408 7.29972 15.2472 7.80677 15.2472C8.05821 15.2472 8.27192 15.1634 8.44374 14.9916L12.7726 10.7466C13.0156 10.5161 13.112 10.2815 13.112 10.0007Z" fill="currentColor"/>
</svg>
