<svg width="20" height="20" viewBox="0 0 20 20" fill="currentColor" xmlns="http://www.w3.org/2000/svg">
<path d="M10.0002 13.1139C10.2851 13.1139 10.5282 13.0049 10.7503 12.7744L14.9911 8.43721C15.1629 8.2654 15.2467 8.06006 15.2467 7.80863C15.2467 7.29738 14.8402 6.88671 14.3374 6.88671C14.0901 6.88671 13.8555 6.98728 13.6669 7.18005L10.0044 10.9599L6.33764 7.18005C6.14906 6.98728 5.91439 6.88671 5.66296 6.88671C5.16009 6.88671 4.75361 7.29738 4.75361 7.80863C4.75361 8.05587 4.83742 8.26121 5.00924 8.43721L9.25006 12.7744C9.48473 13.0091 9.7194 13.1139 10.0002 13.1139Z" fill="currentColor"/>
</svg>
