<svg width="20" height="20" viewBox="0 0 20 20" fill="currentColor" xmlns="http://www.w3.org/2000/svg">
<path d="M5.38465 6.18816L9.30651 10.1992C9.52353 10.4123 9.74055 10.5131 10.0002 10.5131C10.2637 10.5053 10.4885 10.4123 10.6939 10.1992L14.6157 6.18816C14.7746 6.02152 14.8521 5.83159 14.8521 5.59911C14.8521 5.13403 14.4762 4.75037 14.0112 4.75037C13.7825 4.75037 13.5655 4.84725 13.3911 5.02164L10.0041 8.51337L6.61314 5.02164C6.43875 4.84725 6.22173 4.75037 5.98921 4.75037C5.52416 4.75037 5.14825 5.13403 5.14825 5.59911C5.14825 5.83159 5.22576 6.02152 5.38465 6.18816ZM5.38465 10.9238L9.30651 14.931C9.52353 15.148 9.74055 15.2487 10.0002 15.2487C10.2637 15.241 10.4807 15.1402 10.6939 14.931L14.6157 10.9238C14.7746 10.7611 14.8521 10.5712 14.8521 10.3348C14.8521 9.86587 14.4762 9.48221 14.0112 9.48221C13.7825 9.48221 13.5655 9.5791 13.3911 9.75736L10.0041 13.2491L6.61314 9.75736C6.43875 9.58297 6.22173 9.48221 5.98921 9.48221C5.52416 9.48221 5.14825 9.86587 5.14825 10.3348C5.14825 10.5634 5.22576 10.7611 5.38465 10.9238Z" fill="currentColor"/>
</svg>
