<?xml version="1.0" encoding="UTF-8"?>
<svg xmlns="http://www.w3.org/2000/svg" viewBox="0 0 27.958984375 27.822265625" width="27.958984375" height="27.822265625" fill="currentColor">
  <path d="M10.9737 4.3291H23.6437V16.9291C23.6437 18.3591 24.6637 19.1691 25.8037 19.1691C26.9237 19.1691 27.9637 18.3591 27.9637 16.9291V2.5391C27.9637 1.0691 26.8937 -0.0009 25.4137 -0.0009H10.9737C9.5337 -0.0009 8.7337 1.0291 8.7337 2.1691C8.7337 3.2791 9.5337 4.3291 10.9737 4.3291ZM2.2437 12.9991H14.9037V25.5891C14.9037 27.0291 15.9237 27.8191 17.0737 27.8191C18.1837 27.8191 19.2337 27.0291 19.2337 25.5891V11.2091C19.2337 9.7391 18.1737 8.6691 16.6837 8.6691H2.2437C0.8037 8.6691 0.0037 9.6891 0.0037 10.8291C0.0037 11.9491 0.8037 12.9991 2.2437 12.9991Z"/>
</svg>
