<svg width="16" height="16" viewBox="0 0 16 16" fill="currentColor" xmlns="http://www.w3.org/2000/svg">
<path d="M3.41481 11.3266H4.72079C5.51912 13.128 7.32458 14.3848 9.4207 14.3848C12.2578 14.3848 14.5587 12.084 14.5587 9.24687C14.5587 7.01973 13.1381 5.11602 11.1443 4.41185V3.57667C11.1443 2.31163 10.4442 1.61156 9.17097 1.61156H3.41481C2.14157 1.61156 1.4415 2.30753 1.4415 3.57667V9.3615C1.4415 10.6306 2.14157 11.3266 3.41481 11.3266ZM3.57447 9.88144C3.12413 9.88144 2.88259 9.65627 2.88259 9.18136V3.75681C2.88259 3.28191 3.12413 3.06493 3.57447 3.06493H9.0113C9.46164 3.06493 9.70319 3.28191 9.70319 3.75681V4.12118C9.61312 4.11708 9.51487 4.11708 9.4207 4.11708C6.58356 4.11708 4.29092 6.41791 4.29092 9.24687C4.29092 9.45975 4.29911 9.67264 4.32367 9.88144H3.57447ZM9.4207 12.9315C7.3737 12.9315 5.74429 11.298 5.74429 9.24687C5.74429 7.20396 7.3737 5.57045 9.4207 5.57045C11.4636 5.57045 13.1053 7.20396 13.1053 9.24687C13.1053 11.298 11.4636 12.9315 9.4207 12.9315Z" fill="currentColor"/>
</svg>
