<?xml version="1.0" encoding="UTF-8"?>
<svg xmlns="http://www.w3.org/2000/svg" viewBox="0 0 32.046875 31.19921875" width="32.046875" height="31.19921875" fill="currentColor">
  <path d="M4.8237 23.7252H8.0137C9.9637 28.1252 14.3737 31.1952 19.4937 31.1952C26.4237 31.1952 32.0437 25.5752 32.0437 18.6452C32.0437 13.2052 28.5737 8.5552 23.7037 6.8352V4.7952C23.7037 1.7052 21.9937 -0.0048 18.8837 -0.0048H4.8237C1.7137 -0.0048 0.0037 1.6952 0.0037 4.7952V18.9252C0.0037 22.0252 1.7137 23.7252 4.8237 23.7252ZM5.2137 20.1952C4.1137 20.1952 3.5237 19.6452 3.5237 18.4852V5.2352C3.5237 4.0752 4.1137 3.5452 5.2137 3.5452H18.4937C19.5937 3.5452 20.1837 4.0752 20.1837 5.2352V6.1252C19.9637 6.1152 19.7237 6.1152 19.4937 6.1152C12.5637 6.1152 6.9637 11.7352 6.9637 18.6452C6.9637 19.1652 6.9837 19.6852 7.0437 20.1952ZM19.4937 27.6452C14.4937 27.6452 10.5137 23.6552 10.5137 18.6452C10.5137 13.6552 14.4937 9.6652 19.4937 9.6652C24.4837 9.6652 28.4937 13.6552 28.4937 18.6452C28.4937 23.6552 24.4837 27.6452 19.4937 27.6452Z"/>
</svg>
