<svg width="20" height="20" viewBox="0 0 20 20" fill="currentColor" xmlns="http://www.w3.org/2000/svg">
<path d="M13.528 9.50055C15.2015 9.50055 16.5603 8.14677 16.5603 6.46828C16.5603 4.79479 15.2015 3.44101 13.528 3.44101C11.8495 3.44101 10.4957 4.79479 10.4957 6.46828C10.4957 8.14677 11.8495 9.50055 13.528 9.50055ZM6.47434 9.50554C8.14784 9.50554 9.50661 8.14677 9.50661 6.47328C9.50661 4.79979 8.14784 3.44101 6.47434 3.44101C4.80085 3.44101 3.44208 4.79979 3.44208 6.47328C3.44208 8.14677 4.80085 9.50554 6.47434 9.50554ZM13.528 7.95694C12.7087 7.95694 12.0393 7.29254 12.0393 6.46828C12.0393 5.64902 12.7087 4.98462 13.528 4.98462C14.3472 4.98462 15.0116 5.64902 15.0116 6.46828C15.0116 7.29254 14.3472 7.95694 13.528 7.95694ZM6.47434 7.95694C5.65508 7.95694 4.99068 7.29254 4.99068 6.47328C4.99068 5.65402 5.65508 4.99461 6.47434 4.99461C7.29361 4.99461 7.95301 5.65402 7.95301 6.47328C7.95301 7.29254 7.29361 7.95694 6.47434 7.95694ZM13.528 16.5542C15.2015 16.5542 16.5603 15.1954 16.5603 13.5219C16.5603 11.8484 15.2015 10.4897 13.528 10.4897C11.8495 10.4897 10.4957 11.8484 10.4957 13.5219C10.4957 15.1954 11.8495 16.5542 13.528 16.5542ZM6.47434 16.5542C8.14784 16.5542 9.50661 15.1954 9.50661 13.5219C9.50661 11.8484 8.14784 10.4897 6.47434 10.4897C4.80085 10.4897 3.44208 11.8484 3.44208 13.5219C3.44208 15.1954 4.80085 16.5542 6.47434 16.5542ZM13.528 15.0056C12.7087 15.0056 12.0393 14.3412 12.0393 13.5219C12.0393 12.7027 12.7087 12.0333 13.528 12.0333C14.3472 12.0333 15.0116 12.7027 15.0116 13.5219C15.0116 14.3412 14.3472 15.0056 13.528 15.0056ZM6.47434 15.0056C5.65508 15.0056 4.99068 14.3412 4.99068 13.5219C4.99068 12.7027 5.65508 12.0433 6.47434 12.0433C7.29361 12.0433 7.95301 12.7027 7.95301 13.5219C7.95301 14.3412 7.29361 15.0056 6.47434 15.0056Z" fill="currentColor"/>
</svg>
