<svg width="20" height="20" viewBox="0 0 20 20" fill="currentColor" xmlns="http://www.w3.org/2000/svg">
<path d="M10.0012 3.52277C10.4614 3.52277 10.8421 3.14773 10.8421 2.68178C10.8421 2.21583 10.4614 1.83511 10.0012 1.83511C9.53521 1.83511 9.15449 2.21583 9.15449 2.68178C9.15449 3.14773 9.53521 3.52277 10.0012 3.52277ZM12.2627 3.88644C12.723 3.88644 13.1037 3.5114 13.1037 3.04545C13.1037 2.5795 12.723 2.21015 12.2627 2.21015C11.7968 2.21015 11.4161 2.5795 11.4161 3.04545C11.4161 3.5114 11.7968 3.88644 12.2627 3.88644ZM7.73391 3.88644C8.19986 3.88644 8.58058 3.5114 8.58058 3.04545C8.58058 2.5795 8.19986 2.21015 7.73391 2.21015C7.27932 2.21015 6.8986 2.5795 6.8986 3.04545C6.8986 3.5114 7.27932 3.88644 7.73391 3.88644ZM14.3141 4.92631C14.7743 4.92631 15.155 4.54559 15.155 4.07964C15.155 3.61937 14.7743 3.23865 14.3141 3.23865C13.8481 3.23865 13.4674 3.61937 13.4674 4.07964C13.4674 4.54559 13.8481 4.92631 14.3141 4.92631ZM5.68258 4.92631C6.14853 4.92631 6.52925 4.54559 6.52925 4.07964C6.52925 3.61937 6.14853 3.23865 5.68258 3.23865C5.228 3.23865 4.84728 3.61937 4.84728 4.07964C4.84728 4.54559 5.228 4.92631 5.68258 4.92631ZM15.9392 6.55146C16.3995 6.55146 16.7802 6.17074 16.7802 5.70479C16.7802 5.24452 16.3995 4.8638 15.9392 4.8638C15.4733 4.8638 15.0925 5.24452 15.0925 5.70479C15.0925 6.17074 15.4733 6.55146 15.9392 6.55146ZM4.06312 6.55146C4.52907 6.55146 4.90978 6.17074 4.90978 5.70479C4.90978 5.24452 4.52907 4.8638 4.06312 4.8638C3.60285 4.8638 3.22213 5.24452 3.22213 5.70479C3.22213 6.17074 3.60285 6.55146 4.06312 6.55146ZM16.9734 8.58005C17.4337 8.58005 17.8144 8.19933 17.8144 7.73338C17.8144 7.27311 17.4337 6.8924 16.9734 6.8924C16.5074 6.8924 16.1267 7.27311 16.1267 7.73338C16.1267 8.19933 16.5074 8.58005 16.9734 8.58005ZM3.03461 8.58005C3.49488 8.58005 3.8756 8.19933 3.8756 7.73338C3.8756 7.27311 3.49488 6.8924 3.03461 6.8924C2.56866 6.8924 2.18794 7.27311 2.18794 7.73338C2.18794 8.19933 2.56866 8.58005 3.03461 8.58005ZM17.3598 10.8416C17.8201 10.8416 18.2008 10.4666 18.2008 10.0006C18.2008 9.53468 17.8201 9.15965 17.3598 9.15965C16.8938 9.15965 16.5131 9.53468 16.5131 10.0006C16.5131 10.4666 16.8938 10.8416 17.3598 10.8416ZM2.63685 10.8416C3.1028 10.8416 3.48352 10.4666 3.48352 10.0006C3.48352 9.53468 3.1028 9.15965 2.63685 9.15965C2.18226 9.15965 1.80154 9.53468 1.80154 10.0006C1.80154 10.4666 2.18226 10.8416 2.63685 10.8416ZM16.9734 13.1089C17.4337 13.1089 17.8144 12.7338 17.8144 12.2679C17.8144 11.8019 17.4337 11.4212 16.9734 11.4212C16.5074 11.4212 16.1267 11.8019 16.1267 12.2679C16.1267 12.7338 16.5074 13.1089 16.9734 13.1089ZM3.03461 13.1089C3.49488 13.1089 3.8756 12.7338 3.8756 12.2679C3.8756 11.8019 3.49488 11.4212 3.03461 11.4212C2.56866 11.4212 2.18794 11.8019 2.18794 12.2679C2.18794 12.7338 2.56866 13.1089 3.03461 13.1089ZM15.9392 15.1375C16.3995 15.1375 16.7802 14.7568 16.7802 14.2965C16.7802 13.8305 16.3995 13.4498 15.9392 13.4498C15.4733 13.4498 15.0925 13.8305 15.0925 14.2965C15.0925 14.7568 15.4733 15.1375 15.9392 15.1375ZM4.06312 15.1375C4.52907 15.1375 4.90978 14.7568 4.90978 14.2965C4.90978 13.8305 4.52907 13.4498 4.06312 13.4498C3.60285 13.4498 3.22213 13.8305 3.22213 14.2965C3.22213 14.7568 3.60285 15.1375 4.06312 15.1375ZM14.3141 16.7569C14.7743 16.7569 15.155 16.3762 15.155 15.9216C15.155 15.4557 14.7743 15.075 14.3141 15.075C13.8481 15.075 13.4674 15.4557 13.4674 15.9216C13.4674 16.3762 13.8481 16.7569 14.3141 16.7569ZM5.68258 16.7569C6.14853 16.7569 6.52925 16.3762 6.52925 15.9216C6.52925 15.4557 6.14853 15.075 5.68258 15.075C5.228 15.075 4.84728 15.4557 4.84728 15.9216C4.84728 16.3762 5.228 16.7569 5.68258 16.7569ZM12.2627 17.7911C12.723 17.7911 13.1037 17.4218 13.1037 16.9558C13.1037 16.4842 12.723 16.1148 12.2627 16.1148C11.7968 16.1148 11.4161 16.4842 11.4161 16.9558C11.4161 17.4218 11.7968 17.7911 12.2627 17.7911ZM7.73391 17.7911C8.19986 17.7911 8.58058 17.4218 8.58058 16.9558C8.58058 16.4842 8.19986 16.1148 7.73391 16.1148C7.27932 16.1148 6.8986 16.4842 6.8986 16.9558C6.8986 17.4218 7.27932 17.7911 7.73391 17.7911ZM10.0012 18.1662C10.4614 18.1662 10.8421 17.7854 10.8421 17.3195C10.8421 16.8592 10.4614 16.4785 10.0012 16.4785C9.53521 16.4785 9.15449 16.8592 9.15449 17.3195C9.15449 17.7854 9.53521 18.1662 10.0012 18.1662Z" fill="currentColor"/>
</svg>
