<svg width="20" height="20" viewBox="0 0 20 20" fill="currentColor" xmlns="http://www.w3.org/2000/svg">
<path d="M3.61234 14.7967L9.03161 17.9328C9.64964 18.2904 10.3545 18.2904 10.9674 17.9328L16.3867 14.7967C16.9843 14.4545 17.3521 13.8313 17.3521 13.1265V6.86444C17.3521 6.16468 16.9843 5.54665 16.3867 5.20444L10.9674 2.06831C10.3545 1.71077 9.64964 1.71077 9.03161 2.06831L3.61234 5.20444C3.01474 5.54665 2.65209 6.16468 2.65209 6.86444V13.1265C2.65209 13.8313 3.01474 14.4545 3.61234 14.7967ZM9.97653 9.16801L5.12422 6.38431C5.15486 6.34856 5.17019 6.33835 5.22637 6.3077L9.63432 3.75896C9.86416 3.62616 10.1349 3.62616 10.3647 3.75896L14.7727 6.3077C14.8237 6.33835 14.8288 6.34856 14.8544 6.36899L9.97653 9.16801ZM10.8755 15.9408V10.6901L15.5848 7.99835V12.7996C15.5848 13.0652 15.452 13.295 15.2221 13.4278L11.0951 15.8182C11.0083 15.8642 10.9674 15.8949 10.8755 15.9408ZM9.11844 15.9408C9.06225 15.9102 9.04693 15.9 8.98564 15.8642L4.782 13.4278C4.55216 13.295 4.40914 13.0652 4.40914 12.7996V8.01878L9.11844 10.7105V15.9408Z" fill="currentColor"/>
</svg>
