<svg width="20" height="20" viewBox="0 0 20 20" fill="currentColor" xmlns="http://www.w3.org/2000/svg">
<path d="M6.81039 16.5592H13.1934C14.545 16.5592 15.2862 15.8137 15.2862 14.4577V9.05568C15.2862 8.127 15.1467 7.66048 14.5581 7.06316L11.6979 4.17249C11.1181 3.58825 10.6341 3.44001 9.75338 3.44001H6.81039C5.45443 3.44001 4.71759 4.18557 4.71759 5.54589V14.4577C4.71759 15.8224 5.45443 16.5592 6.81039 16.5592ZM6.99351 15.0201C6.48775 15.0201 6.25231 14.7673 6.25231 14.2877V5.71593C6.25231 5.24069 6.48775 4.97909 6.99351 4.97909H9.33482V7.90028C9.33482 8.93796 9.83186 9.42628 10.8608 9.42628H13.7471V14.2877C13.7471 14.7673 13.5161 15.0201 13.0059 15.0201H6.99351ZM10.9742 8.16188C10.7169 8.16188 10.5992 8.0398 10.5992 7.78692V5.10117L13.6294 8.16188H10.9742Z" fill="currentColor"/>
</svg>
