<svg width="20" height="20" viewBox="0 0 20 20" fill="currentColor" xmlns="http://www.w3.org/2000/svg">
<path d="M3.22791 15.9667C3.22791 17.4146 4.00972 18.2011 5.44843 18.2011H11.3236C12.7576 18.2011 13.5441 17.41 13.5441 15.9667V14.8055H14.5618C15.9959 14.8055 16.7731 14.0145 16.7731 12.5711V7.77851C16.7731 6.8533 16.5788 6.25191 16.0329 5.69678L12.9519 2.54642C12.4338 2.01904 11.8047 1.80162 10.9812 1.80162H8.68669C7.24798 1.80162 6.46617 2.59268 6.46617 4.03139V5.20179H5.44843C4.00972 5.20179 3.22791 5.99285 3.22791 7.43618V15.9667ZM12.8409 9.26349L9.51476 5.90495C9.07065 5.45622 8.66356 5.28043 8.09455 5.22029V4.21643C8.09455 3.71219 8.34436 3.43 8.88098 3.43H11.2727V6.07612C11.2727 6.94119 11.7908 7.45469 12.6559 7.45469H15.1401V12.3953C15.1401 12.8996 14.8949 13.1725 14.3583 13.1725H13.5441V11.2296C13.5441 10.3136 13.4099 9.84637 12.8409 9.26349ZM12.5171 5.90958V3.9805L14.7191 6.2149H12.8224C12.6142 6.2149 12.5171 6.11775 12.5171 5.90958ZM4.85629 15.7909V7.61198C4.85629 7.10773 5.1061 6.83479 5.64273 6.83479H7.35438V9.93427C7.35438 11.0353 7.88175 11.5441 8.9735 11.5441H11.9111V15.7909C11.9111 16.3044 11.6566 16.5681 11.12 16.5681H5.64273C5.1061 16.5681 4.85629 16.3044 4.85629 15.7909ZM9.09378 10.2118C8.82547 10.2118 8.69594 10.0869 8.69594 9.80936V7.09385L11.7769 10.2118H9.09378Z" fill="currentColor"/>
</svg>
