<svg width="20" height="20" viewBox="0 0 20 20" fill="currentColor" xmlns="http://www.w3.org/2000/svg">
<path d="M5.29286 15.9717H14.7058C15.8242 15.9717 16.5624 15.1306 16.5624 14.1196C16.5624 13.8064 16.4819 13.4843 16.3074 13.1845L11.6009 4.95719C11.2386 4.3398 10.6257 4.02663 10.0038 4.02663C9.37298 4.02663 8.7556 4.34428 8.40217 4.95719L3.69124 13.189C3.52123 13.4888 3.4407 13.8064 3.4407 14.1196C3.4407 15.1306 4.17441 15.9717 5.29286 15.9717ZM5.57471 14.4819C5.2705 14.4819 5.07365 14.2359 5.07365 13.9675C5.07365 13.8825 5.09154 13.7706 5.14075 13.6856L9.56983 5.89222C9.65931 5.73563 9.83826 5.66405 10.0038 5.66405C10.1693 5.66405 10.3349 5.73563 10.4243 5.89669L14.8579 13.6901C14.9071 13.784 14.925 13.8869 14.925 13.9675C14.925 14.2359 14.7326 14.4819 14.4239 14.4819H5.57471ZM10.0083 11.5561C10.4064 11.5561 10.6391 11.3368 10.6525 10.9208L10.7509 8.40203C10.7733 7.96807 10.4556 7.66832 10.0038 7.66832C9.53852 7.66832 9.2343 7.95912 9.25219 8.39308L9.35062 10.9253C9.35956 11.3324 9.60115 11.5561 10.0083 11.5561ZM10.0083 13.6498C10.4601 13.6498 10.818 13.359 10.818 12.9206C10.818 12.4821 10.4691 12.1869 10.0083 12.1869C9.54299 12.1869 9.18956 12.4821 9.18956 12.9206C9.18956 13.3545 9.55194 13.6498 10.0083 13.6498Z" fill="currentColor"/>
</svg>
