<svg width="20" height="20" viewBox="0 0 20 20" fill="currentColor" xmlns="http://www.w3.org/2000/svg">
<path d="M4.2855 16.767H15.8327C17.3269 16.767 18.1977 15.8859 18.1977 14.2937V7.02845C18.1977 5.43111 17.3218 4.56031 15.7141 4.56031H9.52578C8.98475 4.56031 8.65498 4.43149 8.20154 4.08626L7.85116 3.80287C7.29982 3.37519 6.92883 3.23607 6.11986 3.23607H4.15153C2.69332 3.23607 1.80191 4.11203 1.80191 5.70421V14.2937C1.80191 15.8911 2.68302 16.767 4.2855 16.767ZM4.48646 14.9481C3.91966 14.9481 3.61565 14.6647 3.61565 14.067V5.91547C3.61565 5.35898 3.95058 5.04982 4.50707 5.04982H5.63035C6.17654 5.04982 6.49085 5.16833 6.94944 5.52386L7.29982 5.81241C7.85116 6.23493 8.23246 6.37405 9.03627 6.37405H15.5183C16.08 6.37405 16.384 6.6523 16.384 7.25001V14.0773C16.384 14.6647 16.08 14.9481 15.5183 14.9481H4.48646ZM4.46069 8.47635H15.539V7.84257C15.539 7.40974 15.3328 7.21909 14.9052 7.21909H5.09447C4.67195 7.21909 4.46069 7.40974 4.46069 7.84257V8.47635Z" fill="currentColor"/>
</svg>
