<svg width="20" height="20" viewBox="0 0 20 20" fill="currentColor" xmlns="http://www.w3.org/2000/svg">
<path d="M10.0017 17.0853C10.1465 17.0853 10.2913 17.0853 10.436 17.0698L10.8083 17.7678C10.9324 18.0108 11.1651 18.1142 11.4184 18.0728C11.6821 18.0315 11.8476 17.8402 11.8889 17.5816L12.0027 16.8009C12.2922 16.7182 12.5662 16.6096 12.8351 16.4958L13.4142 17.0284C13.6107 17.2042 13.8744 17.2249 14.0915 17.1008C14.3242 16.9715 14.4173 16.7389 14.3604 16.4752L14.2053 15.6996C14.4483 15.529 14.6706 15.3377 14.8826 15.1308L15.6116 15.4307C15.865 15.5341 16.108 15.4669 16.2786 15.2653C16.4544 15.0688 16.4596 14.8206 16.32 14.588L15.9012 13.9158C16.0666 13.6676 16.2114 13.4143 16.3458 13.1557L17.1317 13.1816C17.4006 13.1868 17.6126 13.0472 17.7005 12.799C17.7987 12.5611 17.7212 12.3181 17.5092 12.1527L16.8836 11.6615C16.956 11.3771 17.0077 11.0876 17.0387 10.7929L17.7884 10.5447C18.0469 10.4671 18.202 10.2603 18.202 10.0018C18.202 9.73808 18.0469 9.53643 17.7884 9.44854L17.0387 9.21069C17.0077 8.91081 16.9611 8.62126 16.8836 8.34206L17.5092 7.86121C17.7263 7.69059 17.7832 7.4424 17.7005 7.19422C17.6126 6.94604 17.4006 6.82712 17.1266 6.82712L16.3458 6.84263C16.2114 6.57894 16.0666 6.32559 15.9012 6.07741L16.32 5.42076C16.4699 5.18809 16.4389 4.93474 16.2786 4.72792C16.108 4.52111 15.865 4.47974 15.6116 4.57798L14.8826 4.86753C14.6706 4.65554 14.4483 4.47457 14.2053 4.29878L14.3707 3.53355C14.4276 3.26469 14.3242 3.03202 14.1019 2.90276C13.8692 2.76316 13.6262 2.80452 13.4194 2.98032L12.8299 3.50253C12.5662 3.38361 12.2922 3.28537 12.0027 3.20264L11.8941 2.42191C11.8579 2.15305 11.6769 1.97725 11.4184 1.93072C11.1651 1.87384 10.9479 1.99793 10.8186 2.2306L10.436 2.92344C10.2913 2.91827 10.1465 2.9131 10.0017 2.9131C9.85177 2.9131 9.70182 2.91827 9.56222 2.92344L9.18478 2.2306C9.06069 1.99276 8.83319 1.88418 8.57984 1.93072C8.31098 1.96174 8.15586 2.15305 8.1145 2.42191L7.99041 3.20264C7.70086 3.28537 7.42683 3.38361 7.15797 3.50253L6.57888 2.97515C6.38757 2.78901 6.12388 2.77867 5.90155 2.89759C5.66888 3.03202 5.58098 3.26469 5.63269 3.52838L5.7878 4.30395C5.54479 4.47457 5.32763 4.66588 5.11047 4.86753L4.38661 4.57281C4.13326 4.46423 3.88508 4.53145 3.71445 4.73309C3.54383 4.93474 3.53866 5.17775 3.67826 5.41559L4.0919 6.08258C3.92644 6.32559 3.78684 6.58928 3.64724 6.8478L2.8665 6.82195C2.59764 6.81161 2.38565 6.95638 2.29258 7.19939C2.20469 7.4424 2.28224 7.68024 2.49423 7.85087L3.10951 8.34206C3.03713 8.62126 2.98542 8.91081 2.9544 9.21069L2.20469 9.44854C1.94616 9.53643 1.80139 9.73808 1.80139 10.0018C1.80139 10.2603 1.94616 10.4671 2.20469 10.5447L2.9544 10.7929C2.98542 11.0876 3.03713 11.3771 3.10951 11.6615L2.49423 12.1423C2.2719 12.313 2.20986 12.5611 2.29258 12.8093C2.38565 13.0575 2.59764 13.1764 2.8665 13.1764L3.65241 13.1609C3.78684 13.4246 3.92644 13.678 4.0919 13.9158L3.67309 14.5828C3.53349 14.8155 3.55417 15.0688 3.71445 15.2653C3.88508 15.4773 4.12809 15.5238 4.38144 15.4256L5.11564 15.1308C5.32763 15.3377 5.55513 15.529 5.7878 15.7048L5.62235 16.47C5.56547 16.7389 5.67405 16.9715 5.90155 17.1008C6.12388 17.2352 6.37206 17.199 6.57888 17.0232L7.16314 16.4958C7.42683 16.6199 7.7112 16.7182 7.99041 16.8009L8.10416 17.5816C8.14035 17.8402 8.31615 18.0263 8.5695 18.0728C8.83319 18.1245 9.05035 18.0056 9.17961 17.7678L9.56222 17.0698C9.70182 17.0853 9.85177 17.0853 10.0017 17.0853ZM10.0017 7.81468C9.85177 7.81468 9.71216 7.83019 9.57773 7.86121L7.93353 5.03298C8.56433 4.76412 9.26234 4.61934 10.0017 4.61934C12.7162 4.61934 14.9602 6.63582 15.3324 9.25206H12.0492C11.7441 8.41962 10.9479 7.81468 10.0017 7.81468ZM4.61928 10.0018C4.61928 8.28519 5.42587 6.74957 6.67712 5.76718L8.32649 8.59541C8.00592 8.97803 7.81461 9.46405 7.81461 10.0018C7.81461 10.5292 8.00592 11.0203 8.32649 11.3926L6.62024 14.195C5.40002 13.2023 4.61928 11.6977 4.61928 10.0018ZM10.0017 10.8135C9.54671 10.8135 9.18478 10.4464 9.18478 10.0018C9.18478 9.54677 9.54671 9.19001 10.0017 9.19001C10.4515 9.19001 10.8135 9.54677 10.8135 10.0018C10.8135 10.4464 10.4515 10.8135 10.0017 10.8135ZM10.0017 15.379C9.23648 15.379 8.51779 15.2239 7.86632 14.9447L9.56222 12.1372C9.70182 12.1734 9.85177 12.1837 10.0017 12.1837C10.9531 12.1837 11.7648 11.5684 12.0647 10.7205H15.3324C14.9757 13.3522 12.7265 15.379 10.0017 15.379Z" fill="currentColor"/>
</svg>
