<?xml version="1.0" encoding="UTF-8"?>
<svg xmlns="http://www.w3.org/2000/svg" viewBox="0 0 31.71875 31.273666412946522" width="31.71875" height="31.273666412946522" fill="currentColor">
  <path d="M15.8627 29.3402C16.1427 29.3402 16.4227 29.3402 16.7027 29.3102L17.4227 30.6602C17.6627 31.1302 18.1127 31.3302 18.6027 31.2502C19.1127 31.1702 19.4327 30.8002 19.5127 30.3002L19.7327 28.7902C20.2927 28.6302 20.8227 28.4202 21.3427 28.2002L22.4627 29.2302C22.8427 29.5702 23.3527 29.6102 23.7727 29.3702C24.2227 29.1202 24.4027 28.6702 24.2927 28.1602L23.9927 26.6602C24.4627 26.3302 24.8927 25.9602 25.3027 25.5602L26.7127 26.1402C27.2027 26.3402 27.6727 26.2102 28.0027 25.8202C28.3427 25.4402 28.3527 24.9602 28.0827 24.5102L27.2727 23.2102C27.5927 22.7302 27.8727 22.2402 28.1327 21.7402L29.6527 21.7902C30.1727 21.8002 30.5827 21.5302 30.7527 21.0502C30.9427 20.5902 30.7927 20.1202 30.3827 19.8002L29.1727 18.8502C29.3127 18.3002 29.4127 17.7402 29.4727 17.1702L30.9227 16.6902C31.4227 16.5402 31.7227 16.1402 31.7227 15.6402C31.7227 15.1302 31.4227 14.7402 30.9227 14.5702L29.4727 14.1102C29.4127 13.5302 29.3227 12.9702 29.1727 12.4302L30.3827 11.5002C30.8027 11.1702 30.9127 10.6902 30.7527 10.2102C30.5827 9.7302 30.1727 9.5002 29.6427 9.5002L28.1327 9.5302C27.8727 9.0202 27.5927 8.5302 27.2727 8.0502L28.0827 6.7802C28.3727 6.3302 28.3127 5.8402 28.0027 5.4402C27.6727 5.0402 27.2027 4.9602 26.7127 5.1502L25.3027 5.7102C24.8927 5.3002 24.4627 4.9502 23.9927 4.6102L24.3127 3.1302C24.4227 2.6102 24.2227 2.1602 23.7927 1.9102C23.3427 1.6402 22.8727 1.7202 22.4727 2.0602L21.3327 3.0702C20.8227 2.8402 20.2927 2.6502 19.7327 2.4902L19.5227 0.9802C19.4527 0.4602 19.1027 0.1202 18.6027 0.0302C18.1127 -0.0798 17.6927 0.1602 17.4427 0.6102L16.7027 1.9502C16.4227 1.9402 16.1427 1.9302 15.8627 1.9302C15.5727 1.9302 15.2827 1.9402 15.0127 1.9502L14.2827 0.6102C14.0427 0.1502 13.6027 -0.0598 13.1127 0.0302C12.5927 0.0902 12.2927 0.4602 12.2127 0.9802L11.9727 2.4902C11.4127 2.6502 10.8827 2.8402 10.3627 3.0702L9.2427 2.0502C8.8727 1.6902 8.3627 1.6702 7.9327 1.9002C7.4827 2.1602 7.3127 2.6102 7.4127 3.1202L7.7127 4.6202C7.2427 4.9502 6.8227 5.3202 6.4027 5.7102L5.0027 5.1402C4.5127 4.9302 4.0327 5.0602 3.7027 5.4502C3.3727 5.8402 3.3627 6.3102 3.6327 6.7702L4.4327 8.0602C4.1127 8.5302 3.8427 9.0402 3.5727 9.5402L2.0627 9.4902C1.5427 9.4702 1.1327 9.7502 0.9527 10.2202C0.7827 10.6902 0.9327 11.1502 1.3427 11.4802L2.5327 12.4302C2.3927 12.9702 2.2927 13.5302 2.2327 14.1102L0.7827 14.5702C0.2827 14.7402 0.0027 15.1302 0.0027 15.6402C0.0027 16.1402 0.2827 16.5402 0.7827 16.6902L2.2327 17.1702C2.2927 17.7402 2.3927 18.3002 2.5327 18.8502L1.3427 19.7802C0.9127 20.1102 0.7927 20.5902 0.9527 21.0702C1.1327 21.5502 1.5427 21.7802 2.0627 21.7802L3.5827 21.7502C3.8427 22.2602 4.1127 22.7502 4.4327 23.2102L3.6227 24.5002C3.3527 24.9502 3.3927 25.4402 3.7027 25.8202C4.0327 26.2302 4.5027 26.3202 4.9927 26.1302L6.4127 25.5602C6.8227 25.9602 7.2627 26.3302 7.7127 26.6702L7.3927 28.1502C7.2827 28.6702 7.4927 29.1202 7.9327 29.3702C8.3627 29.6302 8.8427 29.5602 9.2427 29.2202L10.3727 28.2002C10.8827 28.4402 11.4327 28.6302 11.9727 28.7902L12.1927 30.3002C12.2627 30.8002 12.6027 31.1602 13.0927 31.2502C13.6027 31.3502 14.0227 31.1202 14.2727 30.6602L15.0127 29.3102C15.2827 29.3402 15.5727 29.3402 15.8627 29.3402ZM15.8627 11.4102C15.5727 11.4102 15.3027 11.4402 15.0427 11.5002L11.8627 6.0302C13.0827 5.5102 14.4327 5.2302 15.8627 5.2302C21.1127 5.2302 25.4527 9.1302 26.1727 14.1902H19.8227C19.2327 12.5802 17.6927 11.4102 15.8627 11.4102ZM5.4527 15.6402C5.4527 12.3202 7.0127 9.3502 9.4327 7.4502L12.6227 12.9202C12.0027 13.6602 11.6327 14.6002 11.6327 15.6402C11.6327 16.6602 12.0027 17.6102 12.6227 18.3302L9.3227 23.7502C6.9627 21.8302 5.4527 18.9202 5.4527 15.6402ZM15.8627 17.2102C14.9827 17.2102 14.2827 16.5002 14.2827 15.6402C14.2827 14.7602 14.9827 14.0702 15.8627 14.0702C16.7327 14.0702 17.4327 14.7602 17.4327 15.6402C17.4327 16.5002 16.7327 17.2102 15.8627 17.2102ZM15.8627 26.0402C14.3827 26.0402 12.9927 25.7402 11.7327 25.2002L15.0127 19.7702C15.2827 19.8402 15.5727 19.8602 15.8627 19.8602C17.7027 19.8602 19.2727 18.6702 19.8527 17.0302H26.1727C25.4827 22.1202 21.1327 26.0402 15.8627 26.0402Z"/>
</svg>
