<svg width="20" height="20" viewBox="0 0 20 20" fill="currentColor" xmlns="http://www.w3.org/2000/svg">
<path d="M9.22462 18.1984C11.992 18.1984 13.9251 16.7333 14.9578 13.854L16.2194 10.3133C16.3262 10.0285 16.3669 9.75885 16.3669 9.49941C16.3669 8.61425 15.7209 7.94275 14.8154 7.94275C14.3016 7.94275 13.803 8.21745 13.5639 8.74651L13.3147 9.34679C13.3096 9.37223 13.2943 9.3824 13.2638 9.3824C13.2384 9.3824 13.2231 9.36206 13.2231 9.33153V4.35124C13.2231 3.36943 12.5516 2.71319 11.5596 2.71319C11.3307 2.71319 11.1119 2.77932 10.9288 2.89124C10.7202 2.20448 10.1759 1.79751 9.41793 1.79751C8.69556 1.79751 8.13089 2.21974 7.91723 2.87598C7.75953 2.76915 7.55604 2.71319 7.34747 2.71319C6.4267 2.71319 5.78064 3.34908 5.78064 4.25459V4.70734C5.62802 4.59542 5.42963 4.5242 5.21088 4.5242C4.2952 4.5242 3.63387 5.21605 3.63387 6.16226V12.4296C3.63387 15.9651 5.85694 18.1984 9.22462 18.1984ZM9.17375 16.6621C6.63527 16.6621 5.08879 15.0647 5.08879 12.2973V6.34031C5.08879 6.13173 5.22614 5.98929 5.42963 5.98929C5.62802 5.98929 5.77555 6.13173 5.77555 6.34031V9.97251C5.77555 10.3337 6.07569 10.6033 6.42161 10.6033C6.77771 10.6033 7.06768 10.3337 7.06768 9.97251V4.50386C7.06768 4.29528 7.21012 4.15284 7.40852 4.15284C7.612 4.15284 7.76461 4.29528 7.76461 4.50386V9.59606C7.76461 9.95725 8.05458 10.232 8.41068 10.232C8.7566 10.232 9.05674 9.95725 9.05674 9.59606V3.59326C9.05674 3.38469 9.20427 3.23716 9.40775 3.23716C9.60106 3.23716 9.74859 3.38469 9.74859 3.59326V9.37223C9.74859 9.73342 10.0386 10.0132 10.3947 10.0132C10.7457 10.0132 11.0407 9.73342 11.0407 9.37223V4.50386C11.0407 4.29528 11.1882 4.15284 11.3866 4.15284C11.5901 4.15284 11.7377 4.29528 11.7377 4.50386V11.5699C11.7377 12.0633 12.0785 12.3278 12.4651 12.3228C12.7907 12.3228 13.1061 12.1651 13.2791 11.7683L14.2863 9.50449C14.383 9.28575 14.5864 9.21962 14.7543 9.28575C14.9425 9.36206 15.0087 9.5401 14.9222 9.7792L13.5945 13.3656C12.7144 15.7159 11.3205 16.6621 9.17375 16.6621Z" fill="currentColor"/>
</svg>
