<svg width="20" height="20" viewBox="0 0 20 20" fill="currentColor" xmlns="http://www.w3.org/2000/svg">
<path d="M6.52844 5.06468C6.78629 5.00328 6.95819 4.74134 6.90498 4.48758L6.59393 3.06326C6.54072 2.80541 6.28287 2.6376 6.02502 2.6949C5.76307 2.74402 5.58708 3.00596 5.64438 3.26381L5.95135 4.68404C6.00865 4.94189 6.25831 5.12198 6.52844 5.06468ZM4.21597 5.71954C4.40833 5.9119 4.7153 5.9119 4.89538 5.71954C5.07956 5.53126 5.08366 5.23248 4.89538 5.04421L3.85989 4.00872C3.66752 3.81226 3.37284 3.81635 3.18047 4.00872C2.9922 4.19699 2.98811 4.49577 3.18047 4.69223L4.21597 5.71954ZM9.49986 5.41666C9.4221 5.48624 9.3648 5.56401 9.31978 5.64586C8.77133 5.18746 8.07145 5.22839 7.53938 5.75228C7.4125 5.88734 7.32246 6.05106 7.28562 6.21887C6.77401 5.94464 6.23375 6.02241 5.80809 6.45216C5.39062 6.86554 5.30876 7.42626 5.56662 7.92559C5.41109 7.95424 5.26374 8.0361 5.14505 8.1507C4.62116 8.67459 4.62116 9.40312 5.13686 9.92291L5.39062 10.1726C5.24328 10.1971 5.09184 10.2749 4.96906 10.3977C4.44108 10.9257 4.45335 11.691 4.99361 12.2272L8.5585 15.7921C10.0606 17.2942 11.8492 17.6789 13.4577 16.9831C14.616 17.0813 15.7824 16.6188 16.7811 15.6243C18.3568 14.0485 18.6188 12.1126 17.5669 9.89017L16.2777 7.15204C16.0075 6.59132 15.545 6.21887 14.972 6.22296C14.7101 6.23114 14.2394 6.34575 14.0061 6.75912C13.5968 6.44807 13.077 6.40714 12.6391 6.66499L11.3744 5.40848C10.8137 4.84366 10.077 4.86822 9.49986 5.41666ZM12.2585 8.58045L10.1097 6.4317C10.122 6.39895 10.1424 6.3703 10.1711 6.34574C10.3062 6.21887 10.4944 6.22296 10.6418 6.36212L12.0497 7.77416C12.0579 7.8642 12.0784 7.95834 12.1111 8.04838L12.3158 8.53134C12.3199 8.5518 12.3199 8.56817 12.3076 8.58045C12.2912 8.59682 12.2707 8.59273 12.2585 8.58045ZM3.6225 7.71686C3.88035 7.77416 4.14639 7.60635 4.19141 7.3485C4.23234 7.08655 4.085 6.84098 3.81487 6.78368L2.38646 6.47672C2.10814 6.41532 1.8462 6.5995 1.80527 6.87782C1.76843 7.13158 1.93624 7.37306 2.1859 7.42217L3.6225 7.71686ZM14.1207 15.0472C12.68 16.492 10.8833 16.4633 9.3075 14.8917L5.92269 11.5069C5.80809 11.3882 5.79991 11.2285 5.9186 11.1098C6.02911 10.9952 6.19692 10.9912 6.31561 11.1139L8.38251 13.1727C8.58715 13.3814 8.91049 13.3691 9.11513 13.1727C9.3075 12.9721 9.32796 12.6488 9.11923 12.44L6.00865 9.32945C5.88995 9.21075 5.88586 9.05113 6.00046 8.93244C6.11506 8.82193 6.28287 8.82193 6.40565 8.93653L9.29931 11.8302C9.50396 12.0389 9.83139 12.0266 10.0238 11.8302C10.2284 11.6296 10.2366 11.3063 10.0319 11.0976L6.61848 7.68411C6.49979 7.56542 6.49979 7.39761 6.61439 7.28301C6.72899 7.16841 6.8968 7.16841 7.01549 7.28711L10.3062 10.5778C10.5067 10.7783 10.83 10.7742 11.0347 10.5737C11.2352 10.369 11.2393 10.0457 11.0388 9.84515L8.26791 7.07018C8.14922 6.95149 8.14512 6.78777 8.26382 6.67317C8.37432 6.55857 8.54213 6.55857 8.66082 6.67727L12.6841 10.7006C12.9624 10.9748 13.3062 10.9339 13.5272 10.7047C13.7073 10.5205 13.7974 10.2544 13.6705 9.92701L12.9583 8.06884C12.8888 7.88466 12.9624 7.74141 13.0975 7.68002C13.2489 7.61863 13.3881 7.68002 13.474 7.8642L14.7592 10.6596C15.6064 12.4973 15.3404 13.8275 14.1207 15.0472ZM15.8111 10.1644L14.6978 7.81509C14.6937 7.77416 14.6814 7.73323 14.6814 7.69639C14.6814 7.54905 14.7919 7.42626 14.972 7.42626C15.0784 7.42626 15.189 7.49993 15.2463 7.62272L16.515 10.3854C17.35 12.2108 17.1044 13.5451 15.9052 14.7443C16.6501 13.41 16.6215 11.8711 15.8111 10.1644Z" fill="currentColor"/>
</svg>
