<svg width="20" height="20" viewBox="0 0 20 20" fill="currentColor" xmlns="http://www.w3.org/2000/svg">
<path d="M1.80212 7.56588C1.80212 10.9437 4.6439 14.3158 8.97863 17.1461C9.34178 17.3824 9.73374 17.613 9.9989 17.613C10.2641 17.613 10.656 17.3824 11.0192 17.1461C15.3539 14.3158 18.2014 10.9437 18.2014 7.56588C18.2014 4.47048 16.0514 2.38958 13.4229 2.38958C11.855 2.38958 10.6906 3.07553 9.9989 4.06698C9.31295 3.07553 8.14281 2.38958 6.57493 2.38958C3.95219 2.38958 1.80212 4.47048 1.80212 7.56588ZM3.95219 7.54283C3.95219 5.72132 5.19151 4.47048 6.83432 4.47048C8.1601 4.47048 8.87487 5.2256 9.35907 5.91154C9.57811 6.23434 9.7568 6.36692 9.9989 6.36692C10.241 6.36692 10.3966 6.23434 10.6445 5.91154C11.1518 5.2256 11.8377 4.47048 13.1577 4.47048C14.8121 4.47048 16.0514 5.72132 16.0514 7.54283C16.0514 10.0849 13.4805 13.0246 10.12 15.2554C10.0681 15.29 10.0277 15.3188 9.9989 15.3188C9.97008 15.3188 9.93549 15.29 9.87785 15.2554C6.52305 13.0246 3.95219 10.0849 3.95219 7.54283Z" fill="currentColor"/>
</svg>
