<svg width="20" height="20" viewBox="0 0 20 20" fill="currentColor" xmlns="http://www.w3.org/2000/svg">
<path d="M4.11571 17.4649H15.8818C17.2799 17.4649 18.2026 16.4135 18.2026 15.1497C18.2026 14.7582 18.102 14.3556 17.8839 13.9809L12.0008 3.69669C11.5478 2.92495 10.7817 2.53349 10.0044 2.53349C9.21586 2.53349 8.44412 2.93054 8.00233 3.69669L2.11367 13.9865C1.90117 14.3611 1.80051 14.7582 1.80051 15.1497C1.80051 16.4135 2.71764 17.4649 4.11571 17.4649ZM4.46802 15.6026C4.08774 15.6026 3.84169 15.2951 3.84169 14.9595C3.84169 14.8533 3.86405 14.7135 3.92557 14.6072L9.46192 4.86547C9.57376 4.66974 9.79745 4.58026 10.0044 4.58026C10.2113 4.58026 10.4182 4.66974 10.53 4.87106L16.072 14.6128C16.1335 14.7302 16.1559 14.8589 16.1559 14.9595C16.1559 15.2951 15.9154 15.6026 15.5295 15.6026H4.46802ZM9.99877 8.8248C10.5468 8.8248 10.9886 8.37742 10.9886 7.84056C10.9886 7.28133 10.5468 6.83954 9.99877 6.83954C9.46192 6.83954 9.00894 7.28133 9.00894 7.84056C9.00894 8.37742 9.46192 8.8248 9.99877 8.8248ZM8.80203 14.5233H11.5255C11.8666 14.5233 12.135 14.2773 12.135 13.9194C12.135 13.5894 11.8666 13.3322 11.5255 13.3322H10.9047V10.5248C10.9047 10.0551 10.6754 9.75311 10.2336 9.75311H8.93065C8.58952 9.75311 8.3155 10.0215 8.3155 10.3459C8.3155 10.6982 8.58952 10.9443 8.93065 10.9443H9.56258V13.3322H8.80203C8.4609 13.3322 8.19247 13.5894 8.19247 13.9194C8.19247 14.2773 8.4609 14.5233 8.80203 14.5233Z" fill="currentColor"/>
</svg>
