<svg width="20" height="20" viewBox="0 0 20 20" fill="currentColor" xmlns="http://www.w3.org/2000/svg">
<path d="M9.25374 13.2558L10.6312 11.8783C9.90162 11.7967 9.28096 11.5245 8.88352 11.1216C7.68574 9.9238 7.68574 8.25236 8.87263 7.06548L11.4206 4.52293C12.6129 3.33605 14.2789 3.33605 15.4713 4.52293C16.6745 5.73159 16.669 7.39759 15.4822 8.58447L14.5239 9.54269C14.8125 10.2069 14.9323 11.0508 14.7254 11.7912L16.7725 9.76047C18.678 7.86036 18.678 5.14904 16.767 3.23805C14.8452 1.32706 12.1502 1.3325 10.2446 3.23261L7.58775 5.89493C5.6822 7.79503 5.6822 10.4955 7.59319 12.4065C7.9743 12.7876 8.54596 13.1088 9.25374 13.2558ZM10.7401 6.74426L9.36807 8.12169C10.0976 8.20336 10.7128 8.47558 11.1157 8.87847C12.3135 10.0762 12.3135 11.7531 11.1212 12.9346L8.58407 15.4771C7.3863 16.664 5.72031 16.664 4.52798 15.4771C3.33021 14.2684 3.33021 12.6079 4.51709 11.4156L5.46987 10.4628C5.18131 9.80402 5.06153 8.94925 5.27931 8.20881L3.22676 10.2505C1.32122 12.1397 1.32666 14.851 3.23765 16.762C5.15409 18.673 7.85452 18.6675 9.75462 16.7674L12.4115 14.1051C14.317 12.205 14.317 9.50458 12.4006 7.59359C12.0304 7.21792 11.4478 6.89126 10.7401 6.74426Z" fill="currentColor"/>
</svg>
