<?xml version="1.0" encoding="UTF-8"?>
<svg xmlns="http://www.w3.org/2000/svg" viewBox="0 0 40.236328125 24.568359375" width="40.236328125" height="24.568359375" fill="currentColor">
  <path d="M2.0637 23.9577H26.4437C26.1637 23.2877 26.0837 22.5677 26.0837 22.1077V19.8277H8.2337V4.6577C8.2337 3.8877 8.6637 3.4577 9.4437 3.4577H36.8637C36.8037 1.1877 35.4637 -0.0023 33.1637 -0.0023H8.6837C6.2437 -0.0023 4.7837 1.3977 4.7837 3.8877V19.8277H2.0637C0.9437 19.8277 0.0037 20.7577 0.0037 21.8877C0.0037 23.0277 0.9437 23.9577 2.0637 23.9577ZM28.1537 22.1077C28.1537 23.5877 29.1737 24.5677 30.7237 24.5677H37.7437C39.2337 24.5677 40.2337 23.5877 40.2337 22.1077V8.1377C40.2337 6.6577 39.2337 5.6777 37.7437 5.6777H30.7237C29.1737 5.6777 28.1537 6.6577 28.1537 8.1377ZM34.2037 8.1477C33.8837 8.1477 33.6337 7.8877 33.6337 7.5577C33.6337 7.2277 33.8837 6.9877 34.2037 6.9877C34.5337 6.9877 34.7837 7.2277 34.7837 7.5577C34.7837 7.8877 34.5337 8.1477 34.2037 8.1477ZM30.5137 20.6877V9.5477H37.8537V20.6877ZM34.2037 23.4977C33.7237 23.4977 33.3437 23.1177 33.3437 22.6377C33.3437 22.1777 33.7237 21.7977 34.2037 21.7977C34.6737 21.7977 35.0437 22.1777 35.0437 22.6377C35.0437 23.1177 34.6737 23.4977 34.2037 23.4977Z"/>
</svg>
