<svg width="20" height="20" viewBox="0 0 20 20" fill="currentColor" xmlns="http://www.w3.org/2000/svg">
<path d="M6.67457 14.9378L10.0049 11.6075L13.3188 14.9324C13.7467 15.3493 14.4819 15.3603 14.9154 14.9159C15.3598 14.4825 15.3488 13.7473 14.9318 13.3193L11.607 10.0054L14.9318 6.68057C15.3488 6.25261 15.3598 5.51742 14.9154 5.08398C14.4819 4.63957 13.7467 4.64505 13.3188 5.06752L10.0049 8.39237L6.67457 5.06752C6.26856 4.65603 5.51142 4.63957 5.07249 5.073C4.63906 5.51193 4.65552 6.26907 5.06152 6.67508L8.39186 10.0054L5.06152 13.3248C4.65552 13.7308 4.63906 14.4879 5.07249 14.9214C5.51142 15.3603 6.26856 15.3438 6.67457 14.9378Z" fill="currentColor"/>
</svg>
