<?xml version="1.0" encoding="UTF-8"?>
<svg xmlns="http://www.w3.org/2000/svg" viewBox="0 0 27.506760745330002 30.83056564117573" width="27.506760745330002" height="30.83056564117573" fill="currentColor">
  <path d="M22.8294 15.8659L12.6694 26.0159C10.1694 28.5259 6.8394 28.3059 4.6894 26.1459C2.5194 23.9859 2.3094 20.6659 4.8094 18.1459L18.7894 4.2059C20.1794 2.7959 22.3094 2.4559 23.7194 3.8659C25.1394 5.2959 24.7894 7.4059 23.3894 8.7959L9.5994 22.6159C9.1094 23.1159 8.5294 22.9759 8.1894 22.6459C7.8594 22.3059 7.7294 21.7359 8.2194 21.2359L17.8194 11.6459C18.3994 11.0559 18.4294 10.1759 17.8594 9.6059C17.2794 9.0559 16.4094 9.0559 15.8194 9.6459L6.1794 19.2859C4.5894 20.8859 4.6594 23.3359 6.0794 24.7559C7.6194 26.2859 9.9494 26.2459 11.5394 24.6559L25.4194 10.7759C28.2094 7.9959 28.1194 4.3159 25.6494 1.8359C23.2194 -0.5841 19.4794 -0.7141 16.6894 2.0559L2.6294 16.1359C-0.9706 19.7459 -0.7506 24.9759 2.5394 28.2759C5.8694 31.5759 11.0894 31.8059 14.6994 28.2159L24.9194 17.9759C25.4894 17.4259 25.4894 16.3859 24.8994 15.8359C24.3494 15.2559 23.4094 15.3059 22.8294 15.8659Z"/>
</svg>
