<svg width="20" height="20" viewBox="0 0 20 20" fill="currentColor" xmlns="http://www.w3.org/2000/svg">
<path d="M14.8281 10.2395L9.42359 15.6387C8.09374 16.9738 6.32238 16.8568 5.1787 15.7078C4.02439 14.5588 3.91269 12.7928 5.24254 11.4523L12.6791 4.03705C13.4185 3.28701 14.5515 3.10616 15.3015 3.85619C16.0569 4.61686 15.8707 5.73926 15.126 6.47865L7.79053 13.8301C7.52988 14.096 7.22135 14.0216 7.04049 13.846C6.86495 13.6652 6.7958 13.362 7.05645 13.096L12.1631 7.99468C12.4716 7.68084 12.4876 7.21273 12.1844 6.90953C11.8758 6.61696 11.413 6.61696 11.0992 6.9308L5.97129 12.0587C5.12551 12.9098 5.16275 14.2131 5.9181 14.9684C6.73729 15.7823 7.97671 15.761 8.82249 14.9152L16.2058 7.5319C17.6899 6.0531 17.6421 4.09556 16.3282 2.77635C15.0356 1.48906 13.0461 1.41991 11.562 2.89338L4.08291 10.3831C2.16792 12.3034 2.28495 15.0854 4.03503 16.8408C5.80639 18.5962 8.58312 18.7186 10.5034 16.8089L15.9398 11.3619C16.2431 11.0693 16.2431 10.5161 15.9292 10.2235C15.6366 9.91499 15.1366 9.94158 14.8281 10.2395Z" fill="currentColor"/>
</svg>
