<svg width="20" height="20" viewBox="0 0 20 20" fill="currentColor" xmlns="http://www.w3.org/2000/svg">
<path d="M13.0565 10.0597C14.4909 10.0597 15.6502 8.80727 15.6502 7.25866C15.6502 5.74389 14.4867 4.51685 13.0565 4.51685C11.6348 4.51685 10.4713 5.75235 10.4713 7.26289C10.4713 8.81573 11.6222 10.0597 13.0565 10.0597ZM6.29085 10.1443C7.53905 10.1443 8.55031 9.04422 8.55031 7.68178C8.55031 6.34895 7.53482 5.27 6.29085 5.27C5.04688 5.27 4.02293 6.36588 4.02293 7.68601C4.02293 9.05268 5.03419 10.1443 6.29085 10.1443ZM13.0565 8.83689C12.333 8.83689 11.7279 8.15567 11.7279 7.26289C11.7279 6.41242 12.3415 5.74389 13.0565 5.74389C13.7843 5.74389 14.3893 6.39973 14.3893 7.25866C14.3893 8.14721 13.7843 8.83689 13.0565 8.83689ZM6.29085 8.94267C5.71541 8.94267 5.22882 8.39262 5.22882 7.68601C5.22882 7.01325 5.71541 6.47166 6.29085 6.47166C6.86206 6.47166 7.34865 7.00902 7.34865 7.68178C7.34865 8.39262 6.86629 8.94267 6.29085 8.94267ZM3.15977 15.4841H7.5729C7.19633 15.2514 6.98477 14.7225 7.03131 14.2824H3.24016C3.14285 14.2824 3.109 14.2359 3.109 14.1597C3.109 13.0088 4.53491 11.858 6.28239 11.858C6.80283 11.858 7.44174 11.9976 7.85216 12.1965C8.05949 11.841 8.34721 11.5322 8.7534 11.2783C8.04256 10.889 7.09901 10.6605 6.28239 10.6605C3.80714 10.6605 1.80156 12.3911 1.80156 14.3078C1.80156 15.0737 2.25007 15.4841 3.15977 15.4841ZM9.49809 15.4841H16.615C17.6728 15.4841 18.2017 15.1244 18.2017 14.3671C18.2017 12.6746 16.0987 10.6605 13.0565 10.6605C10.0101 10.6605 7.91563 12.6746 7.91563 14.3671C7.91563 15.1244 8.4403 15.4841 9.49809 15.4841ZM9.45155 14.257C9.34154 14.257 9.30769 14.2105 9.30769 14.1301C9.30769 13.3558 10.6744 11.8876 13.0565 11.8876C15.4387 11.8876 16.8054 13.3558 16.8054 14.1301C16.8054 14.2105 16.7715 14.257 16.6573 14.257H9.45155Z" fill="currentColor"/>
</svg>
