<svg width="20" height="20" viewBox="0 0 20 20" fill="currentColor" xmlns="http://www.w3.org/2000/svg">
<path d="M9.99956 10.0892C12.1443 10.0892 13.8778 8.21654 13.8778 5.90097C13.8778 3.63601 12.138 1.80127 9.99956 1.80127C7.87379 1.80127 6.13395 3.64867 6.13395 5.9073C6.13395 8.2292 7.85481 10.0892 9.99956 10.0892ZM9.99956 8.26083C8.9177 8.26083 8.01298 7.28652 8.01298 5.9073C8.01298 4.59134 8.93035 3.63601 9.99956 3.63601C11.0878 3.63601 11.9925 4.58502 11.9925 5.90097C11.9925 7.27386 11.0878 8.26083 9.99956 8.26083ZM4.67881 18.2001H15.3203C16.902 18.2001 17.6865 17.6623 17.6865 16.5298C17.6865 13.9991 14.5485 10.9876 9.99956 10.9876C5.44434 10.9876 2.31262 13.9991 2.31262 16.5298C2.31262 17.6623 3.09713 18.2001 4.67881 18.2001ZM4.60921 16.3653C4.44472 16.3653 4.39411 16.2957 4.39411 16.1755C4.39411 15.0177 6.43763 12.8224 9.99956 12.8224C13.5615 12.8224 15.605 15.0177 15.605 16.1755C15.605 16.2957 15.5544 16.3653 15.3773 16.3653H4.60921Z" fill="currentColor"/>
</svg>
