<svg width="20" height="20" viewBox="0 0 20 20" fill="currentColor" xmlns="http://www.w3.org/2000/svg">
<path d="M5.27875 10.0369C6.28749 10.0369 7.10046 9.16086 7.10046 8.07247C7.10046 7.00068 6.28085 6.13794 5.27875 6.13794C4.27664 6.13794 3.46035 7.01064 3.46035 8.07247C3.46035 9.16086 4.26668 10.0369 5.27875 10.0369ZM14.7258 10.0468C15.7312 10.0468 16.5442 9.17081 16.5442 8.08243C16.5442 7.01395 15.7279 6.15453 14.7258 6.15453C13.7237 6.15453 12.9074 7.02391 12.9074 8.08575C12.9074 9.17413 13.7137 10.0468 14.7258 10.0468ZM5.27875 9.12767C4.79097 9.12767 4.38614 8.69962 4.38614 8.07247C4.38614 7.47187 4.79428 7.04714 5.27875 7.04714C5.76653 7.04714 6.17467 7.46855 6.17467 8.07247C6.17467 8.69298 5.77316 9.12767 5.27875 9.12767ZM14.7258 9.14095C14.2347 9.14095 13.8299 8.71289 13.8299 8.08243C13.8299 7.48514 14.238 7.05709 14.7258 7.05709C15.2102 7.05709 15.6184 7.48183 15.6184 8.08243C15.6184 8.70294 15.2202 9.14095 14.7258 9.14095ZM8.36139 10.1331C8.62685 10.1331 8.84917 9.91078 8.84917 9.63868C8.84917 9.36991 8.62685 9.14758 8.36139 9.14758C8.0893 9.14758 7.86697 9.36991 7.86697 9.63868C7.86697 9.91078 8.0893 10.1331 8.36139 10.1331ZM9.99728 10.1331C10.2694 10.1331 10.4917 9.91078 10.4917 9.63868C10.4917 9.36991 10.2694 9.14758 9.99728 9.14758C9.72851 9.14758 9.50618 9.36991 9.50618 9.63868C9.50618 9.91078 9.72851 10.1331 9.99728 10.1331ZM11.6365 10.1331C11.9086 10.1331 12.1309 9.91078 12.1309 9.63868C12.1309 9.36991 11.9086 9.14758 11.6365 9.14758C11.3677 9.14758 11.1454 9.36991 11.1454 9.63868C11.1454 9.91078 11.3677 10.1331 11.6365 10.1331ZM2.91948 13.8462H7.6347C8.37798 13.8462 8.75626 13.5874 8.75626 13.0498C8.75626 11.8519 7.37256 10.4483 5.27543 10.4483C3.18494 10.4483 1.80123 11.8519 1.80123 13.0498C1.80123 13.5874 2.17619 13.8462 2.91948 13.8462ZM12.3665 13.8595H17.0784C17.8184 13.8595 18.2 13.6007 18.2 13.0565C18.2 11.8652 16.8163 10.4616 14.7191 10.4616C12.6286 10.4616 11.2449 11.8652 11.2449 13.0565C11.2449 13.6007 11.6232 13.8595 12.3665 13.8595ZM2.90289 12.9436C2.84316 12.9436 2.82657 12.9071 2.82657 12.8706C2.82657 12.3596 3.6694 11.3575 5.27543 11.3575C6.88477 11.3575 7.73093 12.3596 7.73093 12.8706C7.73093 12.9071 7.71102 12.9436 7.65129 12.9436H2.90289ZM12.3466 12.9536C12.2902 12.9536 12.2703 12.9204 12.2703 12.8806C12.2703 12.3729 13.1131 11.3708 14.7191 11.3708C16.3252 11.3708 17.1746 12.3729 17.1746 12.8806C17.1746 12.9204 17.1514 12.9536 17.0983 12.9536H12.3466Z" fill="currentColor"/>
</svg>
