<?xml version="1.0" encoding="UTF-8"?>
<svg xmlns="http://www.w3.org/2000/svg" viewBox="0 0 24.30859375 25.921875" width="24.30859375" height="25.921875" fill="currentColor">
  <path d="M12.1537 13.102C15.5437 13.102 18.2837 10.142 18.2837 6.482C18.2837 2.902 15.5337 0.002 12.1537 0.002C8.7937 0.002 6.0437 2.922 6.0437 6.492C6.0437 10.162 8.7637 13.102 12.1537 13.102ZM12.1537 10.212C10.4437 10.212 9.0137 8.672 9.0137 6.492C9.0137 4.412 10.4637 2.902 12.1537 2.902C13.8737 2.902 15.3037 4.402 15.3037 6.482C15.3037 8.652 13.8737 10.212 12.1537 10.212ZM3.7437 25.922H20.5637C23.0637 25.922 24.3037 25.072 24.3037 23.282C24.3037 19.282 19.3437 14.522 12.1537 14.522C4.9537 14.522 0.0037 19.282 0.0037 23.282C0.0037 25.072 1.2437 25.922 3.7437 25.922ZM3.6337 23.022C3.3737 23.022 3.2937 22.912 3.2937 22.722C3.2937 20.892 6.5237 17.422 12.1537 17.422C17.7837 17.422 21.0137 20.892 21.0137 22.722C21.0137 22.912 20.9337 23.022 20.6537 23.022Z"/>
</svg>
