<?xml version="1.0" encoding="UTF-8"?>
<svg xmlns="http://www.w3.org/2000/svg" viewBox="0 0 33.509765625 24.951171875" width="33.509765625" height="24.951171875" fill="currentColor">
  <path d="M11.6337 12.1235C14.7137 12.1235 17.2237 9.4335 17.2237 6.0035C17.2237 2.6635 14.6837 0.0035 11.6337 0.0035C8.5837 0.0035 6.0437 2.6935 6.0437 6.0135C6.0437 9.4335 8.5537 12.1235 11.6337 12.1235ZM25.8937 13.1135C26.4537 13.1135 26.9437 12.8235 27.2737 12.3335L33.1537 3.2635C33.3737 2.9435 33.5137 2.5835 33.5137 2.2535C33.5137 1.4635 32.8037 0.9035 32.0337 0.9035C31.5237 0.9035 31.1037 1.1635 30.7637 1.7235L25.8537 9.6235L23.5837 6.8235C23.2437 6.3935 22.8737 6.2235 22.4037 6.2235C21.6137 6.2235 20.9737 6.8535 20.9737 7.6435C20.9737 8.0235 21.1137 8.3535 21.3937 8.7135L24.4437 12.3635C24.8537 12.8535 25.3037 13.1135 25.8937 13.1135ZM2.6637 24.9535H20.6037C22.2737 24.9535 23.2737 24.1435 23.2737 22.8035C23.2737 19.3035 18.7137 14.5235 11.6337 14.5235C4.5437 14.5235 0.0037 19.3035 0.0037 22.8035C0.0037 24.1435 0.9937 24.9535 2.6637 24.9535Z"/>
</svg>
