<svg width="20" height="20" viewBox="0 0 20 20" fill="currentColor" xmlns="http://www.w3.org/2000/svg">
<path d="M7.49365 9.82766C9.00103 9.82766 10.2295 8.51115 10.2295 6.83247C10.2295 5.19784 8.98635 3.89601 7.49365 3.89601C6.00095 3.89601 4.75785 5.21252 4.75785 6.83737C4.75785 8.51115 5.98627 9.82766 7.49365 9.82766ZM14.4726 10.3122C14.7467 10.3122 14.9865 10.1702 15.148 9.93044L18.0258 5.49149C18.1334 5.33488 18.2019 5.15869 18.2019 4.99718C18.2019 4.61055 17.8545 4.33648 17.4776 4.33648C17.228 4.33648 17.0225 4.46373 16.8561 4.7378L14.4531 8.60414L13.3421 7.23379C13.1757 7.02334 12.9946 6.94014 12.7646 6.94014C12.378 6.94014 12.0647 7.24847 12.0647 7.6351C12.0647 7.82108 12.1333 7.98258 12.2703 8.15877L13.763 9.94512C13.9636 10.1849 14.1839 10.3122 14.4726 10.3122ZM3.10364 16.1068H11.8837C12.701 16.1068 13.1904 15.7104 13.1904 15.0546C13.1904 13.3416 10.9587 11.0022 7.49365 11.0022C4.02373 11.0022 1.80181 13.3416 1.80181 15.0546C1.80181 15.7104 2.28633 16.1068 3.10364 16.1068Z" fill="currentColor"/>
</svg>
