<svg width="20" height="20" viewBox="0 0 20 20" fill="currentColor" xmlns="http://www.w3.org/2000/svg">
<path d="M9.99727 18.202C14.5296 18.202 18.1987 14.5273 18.1987 10.0006C18.1987 5.47394 14.5296 1.79921 9.99727 1.79921C5.47059 1.79921 1.80153 5.47394 1.80153 10.0006C1.80153 14.5273 5.47059 18.202 9.99727 18.202ZM9.99727 12.7439C8.00939 12.7439 6.46453 13.4311 5.59554 14.3001C4.51073 13.1926 3.84053 11.6761 3.84053 10.0006C3.84053 6.59283 6.60084 3.84388 9.99727 3.84388C13.4107 3.84388 16.1597 6.59283 16.1597 10.0006C16.1597 11.6761 15.4895 13.1926 14.4104 14.3001C13.5357 13.4311 11.9851 12.7439 9.99727 12.7439ZM9.99727 11.5398C11.5194 11.5455 12.6951 10.2505 12.6951 8.58639C12.6951 7.02449 11.5081 5.69545 9.99727 5.69545C8.49216 5.69545 7.29943 7.02449 7.31079 8.58639C7.31079 10.2505 8.48648 11.5284 9.99727 11.5398Z" fill="currentColor"/>
</svg>
