<?xml version="1.0" encoding="UTF-8"?>
<svg xmlns="http://www.w3.org/2000/svg" viewBox="0 0 49.423828125 23.26953125" width="49.423828125" height="23.26953125" fill="currentColor">
  <path d="M10.4837 11.7459C13.5237 11.7459 15.9737 9.1059 15.9737 5.8259C15.9737 2.5959 13.5037 -0.0041 10.4837 -0.0041C7.4637 -0.0041 5.0037 2.6259 5.0037 5.8259C5.0037 9.1059 7.4337 11.7459 10.4837 11.7459ZM38.9537 11.7759C41.9837 11.7759 44.4337 9.1359 44.4337 5.8559C44.4337 2.6359 41.9737 0.0459 38.9537 0.0459C35.9337 0.0459 33.4737 2.6659 33.4737 5.8659C33.4737 9.1459 35.9037 11.7759 38.9537 11.7759ZM10.4837 9.0059C9.0137 9.0059 7.7937 7.7159 7.7937 5.8259C7.7937 4.0159 9.0237 2.7359 10.4837 2.7359C11.9537 2.7359 13.1837 4.0059 13.1837 5.8259C13.1837 7.6959 11.9737 9.0059 10.4837 9.0059ZM38.9537 9.0459C37.4737 9.0459 36.2537 7.7559 36.2537 5.8559C36.2537 4.0559 37.4837 2.7659 38.9537 2.7659C40.4137 2.7659 41.6437 4.0459 41.6437 5.8559C41.6437 7.7259 40.4437 9.0459 38.9537 9.0459ZM19.7737 12.0359C20.5737 12.0359 21.2437 11.3659 21.2437 10.5459C21.2437 9.7359 20.5737 9.0659 19.7737 9.0659C18.9537 9.0659 18.2837 9.7359 18.2837 10.5459C18.2837 11.3659 18.9537 12.0359 19.7737 12.0359ZM24.7037 12.0359C25.5237 12.0359 26.1937 11.3659 26.1937 10.5459C26.1937 9.7359 25.5237 9.0659 24.7037 9.0659C23.8937 9.0659 23.2237 9.7359 23.2237 10.5459C23.2237 11.3659 23.8937 12.0359 24.7037 12.0359ZM29.6437 12.0359C30.4637 12.0359 31.1337 11.3659 31.1337 10.5459C31.1337 9.7359 30.4637 9.0659 29.6437 9.0659C28.8337 9.0659 28.1637 9.7359 28.1637 10.5459C28.1637 11.3659 28.8337 12.0359 29.6437 12.0359ZM3.3737 23.2259H17.5837C19.8237 23.2259 20.9637 22.4459 20.9637 20.8259C20.9637 17.2159 16.7937 12.9859 10.4737 12.9859C4.1737 12.9859 0.0037 17.2159 0.0037 20.8259C0.0037 22.4459 1.1337 23.2259 3.3737 23.2259ZM31.8437 23.2659H46.0437C48.2737 23.2659 49.4237 22.4859 49.4237 20.8459C49.4237 17.2559 45.2537 13.0259 38.9337 13.0259C32.6337 13.0259 28.4637 17.2559 28.4637 20.8459C28.4637 22.4859 29.6037 23.2659 31.8437 23.2659ZM3.3237 20.5059C3.1437 20.5059 3.0937 20.3959 3.0937 20.2859C3.0937 18.7459 5.6337 15.7259 10.4737 15.7259C15.3237 15.7259 17.8737 18.7459 17.8737 20.2859C17.8737 20.3959 17.8137 20.5059 17.6337 20.5059ZM31.7837 20.5359C31.6137 20.5359 31.5537 20.4359 31.5537 20.3159C31.5537 18.7859 34.0937 15.7659 38.9337 15.7659C43.7737 15.7659 46.3337 18.7859 46.3337 20.3159C46.3337 20.4359 46.2637 20.5359 46.1037 20.5359Z"/>
</svg>
