<?xml version="1.0" encoding="UTF-8"?>
<svg xmlns="http://www.w3.org/2000/svg" viewBox="0 0 38.759765625 25.921875" width="38.759765625" height="25.921875" fill="currentColor">
  <path d="M26.6037 13.102C29.9937 13.102 32.7337 10.142 32.7337 6.482C32.7337 2.902 29.9837 0.002 26.6037 0.002C23.2437 0.002 20.4937 2.922 20.4937 6.492C20.4937 10.162 23.2137 13.102 26.6037 13.102ZM10.6137 13.302C13.5637 13.302 15.9537 10.702 15.9537 7.482C15.9537 4.332 13.5537 1.782 10.6137 1.782C7.6737 1.782 5.2537 4.372 5.2537 7.492C5.2537 10.722 7.6437 13.302 10.6137 13.302ZM26.6037 10.212C24.8937 10.212 23.4637 8.602 23.4637 6.492C23.4637 4.482 24.9137 2.902 26.6037 2.902C28.3237 2.902 29.7537 4.452 29.7537 6.482C29.7537 8.582 28.3237 10.212 26.6037 10.212ZM10.6137 10.462C9.2537 10.462 8.1037 9.162 8.1037 7.492C8.1037 5.902 9.2537 4.622 10.6137 4.622C11.9637 4.622 13.1137 5.892 13.1137 7.482C13.1137 9.162 11.9737 10.462 10.6137 10.462ZM3.2137 25.922H13.6437C12.7537 25.372 12.2537 24.122 12.3637 23.082H3.4037C3.1737 23.082 3.0937 22.972 3.0937 22.792C3.0937 20.072 6.4637 17.352 10.5937 17.352C11.8237 17.352 13.3337 17.682 14.3037 18.152C14.7937 17.312 15.4737 16.582 16.4337 15.982C14.7537 15.062 12.5237 14.522 10.5937 14.522C4.7437 14.522 0.0037 18.612 0.0037 23.142C0.0037 24.952 1.0637 25.922 3.2137 25.922ZM18.1937 25.922H35.0137C37.5137 25.922 38.7637 25.072 38.7637 23.282C38.7637 19.282 33.7937 14.522 26.6037 14.522C19.4037 14.522 14.4537 19.282 14.4537 23.282C14.4537 25.072 15.6937 25.922 18.1937 25.922ZM18.0837 23.022C17.8237 23.022 17.7437 22.912 17.7437 22.722C17.7437 20.892 20.9737 17.422 26.6037 17.422C32.2337 17.422 35.4637 20.892 35.4637 22.722C35.4637 22.912 35.3837 23.022 35.1137 23.022Z"/>
</svg>
