<svg width="20" height="20" viewBox="0 0 20 20" fill="currentColor" xmlns="http://www.w3.org/2000/svg">
<path d="M4.14838 15.1848C4.14838 16.0975 4.71164 16.5616 5.37921 16.5616C5.65563 16.5616 5.95812 16.473 6.25018 16.3113L14.8765 11.2837C15.5336 10.8977 15.8569 10.5483 15.8569 10.0007C15.8569 9.45305 15.5336 9.09319 14.8765 8.71768L6.25018 3.69004C5.95812 3.51793 5.65563 3.4397 5.37921 3.4397C4.71164 3.4397 4.14838 3.90387 4.14838 4.81135V15.1848ZM5.99463 14.0635V5.93787C5.99463 5.78141 6.13023 5.69797 6.26583 5.78141L13.2805 9.84421C13.3431 9.88072 13.3796 9.9433 13.3796 10.0007C13.3796 10.058 13.3431 10.1154 13.2805 10.1519L6.26583 14.2199C6.13023 14.2982 5.99463 14.2199 5.99463 14.0635Z" fill="currentColor"/>
</svg>
