<?xml version="1.0" encoding="UTF-8"?>
<svg xmlns="http://www.w3.org/2000/svg" viewBox="0 0 28.875 28.875" width="28.875" height="28.875" fill="currentColor">
  <path d="M14.4327 28.8786C22.4127 28.8786 28.8727 22.4086 28.8727 14.4386C28.8727 6.4686 22.4127 -0.0014 14.4327 -0.0014C6.4627 -0.0014 0.0027 6.4686 0.0027 14.4386C0.0027 22.4086 6.4627 28.8786 14.4327 28.8786ZM14.4327 25.2786C8.4527 25.2786 3.5927 20.4286 3.5927 14.4386C3.5927 8.4386 8.4527 3.5986 14.4327 3.5986C20.4427 3.5986 25.2827 8.4386 25.2827 14.4386C25.2827 20.4286 20.4427 25.2786 14.4327 25.2786ZM12.2927 19.8286L19.5527 15.5286C20.4127 15.0286 20.4027 13.8386 19.5527 13.3286L12.2927 9.0486C11.3927 8.5186 10.3227 8.9686 10.3227 10.0186V18.8386C10.3227 19.8886 11.3727 20.3586 12.2927 19.8286Z"/>
</svg>
