<svg width="20" height="20" viewBox="0 0 20 20" fill="currentColor" xmlns="http://www.w3.org/2000/svg">
<path d="M9.99728 18.202C14.5296 18.202 18.1987 14.5273 18.1987 10.0006C18.1987 5.47393 14.5296 1.79919 9.99728 1.79919C5.4706 1.79919 1.80154 5.47393 1.80154 10.0006C1.80154 14.5273 5.4706 18.202 9.99728 18.202ZM9.99728 16.1573C6.60085 16.1573 3.84054 13.4027 3.84054 10.0006C3.84054 6.59282 6.60085 3.84387 9.99728 3.84387C13.4107 3.84387 16.1597 6.59282 16.1597 10.0006C16.1597 13.4027 13.4107 16.1573 9.99728 16.1573ZM8.78183 13.0619L12.9053 10.6197C13.3937 10.3357 13.388 9.65983 12.9053 9.37017L8.78183 6.93928C8.27067 6.63826 7.66294 6.89384 7.66294 7.4902V12.4997C7.66294 13.096 8.25931 13.363 8.78183 13.0619Z" fill="currentColor"/>
</svg>
