<?xml version="1.0" encoding="UTF-8"?>
<svg xmlns="http://www.w3.org/2000/svg" viewBox="0 0 33.564453125 30.091796875" width="33.564453125" height="30.091796875" fill="currentColor">
  <path d="M6.1237 30.0902H18.1137C22.0537 30.0902 24.2437 27.9002 24.2437 23.9702V19.2202H20.7137V23.7802C20.7137 25.5702 19.7037 26.5602 17.9237 26.5602H6.3137C4.5437 26.5602 3.5237 25.5702 3.5237 23.7802V6.3202C3.5237 4.5402 4.5437 3.5302 6.3137 3.5302H17.9237C19.7037 3.5302 20.7137 4.5402 20.7137 6.3202V10.8602H24.2437V6.1202C24.2437 2.2002 22.0537 0.0002 18.1137 0.0002H6.1237C2.2037 0.0002 0.0037 2.2002 0.0037 6.1202V23.9702C0.0037 27.9002 2.2037 30.0902 6.1237 30.0902ZM12.6737 15.0402C12.6737 15.9102 13.3937 16.6102 14.2337 16.6102H27.6437L29.5837 16.4702L28.6737 17.1202L26.8837 18.7802C26.5937 19.0602 26.4237 19.4302 26.4237 19.8202C26.4237 20.5302 26.9737 21.1902 27.7537 21.1902C28.1537 21.1902 28.4337 21.0402 28.7137 20.7702L33.0137 16.2802C33.4237 15.8702 33.5637 15.4602 33.5637 15.0402C33.5637 14.6202 33.4237 14.2002 33.0137 13.7802L28.7137 9.3102C28.4337 9.0402 28.1537 8.8902 27.7537 8.8902C26.9737 8.8902 26.4237 9.5302 26.4237 10.2402C26.4237 10.6402 26.5937 11.0202 26.8837 11.2802L28.6737 12.9502L29.5837 13.6002L27.6437 13.4502H14.2337C13.3937 13.4502 12.6737 14.1502 12.6737 15.0402Z"/>
</svg>
