<svg width="20" height="20" viewBox="0 0 20 20" fill="currentColor" xmlns="http://www.w3.org/2000/svg">
<path d="M16.0381 7.17905L16.4016 6.80355C16.5953 6.60091 16.6192 6.29992 16.4255 6.10025L16.2914 5.96614C16.1155 5.7933 15.8145 5.8231 15.6179 6.01979L15.2483 6.38634L16.0381 7.17905ZM12.2086 11.0085L15.74 7.47706L14.9473 6.67839L11.4129 10.2158L11.0523 11.1307C10.9927 11.2797 11.1447 11.4138 11.2788 11.3601L12.2086 11.0085ZM5.26498 14.1465H13.2427C14.4109 14.1465 15.0695 13.4909 15.0695 12.3227V9.13102L14.0175 10.177V12.2631C14.0175 12.7936 13.7166 13.0946 13.1861 13.0946H5.3216C4.78816 13.0946 4.49015 12.7936 4.49015 12.2631V9.65253C4.49015 9.12207 4.78816 8.82108 5.3216 8.82108H11.8301L12.8851 7.76911H5.26498C4.09678 7.76911 3.44115 8.42771 3.44115 9.59591V12.3227C3.44115 13.4909 4.09678 14.1465 5.26498 14.1465ZM6.08153 11.6611C6.43616 11.6611 6.72523 11.3721 6.72523 11.0174C6.72523 10.6598 6.43616 10.3707 6.08153 10.3707C5.72093 10.3707 5.43186 10.6598 5.43186 11.0174C5.43186 11.3721 5.72093 11.6611 6.08153 11.6611ZM7.92919 11.6611C8.28382 11.6611 8.57885 11.3721 8.57885 11.0174C8.57885 10.6598 8.28382 10.3707 7.92919 10.3707C7.57456 10.3707 7.28251 10.6598 7.28251 11.0174C7.28251 11.3721 7.57456 11.6611 7.92919 11.6611ZM9.77984 11.6611C10.1374 11.6611 10.4265 11.3721 10.4265 11.0174C10.4265 10.6598 10.1374 10.3707 9.77984 10.3707C9.4252 10.3707 9.13613 10.6598 9.13613 11.0174C9.13613 11.3721 9.4252 11.6611 9.77984 11.6611Z" fill="currentColor"/>
</svg>
