<svg width="20" height="20" viewBox="0 0 20 20" fill="currentColor" xmlns="http://www.w3.org/2000/svg">
<path d="M5.83383 15.8806H10.5206C12.0607 15.8806 12.9168 15.0246 12.9168 13.4884V11.6316H11.5369V13.4141C11.5369 14.1138 11.1421 14.5008 10.4463 14.5008H5.9081C5.21623 14.5008 4.81752 14.1138 4.81752 13.4141V6.58917C4.81752 5.89338 5.21623 5.49858 5.9081 5.49858H10.4463C11.1421 5.49858 11.5369 5.89338 11.5369 6.58917V8.3638H12.9168V6.51099C12.9168 4.9787 12.0607 4.11874 10.5206 4.11874H5.83383C4.30155 4.11874 3.44159 4.9787 3.44159 6.51099V13.4884C3.44159 15.0246 4.30155 15.8806 5.83383 15.8806ZM8.39416 9.99772C8.39416 10.3378 8.6756 10.6114 9.00395 10.6114H14.2458L15.0041 10.5567L14.6484 10.8108L13.9487 11.4597C13.8353 11.5691 13.7689 11.7137 13.7689 11.8662C13.7689 12.1437 13.9839 12.4017 14.2888 12.4017C14.4451 12.4017 14.5546 12.3431 14.664 12.2375L16.3449 10.4824C16.5051 10.3222 16.5598 10.1619 16.5598 9.99772C16.5598 9.83355 16.5051 9.66938 16.3449 9.5052L14.664 7.75793C14.5546 7.65239 14.4451 7.59375 14.2888 7.59375C13.9839 7.59375 13.7689 7.84392 13.7689 8.12145C13.7689 8.27781 13.8353 8.42635 13.9487 8.52798L14.6484 9.18076L15.0041 9.43484L14.2458 9.37621H9.00395C8.6756 9.37621 8.39416 9.64983 8.39416 9.99772Z" fill="currentColor"/>
</svg>
