<svg width="20" height="20" viewBox="0 0 20 20" fill="currentColor" xmlns="http://www.w3.org/2000/svg">
<path d="M3.64893 11.9577C3.94358 12.2614 4.38782 12.2523 4.67793 11.9577L5.77039 10.8697C9.93623 6.7039 11.6316 5.11281 12.1347 5.60691C12.52 5.99222 11.4593 7.16627 9.75037 9.18346C8.05503 11.178 6.04237 13.4173 7.4748 14.8543C8.75764 16.1507 10.7612 14.4826 12.3569 12.9459C13.7938 11.5678 14.4103 11.0375 14.5191 11.1417C14.6324 11.2505 14.2925 11.5814 13.821 12.3974C13.2317 13.4218 12.4249 14.7591 13.2997 15.6339C13.9706 16.3048 15.0313 15.9649 16.3006 14.6865C16.627 14.3511 16.6451 13.9069 16.3504 13.6077C16.0603 13.3221 15.6252 13.3221 15.326 13.6031C14.7322 14.1607 14.2925 14.5551 14.2471 14.5234C14.2154 14.5052 14.5826 13.9477 15.0359 13.2042C15.9697 11.6494 16.2054 10.77 15.5662 10.1354C14.7503 9.32398 13.4674 9.87248 11.3279 11.8987C9.68238 13.4445 8.77578 14.0837 8.50379 13.8117C8.19555 13.508 8.89817 12.3702 10.8474 10.1309C13.481 7.08014 14.2607 5.6749 13.1637 4.57791C11.7902 3.20894 10.3759 4.21074 4.74592 9.84075L3.658 10.9377C3.36789 11.2233 3.37242 11.6676 3.64893 11.9577Z" fill="currentColor"/>
</svg>
