<svg width="20" height="20" viewBox="0 0 20 20" fill="currentColor" xmlns="http://www.w3.org/2000/svg">
<path d="M7.34802 14.497H13.0574V15.8669C12.728 16.101 12.5155 16.4825 12.5155 16.916C12.5155 17.6053 13.0965 18.1992 13.8031 18.1992C14.4967 18.1992 15.095 17.6053 15.095 16.916C15.095 16.4825 14.8999 16.114 14.5834 15.8842V7.39596C14.5834 6.17344 13.9158 5.50583 12.6889 5.50583H6.94485V4.12291C7.26565 3.88447 7.48241 3.50731 7.48241 3.0868C7.48241 2.35849 6.92751 1.79926 6.19053 1.79926C5.49257 1.79926 4.90732 2.37583 4.90732 3.0868C4.90732 3.48997 5.10674 3.8628 5.41453 4.10557V12.5765C5.41453 13.8207 6.09515 14.497 7.34802 14.497ZM7.56044 13.0013C7.15294 13.0013 6.94485 12.7932 6.94485 12.3814V7.00579H12.4375C12.8493 7.00579 13.0574 7.20955 13.0574 7.62572V13.0013H7.56044Z" fill="currentColor"/>
</svg>
