<svg width="20" height="20" viewBox="0 0 20 20" fill="currentColor" xmlns="http://www.w3.org/2000/svg">
<path d="M9.99882 1.79932C9.61902 1.79932 9.31306 2.10527 9.31306 2.49035V5.04346C9.31306 5.43381 9.61902 5.73976 9.99882 5.73976C10.3892 5.73976 10.6898 5.43381 10.6898 5.04346V2.49035C10.6898 2.10527 10.3892 1.79932 9.99882 1.79932ZM5.9054 2.89125C5.55724 3.08115 5.45702 3.50843 5.65219 3.84075L6.92875 6.05627C7.12393 6.38859 7.53538 6.50464 7.87298 6.30947C8.21058 6.11429 8.31081 5.70284 8.12618 5.36524L6.83908 3.14972C6.6439 2.8174 6.23772 2.70135 5.9054 2.89125ZM14.1028 2.89652C13.7652 2.70135 13.3537 2.8174 13.1586 3.14972L11.882 5.36524C11.6868 5.70284 11.7976 6.11429 12.1352 6.30947C12.4728 6.50464 12.8843 6.38859 13.0794 6.05627L14.3507 3.84075C14.5459 3.50843 14.4351 3.0917 14.1028 2.89652ZM17.1096 5.89801C16.9144 5.55514 16.4924 5.45491 16.1601 5.65009L13.9445 6.92137C13.6122 7.11655 13.4962 7.53327 13.7019 7.87088C13.8865 8.2032 14.298 8.31398 14.6356 8.1188L16.8511 6.84224C17.1834 6.64707 17.2995 6.23562 17.1096 5.89801ZM2.89863 5.89801C2.70345 6.23562 2.82478 6.64707 3.1571 6.84224L5.36734 8.1188C5.69967 8.31398 6.12167 8.2032 6.31685 7.87088C6.50147 7.53327 6.39597 7.12182 6.0531 6.92137L3.84286 5.65009C3.51053 5.45491 3.08853 5.56569 2.89863 5.89801ZM18.2015 10.002C18.2015 9.61164 17.8955 9.30568 17.5052 9.30568H14.9521C14.5723 9.30568 14.261 9.61164 14.261 10.002C14.261 10.3871 14.5723 10.6877 14.9521 10.6877H17.5052C17.8955 10.6877 18.2015 10.3871 18.2015 10.002ZM1.80142 10.002C1.80142 10.3871 2.11265 10.6877 2.49245 10.6877H5.04557C5.43592 10.6877 5.74714 10.3871 5.74714 10.002C5.74714 9.61164 5.43592 9.30568 5.04557 9.30568H2.49245C2.11265 9.30568 1.80142 9.61164 1.80142 10.002ZM2.9039 14.106C3.08853 14.433 3.51053 14.5438 3.84286 14.3486L6.0531 13.0721C6.39597 12.8769 6.51202 12.4654 6.31685 12.1331C6.12167 11.7902 5.69967 11.69 5.36734 11.8746L3.1571 13.1565C2.82478 13.3516 2.70345 13.7631 2.9039 14.106ZM17.1043 14.0954C17.2995 13.7631 17.1834 13.3516 16.8511 13.1565L14.6356 11.8746C14.298 11.69 13.8865 11.7902 13.6913 12.1278C13.4962 12.4654 13.6122 12.8769 13.9445 13.0721L16.1601 14.3486C16.4924 14.5438 16.9144 14.433 17.1043 14.0954ZM14.1028 17.0969C14.4351 16.907 14.5459 16.4903 14.3507 16.1579L13.0794 13.9424C12.8843 13.6048 12.4728 13.4888 12.1352 13.684C11.7976 13.8897 11.6868 14.2959 11.882 14.6282L13.1586 16.8437C13.3537 17.176 13.7652 17.2974 14.1028 17.0969ZM5.9054 17.1022C6.23772 17.2974 6.6439 17.176 6.83908 16.8437L8.12618 14.6282C8.31081 14.2959 8.21058 13.8897 7.87298 13.6945C7.53538 13.4993 7.12393 13.6048 6.92875 13.9424L5.65219 16.1579C5.45702 16.4903 5.56252 16.907 5.9054 17.1022ZM9.99882 18.1994C10.3892 18.1994 10.6898 17.8987 10.6898 17.5084V14.9552C10.6898 14.5649 10.3892 14.2642 9.99882 14.2642C9.61902 14.2642 9.31306 14.5649 9.31306 14.9552V17.5084C9.31306 17.8987 9.61902 18.1994 9.99882 18.1994Z" fill="currentColor"/>
</svg>
