<?xml version="1.0" encoding="UTF-8"?>
<svg xmlns="http://www.w3.org/2000/svg" viewBox="0 0 25.484375 32.443359375" width="25.484375" height="32.443359375" fill="currentColor">
  <path d="M12.7437 20.8869C13.6337 20.8869 14.3237 20.1769 14.3237 19.3369V5.9369L14.1737 3.9969L14.8237 4.9069L16.5037 6.6869C16.7637 6.9769 17.1337 7.1369 17.5237 7.1369C18.2537 7.1369 18.8937 6.6069 18.8937 5.8269C18.8937 5.4169 18.7437 5.1269 18.4737 4.8569L14.0037 0.5569C13.5737 0.1469 13.1637 -0.0031 12.7437 -0.0031C12.3137 -0.0031 11.9037 0.1469 11.4937 0.5569L7.0137 4.8569C6.7437 5.1269 6.5937 5.4169 6.5937 5.8269C6.5937 6.6069 7.2337 7.1369 7.9537 7.1369C8.3437 7.1369 8.7237 6.9769 8.9937 6.6869L10.6637 4.9069L11.3037 3.9769L11.1737 5.9369V19.3369C11.1737 20.1769 11.8637 20.8869 12.7437 20.8869ZM6.1237 32.4469H19.3737C23.2937 32.4469 25.4837 30.2569 25.4837 26.3169V15.7669C25.4837 11.8369 23.2937 9.6369 19.3737 9.6369H16.9237V13.1669H19.1637C20.9637 13.1669 21.9537 14.1769 21.9537 15.9669V26.1269C21.9537 27.9169 20.9637 28.9169 19.1637 28.9169H6.3137C4.5237 28.9169 3.5237 27.9169 3.5237 26.1269V15.9669C3.5237 14.1769 4.5237 13.1669 6.3137 13.1669H8.5737V9.6369H6.1237C2.2037 9.6369 0.0037 11.8369 0.0037 15.7669V26.3169C0.0037 30.2569 2.2037 32.4469 6.1237 32.4469Z"/>
</svg>
