<svg width="20" height="20" viewBox="0 0 20 20" fill="currentColor" xmlns="http://www.w3.org/2000/svg">
<path d="M4.94682 17.6606C5.35307 17.9731 5.85827 17.8741 6.40513 17.4783L10.004 14.8325L13.5873 17.4783C14.1394 17.8741 14.6446 17.9731 15.0508 17.6606C15.4519 17.3533 15.5352 16.8481 15.3217 16.2231L13.8998 11.9992L17.5247 9.41073C18.0716 9.0149 18.3112 8.56179 18.1497 8.07742C17.9883 7.59826 17.53 7.36389 16.8529 7.37431L12.4155 7.40556L11.0665 3.16604C10.8582 2.51501 10.5092 2.15564 10.004 2.15564C9.48842 2.15564 9.13946 2.51501 8.93634 3.16604L7.5822 7.40556L3.13956 7.37431C2.4677 7.36389 2.01458 7.59826 1.84792 8.07221C1.68646 8.56179 1.93125 9.0149 2.47811 9.41073L6.10306 11.9992L4.67599 16.2231C4.46246 16.8481 4.551 17.3533 4.94682 17.6606ZM6.59784 15.395C6.58742 15.3846 6.58742 15.3742 6.59263 15.3481L7.83219 11.9628C7.99365 11.494 7.97282 11.2805 7.52491 10.9888L4.54058 8.98365C4.51454 8.96282 4.49891 8.9472 4.50412 8.93157C4.51454 8.91595 4.53016 8.91074 4.56141 8.91074L8.16031 9.04095C8.66031 9.05136 8.85822 8.93678 8.98322 8.45241L9.96758 4.99414C9.97278 4.95768 9.9832 4.94205 10.004 4.94205C10.0197 4.94205 10.0249 4.95768 10.0301 4.99414L11.0144 8.45241C11.1446 8.93678 11.3426 9.05136 11.8478 9.04095L15.4414 8.91074C15.4779 8.91074 15.4935 8.91595 15.4987 8.93157C15.4987 8.9472 15.4935 8.96282 15.4675 8.98365L12.4727 10.9888C12.0248 11.2909 12.004 11.494 12.1707 11.9628L13.405 15.3481C13.4154 15.3742 13.4154 15.3846 13.405 15.395C13.3946 15.4106 13.379 15.4054 13.3477 15.3898L10.5249 13.1607C10.1186 12.8482 9.88424 12.8482 9.478 13.1607L6.64992 15.3898C6.61867 15.4054 6.60826 15.4106 6.59784 15.395Z" fill="currentColor"/>
</svg>
