<svg width="20" height="20" viewBox="0 0 20 20" fill="currentColor" xmlns="http://www.w3.org/2000/svg">
<path d="M10.0378 2.858C5.48749 2.858 1.80139 6.5493 1.80139 11.0944C1.80139 13.2759 2.63441 15.2543 4.05053 16.7537C4.44622 17.1755 5.11784 17.1442 5.50311 16.7694C5.87796 16.3945 5.79466 15.7437 5.39377 15.2804C4.40457 14.187 3.80063 12.698 3.80063 11.0944C3.80063 7.62181 6.57041 4.84683 10.0378 4.84683C12.8961 4.84683 15.291 6.77318 15.9731 9.39718C16.223 10.1 16.8529 10.2771 17.3371 10.0792C17.7797 9.89178 18.0869 9.40238 17.8526 8.74118C16.9102 5.34664 13.75 2.858 10.0378 2.858ZM9.12673 12.2659C9.6786 12.8177 10.5324 12.8177 11.0895 12.2659C11.6518 11.7088 11.6518 10.855 11.0895 10.2979C10.9958 10.2042 10.7876 10.0584 10.5481 9.90219L7.27327 7.71032C7.01815 7.54372 6.76304 7.57496 6.57561 7.75197C6.40381 7.93419 6.36736 8.1841 6.54958 8.43921L8.72584 11.7244C8.87682 11.9639 9.03301 12.1722 9.12673 12.2659ZM17.2382 12.7397C17.7641 12.7397 18.2014 12.3075 18.2014 11.7869C18.2014 11.2506 17.7641 10.8237 17.2382 10.8237C16.7176 10.8237 16.2855 11.2506 16.2855 11.7869C16.2855 12.3075 16.7176 12.7397 17.2382 12.7397ZM16.577 15.1398C17.0976 15.1398 17.5298 14.7129 17.5298 14.187C17.5298 13.6612 17.0976 13.2238 16.577 13.2238C16.0512 13.2238 15.6138 13.6612 15.6138 14.187C15.6138 14.7129 16.0512 15.1398 16.577 15.1398ZM15.088 17.139C15.6243 17.139 16.0512 16.7069 16.0512 16.1863C16.0512 15.65 15.6243 15.2231 15.088 15.2231C14.5622 15.2231 14.1352 15.65 14.1352 16.1863C14.1352 16.7069 14.5622 17.139 15.088 17.139Z" fill="currentColor"/>
</svg>
