<svg width="20" height="20" viewBox="0 0 20 20" fill="currentColor" xmlns="http://www.w3.org/2000/svg">
<path d="M10.4968 15.889L16.0167 10.361C16.4869 9.89491 16.5523 9.60052 16.5523 8.89726V6.78336C16.5523 6.12916 16.3969 5.86748 15.8981 5.36865L14.6224 4.09295C14.1277 3.59821 13.8701 3.43875 13.2159 3.43875H11.0979C10.3946 3.43875 10.1125 3.52462 9.64228 3.98665L4.11427 9.51057C3.22701 10.3978 3.21883 11.3832 4.12245 12.2828L7.72465 15.889C8.62418 16.7845 9.60548 16.7845 10.4968 15.889ZM9.59731 14.7442C9.27838 15.0672 8.95537 15.0713 8.62009 14.7442L5.2673 11.3873C4.92384 11.052 4.9402 10.7249 5.25912 10.4101L10.6727 5.00066C10.7912 4.88617 10.8771 4.83302 11.0447 4.83302H13.1382C13.2936 4.83302 13.4039 4.88617 13.5021 4.98839L15.0108 6.49306C15.1049 6.5871 15.1621 6.70568 15.1621 6.86105V8.95041C15.1621 9.1344 15.1171 9.22436 15.0108 9.33067L9.59731 14.7442ZM12.4554 8.40252C12.9419 8.40252 13.3181 8.02226 13.3181 7.54387C13.3181 7.05731 12.9419 6.67706 12.4554 6.67706C11.9647 6.67706 11.5885 7.05731 11.5885 7.54387C11.5885 8.02226 11.9647 8.40252 12.4554 8.40252Z" fill="currentColor"/>
</svg>
