<?xml version="1.0" encoding="UTF-8"?>
<svg xmlns="http://www.w3.org/2000/svg" viewBox="0 0 32.0537109375 32.087890625" width="32.0537109375" height="32.087890625" fill="currentColor">
  <path d="M17.2423 30.4471L30.7423 16.9271C31.8923 15.7871 32.0523 15.0671 32.0523 13.3471V8.1771C32.0523 6.5771 31.6723 5.9371 30.4523 4.7171L27.3323 1.5971C26.1223 0.3871 25.4923 -0.0029 23.8923 -0.0029H18.7123C16.9923 -0.0029 16.3023 0.2071 15.1523 1.3371L1.6323 14.8471C-0.5377 17.0171 -0.5577 19.4271 1.6523 21.6271L10.4623 30.4471C12.6623 32.6371 15.0623 32.6371 17.2423 30.4471ZM15.0423 27.6471C14.2623 28.4371 13.4723 28.4471 12.6523 27.6471L4.4523 19.4371C3.6123 18.6171 3.6523 17.8171 4.4323 17.0471L17.6723 3.8171C17.9623 3.5371 18.1723 3.4071 18.5823 3.4071H23.7023C24.0823 3.4071 24.3523 3.5371 24.5923 3.7871L28.2823 7.4671C28.5123 7.6971 28.6523 7.9871 28.6523 8.3671V13.4771C28.6523 13.9271 28.5423 14.1471 28.2823 14.4071ZM22.0323 12.1371C23.2223 12.1371 24.1423 11.2071 24.1423 10.0371C24.1423 8.8471 23.2223 7.9171 22.0323 7.9171C20.8323 7.9171 19.9123 8.8471 19.9123 10.0371C19.9123 11.2071 20.8323 12.1371 22.0323 12.1371Z"/>
</svg>
