<svg width="20" height="20" viewBox="0 0 20 20" fill="currentColor" xmlns="http://www.w3.org/2000/svg">
<path d="M5.36116 14.9327H14.639C15.8853 14.9327 16.5622 14.2558 16.5622 13.0214V9.82C16.5622 9.04752 16.4786 8.70507 16.1083 8.26707L14.2806 6.09694C13.6315 5.32843 13.1896 5.06961 12.3534 5.06961H7.65473C6.81057 5.06961 6.36858 5.3364 5.71555 6.10888L3.89185 8.26707C3.52153 8.70507 3.44189 9.04752 3.44189 9.82V13.0214C3.44189 14.2558 4.1228 14.9327 5.36116 14.9327ZM5.09438 9.17096C4.92316 9.17096 4.88334 9.01964 4.97492 8.90417L6.88623 6.57078C7.09329 6.31594 7.32822 6.18852 7.64677 6.18852H12.3573C12.6799 6.18852 12.9068 6.31594 13.1139 6.57078L15.0292 8.90417C15.1168 9.01964 15.0849 9.17096 14.9097 9.17096H11.4933C11.1986 9.17096 11.0792 9.35412 11.0792 9.54923V9.56516C11.0792 10.0868 10.677 10.6602 10.0001 10.6602C9.32712 10.6602 8.92894 10.0868 8.92894 9.56516V9.54923C8.92894 9.35412 8.80948 9.17096 8.51482 9.17096H5.09438ZM5.47664 13.5271C5.04261 13.5271 4.80768 13.3161 4.80768 12.8542V10.3775H7.8379C8.07681 11.2734 8.91301 11.9423 10.0001 11.9423C11.0951 11.9423 11.9273 11.2734 12.1662 10.3775H15.1924V12.8542C15.1924 13.3161 14.9615 13.5271 14.5235 13.5271H5.47664Z" fill="currentColor"/>
</svg>
