<?xml version="1.0" encoding="UTF-8"?>
<svg xmlns="http://www.w3.org/2000/svg" viewBox="0 0 32.94921875 24.7734375" width="32.94921875" height="24.7734375" fill="currentColor">
  <path d="M4.8237 24.7741H28.1237C31.2537 24.7741 32.9537 23.0741 32.9537 19.9741V11.9341C32.9537 9.9941 32.7437 9.1341 31.8137 8.0341L27.2237 2.5841C25.5937 0.6541 24.4837 0.0041 22.3837 0.0041H10.5837C8.4637 0.0041 7.3537 0.6741 5.7137 2.6141L1.1337 8.0341C0.2037 9.1341 0.0037 9.9941 0.0037 11.9341V19.9741C0.0037 23.0741 1.7137 24.7741 4.8237 24.7741ZM4.1537 10.3041C3.7237 10.3041 3.6237 9.9241 3.8537 9.6341L8.6537 3.7741C9.1737 3.1341 9.7637 2.8141 10.5637 2.8141H22.3937C23.2037 2.8141 23.7737 3.1341 24.2937 3.7741L29.1037 9.6341C29.3237 9.9241 29.2437 10.3041 28.8037 10.3041H20.2237C19.4837 10.3041 19.1837 10.7641 19.1837 11.2541V11.2941C19.1837 12.6041 18.1737 14.0441 16.4737 14.0441C14.7837 14.0441 13.7837 12.6041 13.7837 11.2941V11.2541C13.7837 10.7641 13.4837 10.3041 12.7437 10.3041ZM5.1137 21.2441C4.0237 21.2441 3.4337 20.7141 3.4337 19.5541V13.3341H11.0437C11.6437 15.5841 13.7437 17.2641 16.4737 17.2641C19.2237 17.2641 21.3137 15.5841 21.9137 13.3341H29.5137V19.5541C29.5137 20.7141 28.9337 21.2441 27.8337 21.2441Z"/>
</svg>
