<svg width="20" height="20" viewBox="0 0 20 20" fill="currentColor" xmlns="http://www.w3.org/2000/svg">
<path d="M4.2399 11.0871H6.99655C7.3626 11.0871 7.60211 10.9108 7.67893 10.5764L8.39747 7.25488L9.86618 16.0762C9.97012 16.7179 10.9508 16.7179 11.0728 16.0852L12.4511 9.56414L12.6454 10.5177C12.7177 10.8928 12.9527 11.0871 13.3369 11.0871H15.7501C16.1025 11.0871 16.3872 10.8069 16.3872 10.468C16.3872 10.1019 16.1161 9.83077 15.7501 9.83077H13.6939L13.0205 6.83009C12.8849 6.20193 11.9766 6.21549 11.8184 6.84816L10.4763 12.845L9.01207 3.91978C8.90813 3.28711 7.98623 3.27355 7.85066 3.91075L6.57175 9.83077H4.2399C3.88741 9.83077 3.61174 10.1155 3.61174 10.468C3.61174 10.8069 3.88741 11.0871 4.2399 11.0871Z" fill="currentColor"/>
</svg>
