<svg width="28" height="35" viewBox="0 0 28 35" fill="none" xmlns="http://www.w3.org/2000/svg">
<g clip-path="url(#clip0_2549_2)">
<path d="M0 30.1C0 32.96 1.4 34.39 4.23 34.39H17.09C19.92 34.39 21.32 32.95 21.32 30.1V27.57H23.72C26.53 27.57 27.96 26.12 27.96 23.28V12.18C27.96 10.5 27.61 9.43 26.59 8.38L19.68 1.36C18.71 0.37 17.56 0 16.1 0H10.87C8.05 0 6.63 1.45 6.63 4.29V6.82H4.23C1.42 6.82 0 8.25 0 11.11V30.1ZM20.03 15.79L12.49 8.12C11.45 7.05 10.59 6.82 9.06 6.82H8.83V4.33C8.83 2.98 9.55 2.2 10.97 2.2H17.02V9.21C17.02 10.8 17.78 11.55 19.36 11.55H25.75V23.24C25.75 24.61 25.02 25.37 23.59 25.37H21.32V19.42C21.32 17.67 21.12 16.91 20.03 15.79ZM19 8.88V3.28L25.18 9.57H19.67C19.19 9.57 19 9.36 19 8.88ZM2.2 30.06V11.14C2.2 9.8 2.92 9.02 4.34 9.02H8.83V16.95C8.83 18.67 9.7 19.53 11.4 19.53H19.12V30.06C19.12 31.43 18.39 32.19 16.98 32.19H4.33C2.92 32.19 2.2 31.43 2.2 30.06ZM11.66 17.47C11.11 17.47 10.89 17.25 10.89 16.7V9.53L18.7 17.47H11.66Z" fill="black"/>
</g>
<defs>
<clipPath id="clip0_2549_2">
<rect width="27.96" height="34.4" fill="white"/>
</clipPath>
</defs>
</svg>
