<svg width="26" height="6" viewBox="0 0 26 6" fill="none" xmlns="http://www.w3.org/2000/svg">
<g clip-path="url(#clip0_2549_19)">
<path d="M2.59 5.18C4.03 5.18 5.18 4.03 5.18 2.6C5.18 1.16 4.03 0 2.59 0C1.16 0 0 1.16 0 2.6C0 4.03 1.16 5.18 2.59 5.18ZM12.75 5.18C14.19 5.18 15.34 4.03 15.34 2.6C15.34 1.16 14.19 0 12.75 0C11.32 0 10.16 1.16 10.16 2.6C10.16 4.03 11.32 5.18 12.75 5.18ZM22.91 5.18C24.35 5.18 25.51 4.03 25.51 2.6C25.51 1.16 24.35 0 22.91 0C21.48 0 20.31 1.16 20.31 2.6C20.31 4.03 21.48 5.18 22.91 5.18Z" fill="black"/>
</g>
<defs>
<clipPath id="clip0_2549_19">
<rect width="25.51" height="5.18" fill="white"/>
</clipPath>
</defs>
</svg>
