<svg width="25" height="31" viewBox="0 0 25 31" fill="none" xmlns="http://www.w3.org/2000/svg">
<g clip-path="url(#clip0_2549_23)">
<path d="M12.12 20C12.71 20 13.22 19.52 13.22 18.95V5.03L13.12 2.98L13.9 3.8L16.01 6.05C16.2 6.27 16.48 6.38 16.74 6.38C17.32 6.38 17.74 5.97 17.74 5.43C17.74 5.13 17.63 4.91 17.43 4.7L12.92 0.35C12.64 0.08 12.41 0 12.12 0C11.85 0 11.62 0.08 11.33 0.35L6.83 4.7C6.63 4.91 6.5 5.13 6.5 5.43C6.5 5.97 6.91 6.38 7.49 6.38C7.75 6.38 8.05 6.27 8.24 6.05L10.36 3.8L11.14 2.97L11.04 5.03V18.95C11.04 19.52 11.54 20 12.12 20ZM5.71 30.71H18.54C22.21 30.71 24.26 28.65 24.26 24.99V14.46C24.26 10.79 22.21 8.75 18.54 8.75H15.77V10.95H18.54C20.79 10.95 22.06 12.21 22.06 14.46V24.99C22.06 27.25 20.79 28.5 18.54 28.5H5.71C3.47 28.5 2.2 27.25 2.2 24.99V14.46C2.2 12.21 3.47 10.95 5.71 10.95H8.47V8.75H5.71C2.03 8.75 0 10.79 0 14.46V24.99C0 28.65 2.03 30.71 5.71 30.71Z" fill="black"/>
</g>
<defs>
<clipPath id="clip0_2549_23">
<rect width="24.27" height="30.71" fill="white"/>
</clipPath>
</defs>
</svg>
