<svg width="24" height="24" viewBox="0 0 24 24" fill="none" xmlns="http://www.w3.org/2000/svg">
<g clip-path="url(#clip0_2549_25)">
<path d="M12 4.85391e-06C11.3773 4.85391e-06 10.7673 0.0463382 10.17 0.139005L10.34 1.25C11.4403 1.08204 12.5597 1.08204 13.66 1.25L13.832 0.139005C13.2258 0.0459227 12.6133 -0.000546789 12 4.85391e-06ZM9.15201 0.340005C7.95961 0.631606 6.819 1.10444 5.77001 1.742L6.35401 2.703C7.30448 2.12424 8.33869 1.69585 9.42001 1.433L9.15201 0.340005ZM14.848 0.340005L14.58 1.434C15.6613 1.69685 16.6955 2.12524 17.646 2.704L18.23 1.742C17.181 1.10444 16.0404 0.631606 14.848 0.340005ZM12 2.25C10.3046 2.24973 8.63833 2.69158 7.16579 3.53195C5.69326 4.37231 4.46531 5.58214 3.60316 7.04203C2.741 8.50191 2.27443 10.1614 2.2495 11.8567C2.22458 13.5519 2.64215 15.2244 3.46101 16.709C3.53501 16.843 3.56101 17.001 3.52501 17.15L2.51201 21.488L6.85001 20.475C6.99986 20.4409 7.15702 20.4638 7.29101 20.539C8.73241 21.3359 10.353 21.7527 12 21.75C17.385 21.75 21.75 17.385 21.75 12C21.75 6.615 17.385 2.25 12 2.25ZM4.90801 2.318C3.91723 3.04372 3.04372 3.91722 2.31801 4.908L3.22701 5.572C3.88568 4.67632 4.67633 3.88567 5.57201 3.227L4.90801 2.318ZM19.092 2.318L18.428 3.227C19.3237 3.88567 20.1143 4.67632 20.773 5.572L21.682 4.908C20.9563 3.91722 20.0828 3.04372 19.092 2.318ZM1.74201 5.77C1.10445 6.81899 0.631614 7.9596 0.340012 9.15201L1.43401 9.42C1.69655 8.33874 2.1246 7.30453 2.70301 6.354L1.74201 5.77ZM22.258 5.77L21.297 6.354C21.8758 7.30447 22.3042 8.33868 22.567 9.42L23.66 9.15201C23.3685 7.95925 22.8957 6.8193 22.258 5.77ZM0.138012 10.168C0.045265 10.7742 -0.000870129 11.3867 1.24249e-05 12C1.24249e-05 12.6227 0.0463458 13.2327 0.139012 13.83L1.25001 13.66C1.16648 13.1106 1.12469 12.5557 1.12501 12C1.12501 11.4347 1.16668 10.8813 1.25001 10.34L0.138012 10.168ZM23.861 10.17L22.75 10.34C22.8333 10.8813 22.875 11.4347 22.875 12C22.875 12.848 22.833 13.12 22.75 13.66L23.861 13.832C24.0468 12.6184 24.0468 11.3836 23.861 10.17ZM1.43401 14.58L0.340012 14.848C0.559179 15.7458 0.881314 16.6152 1.30001 17.439L1.03501 18.579L2.13101 18.834L2.49101 17.295L2.30301 16.93C1.92281 16.1831 1.63085 15.3944 1.43301 14.58M22.566 14.58C22.3033 15.6617 21.8749 16.6962 21.296 17.647L22.258 18.231C22.8957 17.1817 23.3685 16.0408 23.66 14.848L22.566 14.58ZM20.773 18.428C20.1143 19.3237 19.3237 20.1143 18.428 20.773L19.092 21.682C20.0828 20.9563 20.9563 20.0828 21.682 19.092L20.773 18.428ZM0.814012 19.528L0.357012 21.48C0.287659 21.778 0.295396 22.0887 0.379494 22.3829C0.463592 22.677 0.621275 22.9449 0.837653 23.1611C1.05403 23.3774 1.32197 23.535 1.61615 23.6189C1.91034 23.7029 2.22107 23.7105 2.51901 23.641L4.47301 23.186L4.21701 22.091L2.26401 22.546C2.15237 22.5719 2.03599 22.5689 1.92581 22.5374C1.81564 22.5058 1.71531 22.4468 1.63428 22.3657C1.55324 22.2847 1.49418 22.1844 1.46264 22.0742C1.4311 21.964 1.42813 21.8476 1.45401 21.736L1.90801 19.782L0.814012 19.528ZM17.646 21.297C16.6955 21.8758 15.6613 22.3042 14.58 22.567L14.848 23.66C16.0404 23.3684 17.181 22.8956 18.23 22.258L17.646 21.297ZM6.70601 21.51L5.16601 21.87L5.42201 22.965L6.56101 22.699C7.37501 23.114 8.24401 23.439 9.15201 23.66L9.42001 22.566C8.60562 22.3685 7.81698 22.0769 7.07001 21.697L6.70601 21.51ZM10.34 22.75L10.168 23.861C11.3816 24.0468 12.6164 24.0468 13.83 23.861L13.66 22.75C13.1187 22.8333 12.5653 22.875 12 22.875C11.4443 22.8753 10.8894 22.8335 10.34 22.75Z" fill="black"/>
</g>
<defs>
<clipPath id="clip0_2549_25">
<rect width="24" height="24" fill="white"/>
</clipPath>
</defs>
</svg>
