<svg width="24" height="24" viewBox="0 0 24 24" fill="none" xmlns="http://www.w3.org/2000/svg">
<path d="M22.9395 9.25003C23.5252 9.25004 24 9.71789 24 10.295V15.8594C24 17.9805 22.255 19.7 20.1025 19.7H20.0841C19.4921 19.7001 18.9311 19.5699 18.4286 19.3373C17.4665 21.4473 15.3403 22.9396 12.8372 23C8.53862 22.8963 7.03129 19.1501 7.18881 19.15H12.374C12.5063 19.15 12.6372 19.1238 12.7591 19.073C13.1418 18.9177 13.3926 18.5513 13.3954 18.1435V9.25003H22.9395Z" fill="black"/>
<path fill-rule="evenodd" clip-rule="evenodd" d="M11.2577 5.94997C11.2619 5.94998 11.2661 5.95026 11.2703 5.95033C11.8113 5.95767 12.2508 6.37861 12.2777 6.9069C12.2785 6.92333 12.279 6.93989 12.2791 6.95652V17.0419C12.2791 17.5986 11.821 18.05 11.256 18.05H1.0231C0.458076 18.05 2.31939e-06 17.5986 0 17.0419V6.95815C4.83201e-06 6.40137 0.458088 5.94997 1.0231 5.94997H11.2577ZM3.44705 9.78791H5.48318V15.2769H6.78644V9.78791H8.832V8.72316H3.44705V9.78791Z" fill="black"/>
<path d="M20.9302 3.19995C22.3174 3.19996 23.4419 4.30808 23.4419 5.67498C23.4419 7.04189 22.3174 8.15001 20.9302 8.15001C19.5431 8.15001 18.4186 7.04189 18.4186 5.67498C18.4186 4.30808 19.5431 3.19995 20.9302 3.19995Z" fill="black"/>
<path d="M13.1163 1C15.1199 1.00001 16.7441 2.60057 16.7442 4.57496C16.7442 6.54937 15.399 8.13899 13.3954 8.139V6.40647C13.3932 5.85147 12.9371 5.4021 12.3739 5.4H9.58887C9.58887 5.4 9.48834 4.80483 9.48834 4.57496C9.48837 2.60056 11.1127 1 13.1163 1Z" fill="black"/>
</svg>
