<svg xmlns="http://www.w3.org/2000/svg" viewBox="3.14 0.56 29.08 32.5" width="29.08" height="32.5" fill="currentColor">
  <path d="M4.87 31.34C7.15 33.62 9.82 33.65 12.06 31.40C13.71 29.75 15.45 25.85 16.73 24.32L19.65 27.25C20.71 28.33 22.00 28.33 23.04 27.29L24.80 25.51C25.63 24.66 25.80 23.71 25.29 22.80L31.10 16.99C32.62 15.48 32.59 13.66 31.04 12.10L20.30 1.35C18.87-0.08 16.38 0.48 15.87 2.71C14.77 7.53 14.57 8.64 13.15 10.80C12.33 10.45 11.46 10.65 10.69 11.40L8.93 13.18C7.89 14.22 7.88 15.49 8.96 16.57L11.88 19.48C10.36 20.77 6.47 22.49 4.81 24.14C2.57 26.39 2.58 29.07 4.87 31.34ZM22.45 15.70C23.15 16.39 26.88 14.36 28.38 12.66L29.37 13.64C30.00 14.27 30.00 15.04 29.41 15.63L23.84 21.21L14.86 12.22C16.47 9.80 16.76 8.08 17.91 3.84C18.09 3.14 18.66 2.97 19.13 3.42L25.50 9.78C25.17 12.04 23.95 13.71 22.49 15.18C22.31 15.35 22.33 15.57 22.45 15.70ZM10.83 14.40L11.94 13.32C12.29 12.96 12.67 12.95 13.03 13.30L22.91 23.17C23.26 23.53 23.26 23.91 22.89 24.28L21.82 25.36C21.46 25.74 21.05 25.76 20.70 25.38L17.43 22.09C16.93 21.59 16.27 21.64 15.70 22.20C14.63 23.26 12.76 27.75 10.58 29.91C9.27 31.24 7.68 31.24 6.32 29.89C4.98 28.53 4.96 26.93 6.29 25.62C8.46 23.46 12.96 21.59 14.01 20.52C14.56 19.93 14.63 19.28 14.12 18.79L10.83 15.50C10.47 15.15 10.47 14.75 10.83 14.40ZM8.41 29.52C9.34 29.52 10.09 28.75 10.09 27.82C10.09 26.89 9.34 26.14 8.41 26.14C7.48 26.14 6.71 26.89 6.71 27.82C6.71 28.75 7.48 29.52 8.41 29.52Z" />
</svg>