<svg xmlns="http://www.w3.org/2000/svg" viewBox="3.49 4.2 25.21 25.2" width="25.21" height="25.2" fill="currentColor">
  <path d="M3.49 15.18L28.70 15.18L28.70 11.65C28.70 9.26 28.03 7.38 26.76 6.13C25.51 4.88 23.65 4.20 21.25 4.20L10.92 4.20C8.53 4.20 6.64 4.89 5.41 6.13C4.16 7.38 3.49 9.26 3.49 11.65ZM3.49 21.49L28.70 21.49L28.70 18.77L3.49 18.77ZM4.47 26.22L27.70 26.22C28.01 25.68 28.25 25.06 28.41 24.38L3.75 24.38C3.91 25.06 4.16 25.68 4.47 26.22ZM10.92 29.39L21.25 29.39C22.93 29.39 24.36 29.05 25.48 28.41L6.67 28.41C7.81 29.05 9.24 29.39 10.92 29.39Z" />
</svg>