<svg xmlns="http://www.w3.org/2000/svg" viewBox="3.49 2.49 30.95 32.34" width="30.95" height="32.34" fill="currentColor">
  <path d="M7.78 24.80L10.12 24.80L10.12 26.89C10.12 29.71 11.54 31.13 14.41 31.13L23.93 31.13C23.90 30.95 23.90 30.78 23.90 30.58L23.93 28.93L14.44 28.93C13.08 28.93 12.32 28.19 12.32 26.77L12.32 13.18C12.32 11.76 13.08 11.02 14.44 11.02L28.10 11.02C29.45 11.02 30.21 11.76 30.21 13.18L30.21 20.41L32.42 22.64L32.42 13.06C32.42 10.24 30.98 8.82 28.14 8.82L25.79 8.82L25.79 6.73C25.79 3.91 24.36 2.49 21.51 2.49L19.46 2.49L19.46 4.69L21.46 4.69C22.82 4.69 23.58 5.43 23.58 6.85L23.58 8.82L14.41 8.82C11.54 8.82 10.12 10.23 10.12 13.06L10.12 22.60L7.81 22.60C6.44 22.60 5.69 21.86 5.69 20.44L5.69 18.61L3.49 18.61L3.49 20.56C3.49 23.38 4.91 24.80 7.78 24.80ZM11.55 4.69L17.72 4.69L17.72 2.49L11.55 2.49ZM3.49 8.68L5.69 8.68L5.69 6.85C5.69 5.43 6.44 4.69 7.81 4.69L9.83 4.69L9.83 2.49L7.78 2.49C4.91 2.49 3.49 3.91 3.49 6.73ZM3.49 16.75L5.69 16.75L5.69 10.54L3.49 10.54ZM32.42 34.74C33.02 34.49 33.30 33.81 33.04 33.21L30.91 28.23L33.85 28.12C34.37 28.10 34.63 27.59 34.26 27.21L26.78 19.52C26.44 19.18 25.91 19.37 25.89 19.88L25.77 30.79C25.76 31.32 26.39 31.50 26.73 31.16L28.82 29.07L30.86 34.11C31.09 34.70 31.80 34.99 32.42 34.74Z" />
</svg>