<svg xmlns="http://www.w3.org/2000/svg" viewBox="3.49 1.15 43.03 31.28" width="43.03" height="31.28" fill="currentColor">
  <path d="M38.76 32.43C39.70 32.43 40.22 31.76 40.22 30.72L40.22 27.44L40.80 27.44C44.23 27.44 46.51 25.36 46.51 21.79L46.51 13.71C46.51 10.13 44.23 8.05 40.80 8.05L28.18 8.05L28.18 6.81C28.18 3.23 26.04 1.15 22.46 1.15L9.20 1.15C5.77 1.15 3.49 3.23 3.49 6.81L3.49 14.89C3.49 18.47 5.77 20.54 9.20 20.54L9.76 20.54L9.76 23.82C9.76 24.86 10.29 25.53 11.24 25.53C11.91 25.53 12.36 25.16 13.18 24.45L17.75 20.54L21.82 20.54L21.82 21.79C21.82 25.38 23.94 27.44 27.54 27.44L32.24 27.44L36.82 31.35C37.64 32.06 38.09 32.43 38.76 32.43ZM11.81 19.59C11.81 18.83 11.35 18.48 10.76 18.48L9.32 18.48C7.05 18.48 5.69 17.24 5.69 14.82L5.69 6.88C5.69 4.47 7.04 3.21 9.32 3.21L22.34 3.21C24.61 3.21 25.98 4.47 25.98 6.88L25.98 8.20C23.34 8.74 21.82 10.68 21.82 13.71L21.82 18.48L17.83 18.48C17.09 18.48 16.75 18.63 16.21 19.11L11.81 23.05ZM11.03 14.93C10.76 15.68 11.17 16.38 11.96 16.38C12.48 16.38 12.81 16.09 13.00 15.52L13.84 13.11L17.86 13.11L18.69 15.52C18.89 16.09 19.21 16.38 19.73 16.38C20.54 16.38 20.93 15.68 20.66 14.93L17.28 5.87C17.04 5.20 16.54 4.83 15.83 4.83C15.15 4.83 14.64 5.20 14.40 5.87ZM14.40 11.43L15.83 7.23L17.28 11.43ZM34.40 14.12C33.92 14.33 33.36 14.14 33.14 13.64L32.48 12.26C32.24 11.76 32.44 11.20 32.91 10.98C33.40 10.71 33.95 10.94 34.19 11.46L34.86 12.82C35.11 13.32 34.90 13.86 34.40 14.12ZM29.79 14.60L38.72 14.60C39.28 14.60 39.69 14.98 39.69 15.50C39.69 16.04 39.28 16.43 38.72 16.43L37.67 16.43C37.30 17.81 36.61 19.07 35.64 20.11C36.60 20.74 37.67 21.19 38.91 21.48C39.50 21.60 39.77 22.07 39.62 22.65C39.47 23.23 38.91 23.43 38.24 23.27C36.86 22.94 35.46 22.31 34.28 21.41C33.03 22.33 31.64 22.96 30.15 23.28C29.56 23.45 29.01 23.20 28.86 22.65C28.75 22.11 29.07 21.60 29.60 21.48C30.84 21.18 31.92 20.73 32.85 20.11C31.90 19.04 31.20 17.77 30.83 16.43L29.79 16.43C29.23 16.43 28.82 16.04 28.82 15.50C28.82 14.98 29.23 14.60 29.79 14.60ZM35.75 16.43L32.76 16.43C33.07 17.35 33.61 18.21 34.28 18.95C34.93 18.20 35.44 17.34 35.75 16.43Z" />
</svg>