<svg xmlns="http://www.w3.org/2000/svg" viewBox="3.49 3.6 32.31 26.38" width="32.31" height="26.38" fill="currentColor">
  <path d="M5.55 12.82L8.39 9.88L10.68 7.19L10.46 10.49L10.46 28.75C10.46 29.46 10.96 29.98 11.69 29.98C12.40 29.98 12.91 29.46 12.91 28.75L12.91 10.49L12.71 7.22L14.97 9.88L17.83 12.82C18.06 13.06 18.32 13.17 18.68 13.17C19.39 13.17 19.88 12.69 19.88 11.96C19.88 11.65 19.74 11.29 19.50 11.06L12.61 4.01C12.07 3.46 11.28 3.47 10.77 4.01L3.87 11.06C3.64 11.29 3.49 11.65 3.49 11.96C3.49 12.69 3.98 13.17 4.69 13.17C5.04 13.17 5.32 13.06 5.55 12.82ZM21.45 20.77C21.22 20.54 20.95 20.41 20.60 20.41C19.89 20.41 19.39 20.90 19.39 21.63C19.39 21.93 19.54 22.29 19.78 22.53L26.67 29.57C27.18 30.11 27.99 30.13 28.51 29.57L35.40 22.53C35.64 22.29 35.79 21.93 35.79 21.63C35.79 20.90 35.29 20.41 34.58 20.41C34.22 20.41 33.96 20.54 33.73 20.77L30.88 23.71L28.62 26.36L28.81 23.09L28.81 4.83C28.81 4.12 28.30 3.61 27.59 3.61C26.88 3.61 26.36 4.12 26.36 4.83L26.36 23.09L26.59 26.39L24.29 23.71Z" />
</svg>