<svg xmlns="http://www.w3.org/2000/svg" viewBox="3.15 2.95 30.1 27.97" width="30.1" height="27.97" fill="currentColor">
  <path d="M3.57 27.63C6.11 31.06 11.44 31.99 14.75 29.53C16.61 28.15 17.51 26.25 17.31 24.32C18.62 24.09 19.78 23.37 21.05 22.08C25.44 17.71 32.14 7.90 32.73 7.08C34.45 4.69 31.50 1.76 29.09 3.45C28.29 4.02 18.47 10.71 14.10 15.12C12.82 16.41 12.09 17.57 11.84 18.88C10.86 18.84 9.86 19.15 8.97 19.82C6.84 21.42 7.59 23.72 6.40 24.61C5.36 25.39 4.39 24.95 3.64 25.53C3.09 25.96 2.91 26.76 3.57 27.63ZM30.15 5.39C30.61 5.04 31.13 5.54 30.78 6.04C30.46 6.51 25.01 14.46 20.81 19.14C20.18 17.47 18.70 15.98 17.05 15.35C21.77 11.17 29.61 5.77 30.15 5.39ZM16.09 21.38C15.46 20.54 14.74 19.89 13.97 19.48C14.08 18.62 14.56 17.77 15.49 16.83C17.12 17.02 19.14 19.04 19.35 20.69C18.32 21.67 17.51 22.09 16.63 22.20C16.47 21.93 16.30 21.66 16.09 21.38ZM6.36 27.41C6.18 27.22 6.19 27.03 6.32 26.91C6.51 26.73 7.27 26.67 7.86 26.09C9.19 24.77 8.74 22.85 10.27 21.66C11.54 20.64 13.30 21.01 14.49 22.54C15.83 24.28 15.37 26.40 13.52 27.82C11.46 29.45 8.27 29.44 6.36 27.41Z" />
</svg>