<svg width="192" height="192" viewBox="0 0 192 192" fill="none" xmlns="http://www.w3.org/2000/svg">
<path fill-rule="evenodd" clip-rule="evenodd" d="M95.7671 124.966C138.052 124.966 172.337 112.023 172.337 96.0176C172.337 80.0125 138.052 67.0198 95.7671 67.0198C53.4325 67.0198 19.1484 80.0125 19.1484 96.0176C19.1484 112.024 53.4325 124.966 95.7671 124.966Z" fill="#425E99"/>
<path fill-rule="evenodd" clip-rule="evenodd" d="M95.7687 122.002C55.1626 122.002 22.1641 110.442 22.1641 96.0175C22.1641 81.6427 55.1626 69.9348 95.7687 69.9348C136.474 69.9348 169.422 81.6427 169.422 96.0175C169.422 110.442 136.474 122.002 95.7687 122.002Z" fill="white"/>
<path fill-rule="evenodd" clip-rule="evenodd" d="M95.7683 119.977C135.139 119.977 167.1 109.257 167.1 96.0175C167.1 82.8283 135.139 72.1086 95.7683 72.1086C56.3481 72.1086 24.4854 82.8283 24.4854 96.0175C24.4862 109.257 56.3481 119.977 95.7683 119.977Z" fill="#425E99"/>
<path fill-rule="evenodd" clip-rule="evenodd" d="M114.444 100.809C117.803 97.6478 119.679 94.3382 124.521 94.3873C127.435 94.4365 128.176 96.7586 128.669 97.7468L135.042 86.978H138.945L128.374 105.701C128.176 106.095 127.681 106.836 127.731 107.429C127.832 108.367 129.017 108.121 128.572 108.121C130.696 108.022 134.598 103.971 135.537 102.984C135.733 102.736 136.08 102.292 136.277 102.292C136.475 102.292 136.871 102.489 136.871 102.786C136.871 102.984 136.426 103.724 136.08 104.169C134.104 106.639 130.844 110.442 127.139 110.541C125.311 110.541 124.619 109.8 124.372 108.368C123.533 109.108 120.667 110.393 117.753 110.393C115.332 110.344 114.344 108.911 113.851 107.775C113.406 106.837 113.208 105.454 113.553 104.071C112.22 104.763 110.985 104.861 109.206 104.812C107.131 104.762 105.846 103.824 105.205 101.403C102.834 105.751 102.734 105.898 100.314 110.443H96.1154L101.5 101.305C102.193 100.069 102.538 99.0815 102.784 98.0449C102.933 97.4513 102.488 96.9076 101.845 96.8593C101.154 96.8593 100.019 97.5512 98.9312 98.5877C98.9312 98.5877 96.1653 101.552 94.1396 104.565C92.2121 107.431 88.9033 110.69 85.2973 110.69C82.6788 110.69 80.3075 109.258 79.8138 106.492C79.8138 106.492 79.5665 107.134 77.2444 108.467C77.047 108.566 76.5533 108.862 76.4059 108.764C75.9605 108.369 75.714 107.875 75.6641 107.528C75.8123 107.578 76.1087 107.331 77.047 106.59C78.8746 105.207 79.2701 104.119 79.2701 104.119C79.7139 103.18 80.5057 101.698 81.0485 100.661C82.5314 97.6969 85.0992 94.6837 89.298 94.5355C89.9899 94.5355 90.1872 94.8319 90.3354 95.0792C90.7301 95.3756 90.5827 95.9684 90.5827 95.9684C87.6186 96.413 85.5937 98.1415 84.3581 99.8217C83.6179 100.908 82.827 102.687 82.6788 103.971C82.3824 106.194 83.4198 107.675 84.951 108.021C87.816 108.466 90.1872 106.391 92.0647 103.18C92.5593 102.34 92.9048 100.166 92.9048 98.9808C92.9048 97.7952 92.2621 96.5604 91.7683 96.0659C91.7683 95.2266 92.3112 94.6829 92.9531 94.6829C93.1505 94.6829 93.3486 94.6829 93.546 94.8802C94.5343 95.8685 95.0779 97.746 95.0779 99.1781C95.0779 99.6727 95.0779 100.166 94.9789 100.661C97.0537 98.1415 99.6714 94.8811 101.698 94.2391C102.093 94.0418 102.488 94.0418 102.883 94.0418C106.588 93.9427 106.094 97.3022 106.094 97.3022C108.069 95.0301 109.453 94.19 111.28 94.2883C113.257 94.3873 113.948 95.7711 113.948 96.8576C113.898 98.1415 112.961 99.6235 111.332 99.6727C109.897 99.6727 109.058 98.9808 108.614 97.6969C107.675 98.0433 107.231 98.6852 107.033 99.9691C106.736 101.599 107.972 102.884 109.552 102.884C112.27 102.885 113.456 101.698 114.444 100.809ZM117.408 79.5188C117.408 81.0999 111.874 84.1131 107.181 84.1131C99.8704 84.1131 92.2629 80.6054 88.7568 79.8152C84.9526 78.926 81.4948 78.185 78.7772 78.185C69.243 78.185 64.9942 82.2855 65.1924 86.0397C65.2915 87.5709 66.5254 88.5591 68.3538 88.2128C70.3304 87.8673 73.0963 85.9898 73.7882 84.3595C73.9364 84.014 74.3319 83.9641 74.4801 84.0631C74.7765 84.3104 74.6774 84.6559 74.6774 84.6559C74.4301 86.5826 71.4661 91.9178 66.3289 91.9178C63.4639 91.9178 61.5372 89.2502 61.5864 86.6317C61.6355 81.741 66.6253 76.8012 78.9254 76.8012C81.2467 76.8012 83.8652 76.9986 86.731 77.4931C90.0398 78.0859 98.2893 79.4689 105.008 79.5679C107.479 79.5679 110.64 79.667 113.209 79.2715C115.926 78.8269 115.333 78.7279 116.42 78.7279C117.408 78.7279 117.408 79.1233 117.408 79.5188Z" fill="white"/>
<path fill-rule="evenodd" clip-rule="evenodd" d="M124.716 96.7095C122.986 96.5122 120.812 97.9942 119.035 100.168C118.145 101.255 117.207 103.33 117.058 104.564C116.861 105.8 117.207 107.035 117.652 107.38C118.096 107.726 120.073 108.763 123.135 105.652C124.864 103.922 126.543 101.107 126.543 101.107L126 100.958C127.037 99.0317 126.838 96.956 124.716 96.7095Z" fill="#425E99"/>
<path fill-rule="evenodd" clip-rule="evenodd" d="M88.6059 90.8806C88.6059 91.4243 89.3461 91.8689 89.9888 91.9189C89.8406 92.4617 89.8897 92.709 89.6433 92.6599C88.1613 92.6599 87.5684 91.227 87.5684 91.227C85.5935 91.5725 83.6669 91.8198 79.7636 92.2153C69.9331 108.122 66.8708 110.741 60.8436 110.741C56.5457 110.741 52.7424 107.925 52.6433 102.886C52.5934 99.8236 55.0637 96.0686 59.658 94.9321C60.2017 94.9321 60.399 95.1302 60.399 95.4266C60.399 95.6248 60.2017 95.8712 59.7562 96.0686C58.4224 96.5631 56.1011 99.1808 56.1011 101.602C56.1011 103.43 57.2376 105.455 59.1634 105.899C59.7071 106.048 60.2017 105.998 60.6954 105.998C65.487 105.998 70.8715 100.614 76.7005 92.4134C75.7622 92.4626 71.7607 92.908 70.7724 94.0437C70.3286 94.3892 70.0322 94.1919 69.9331 93.7964C69.9331 93.6973 70.0813 93.3518 70.2303 93.1536C71.8106 91.3752 76.5531 90.9805 77.6888 90.8323C82.1349 84.015 87.8648 79.7662 89.0505 79.8161C89.2478 79.8161 89.6932 80.1126 89.4951 80.6063C89.4451 80.7054 88.9514 81.2482 88.7549 81.3964C87.7666 82.2857 84.407 84.4596 80.7519 90.6342C83.716 90.486 87.1738 89.8932 87.1738 89.8932C87.1738 89.8932 86.9764 89.2512 86.9764 88.7075C87.1247 86.5836 88.3594 85.2989 89.9405 85.5461C90.8305 85.6943 91.4225 86.4354 91.4225 87.2255C91.4225 88.0656 90.7806 89.3003 90.1378 89.8932C89.6924 90.2379 89.1979 90.5842 88.6059 90.8806Z" fill="white"/>
<path fill-rule="evenodd" clip-rule="evenodd" d="M88.3585 89.7934C88.3585 89.7934 88.853 89.8433 89.5933 89.0032C89.8897 88.7067 90.3843 87.8174 90.2852 87.2246C90.2352 86.9281 90.0879 86.5826 89.7423 86.6317C89.0004 86.7807 88.5558 87.1263 88.3585 87.8674C88.112 88.6576 88.2111 89.2013 88.3585 89.7934Z" fill="#425E99"/>
</svg>
