<svg width="192" height="192" viewBox="0 0 192 192" fill="none" xmlns="http://www.w3.org/2000/svg">
<path d="M34.9206 33.9932C52.8377 30.8969 70.8325 29.135 88.9698 28.7852C111.447 28.3577 133.756 30.1585 155.922 33.9802C155.961 34.2264 156.013 34.4207 156.013 34.615C156.285 42.3104 156.505 49.9929 156.376 57.6883C156.246 65.6169 155.754 73.5196 154.627 81.3834C153.163 91.5792 150.714 101.503 146.659 110.999C138.653 129.719 125.905 144.449 108.921 155.565C104.84 158.234 100.565 160.54 96.147 162.587C95.6547 162.82 95.266 162.833 94.7608 162.587C67.7362 149.657 49.3786 129.162 40.4136 100.441C38.4315 94.0925 37.136 87.5889 36.2032 80.9947C34.804 71.1099 34.3895 61.1603 34.4801 51.1848C34.532 45.7565 34.7263 40.3413 34.8429 34.913C34.8558 34.641 34.8818 34.343 34.9206 33.9932ZM37.3951 36.5065C37.3951 37.0118 37.408 37.3616 37.3951 37.7243C37.3303 40.3931 37.2526 43.0489 37.1748 45.7177C36.9157 54.7345 37.0064 63.7384 37.7578 72.7293C38.276 78.7923 39.1052 84.8165 40.3748 90.7759C42.331 99.9871 45.2977 108.848 49.7284 117.179C59.9501 136.352 75.0818 150.357 94.6183 159.711C95.2272 159.996 95.7065 159.944 96.2895 159.672C101.096 157.418 105.695 154.814 110.061 151.808C124.506 141.845 135.686 129.085 143.123 113.137C147.774 103.161 150.52 92.6415 152.075 81.772C153.15 74.2451 153.707 66.6663 153.746 59.0615C153.785 52.8819 153.642 46.7023 153.565 40.5097C153.552 39.2012 153.461 37.8927 153.409 36.5065C134.637 33.2418 115.774 31.5706 96.7688 31.4928C76.8696 31.4022 57.1129 33.0734 37.3951 36.5065Z" fill="black"/>
<path d="M37.3949 36.5065C57.1128 33.0864 76.8695 31.4022 96.7687 31.4799C115.774 31.5576 134.637 33.2289 153.409 36.4936C153.461 37.8798 153.551 39.1883 153.564 40.4967C153.642 46.6764 153.772 52.856 153.746 59.0486C153.707 66.6533 153.15 74.2321 152.075 81.7591C150.52 92.6156 147.773 103.148 143.122 113.124C135.699 129.085 124.506 141.832 110.061 151.795C105.695 154.814 101.096 157.405 96.2893 159.659C95.7193 159.931 95.227 159.983 94.6181 159.698C75.0816 150.344 59.937 136.352 49.7283 117.166C45.2976 108.836 42.3309 99.9741 40.3746 90.763C39.105 84.8036 38.2759 78.7924 37.7577 72.7164C36.9933 63.7254 36.9156 54.7216 37.1747 45.7047C37.2524 43.036 37.3172 40.3801 37.3949 37.7114C37.4079 37.3616 37.3949 36.9988 37.3949 36.5065ZM151.245 38.4239C113.999 32.2054 76.8565 32.2054 39.6621 38.411C39.6362 38.8126 39.6103 39.1364 39.5973 39.4603C39.5196 42.7121 39.4159 45.9638 39.3771 49.2286C39.2734 57.4163 39.3512 65.604 40.1285 73.7657C40.7114 79.8547 41.5924 85.9048 42.9527 91.8642C44.7664 99.8057 47.3445 107.488 51.0627 114.756C60.792 133.774 75.4573 147.753 94.5792 157.146C95.2141 157.456 95.6934 157.431 96.3153 157.133C106.083 152.417 114.828 146.237 122.524 138.581C134.222 126.934 142.138 113.072 146.569 97.1888C149.846 85.4643 151.155 73.4548 151.453 61.3287C151.569 56.6649 151.504 51.988 151.479 47.3241C151.44 44.4092 151.323 41.4813 151.245 38.4239Z" fill="white"/>
<path d="M151.245 38.4239C151.323 41.4813 151.44 44.4092 151.466 47.3241C151.504 51.988 151.556 56.6648 151.44 61.3287C151.142 73.4548 149.82 85.4643 146.556 97.1888C142.125 113.072 134.209 126.934 122.511 138.581C114.828 146.237 106.083 152.417 96.3022 157.133C95.6804 157.431 95.201 157.456 94.5662 157.146C75.4443 147.753 60.779 133.787 51.0496 114.756C47.3315 107.488 44.7534 99.8057 42.9397 91.8642C41.5794 85.8918 40.6984 79.8547 40.1154 73.7657C39.3381 65.6039 39.2474 57.4162 39.364 49.2285C39.4029 45.9768 39.5065 42.725 39.5843 39.4603C39.5972 39.1364 39.6231 38.8125 39.649 38.4109C76.8435 32.2054 113.986 32.2054 151.245 38.4239ZM101.549 139.552C102.262 138.296 102.883 137.22 103.466 136.119C104.036 135.057 104.762 134.15 105.695 133.386C110.993 129.02 116.279 124.628 121.604 120.275C122.355 119.666 122.847 118.992 123.081 118.047C124.039 114.108 124.661 110.118 124.92 106.076C125.128 102.785 125.063 99.5078 124.713 96.2301C124.635 95.4787 124.376 94.8309 123.962 94.235C121.176 90.1929 118.002 86.4618 114.634 82.8992C114.245 82.4846 113.779 82.2125 113.118 82.1089C113.157 82.4198 113.17 82.6789 113.222 82.9251C113.844 85.8141 114.478 88.7031 115.074 91.6051C115.217 92.3176 115.541 92.8747 116.059 93.3799C117.73 95.0252 119.272 96.7612 120.619 98.6916C121.241 99.5855 121.604 100.557 121.656 101.632C121.928 106.724 121.889 111.815 121.332 116.894C121.215 117.917 120.788 118.63 120.01 119.29C115.204 123.384 110.436 127.53 105.682 131.676C104.464 132.738 103.298 133.852 102.598 135.355C102.573 135.407 102.495 135.42 102.417 135.458C101.562 133.204 101.083 130.95 101.808 128.527C102.611 125.82 103.324 123.086 104.062 120.366C104.166 119.99 104.244 119.614 104.334 119.252C104.27 119.226 104.205 119.2 104.14 119.174C103.998 119.446 103.842 119.718 103.726 120.003C102.78 122.179 101.821 124.33 100.914 126.519C100.267 128.1 99.6965 129.706 99.0746 131.3C98.7508 132.142 98.7508 132.932 99.1135 133.774C99.8001 135.368 100.422 137 101.083 138.607C101.199 138.866 101.329 139.112 101.549 139.552ZM86.8449 84.9979C86.7283 85.0109 86.6117 85.0109 86.4951 85.0238C86.534 85.8011 86.5599 86.5655 86.6376 87.3428C86.7413 88.3922 86.8708 89.4286 86.9874 90.478C87.0781 91.2553 86.9226 91.9808 86.4951 92.6415C86.0028 93.4188 85.5623 94.222 85.0571 94.9993C81.3519 100.596 77.2969 105.934 72.944 111.051C72.2832 111.828 71.8298 112.657 71.7132 113.681C71.5318 115.507 71.3246 117.334 71.1173 119.161C71.0266 119.977 71.195 120.728 71.6484 121.415C72.2832 122.374 72.8792 123.358 73.5658 124.278C77.1933 129.201 81.1446 133.865 85.3551 138.322C86.6765 139.721 88.0886 140.977 89.8894 141.716C90.4594 141.949 91.0035 142.273 91.5606 142.545C91.742 142.636 91.9363 142.675 92.1306 142.726C92.1695 142.662 92.2084 142.597 92.2472 142.545C91.8974 142.221 91.5995 141.832 91.1979 141.586C89.7987 140.757 88.6198 139.669 87.5574 138.451C83.5413 133.917 79.7714 129.201 76.2994 124.239C75.5609 123.19 74.9132 122.089 74.2395 121C73.8508 120.366 73.6565 119.679 73.7342 118.928C73.8767 117.619 74.0063 116.311 74.1747 115.015C74.2654 114.303 74.6411 113.746 75.1723 113.253C76.3512 112.152 77.5171 111.051 78.6443 109.898C81.909 106.581 81.1835 107.786 83.2952 103.278C84.9275 99.8057 86.4174 96.256 87.972 92.7451C88.2311 92.1621 88.4384 91.5662 88.2829 90.9314C87.8295 88.9363 87.3242 86.9671 86.8449 84.9979ZM93.4909 63.259C93.5039 63.3497 93.5039 63.4404 93.5168 63.5441C94.035 63.557 94.5403 63.6088 95.0585 63.5829C98.0512 63.4793 101.031 63.3756 104.024 63.2331C105.099 63.1813 106.109 63.3368 107.094 63.7773C108.584 64.4639 110.074 65.1635 111.589 65.7983C112.185 66.0444 112.833 66.2258 113.468 66.3035C114.712 66.446 115.968 66.4331 117.199 66.5885C117.937 66.6792 118.715 66.8476 119.35 67.1974C121.979 68.6743 124.583 70.229 127.174 71.7706C127.745 72.1075 128.289 72.3666 129.196 72.2888C127.278 70.4621 125.503 68.765 123.728 67.0679C123.612 66.9513 123.456 66.8736 123.314 66.7958C119.168 64.4509 115.01 62.1319 110.67 60.1498C109.724 59.7223 108.752 59.4891 107.729 59.4502C105.721 59.3725 103.726 59.2559 101.717 59.1782C96.0949 58.9709 90.4853 59.1393 84.8757 59.5539C83.9041 59.6316 83.2693 60.0073 82.8417 60.8364C82.2588 61.9765 81.3908 62.8445 80.4191 63.6477C78.5536 65.2023 76.6751 66.757 74.6022 68.0395C74.1747 68.2986 73.7472 68.5836 73.5529 69.2444C74.4986 68.7132 75.3277 68.2468 76.1568 67.7934C79.6548 65.9019 83.1527 64.0234 86.6506 62.1319C87.5574 61.6396 88.5161 61.3546 89.5655 61.3287C91.2108 61.2899 92.8432 61.1214 94.4885 61.1085C98.6342 61.0567 102.767 61.0307 106.913 61.0178C107.625 61.0178 108.286 61.2121 108.869 61.6267C103.7 62.106 98.5823 62.5336 93.4909 63.259ZM58.4989 84.7258C58.4341 85.827 58.2009 86.7857 57.4366 87.563C56.737 88.2626 56.1022 89.027 55.4674 89.7784C55.0139 90.3095 54.9751 90.5557 55.3896 91.0869C56.1929 92.1233 57.0349 93.1338 57.89 94.1313C58.0973 94.3775 58.46 94.4941 58.8228 94.7143C59.0948 93.5095 59.3539 92.4601 59.5612 91.3978C59.7037 90.7112 60.0535 90.3225 60.779 90.1929C62.6834 89.8432 64.5749 89.4286 66.4793 89.0658C67.6194 88.8456 68.7724 88.6513 70.0549 88.4181C69.757 88.0553 69.5626 87.7962 69.3424 87.563C68.6558 86.8505 67.9303 86.1768 67.2955 85.4254C66.5182 84.5056 65.5854 84.0651 64.3676 84.104C63.668 84.1169 62.9555 83.9874 62.243 83.9226C62.217 83.8578 62.1911 83.7931 62.1782 83.7283C62.4243 83.5469 62.6575 83.3396 62.9166 83.1842C63.1109 83.0676 63.3441 83.0287 63.5644 82.951C66.8809 81.6943 70.1975 80.4377 73.514 79.181C74.5634 78.7924 75.2759 78.0539 75.7941 77.0823C75.6516 77.0823 75.522 77.1211 75.4314 77.1989C74.2654 78.2612 72.8533 78.7276 71.3375 78.9996C70.8582 79.0903 70.3788 79.2328 69.8995 79.3494C69.3165 79.4919 68.7594 79.5178 68.1764 79.2587C67.8785 79.1292 67.4769 79.1292 67.14 79.181C66.4275 79.2976 65.7279 79.5049 65.0283 79.6604C64.834 79.6992 64.6397 79.7122 64.264 79.751C64.8599 79.1421 65.3263 78.7146 65.9741 78.4944C66.6607 78.2612 67.3214 77.9632 68.008 77.73C68.5262 77.5487 68.8372 77.2895 68.8631 76.6936C68.889 76.0718 69.0703 75.4629 69.1351 74.841C69.1869 74.3746 69.3942 74.0507 69.757 73.7787C70.5732 73.1698 71.3764 72.5479 72.1796 71.9131C72.4128 71.7318 72.6849 71.5763 72.7496 71.1099C71.5318 71.8354 70.4566 72.535 69.3294 73.1309C67.3343 74.1803 65.7279 75.6183 64.4712 77.4968C64.1215 78.028 63.5903 78.4685 63.085 78.8571C60.7142 80.6838 58.3175 82.4716 55.9467 84.2983C55.273 84.8165 54.6641 85.4384 54.0941 86.0732C53.4204 86.8246 53.5889 87.6926 54.5216 88.3144C54.9751 87.9906 55.4544 87.6408 55.9338 87.3039C56.6593 86.7857 57.3718 86.2805 57.7475 85.4125C57.877 85.1275 58.2398 84.9461 58.4989 84.7258ZM109.53 73.1827C110.851 73.3252 111.952 73.5196 113.092 73.118C113.947 72.807 114.893 72.7164 115.761 72.4443C116.81 72.1204 117.678 72.3536 118.52 73.0273C120.49 74.6208 122.459 76.2143 124.454 77.7689C125.063 78.2482 125.762 78.6369 126.475 78.9737C127.783 79.5826 129.131 80.1267 130.452 80.6968C131.178 81.0077 131.618 81.5259 131.761 82.3032C131.812 82.5623 131.903 82.8085 131.942 83.0676C132.331 85.8011 132.706 88.5347 133.121 91.2682C133.38 92.9524 133.082 94.5329 132.305 96.0358C131.307 97.9531 130.323 99.8964 129.299 101.801C129.066 102.228 128.768 102.682 128.379 102.928C127.136 103.692 126.592 104.742 126.708 106.18C126.747 106.711 126.656 107.242 126.63 107.773C127.006 107.553 127.213 107.307 127.408 107.048C130.141 103.368 132.37 99.3782 134.378 95.2584C134.546 94.9086 134.676 94.52 134.701 94.1313C135.142 89.2343 135.038 84.3501 134.144 79.4919C134.015 78.8053 133.717 78.2871 133.134 77.8855C128.872 74.8928 124.415 72.25 119.699 70.0217C118.741 69.5682 117.834 69.5035 116.862 69.931C114.66 70.8897 112.457 71.8224 110.255 72.7682C110.048 72.8459 109.866 72.9755 109.53 73.1827ZM97.2091 143.53C97.2609 142.506 97.1443 141.547 96.6909 140.628C96.2374 139.721 95.8617 138.762 95.499 137.816C94.346 134.85 93.193 131.87 92.0918 128.877C91.8456 128.217 91.7161 127.452 91.7808 126.753C91.9622 124.757 92.1825 122.762 92.5582 120.793C93.5557 115.533 94.6569 110.286 95.7063 105.04C95.9395 103.848 95.4731 102.76 95.2269 101.632C95.0196 101.904 94.8901 102.164 94.7864 102.436C94.1776 104.029 93.5557 105.623 92.9727 107.229C91.1719 112.204 89.4748 117.218 88.1275 122.335C87.7518 123.747 87.8554 125.004 88.4384 126.338C90.9258 132.038 93.7889 137.544 96.8334 142.973C96.95 143.167 97.0925 143.348 97.2091 143.53ZM70.4695 74.7503C70.4954 74.8281 70.5213 74.9058 70.5472 74.9835C71.2598 74.9835 71.9723 75.0224 72.6719 74.9706C74.2654 74.854 75.8977 74.9706 77.4524 74.4912C79.4604 73.8823 81.4685 73.2734 83.4636 72.6127C83.8652 72.4832 84.3186 72.1852 84.5389 71.8354C85.6142 70.0735 86.6376 68.2727 87.6611 66.4849C87.6999 66.4072 87.7 66.3035 87.7388 66.0962C86.3137 66.0444 84.9016 65.8501 83.5672 66.3813C81.313 67.2752 79.0847 68.2468 76.8823 69.2573C76.3382 69.5035 75.8718 69.9698 75.4573 70.4103C74.8095 71.1099 74.2136 71.8484 73.6565 72.6257C73.0735 73.4289 72.3739 74.0119 71.4282 74.3098C71.0784 74.4135 70.7804 74.6078 70.4695 74.7503ZM70.6379 90.0245C70.625 90.0893 70.612 90.1541 70.5991 90.2318C70.8841 90.3484 71.182 90.478 71.4671 90.5816C73.0476 91.1516 74.6281 91.7087 76.1957 92.2917C77.4135 92.7451 77.8022 93.7427 77.2062 94.8827C76.118 96.9167 74.8484 98.8341 73.3844 100.622C73.0994 100.959 72.7108 101.283 72.3092 101.425C70.897 101.943 69.4461 102.371 68.008 102.863C67.5157 103.032 67.1271 102.941 66.7514 102.604C66.285 102.189 65.8056 101.775 65.3392 101.373C65.1838 101.244 64.9895 101.127 64.7303 100.946C64.6267 102.202 64.4972 103.304 64.9895 104.431C65.4558 105.467 65.7149 106.607 66.0259 107.708C66.285 108.628 66.4534 109.561 66.6866 110.494C66.855 111.142 67.0493 111.297 67.6712 111.154C68.6299 110.934 69.5886 110.701 70.5084 110.338C70.9877 110.144 71.3634 109.691 71.778 109.341C71.4671 109.211 71.2598 109.211 71.0525 109.263C70.2881 109.431 69.5238 109.639 68.7465 109.768C68.0598 109.898 67.9432 109.794 67.8007 109.121C67.6064 108.149 67.438 107.177 67.2825 106.206C67.1271 105.325 67.1789 105.26 68.0858 104.949C70.0679 104.262 72.063 103.576 74.0581 102.915C74.5763 102.747 75.0297 102.513 75.3018 102.021C76.7657 99.443 78.2297 96.8778 79.6677 94.2997C79.7973 94.0666 79.9009 93.6909 79.8102 93.4577C79.4863 92.6285 79.0847 91.8383 78.0742 91.6051C76.0014 91.1128 73.9286 90.5686 71.8557 90.0764C71.4541 89.9986 71.0395 90.0375 70.6379 90.0245ZM103.35 85.9825C103.298 85.6586 103.272 85.4643 103.233 85.2829C102.832 83.3526 102.43 81.4223 102.015 79.5049C101.86 78.7664 101.821 78.0928 102.378 77.4709C102.728 77.0823 102.974 76.6159 103.259 76.1624C104.866 73.5584 104.853 74.3228 104.127 70.9544C104.101 70.8249 104.075 70.6953 104.024 70.5787C103.946 70.4362 103.855 70.2678 103.726 70.203C102.922 69.7755 102.145 69.3221 101.135 69.5423C98.4398 70.1253 95.7322 70.6176 93.0245 71.1617C91.8715 71.3949 91.2497 72.1334 91.0813 73.4159C91.6513 73.5196 92.2343 73.5973 92.8043 73.7398C93.6334 73.9601 94.3978 73.8305 95.1881 73.4937C96.8463 72.7941 98.5564 72.2111 100.228 71.5115C100.862 71.2395 101.445 71.3172 102.028 71.5633C103.013 71.9779 103.441 73.403 102.819 74.258C102.093 75.2685 101.342 76.2661 100.564 77.2507C100.228 77.6782 100.137 78.0798 100.305 78.611C100.94 80.5802 101.536 82.5623 102.132 84.5315C102.313 85.1275 102.637 85.5679 103.35 85.9825ZM72.1019 49.8245C69.0963 50.0318 66.1943 50.2391 63.2794 50.4334C63.2794 49.669 63.2794 49.0342 63.2794 48.3087C65.9093 48.1014 68.4874 47.9071 71.1043 47.6998C71.1043 47.2464 71.1043 46.8707 71.1043 46.3784C68.4744 46.5727 65.9093 46.7541 63.2923 46.9355C63.2923 46.2618 63.2923 45.6659 63.2923 44.9922C66.2591 44.7719 69.161 44.5517 72.076 44.3315C72.1019 44.0594 72.1278 43.8651 72.1278 43.6708C72.1278 43.4894 72.1019 43.2951 72.063 42.9841C68.604 43.2432 65.2226 43.5023 61.8413 43.7614C61.8413 46.5468 61.8413 49.1897 61.8413 51.9103C65.3004 51.6512 68.6946 51.3921 72.0889 51.133C72.1019 50.6795 72.1019 50.3297 72.1019 49.8245ZM99.554 49.1379C97.1314 49.1379 94.8253 49.1508 92.5322 49.1249C91.8068 49.1249 91.5347 48.8269 91.5217 48.0885C91.4958 47.065 91.5088 46.0545 91.5217 45.0311C91.5217 43.8262 91.6772 43.6578 92.882 43.6448C95.0456 43.6319 97.222 43.6448 99.3856 43.6578C99.7353 43.6578 100.085 43.6578 100.461 43.6578C100.461 43.1525 100.461 42.7898 100.461 42.3752C100.241 42.3493 100.085 42.3234 99.9297 42.3234C97.5589 42.3105 95.201 42.2975 92.8302 42.3105C92.4675 42.3105 92.1047 42.3623 91.7549 42.44C90.7574 42.6473 90.2003 43.1655 90.1485 44.1631C90.0708 45.7047 90.0837 47.2594 90.1485 48.801C90.1874 49.7208 90.7315 50.2131 91.6383 50.3686C92.0529 50.4463 92.4934 50.4722 92.9079 50.4852C95.3047 50.5111 97.7014 50.5111 100.111 50.5241C100.396 50.5241 100.681 50.4852 101.031 50.4593C101.07 48.8399 101.096 47.2853 101.018 45.7177C99.0617 45.7177 97.235 45.7177 95.4342 45.7177C95.4342 46.1711 95.4342 46.5468 95.4342 47.0262C96.8463 47.0262 98.1807 47.0262 99.541 47.0262C99.554 47.7516 99.554 48.3994 99.554 49.1379ZM105.98 43.8003C108.985 43.9039 111.9 44.0205 114.854 44.1242C114.854 43.6578 114.854 43.2821 114.854 42.8287C111.408 42.6602 108.014 42.4659 104.529 42.453C104.529 45.2254 104.516 47.8682 104.529 50.55C108.066 50.6795 111.46 50.8091 114.919 50.9516C114.893 50.4334 114.88 50.0577 114.854 49.6172C111.836 49.4876 108.921 49.3711 105.98 49.2545C105.98 48.529 105.98 47.8812 105.98 47.2334C107.353 47.2334 108.649 47.2334 109.957 47.2334C111.253 47.2464 112.548 47.4666 113.831 47.35C113.831 46.8707 113.831 46.495 113.831 46.0675C111.175 45.9638 108.597 45.8602 105.967 45.7436C105.98 45.0958 105.98 44.5258 105.98 43.8003ZM129.584 47.933C129.584 47.933 129.597 47.933 129.584 47.933C129.584 47.3112 129.584 46.6893 129.584 46.0675C129.584 46.0027 129.584 45.9379 129.584 45.8731C129.532 44.7979 129.066 44.176 128.03 43.8521C127.719 43.7485 127.395 43.6837 127.071 43.6578C125.076 43.5023 123.081 43.3469 121.086 43.2044C120.723 43.1785 120.36 43.1914 120.01 43.2303C118.961 43.3339 118.43 43.8133 118.391 44.8497C118.326 46.3525 118.326 47.8682 118.404 49.384C118.443 50.4075 118.961 50.9257 119.958 51.1589C120.399 51.2625 120.865 51.3143 121.319 51.3532C122.757 51.4698 124.195 51.5864 125.633 51.6771C126.423 51.7289 127.213 51.7807 127.991 51.7419C129.014 51.69 129.545 51.133 129.584 50.1095C129.61 49.384 129.584 48.6585 129.584 47.933ZM49.2618 50.7573C51.1274 50.55 52.8634 50.3556 54.5864 50.1484C55.4026 50.0447 56.2188 49.954 57.009 49.7856C57.7993 49.6172 58.4082 49.099 58.5118 48.2699C58.6155 47.4278 58.6155 46.5727 58.5248 45.7306C58.4471 44.9663 57.9159 44.5128 57.1515 44.3962C56.8018 44.3444 56.4261 44.3185 56.0763 44.3574C54.4828 44.5128 52.8763 44.6813 51.2828 44.8626C50.1557 44.9922 49.0286 45.1477 47.8886 45.3031C47.8886 48.0496 47.8886 50.6925 47.8886 53.4131C48.355 53.3613 48.7695 53.3094 49.2618 53.2447C49.2618 52.4414 49.2618 51.6641 49.2618 50.7573ZM77.0508 42.7898C76.5196 42.8157 76.105 42.8416 75.5868 42.8675C75.5868 43.2951 75.5868 43.6578 75.5868 44.0076C75.5868 45.5234 75.5739 47.0391 75.5868 48.5419C75.6127 50.2131 76.1698 50.7702 77.8669 50.822C77.9317 50.822 77.9965 50.822 78.0613 50.822C80.16 50.7443 82.2717 50.6925 84.3705 50.5629C86.0676 50.4593 86.6117 49.8504 86.6247 48.1144C86.6376 46.5079 86.6247 44.8885 86.6247 43.2821C86.6247 43.023 86.5988 42.7768 86.5728 42.4789C86.1065 42.4789 85.6919 42.4789 85.2126 42.4789C85.1996 42.8416 85.1607 43.1655 85.1607 43.4894C85.1607 45.0699 85.1737 46.6505 85.1478 48.231C85.1348 49.0342 84.9794 49.2285 84.1632 49.2674C82.0903 49.3711 80.0305 49.4488 77.9576 49.5136C77.2321 49.5395 77.0508 49.3322 77.0378 48.5549C77.0248 47.7387 77.0378 46.9096 77.0378 46.0934C77.0508 45.057 77.0508 44.0076 77.0508 42.7898ZM142.993 45.2772C139.365 44.8756 135.829 44.474 132.214 44.0724C132.214 44.5776 132.214 44.9533 132.214 45.4068C133.769 45.5881 135.284 45.7565 136.904 45.9379C136.904 48.231 136.904 50.4463 136.904 52.6876C137.422 52.7524 137.837 52.8171 138.381 52.8819C138.381 50.5888 138.381 48.3994 138.381 46.1063C139.987 46.2748 141.477 46.4302 142.993 46.5986C142.993 46.1322 142.993 45.7825 142.993 45.2772ZM75.1852 96.3467C75.1075 96.2689 75.0427 96.2042 74.965 96.1264C72.8014 97.9143 70.625 99.7021 68.4615 101.49C68.4874 101.555 68.5262 101.606 68.5521 101.671C69.7181 101.27 70.8841 100.868 72.0371 100.441C72.2055 100.376 72.3739 100.233 72.4905 100.078C73.3974 98.847 74.2913 97.6033 75.1852 96.3467ZM62.4632 93.6002C61.2713 93.8981 60.3903 94.3386 59.8721 95.3491C60.5458 96.1264 61.1418 96.8001 61.8154 97.5774C61.9061 97.2535 61.9709 97.0722 61.9968 96.8908C62.1523 95.8544 62.2948 94.8309 62.4632 93.6002ZM71.0655 76.0847C71.0395 76.7713 71.0136 77.3414 70.9877 77.9244C72.944 77.7171 73.2549 77.3673 72.7367 75.994C72.2444 76.0199 71.7262 76.0458 71.0655 76.0847Z" fill="black"/>
<path d="M101.549 139.552C101.329 139.112 101.2 138.853 101.083 138.594C100.422 136.987 99.8004 135.355 99.1138 133.761C98.751 132.919 98.751 132.116 99.0749 131.287C99.6968 129.693 100.254 128.087 100.915 126.506C101.821 124.317 102.78 122.153 103.726 119.99C103.855 119.705 103.998 119.433 104.14 119.161C104.205 119.187 104.27 119.213 104.335 119.238C104.244 119.614 104.166 119.99 104.063 120.353C103.311 123.073 102.612 125.82 101.808 128.514C101.083 130.924 101.575 133.191 102.417 135.445C102.482 135.407 102.573 135.394 102.599 135.342C103.298 133.839 104.464 132.725 105.682 131.663C110.45 127.517 115.217 123.384 120.011 119.277C120.788 118.617 121.215 117.904 121.332 116.881C121.889 111.802 121.928 106.711 121.656 101.619C121.604 100.544 121.228 99.5725 120.619 98.6785C119.285 96.7482 117.73 95.0122 116.059 93.3669C115.554 92.8617 115.23 92.3046 115.075 91.592C114.479 88.6901 113.844 85.814 113.222 82.9121C113.17 82.6659 113.157 82.4068 113.118 82.0959C113.766 82.1995 114.233 82.4716 114.634 82.8861C118.003 86.4488 121.177 90.1799 123.962 94.222C124.376 94.8309 124.636 95.4657 124.713 96.2171C125.063 99.4947 125.128 102.772 124.921 106.063C124.674 110.105 124.04 114.095 123.081 118.034C122.848 118.992 122.355 119.653 121.604 120.262C116.279 124.602 110.994 128.994 105.695 133.373C104.775 134.137 104.037 135.044 103.467 136.106C102.884 137.22 102.262 138.296 101.549 139.552Z" fill="white"/>
<path d="M86.8448 84.9979C87.3371 86.9671 87.8294 88.9363 88.2958 90.9184C88.4513 91.5532 88.244 92.1492 87.9849 92.7321C86.4303 96.243 84.9404 99.7927 83.3081 103.265C81.1964 107.773 81.9219 106.568 78.6571 109.885C77.53 111.038 76.3641 112.139 75.1851 113.24C74.654 113.733 74.2783 114.29 74.1876 115.002C74.0192 116.311 73.8896 117.606 73.7471 118.915C73.6694 119.666 73.8637 120.353 74.2524 120.987C74.926 122.076 75.5738 123.177 76.3122 124.226C79.7842 129.188 83.5542 133.917 87.5703 138.438C88.6456 139.656 89.8116 140.744 91.2107 141.573C91.6124 141.807 91.9103 142.208 92.2601 142.532C92.2213 142.597 92.1824 142.662 92.1435 142.713C91.9492 142.649 91.7549 142.61 91.5735 142.532C91.0164 142.26 90.4723 141.936 89.9023 141.703C88.1015 140.951 86.6894 139.695 85.3679 138.309C81.1575 133.865 77.2191 129.201 73.5787 124.265C72.8921 123.345 72.2961 122.361 71.6613 121.402C71.2208 120.715 71.0395 119.964 71.1302 119.148C71.3374 117.321 71.5447 115.494 71.7261 113.668C71.8297 112.644 72.2832 111.815 72.9568 111.038C77.2839 105.921 81.3518 100.583 85.057 94.9864C85.5623 94.222 86.0027 93.4058 86.495 92.6285C86.9226 91.9548 87.078 91.2423 86.9873 90.465C86.8708 89.4156 86.7282 88.3792 86.6376 87.3298C86.5598 86.5655 86.5469 85.7881 86.495 85.0108C86.6116 85.0108 86.7282 84.9979 86.8448 84.9979Z" fill="white"/>
<path d="M93.4913 63.259C98.5827 62.5336 103.7 62.106 108.843 61.6656C108.26 61.238 107.587 61.0437 106.887 61.0567C102.741 61.0696 98.6087 61.0826 94.463 61.1473C92.8177 61.1733 91.1853 61.3417 89.54 61.3676C88.4906 61.3935 87.5449 61.6785 86.6251 62.1708C83.1272 64.0623 79.6293 65.9408 76.1313 67.8322C75.3022 68.2857 74.4731 68.7521 73.5273 69.2832C73.7217 68.6096 74.1492 68.3375 74.5767 68.0784C76.6495 66.7958 78.5281 65.2542 80.3936 63.6866C81.3653 62.8833 82.2462 62.0024 82.8162 60.8753C83.2438 60.0462 83.8656 59.6705 84.8502 59.5927C90.4598 59.1652 96.0694 59.0097 101.692 59.217C103.7 59.2948 105.695 59.3984 107.703 59.4891C108.74 59.5279 109.711 59.7611 110.644 60.1887C114.984 62.1708 119.143 64.4898 123.288 66.8347C123.431 66.9124 123.586 66.9901 123.703 67.1067C125.478 68.8039 127.253 70.501 129.17 72.3277C128.276 72.4054 127.719 72.1463 127.149 71.8095C124.558 70.2549 121.967 68.7132 119.324 67.2363C118.689 66.8865 117.912 66.7181 117.173 66.6274C115.943 66.4719 114.673 66.4849 113.442 66.3424C112.808 66.2647 112.16 66.0962 111.564 65.8371C110.048 65.2023 108.558 64.5157 107.068 63.8161C106.084 63.3627 105.073 63.2202 103.998 63.272C101.005 63.4145 98.0257 63.5182 95.033 63.6218C94.5278 63.6347 94.0095 63.5959 93.4913 63.5829C93.5043 63.4404 93.5043 63.3497 93.4913 63.259Z" fill="white"/>
<path d="M58.4991 84.7259C58.253 84.9461 57.8902 85.1275 57.7607 85.4125C57.385 86.2805 56.6595 86.7858 55.947 87.304C55.4676 87.6538 54.9883 87.9906 54.5348 88.3145C53.6021 87.6797 53.4336 86.8247 54.1073 86.0732C54.6773 85.4384 55.2862 84.8295 55.9599 84.2984C58.3178 82.4587 60.7274 80.6839 63.0982 78.8572C63.6164 78.4556 64.1347 78.0151 64.4845 77.4969C65.7411 75.6184 67.3605 74.1933 69.3427 73.131C70.4698 72.535 71.545 71.8355 72.7628 71.11C72.711 71.5764 72.426 71.7448 72.1928 71.9132C71.3896 72.535 70.5864 73.1699 69.7702 73.7787C69.4074 74.0508 69.1872 74.3747 69.1483 74.8411C69.0836 75.4629 68.9151 76.0718 68.8763 76.6937C68.8504 77.2896 68.5394 77.5617 68.0212 77.7301C67.3346 77.9633 66.6739 78.2613 65.9873 78.4944C65.3395 78.7147 64.8601 79.1422 64.2772 79.7511C64.6399 79.7122 64.8472 79.7122 65.0415 79.6604C65.7411 79.505 66.4407 79.2977 67.1532 79.1811C67.4901 79.1293 67.8917 79.1163 68.1896 79.2588C68.7726 79.5179 69.3297 79.492 69.9127 79.3495C70.392 79.2329 70.8714 79.0904 71.3507 78.9997C72.8535 78.7147 74.2786 78.2613 75.4446 77.1989C75.5352 77.1212 75.6518 77.0823 75.8073 77.0823C75.2891 78.041 74.5766 78.7795 73.5272 79.1811C70.2107 80.4377 66.8941 81.6944 63.5776 82.951C63.3573 83.0288 63.1242 83.0806 62.9298 83.1842C62.6707 83.3397 62.4375 83.547 62.1914 83.7284C62.2173 83.7931 62.2432 83.8579 62.2562 83.9227C62.9687 83.9875 63.6683 84.117 64.3808 84.1041C65.5986 84.0781 66.5314 84.5057 67.3087 85.4255C67.9435 86.1769 68.6819 86.8506 69.3556 87.5631C69.5758 87.7963 69.7702 88.0554 70.0681 88.4181C68.7856 88.6513 67.6326 88.8457 66.4925 89.0659C64.5881 89.4416 62.6966 89.8562 60.7922 90.193C60.0667 90.3226 59.7169 90.7112 59.5744 91.3979C59.3542 92.4602 59.108 93.5095 58.836 94.7144C58.4732 94.4941 58.1234 94.3775 57.9032 94.1314C57.0352 93.1338 56.2061 92.1233 55.4028 91.0869C54.9883 90.5558 55.0271 90.3096 55.4806 89.7784C56.1154 89.027 56.7502 88.2627 57.4498 87.5631C58.1882 86.7858 58.4214 85.8271 58.4991 84.7259Z" fill="white"/>
<path d="M109.53 73.1828C109.88 72.9755 110.048 72.846 110.242 72.7682C112.445 71.8225 114.66 70.8897 116.849 69.931C117.821 69.5035 118.728 69.5683 119.687 70.0217C124.402 72.2371 128.859 74.8929 133.121 77.8855C133.704 78.3001 134.002 78.8054 134.132 79.492C135.026 84.3502 135.129 89.2343 134.689 94.1314C134.65 94.52 134.533 94.9087 134.365 95.2585C132.37 99.3783 130.142 103.356 127.395 107.048C127.201 107.307 126.993 107.553 126.618 107.773C126.644 107.242 126.734 106.711 126.695 106.18C126.579 104.729 127.123 103.679 128.367 102.928C128.755 102.682 129.066 102.228 129.286 101.801C130.31 99.8835 131.295 97.9532 132.292 96.0358C133.069 94.533 133.367 92.9525 133.108 91.2683C132.694 88.5347 132.331 85.8012 131.929 83.0676C131.89 82.8085 131.8 82.5624 131.748 82.3033C131.605 81.526 131.152 81.0078 130.44 80.6968C129.105 80.1268 127.771 79.5956 126.462 78.9738C125.763 78.6369 125.063 78.2483 124.441 77.769C122.433 76.2143 120.464 74.6338 118.508 73.0273C117.679 72.3537 116.798 72.1334 115.748 72.4444C114.867 72.7164 113.935 72.8071 113.08 73.118C111.952 73.5196 110.851 73.3253 109.53 73.1828Z" fill="white"/>
<path d="M97.2092 143.53C97.0796 143.348 96.9371 143.167 96.8335 142.972C93.789 137.557 90.913 132.051 88.4385 126.338C87.8555 125.004 87.7519 123.734 88.1276 122.335C89.4749 117.205 91.1721 112.204 92.9728 107.229C93.5558 105.623 94.1777 104.029 94.7866 102.436C94.8902 102.164 95.0198 101.904 95.227 101.632C95.4862 102.76 95.9525 103.848 95.7064 105.04C94.657 110.286 93.5688 115.533 92.5583 120.793C92.1826 122.762 91.9753 124.757 91.781 126.753C91.7162 127.452 91.8457 128.217 92.0919 128.877C93.1801 131.87 94.3461 134.837 95.4991 137.816C95.8619 138.762 96.2505 139.721 96.691 140.628C97.1444 141.534 97.274 142.506 97.2092 143.53Z" fill="white"/>
<path d="M70.4697 74.7503C70.7807 74.5948 71.0916 74.4005 71.4155 74.2968C72.3612 73.9988 73.0608 73.4159 73.6438 72.6126C74.2008 71.8353 74.7968 71.0969 75.4445 70.3973C75.8591 69.9568 76.3384 69.4904 76.8696 69.2443C79.072 68.2338 81.3003 67.2621 83.5545 66.3682C84.8889 65.8371 86.301 66.0314 87.7261 66.0832C87.6872 66.2905 87.7002 66.4071 87.6483 66.4719C86.6119 68.2597 85.6014 70.0734 84.5261 71.8224C84.3059 72.1722 83.8654 72.4701 83.4508 72.5997C81.4557 73.2604 79.4477 73.8693 77.4396 74.4782C75.8721 74.9575 74.2526 74.828 72.6592 74.9575C71.9596 75.0094 71.247 74.9705 70.5345 74.9705C70.5086 74.9057 70.4956 74.828 70.4697 74.7503Z" fill="white"/>
<path d="M70.638 90.0245C71.0396 90.0374 71.4541 89.9986 71.8298 90.0893C73.9027 90.5816 75.9755 91.1257 78.0483 91.618C79.0589 91.8641 79.4605 92.6414 79.7843 93.4706C79.875 93.7038 79.7714 94.0665 79.6418 94.3127C78.2038 96.8908 76.7399 99.4688 75.2759 102.034C75.0039 102.526 74.5375 102.759 74.0322 102.928C72.0371 103.602 70.055 104.288 68.0599 104.962C67.153 105.273 67.1141 105.338 67.2566 106.219C67.4251 107.19 67.5935 108.162 67.7749 109.133C67.9044 109.807 68.034 109.898 68.7206 109.781C69.4979 109.639 70.2623 109.431 71.0266 109.276C71.2339 109.237 71.4541 109.224 71.7521 109.354C71.3246 109.691 70.9618 110.157 70.4825 110.351C69.5756 110.714 68.604 110.947 67.6453 111.167C67.0235 111.31 66.8291 111.154 66.6607 110.507C66.4275 109.587 66.2461 108.641 66 107.721C65.6891 106.62 65.43 105.48 64.9636 104.444C64.4583 103.317 64.6008 102.215 64.7045 100.959C64.9636 101.14 65.1579 101.244 65.3134 101.386C65.7927 101.788 66.2721 102.189 66.7255 102.617C67.1012 102.954 67.4898 103.044 67.9821 102.876C69.4072 102.384 70.8582 101.956 72.2833 101.438C72.6849 101.283 73.0865 100.972 73.3586 100.635C74.8225 98.847 76.0921 96.9296 77.1803 94.8957C77.7763 93.7686 77.3876 92.758 76.1698 92.3046C74.6023 91.7216 73.0217 91.1646 71.4412 90.5945C71.1432 90.4909 70.8582 90.3613 70.5732 90.2447C70.6121 90.154 70.625 90.0893 70.638 90.0245Z" fill="white"/>
<path d="M103.35 85.9825C102.638 85.5679 102.314 85.1145 102.132 84.5186C101.536 82.5364 100.928 80.5672 100.306 78.598C100.137 78.0669 100.228 77.6653 100.565 77.2377C101.342 76.2531 102.093 75.2556 102.819 74.2451C103.441 73.39 103 71.965 102.029 71.5504C101.446 71.3043 100.876 71.2395 100.228 71.4986C98.5567 72.1852 96.8466 72.7812 95.1884 73.4807C94.3981 73.8176 93.6337 73.9342 92.8046 73.7269C92.2346 73.5844 91.6516 73.5066 91.0815 73.403C91.25 72.1204 91.8718 71.382 93.0248 71.1488C95.7195 70.6047 98.4401 70.0994 101.135 69.5294C102.145 69.3092 102.923 69.7626 103.726 70.1901C103.855 70.2549 103.946 70.4233 104.024 70.5658C104.089 70.6824 104.102 70.812 104.127 70.9415C104.853 74.3099 104.866 73.5455 103.259 76.1495C102.987 76.6029 102.728 77.0693 102.378 77.458C101.821 78.0798 101.86 78.7535 102.016 79.492C102.43 81.4223 102.832 83.3397 103.234 85.27C103.272 85.4643 103.298 85.6586 103.35 85.9825Z" fill="white"/>
<path d="M72.1023 49.8245C72.1023 50.3168 72.1023 50.6666 72.1023 51.1459C68.6951 51.405 65.3138 51.6641 61.8547 51.9232C61.8547 49.2156 61.8547 46.5727 61.8547 43.7744C65.236 43.5153 68.6303 43.2562 72.0764 42.9971C72.1023 43.308 72.1412 43.4894 72.1412 43.6837C72.1412 43.878 72.1153 44.0724 72.0894 44.3444C69.1744 44.5647 66.2725 44.7849 63.3057 45.0051C63.3057 45.6788 63.3057 46.2747 63.3057 46.9484C65.9227 46.7541 68.4878 46.5727 71.1177 46.3913C71.1177 46.8966 71.1177 47.2723 71.1177 47.7128C68.5008 47.9201 65.9227 48.1144 63.2928 48.3217C63.2928 49.0342 63.2928 49.682 63.2928 50.4463C66.1947 50.239 69.0837 50.0318 72.1023 49.8245Z" fill="white"/>
<path d="M99.5542 49.1379C99.5542 48.3994 99.5542 47.7517 99.5542 47.0003C98.1809 47.0003 96.8595 47.0003 95.4473 47.0003C95.4473 46.5209 95.4473 46.1452 95.4473 45.6918C97.2481 45.6918 99.0748 45.6918 101.031 45.6918C101.109 47.2594 101.083 48.814 101.044 50.4334C100.694 50.4593 100.409 50.4982 100.124 50.4982C97.7275 50.4982 95.3307 50.4852 92.9211 50.4593C92.4936 50.4593 92.066 50.4205 91.6515 50.3427C90.7446 50.1873 90.2005 49.682 90.1616 48.7751C90.0968 47.2335 90.0968 45.6788 90.1616 44.1372C90.2134 43.1396 90.7705 42.6214 91.7681 42.4141C92.1179 42.3364 92.4806 42.2846 92.8433 42.2846C95.2141 42.2846 97.572 42.2975 99.9428 42.2975C100.098 42.2975 100.254 42.3234 100.474 42.3494C100.474 42.7639 100.474 43.1396 100.474 43.6319C100.098 43.6319 99.7485 43.6319 99.3987 43.6319C97.2352 43.6319 95.0587 43.619 92.8952 43.619C91.6903 43.619 91.5349 43.8003 91.5349 45.0052C91.5349 46.0286 91.5219 47.0391 91.5349 48.0626C91.5478 48.8011 91.8199 49.099 92.5454 49.099C94.8384 49.1508 97.1315 49.1379 99.5542 49.1379Z" fill="white"/>
<path d="M105.98 43.8003C105.98 44.5257 105.98 45.0958 105.98 45.7435C108.61 45.8472 111.188 45.9508 113.844 46.0674C113.844 46.5079 113.844 46.8706 113.844 47.35C112.561 47.4666 111.266 47.2334 109.97 47.2334C108.662 47.2204 107.353 47.2334 105.993 47.2334C105.993 47.8811 105.993 48.516 105.993 49.2544C108.934 49.371 111.849 49.5005 114.867 49.6171C114.893 50.0447 114.906 50.4204 114.932 50.9515C111.473 50.822 108.079 50.6924 104.542 50.5499C104.529 47.8682 104.542 45.2253 104.542 42.4529C108.027 42.4659 111.421 42.6602 114.867 42.8286C114.867 43.282 114.867 43.6577 114.867 44.1241C111.901 44.0075 108.999 43.9039 105.98 43.8003Z" fill="white"/>
<path d="M129.584 47.9331C129.584 48.6586 129.61 49.3841 129.572 50.0966C129.52 51.1201 128.989 51.6771 127.978 51.7289C127.201 51.7678 126.397 51.716 125.62 51.6642C124.182 51.5735 122.744 51.4569 121.306 51.3403C120.853 51.3014 120.386 51.2496 119.946 51.146C118.948 50.9128 118.443 50.3946 118.391 49.3711C118.326 47.8683 118.326 46.3525 118.378 44.8368C118.417 43.8004 118.961 43.321 119.998 43.2174C120.36 43.1785 120.723 43.1655 121.073 43.1915C123.068 43.334 125.063 43.4765 127.058 43.6449C127.382 43.6708 127.706 43.7485 128.017 43.8392C129.053 44.1631 129.52 44.7849 129.572 45.8602C129.572 45.925 129.572 45.9898 129.572 46.0546C129.597 46.6894 129.597 47.3112 129.584 47.9331C129.597 47.9331 129.584 47.9331 129.584 47.9331ZM128.185 47.8165C128.185 47.2205 128.198 46.6375 128.185 46.0416C128.159 45.3291 127.952 45.07 127.265 45.0181C125.076 44.8238 122.887 44.6554 120.697 44.4999C120.088 44.4611 119.803 44.6813 119.79 45.2772C119.751 46.5598 119.751 47.8294 119.79 49.112C119.803 49.6691 120.101 49.9152 120.684 49.967C122.874 50.1484 125.063 50.3039 127.253 50.4593C127.913 50.4982 128.133 50.265 128.159 49.6043C128.211 48.9954 128.185 48.3995 128.185 47.8165Z" fill="white"/>
<path d="M49.2622 50.7573C49.2622 51.6512 49.2622 52.4285 49.2622 53.2577C48.7699 53.3225 48.3553 53.3613 47.8889 53.4261C47.8889 50.6925 47.8889 48.0497 47.8889 45.3161C49.029 45.1736 50.1561 45.0052 51.2832 44.8757C52.8767 44.6943 54.4831 44.5259 56.0766 44.3704C56.4264 44.3315 56.8021 44.3574 57.1519 44.4093C57.9163 44.5259 58.4474 44.9793 58.5252 45.7437C58.6029 46.5857 58.6158 47.4408 58.5122 48.2829C58.4086 49.112 57.7997 49.6173 57.0094 49.7986C56.2062 49.98 55.39 50.0577 54.5868 50.1614C52.8637 50.3557 51.1277 50.55 49.2622 50.7573ZM49.3269 49.397C50.0654 49.3193 50.6743 49.2416 51.2961 49.1768C52.9544 48.9954 54.6127 48.814 56.2709 48.6068C56.9964 48.5161 57.1519 48.3088 57.1778 47.5833C57.1908 47.2594 57.1908 46.9226 57.1778 46.5987C57.1519 45.7825 56.9446 45.6011 56.1673 45.6789C54.9625 45.7955 53.7576 45.925 52.5528 46.0675C51.4905 46.1971 50.4281 46.3396 49.3269 46.4821C49.3269 47.4667 49.3269 48.3606 49.3269 49.397Z" fill="white"/>
<path d="M77.0511 42.7897C77.0511 44.0075 77.0511 45.0569 77.0511 46.1063C77.0511 46.9224 77.0382 47.7516 77.0511 48.5678C77.0641 49.3321 77.2455 49.5394 77.9709 49.5264C80.0438 49.4617 82.1166 49.3839 84.1765 49.2803C84.9927 49.2414 85.1481 49.0471 85.1611 48.2439C85.174 46.6633 85.1611 45.0828 85.1741 43.5023C85.1741 43.1784 85.2 42.8675 85.2259 42.4918C85.7052 42.4918 86.1068 42.4918 86.5862 42.4918C86.5991 42.7768 86.638 43.0359 86.638 43.295C86.638 44.9014 86.6509 46.5208 86.638 48.1273C86.625 49.8503 86.0809 50.4722 84.3838 50.5758C82.285 50.6924 80.1863 50.7442 78.0746 50.8349C78.0098 50.8349 77.945 50.8349 77.8803 50.8349C76.1961 50.7701 75.626 50.226 75.6001 48.5548C75.5742 47.039 75.6001 45.5233 75.6001 44.0205C75.6001 43.6707 75.6001 43.3079 75.6001 42.8804C76.1054 42.8416 76.52 42.8156 77.0511 42.7897Z" fill="white"/>
<path d="M142.993 45.2773C142.993 45.7825 142.993 46.1453 142.993 46.6117C141.477 46.4562 139.987 46.2878 138.381 46.1194C138.381 48.4124 138.381 50.6019 138.381 52.8949C137.837 52.8172 137.422 52.7654 136.904 52.7006C136.904 50.4594 136.904 48.2311 136.904 45.9509C135.284 45.7696 133.769 45.6011 132.214 45.4198C132.214 44.9663 132.214 44.5906 132.214 44.0854C135.816 44.474 139.365 44.8757 142.993 45.2773Z" fill="white"/>
<path d="M75.1852 96.3467C74.2913 97.5904 73.3974 98.8471 72.4905 100.091C72.3739 100.246 72.2055 100.389 72.0371 100.454C70.884 100.881 69.7051 101.283 68.5521 101.684C68.5262 101.62 68.4873 101.568 68.4614 101.503C70.6249 99.7151 72.8014 97.9273 74.9649 96.1395C75.0297 96.2042 75.1075 96.282 75.1852 96.3467Z" fill="white"/>
<path d="M62.4634 93.6001C62.2949 94.8179 62.1524 95.8543 61.997 96.8908C61.9711 97.0721 61.9063 97.2535 61.8156 97.5774C61.1419 96.8001 60.546 96.1264 59.8723 95.3491C60.3905 94.3386 61.2585 93.8981 62.4634 93.6001Z" fill="white"/>
<path d="M71.0655 76.0847C71.7262 76.0458 72.2445 76.0199 72.7367 75.994C73.255 77.3673 72.944 77.7041 70.9878 77.9243C71.0137 77.3414 71.0267 76.7713 71.0655 76.0847Z" fill="white"/>
<path d="M128.185 47.8164C128.185 48.4124 128.198 48.9953 128.185 49.5913C128.159 50.252 127.926 50.4852 127.278 50.4463C125.089 50.3038 122.899 50.1354 120.71 49.954C120.127 49.9022 119.829 49.6561 119.816 49.099C119.777 47.8164 119.777 46.5468 119.816 45.2642C119.829 44.6813 120.114 44.4481 120.723 44.4869C122.912 44.6424 125.102 44.8108 127.291 45.0051C127.978 45.0699 128.185 45.3161 128.211 46.0286C128.198 46.6245 128.185 47.2205 128.185 47.8164Z" fill="black"/>
<path d="M49.3269 49.397C49.3269 48.3606 49.3269 47.4667 49.3269 46.4821C50.4281 46.3396 51.4904 46.1971 52.5527 46.0675C53.7576 45.925 54.9624 45.7954 56.1673 45.6788C56.9446 45.6011 57.1519 45.7954 57.1778 46.5987C57.1907 46.9225 57.1907 47.2594 57.1778 47.5833C57.1519 48.3088 56.9964 48.516 56.2709 48.6067C54.6126 48.814 52.9544 48.9824 51.2961 49.1768C50.6742 49.2415 50.0654 49.3193 49.3269 49.397Z" fill="black"/>
</svg>
