<svg width="192" height="192" viewBox="0 0 192 192" fill="none" xmlns="http://www.w3.org/2000/svg">
<path d="M80.3025 139.141C80.4479 139.141 94.1207 141.771 105.015 153.887L105.161 154.033L105.355 153.984C105.549 153.936 109.684 153.111 114.693 149.118C119.265 145.469 125.447 138.316 128.802 125.079C128.899 124.739 129.093 123.813 128.705 123.376C128.56 123.23 128.317 123.085 127.827 123.182C126.756 123.521 126.077 124.06 126.029 124.109C124.812 125.084 122.426 125.86 122.426 125.86C120.724 126.346 119.75 125.909 119.75 125.909C116.346 124.4 105.01 114.132 104.909 114.035C103.886 112.963 103.692 111.944 103.692 111.944C103.498 109.61 105.738 108.101 105.786 108.052C105.835 108.004 109.776 104.889 126.804 96.2757C127.483 96.2272 132.884 95.6449 137.801 95.0578C137.801 95.0578 138.334 94.9607 138.581 95.4459C138.581 95.4459 139.653 97.1976 139.212 102.016C139.163 102.113 138.969 103.185 139.648 103.671C139.842 103.768 140.278 103.865 140.768 103.525C140.865 103.428 151.178 95.3489 155.265 87.5173C155.265 87.4687 157.355 83.7713 152.152 80.5105C152.007 80.4134 151.57 80.0738 151.517 79.7341C151.517 79.7341 151.42 79.2004 151.663 79.0063C151.711 78.9577 152.492 78.3755 152.244 77.4487C152.244 77.3516 152.05 76.5753 150.591 75.8426C150.446 75.794 137.747 68.8843 125.146 64.163C124.71 64.0174 124.269 63.8234 124.075 63.7263C124.107 63.694 124.139 63.6778 124.172 63.6778C125.001 63.2896 126.164 62.7558 126.164 62.7558C126.795 62.4647 126.843 61.9746 126.746 61.732L126.698 61.5864L126.552 61.4894C126.164 61.2468 87.1437 38.8145 58.6345 46.5539L58.0042 46.748L63.26 52.1001L48.4188 51.3723C60.6806 38.2807 77.9025 30.7887 95.8516 30.7887C131.658 30.7887 160.802 59.9366 160.802 95.7468C160.802 131.557 131.658 160.705 95.8516 160.705C81.1122 160.705 66.6588 155.644 55.1776 146.4C56.5885 144.503 65.3449 135.114 80.2831 139.151M67.197 83.7276C65.7861 86.4546 59.7061 98.9105 60.8746 112.385C60.923 112.677 61.0685 113.162 61.6503 113.361C61.6988 113.361 62.1836 113.506 62.7703 113.167L68.8988 108.397C68.8503 109.857 68.8988 113.021 70.1158 116.767C71.5752 121.192 75.0322 127.277 83.2504 131.707C79.454 131.562 69.5776 129.956 64.4721 117.936C64.4237 117.839 64.1812 117.112 63.643 117.112C63.5461 117.112 63.2067 117.063 62.7655 117.5C62.7655 117.5 61.2091 119.154 59.9436 120.518C59.2649 118.572 57.3158 111.711 58.3873 101.298C58.4842 100.371 58.3873 99.7888 58.0479 99.6432C57.9994 99.5947 57.5146 99.4006 56.9279 99.8858L56.2976 100.42C56.9764 98.4738 58.5812 94.3881 61.2576 90.4917C62.2321 89.1768 62.0867 88.8856 61.9897 88.6915C61.8927 88.5459 61.6018 88.3033 60.6273 88.2548L31.2406 88.7886C31.483 86.6972 31.8224 84.504 32.3121 82.267L67.197 83.7276ZM104.564 65.0898C104.516 65.0898 104.176 65.2354 104.031 65.575C103.982 65.7206 103.934 65.9147 104.031 66.1573C104.128 66.3999 104.467 66.594 105.151 66.7881C105.248 66.8366 113.519 69.3647 119.551 71.5579C110.892 70.0489 95.0322 67.812 90.751 67.1812C95.517 64.6046 102.77 64.4056 106.465 64.556L104.569 65.0898H104.564ZM77.3206 56.8651C77.5146 56.3799 77.2722 55.9432 77.2722 55.8898L77.2237 55.7928C77.2237 55.7928 76.2976 54.8174 75.0806 53.6044C77.0249 54.1866 80.6273 55.259 84.4237 56.4769C74.3534 59.7377 67.3958 62.3628 64.9134 63.3381C71.774 59.6406 76.54 57.5978 76.5885 57.5493C77.0249 57.3552 77.2188 57.0641 77.3206 56.87M95.7595 19.1577C53.4806 19.1577 19.1824 53.4636 19.1824 95.7468C19.1824 138.03 53.4806 172.336 95.7595 172.336C138.038 172.336 172.337 138.03 172.337 95.7468C172.288 53.4151 138.038 19.1577 95.7595 19.1577Z" fill="white"/>
<path d="M90.7121 67.2248C94.9933 67.8071 110.901 70.0974 119.512 71.6016C113.481 69.4132 105.209 66.8803 105.112 66.8318C104.428 66.6377 104.089 66.4436 103.992 66.201C103.895 65.9584 103.895 65.7157 103.992 65.6187C104.138 65.279 104.477 65.182 104.525 65.1335L106.373 64.5997C102.722 64.4541 95.4733 64.6482 90.7072 67.2297M123.595 73.1641C116.976 71.655 89.7812 67.8605 89.5387 67.8605L88.5157 67.7149L89.3933 67.1326C96.0115 62.7995 108.268 63.8719 108.807 63.9204L110.848 64.1145L104.816 65.8176H104.768C104.865 65.8662 105.01 65.9632 105.35 66.0603C105.495 66.1088 118.436 70.0974 123.788 72.4362L123.595 73.1641ZM75.0417 53.5558C76.2587 54.7737 77.1363 55.7442 77.1848 55.7442L77.2333 55.8413C77.2818 55.8898 77.4757 56.3265 77.2817 56.8166C77.1848 57.0107 76.9908 57.3503 76.5496 57.5444C76.5011 57.5444 71.7351 59.6358 64.8745 63.3333C67.3569 62.3579 74.363 59.6843 84.3848 56.4721C80.5884 55.2541 76.9908 54.1381 75.0417 53.551M48.1375 74.7653L47.6041 74.183L48.0405 73.7949C49.209 72.7225 52.2732 70.0489 56.1181 67.5645L59.1823 65.6187C68.7678 60.0725 76.1618 56.8603 76.2587 56.8117C76.4527 56.7632 76.5496 56.6662 76.5981 56.5691C76.6466 56.4721 76.5981 56.3265 76.5981 56.2294C76.3557 55.9383 74.9933 54.5263 73.4369 53.0172L72.3169 51.9448L73.8248 52.3816C73.8733 52.3816 79.7593 54.0847 85.8442 56.079L86.9642 56.4672L85.8442 56.8069C72.5157 61.0381 64.2926 64.3959 64.2442 64.3959C56.7048 67.8022 51.255 72.082 49.4029 73.6881C48.9181 74.0278 48.5253 74.3674 48.1375 74.7605M63.609 116.995C64.1423 116.995 64.4381 117.728 64.4381 117.825C69.5969 129.844 79.4199 131.45 83.2163 131.596C75.0418 127.214 71.5411 121.134 70.0817 116.709C68.8648 112.963 68.8163 109.848 68.8648 108.339L62.7363 113.108C62.2029 113.497 61.6648 113.351 61.6163 113.302C61.0829 113.157 60.8842 112.623 60.8357 112.327C59.6187 98.8474 65.6987 86.3915 67.1581 83.6645L32.1762 82.0584C31.6914 84.2468 31.3471 86.44 31.1047 88.5799L60.4914 88.0461C61.5145 88.0461 61.7569 88.2887 61.8538 88.4828C61.9508 88.6769 62.0963 88.9681 61.1217 90.2831C58.4454 94.1746 56.8405 98.2651 56.1569 100.211L56.7872 99.6772C57.369 99.2404 57.8587 99.4345 57.9072 99.4345C58.2466 99.6286 58.392 100.162 58.2466 101.089C57.1266 111.502 59.1241 118.363 59.8029 120.309C61.0684 118.946 62.6248 117.291 62.6248 117.291C63.1581 116.951 63.5023 116.951 63.5993 117M83.9824 132.377C80.7242 132.377 69.4369 131.353 63.7448 118.072C63.6963 117.927 63.5993 117.781 63.5508 117.733C63.5023 117.733 63.4538 117.733 63.3084 117.878C63.3084 117.878 61.3642 119.921 60.0987 121.333L59.7108 121.77L59.4684 121.236C59.3229 120.945 56.3072 113.647 57.6696 101.046C57.7181 100.706 57.7181 100.366 57.6696 100.172C57.6211 100.172 57.5241 100.221 57.4272 100.318L54.8478 102.409L55.1872 101.24C55.1872 101.191 56.8405 95.3537 60.6369 89.8561C60.8793 89.5164 61.1217 89.1282 61.2187 88.8807C61.1217 88.8322 60.9278 88.8322 60.6369 88.8322L30.3774 89.366L30.4259 88.9293C30.6684 86.5468 31.0611 84.0624 31.5944 81.5828L31.6429 81.2432L68.5205 82.9463L68.1811 83.4801C68.0842 83.6257 60.346 97.2995 61.6599 112.235C61.6599 112.284 61.7084 112.478 61.9023 112.526C61.9023 112.526 62.0963 112.575 62.3387 112.429L69.8781 106.592L69.7811 107.519C69.7811 107.664 67.8854 123.381 85.0102 131.605L86.2272 132.188L84.8648 132.333C84.8648 132.333 84.5254 132.382 83.9872 132.382M55.0417 146.347C66.5229 155.59 80.9715 160.651 95.7157 160.651C131.522 160.651 160.666 131.504 160.666 95.6934C160.666 59.8832 131.522 30.7353 95.7157 30.7353C77.7618 30.7353 60.5399 38.2273 48.2829 51.3189L63.1193 52.0467L57.8635 46.6946L58.4938 46.5005C87.003 38.7611 126.024 61.1934 126.412 61.436L126.557 61.533L126.605 61.6786C126.654 61.9212 126.654 62.4113 126.024 62.7024C126.024 62.7024 124.855 63.2362 124.031 63.6292C123.982 63.6292 123.934 63.6778 123.934 63.6778C124.128 63.8233 124.564 63.9689 125.005 64.1145C137.607 68.8358 150.353 75.7455 150.45 75.794C151.91 76.5267 152.104 77.3031 152.104 77.4001C152.346 78.3269 151.522 78.9577 151.522 78.9577C151.279 79.1518 151.376 79.6856 151.376 79.6856C151.425 80.0738 151.813 80.3698 152.007 80.4668C157.214 83.7276 155.168 87.425 155.119 87.4736C151.032 95.3052 140.719 103.384 140.622 103.481C140.138 103.821 139.696 103.724 139.502 103.627C138.824 103.142 139.018 102.118 139.066 101.972C139.502 97.2025 138.484 95.4508 138.431 95.4023C138.189 94.9656 137.655 95.0141 137.655 95.0141C132.739 95.5963 127.342 96.135 126.659 96.232C109.679 104.845 105.689 107.96 105.641 108.009C105.592 108.057 103.401 109.518 103.551 111.9C103.551 111.9 103.745 112.924 104.768 113.992C104.865 114.089 116.201 124.356 119.604 125.865C119.604 125.865 120.579 126.302 122.281 125.817C122.281 125.817 124.666 125.089 125.878 124.065C125.927 124.016 126.605 123.483 127.677 123.143C128.162 123.046 128.409 123.192 128.555 123.337C128.991 123.774 128.748 124.652 128.652 125.04C125.345 138.277 119.163 145.43 114.542 149.079C109.529 153.067 105.398 153.897 105.199 153.946L105.005 153.994L104.86 153.849C94.009 141.732 80.2927 139.156 80.1424 139.107C65.3545 135.119 56.5932 144.508 55.0369 146.357M95.7109 161.442C80.6272 161.442 65.9363 156.187 54.2611 146.701L53.9702 146.507L54.2126 146.216C54.6005 145.731 63.7981 133.954 80.4381 138.433C80.5351 138.433 94.3533 141.058 105.398 153.223C107.342 152.737 122.184 148.307 128.021 124.953C128.167 124.516 128.167 124.079 128.118 123.978H128.021C127.095 124.269 126.513 124.754 126.513 124.754C125.151 125.826 122.717 126.603 122.62 126.603C120.579 127.136 119.459 126.603 119.41 126.603C115.905 125.094 104.816 115.02 104.375 114.584C103.158 113.269 102.964 112.051 102.964 112.002C102.77 109.178 105.248 107.475 105.35 107.426C105.495 107.329 109.34 104.263 126.513 95.5527L126.659 95.5042C126.659 95.5042 132.496 94.9219 137.704 94.2862C138.092 94.2377 138.824 94.3347 139.212 95.0141C139.26 95.0626 140.429 96.9113 139.939 102.069C139.89 102.409 139.89 102.846 140.036 102.943C140.036 102.943 140.084 102.943 140.23 102.846C140.327 102.797 150.494 94.7666 154.484 87.0805C154.581 86.935 156.186 83.9653 151.614 81.0976C151.517 81.0491 150.688 80.5639 150.639 79.7341C150.639 79.7341 150.494 78.8607 151.076 78.3221C151.124 78.2736 151.512 77.9824 151.415 77.5457C151.415 77.5457 151.27 77.0119 150.15 76.4733C150.004 76.3763 137.355 69.5151 124.802 64.8423C123.294 64.3571 123.197 64.0174 123.148 63.867C123.052 63.4303 123.391 63.0906 123.73 62.8917C124.559 62.5035 125.723 61.9649 125.723 61.9649C125.755 61.9649 125.772 61.9487 125.772 61.9164C122.271 59.9706 86.266 40.2168 59.3617 47.0294L59.7011 47.3691L65.0539 52.8668L46.615 51.9934L47.1484 51.4111C59.6042 37.7858 77.2624 29.9541 95.7012 29.9541C131.948 29.9541 161.432 59.4417 161.432 95.6934C161.481 131.945 131.948 161.433 95.7012 161.433" fill="#383D41"/>
<path fill-rule="evenodd" clip-rule="evenodd" d="M171.939 103.191C168.168 141.956 135.473 172.278 95.7253 172.278C53.4464 172.278 19.1482 137.977 19.1482 95.6891C19.1482 92.909 19.2964 90.1635 19.5854 87.4599C23.7094 49.0663 56.1928 19.1483 95.7206 19.1483C138.048 19.1483 172.298 53.4543 172.298 95.7374C172.298 98.252 172.176 100.738 171.939 103.191ZM95.7739 30.3427C59.7254 30.3427 30.4357 59.5828 30.4357 95.6889H30.4308C30.4308 131.761 59.6236 161.035 95.6818 161.035H95.7739C131.822 161.035 161.112 131.79 161.112 95.6889C161.112 59.5876 131.822 30.3427 95.7739 30.3427Z" fill="#383D41"/>
<path fill-rule="evenodd" clip-rule="evenodd" d="M95.7738 30.3414C59.7253 30.3414 30.4356 59.5815 30.4356 95.6877H30.4307C30.4307 131.76 59.6186 161.034 95.6769 161.034H95.7738C131.822 161.034 161.112 131.789 161.112 95.6877C161.112 59.5864 131.822 30.3414 95.7738 30.3414ZM95.769 169.894C54.8041 169.894 21.5774 136.661 21.5774 95.6877C21.5774 54.7195 54.7071 21.5344 95.7205 21.5344C136.734 21.5344 169.961 54.7146 169.961 95.6877C169.961 136.661 136.734 169.894 95.769 169.894Z" fill="url(#paint0_linear_9797_9717)"/>
<path fill-rule="evenodd" clip-rule="evenodd" d="M95.7738 30.3431C59.7253 30.3431 30.4355 59.5832 30.4355 95.6893H30.4307C30.4307 131.762 59.6234 161.036 95.6817 161.036H95.7738C131.822 161.036 161.112 131.791 161.112 95.6893C161.112 59.5881 131.822 30.3431 95.7738 30.3431ZM95.7736 164.586C133.82 164.586 164.666 133.74 164.666 95.6876C164.666 57.6406 133.82 26.7895 95.7736 26.7895C57.7275 26.7895 26.8813 57.6406 26.8813 95.6876C26.8813 133.735 57.7275 164.586 95.7736 164.586Z" fill="white"/>
<path fill-rule="evenodd" clip-rule="evenodd" d="M95.7736 30.345C59.7251 30.345 30.4353 59.5851 30.4353 95.6912H30.4305C30.4305 131.763 59.6184 161.037 95.6766 161.037H95.7736C131.822 161.037 161.112 131.793 161.112 95.6912C161.112 59.5899 131.822 30.345 95.7736 30.345ZM95.7251 164.395C57.776 164.395 27.0269 133.646 27.0269 95.6912C27.0269 57.7412 57.7808 26.9872 95.7251 26.9872C133.669 26.9872 164.419 57.7412 164.419 95.6912C164.419 133.641 133.674 164.395 95.7251 164.395Z" fill="url(#paint1_linear_9797_9717)"/>
<path fill-rule="evenodd" clip-rule="evenodd" d="M41.8526 81.4847H70.436C70.436 81.4847 74.1306 74.2353 83.716 74.4779C83.716 74.4779 105.462 74.2838 147.159 80.1697L148.279 78.7091C148.279 78.7091 149.253 77.6368 147.789 76.8604C147.789 76.8604 138.397 71.4598 119.571 64.356C119.571 64.356 119.081 64.1619 119.134 63.9678C119.134 63.9678 119.134 63.8222 119.377 63.7252L119.474 63.6888C119.83 63.5554 120.186 63.4219 120.497 63.2885L121.272 62.9003C121.335 62.8583 121.407 62.8254 121.476 62.7938C121.567 62.7522 121.654 62.7127 121.709 62.6576C121.854 62.5606 122.048 62.415 122.145 62.2209C122.194 62.0268 122.097 61.9298 121.903 61.7842C121.903 61.7842 94.4651 46.6498 69.6021 46.6498C66.2026 46.6983 62.7982 47.0372 59.4953 47.6714L59.4881 47.664L59.4833 47.6737C59.4873 47.6729 59.4913 47.6721 59.4953 47.6714L64.1087 52.4338C64.1087 52.4338 73.253 57.2522 73.4518 57.3977L65.7184 49.076C65.7184 49.076 73.3063 48.7363 91.1633 55.8887C91.1633 55.8887 67.9099 62.3131 57.4469 67.7623C57.4469 67.7623 47.8221 72.3337 41.79 81.4716L41.8526 81.4847ZM108.768 64.3026C108.768 64.3026 96.167 63.138 89.5973 67.4663H89.6021C89.6021 67.4663 116.991 71.2608 123.706 72.7699C118.305 70.4796 105.268 66.4425 105.268 66.4425C104.487 66.2484 104.438 66.0543 104.438 66.0543C104.245 65.6176 104.729 65.472 104.729 65.472L108.768 64.3026Z" fill="url(#paint2_linear_9797_9717)"/>
<path fill-rule="evenodd" clip-rule="evenodd" d="M87.7449 102.406C87.7449 102.406 95.8709 90.0474 108.472 86.8351L108.462 86.8303C108.462 86.8303 109.437 86.6362 111.09 86.4906C111.478 86.4906 111.968 86.4906 112.404 86.5391L140.235 87.9027C140.235 87.9027 146.509 87.8541 143.25 96.3214L143.202 96.467C143.105 96.6611 143.347 96.8552 143.347 96.8552C143.735 97.0493 144.026 96.7096 144.026 96.7096L140.477 103.134C140.138 103.377 139.847 103.231 139.847 103.231C139.362 102.935 139.556 102.013 139.556 102.013C140.046 96.9522 138.926 95.2005 138.926 95.2005C138.538 94.5697 137.757 94.6668 137.757 94.6668C132.501 95.3024 126.712 95.8847 126.712 95.8847L128.269 89.6543C128.366 89.2661 128.123 89.2662 128.123 89.2662C128.123 89.2662 124.278 88.8294 112.894 88.878C112.894 88.878 111.973 88.878 111.144 89.2662C111.144 89.2662 98.5958 94.6716 87.7449 102.406Z" fill="url(#paint3_linear_9797_9717)"/>
<path fill-rule="evenodd" clip-rule="evenodd" d="M99.517 107.076C99.517 107.076 100.395 104.742 104.579 101.869L104.574 101.864C104.574 101.864 118.101 93.693 128.075 89.2629C128.075 89.2629 128.317 89.2629 128.22 89.6511L126.664 95.8814C109.292 104.64 105.5 107.707 105.5 107.707C105.5 107.707 103.115 109.313 103.309 111.938C103.309 111.938 103.454 113.054 104.622 114.272C104.622 114.272 116.055 124.733 119.561 126.242C119.561 126.242 120.632 126.728 122.528 126.242C122.528 126.242 124.962 125.515 126.276 124.442C126.276 124.442 126.906 123.908 127.929 123.617C128.899 123.375 128.414 125.029 128.414 125.029L123.357 129.605C123.406 128.78 122.625 128.974 122.625 128.974C122.625 128.974 120.143 130.09 118.344 129.605C118.344 129.605 117.078 129.265 114.45 126.684L101.073 114.907C101.073 114.907 97.8152 111.404 99.517 107.076Z" fill="url(#paint4_linear_9797_9717)"/>
<path fill-rule="evenodd" clip-rule="evenodd" d="M30.7266 81.6254C34.2999 65.3507 46.6005 52.5358 47.4636 51.6526L47.4684 51.6575H48.4914L64.1521 52.4339L73.4951 57.3007C73.9315 57.4948 73.786 57.7375 73.786 57.7375C73.6357 58.0286 73.0539 58.2712 73.0539 58.2712C48.8745 69.121 41.9169 81.5284 41.9169 81.5284L30.7266 81.6254Z" fill="url(#paint5_linear_9797_9717)"/>
<path fill-rule="evenodd" clip-rule="evenodd" d="M65.7085 49.1226V49.1255L73.4418 57.4424L76.894 56.0304C76.894 56.0304 75.4346 54.4728 73.6843 52.7696L65.7097 49.1212L65.7085 49.1226Z" fill="url(#paint6_linear_9797_9717)"/>
<path fill-rule="evenodd" clip-rule="evenodd" d="M134.014 75.3889C132.414 75.1317 93.529 68.9159 84.0017 68.4404L89.6453 67.4165C89.6453 67.4165 117.034 71.2596 123.75 72.7686L134.014 75.3889Z" fill="url(#paint7_linear_9797_9717)"/>
<path fill-rule="evenodd" clip-rule="evenodd" d="M89.5969 67.4636L84.0017 68.4389V68.4341C84.0023 68.4335 84.0036 68.4321 84.0057 68.4299C84.1824 68.246 89.7505 62.4512 102.586 62.4512C105.801 62.4512 109.447 62.7957 113.582 63.7176L108.768 64.2999C108.768 64.2999 96.1666 63.1354 89.5969 67.4636Z" fill="url(#paint8_linear_9797_9717)"/>
<path fill-rule="evenodd" clip-rule="evenodd" d="M104.439 66.0528H104.433C104.24 65.6165 104.724 65.471 104.724 65.471L108.763 64.3026H108.768L113.583 63.7207L107.648 65.1801C106.819 65.4225 106.867 65.8589 106.867 65.8589L104.439 66.0528Z" fill="url(#paint9_linear_9797_9717)"/>
<path fill-rule="evenodd" clip-rule="evenodd" d="M105.262 66.4428C104.482 66.2487 104.433 66.0546 104.433 66.0546L106.819 65.812C116.109 68.442 134.014 75.4002 134.014 75.4002L123.701 72.7703C118.3 70.48 105.262 66.4428 105.262 66.4428Z" fill="url(#paint10_linear_9797_9717)"/>
<path fill-rule="evenodd" clip-rule="evenodd" d="M70.4115 81.6003H70.4021L67.8518 83.3277L67.8469 83.3325C67.8469 83.3325 59.9633 97.0549 61.3257 112.286C61.3257 112.286 61.3742 112.772 61.8154 112.917L63.2748 107.856C63.2748 107.856 62.79 107.711 62.8384 106.784C62.8384 106.784 62.9839 94.5857 70.4161 81.6012L70.4115 81.6003Z" fill="url(#paint11_linear_9797_9717)"/>
<path fill-rule="evenodd" clip-rule="evenodd" d="M72.368 102.26L64.5398 107.61C64.5398 107.61 63.9531 108.047 63.2743 107.901L61.8149 112.962C61.8149 112.962 62.2028 113.059 62.5907 112.817L69.4028 107.513L72.3689 102.26L72.368 102.26Z" fill="url(#paint12_linear_9797_9717)"/>
<path fill-rule="evenodd" clip-rule="evenodd" d="M84.8747 131.941C67.2601 123.474 69.4031 107.466 69.4031 107.466L72.4189 102.211C69.0152 119.582 84.8747 131.941 84.8747 131.941Z" fill="url(#paint13_linear_9797_9717)"/>
<path fill-rule="evenodd" clip-rule="evenodd" d="M80.3511 138.747L81.665 134.807L81.6699 134.802H81.7668C82.9838 134.802 91.8856 135.239 107.551 146.918L105.263 153.586C94.1693 141.227 80.3511 138.747 80.3511 138.747Z" fill="url(#paint14_linear_9797_9717)"/>
<path fill-rule="evenodd" clip-rule="evenodd" d="M105.264 153.591C105.671 153.538 122.095 150.127 128.414 124.983L123.357 129.558V129.554C123.357 129.554 123.26 130.136 122.14 131.791C122.14 131.791 115.716 142.786 107.546 146.925L105.26 153.587L105.264 153.591Z" fill="url(#paint15_linear_9797_9717)"/>
<path fill-rule="evenodd" clip-rule="evenodd" d="M140.461 103.249C141.126 102.751 150.865 94.9633 154.828 87.3612C154.828 87.3612 156.773 84.0034 151.861 80.8882C151.861 80.8882 151.08 80.4515 151.08 79.8158L147.139 80.2525L147.148 80.2622C147.148 80.2622 147.051 81.0386 150.309 82.5477C150.309 82.5477 153.131 83.7171 152.986 85.4202C152.986 85.4202 152.889 86.6382 152.011 87.6572C152.011 87.6572 146.804 94.3242 143.982 96.8523L140.457 103.223L140.461 103.249Z" fill="url(#paint16_linear_9797_9717)"/>
<path d="M98.2564 62.6502C88.2831 63.7711 83.9534 68.3905 83.9534 68.3905C83.9534 68.3905 88.477 62.7473 98.2564 62.6502Z" fill="#AEB5B9"/>
<path fill-rule="evenodd" clip-rule="evenodd" d="M65.71 49.1211L73.684 52.7693C73.684 52.7693 79.5701 54.4724 85.7034 56.4667L91.1531 55.933C74.7555 49.3629 67.0222 49.1203 65.8537 49.1203H65.7131H65.7102L65.71 49.1211Z" fill="url(#paint17_linear_9797_9717)"/>
<path fill-rule="evenodd" clip-rule="evenodd" d="M91.1539 55.9328L85.7079 56.4613L85.7031 56.4662C72.2243 60.7459 64.0546 64.0552 64.0546 64.0552C54.5334 68.3278 48.4578 73.9643 48.3894 74.0796L48.3895 74.0798C53.1069 69.8973 57.8776 67.9953 57.8776 67.9953C67.4157 63.0015 87.3635 57.0707 90.7208 56.0726C90.9382 56.0079 91.086 55.964 91.157 55.9423L91.1539 55.9328Z" fill="url(#paint18_linear_9797_9717)"/>
<path fill-rule="evenodd" clip-rule="evenodd" d="M59.4829 47.7104L58.6538 46.8855C62.8381 45.7647 67.2647 45.2794 71.7884 45.2794C97.9169 45.2794 126.281 61.821 126.281 61.821L122.242 62.1121C122.242 62.0279 122.169 61.9802 122.054 61.9055C122.037 61.8942 122.018 61.8823 121.999 61.8695C121.999 61.8695 86.2902 42.2128 59.4829 47.7104Z" fill="url(#paint19_linear_9797_9717)"/>
<path fill-rule="evenodd" clip-rule="evenodd" d="M122.242 62.2611V62.1157H122.237L126.373 61.7763C126.373 61.7763 126.475 62.1642 125.985 62.3581C125.985 62.3581 124.773 62.8915 123.992 63.2793C123.992 63.2793 123.556 63.4733 123.605 63.7642L119.275 64.1521L119.275 64.152C119.226 64.1036 119.178 64.0551 119.226 64.0066C119.226 64.0066 119.226 63.8612 119.469 63.7642C119.663 63.6915 119.846 63.6187 120.029 63.546C120.212 63.4733 120.395 63.4005 120.589 63.3278C120.885 63.1824 121.079 63.0854 121.369 62.9399C121.515 62.8914 121.709 62.7945 121.806 62.6975C122 62.6005 122.145 62.4551 122.242 62.2611Z" fill="url(#paint20_linear_9797_9717)"/>
<path fill-rule="evenodd" clip-rule="evenodd" d="M119.614 64.4012C119.614 64.4012 119.323 64.3041 119.226 64.1585L119.221 64.1537L123.502 63.717C123.599 64.0081 124.913 64.4448 124.913 64.4448C137.612 69.2147 150.31 76.1244 150.31 76.1244C151.672 76.76 151.818 77.4394 151.818 77.4394C152.016 78.1721 151.381 78.6573 151.381 78.6573C150.945 79.0503 151.09 79.7782 151.09 79.7782L147.197 80.2149L148.317 78.7543C148.317 78.7543 149.292 77.7305 147.832 76.9056C147.832 76.9056 138.441 71.5535 119.614 64.4012Z" fill="url(#paint21_linear_9797_9717)"/>
<path fill-rule="evenodd" clip-rule="evenodd" d="M41.7239 133.791C41.723 133.79 41.7226 133.789 41.7226 133.789L41.7178 133.794C41.7178 133.794 41.7198 133.793 41.7239 133.791ZM41.7239 133.791C41.8159 133.905 46.9503 140.269 54.5178 146.391C54.5178 146.391 63.6621 134.226 80.3506 138.753L81.6645 134.813L85.1166 132.285C78.1105 132.964 73.0972 131.407 69.6451 129.364H69.4027C67.9434 129.267 66.5811 129.267 65.2188 129.267H65.2184C50.2754 129.267 41.9799 133.653 41.7239 133.791Z" fill="url(#paint22_linear_9797_9717)"/>
<path fill-rule="evenodd" clip-rule="evenodd" d="M30.7265 88.9738L60.5253 88.44H61.1556C61.4998 88.5128 61.5726 88.6341 61.5726 88.6341L55.3471 92.4771C55.3471 92.4771 55.2938 92.283 54.615 92.283L28.7822 92.2345V92.152L30.7265 88.9738Z" fill="url(#paint23_linear_9797_9717)"/>
<path fill-rule="evenodd" clip-rule="evenodd" d="M55.0514 93.8904C55.0514 93.8904 55.6332 92.9151 55.3908 92.5269H55.3956L61.5726 88.7324C61.6744 88.975 60.8453 90.0959 60.8453 90.0959C57.049 95.6421 55.4441 101.382 55.4441 101.382L52.4429 106.463H52.4235C52.4187 105.948 52.3799 98.9951 55.0514 93.8904Z" fill="url(#paint24_linear_9797_9717)"/>
<path fill-rule="evenodd" clip-rule="evenodd" d="M55.4926 101.333L57.1459 100.018L57.142 100.022C57.2743 99.8902 57.4039 99.8472 57.5327 99.8045C57.5735 99.791 57.6143 99.7775 57.655 99.7612L57.9023 99.8097L54.615 105.467C54.615 105.467 54.0332 105.176 52.5738 106.443C52.5738 106.443 52.5253 106.54 52.4768 106.443L55.4926 101.333Z" fill="url(#paint25_linear_9797_9717)"/>
<path fill-rule="evenodd" clip-rule="evenodd" d="M54.6634 106.198C54.6634 106.198 54.7119 105.664 54.5664 105.519H54.5713L57.8294 99.8753C58.0719 100.021 57.9264 101.142 57.9264 101.142C56.6125 113.792 59.7252 121.138 59.7252 121.138L58.8961 125.418C58.8961 125.418 58.8476 125.418 58.7507 125.272C58.7507 125.272 54.13 116.902 54.6634 106.198Z" fill="url(#paint26_linear_9797_9717)"/>
<path fill-rule="evenodd" clip-rule="evenodd" d="M59.7739 121.089C61.0879 119.677 63.0321 117.634 63.0321 117.634V117.629C63.2745 117.435 63.42 117.387 63.517 117.387L62.5424 122.399C62.3 122.399 62.1545 122.496 62.1545 122.496C61.9606 122.598 59.1388 125.32 59.1388 125.32C59.0418 125.417 58.9448 125.369 58.9448 125.369L59.7739 121.089Z" fill="url(#paint27_linear_9797_9717)"/>
<path fill-rule="evenodd" clip-rule="evenodd" d="M70.4239 81.5796H70.3096H41.7714L30.7266 81.6281L67.8466 83.3299L70.4239 81.5811L70.4239 81.5796Z" fill="url(#paint28_linear_9797_9717)"/>
<path fill-rule="evenodd" clip-rule="evenodd" d="M73.5873 57.7813C73.5873 57.7813 73.6843 57.5872 73.4419 57.4417L76.894 56.0782C76.894 56.0782 77.2867 56.9079 76.4092 57.2476C76.4092 57.2476 69.0637 60.4113 59.3813 66.006L56.317 67.9518C51.6431 70.9117 48.1182 74.2647 47.7788 74.5898C52.5982 69.6307 60.86 63.7546 72.8552 58.3151C72.8552 58.3151 73.4904 58.0725 73.5873 57.7813Z" fill="url(#paint29_linear_9797_9717)"/>
<path fill-rule="evenodd" clip-rule="evenodd" d="M83.173 74.5747H83.6579L83.6627 74.5796H83.9148C86.4361 74.5796 107.992 74.7494 147.105 80.2713C147.105 80.2713 147.057 81.0477 150.266 82.5568C150.266 82.5568 153.088 83.7747 152.943 85.4294C152.943 85.4294 152.797 86.6424 151.968 87.6663C151.968 87.6663 146.761 94.3334 143.939 96.8614C143.939 96.8614 143.648 97.2011 143.26 97.007C143.26 97.007 143.018 96.8129 143.115 96.6188L143.163 96.4732C146.422 88.0059 140.148 88.0545 140.148 88.0545L112.317 86.691C109.98 86.5454 108.424 86.8365 108.424 86.8365C95.8227 90.0488 87.6967 102.408 87.6967 102.408C98.5476 94.6682 111.1 89.2676 111.1 89.2676C111.973 88.8308 112.851 88.8794 112.851 88.8794C124.235 88.8308 128.08 89.2676 128.08 89.2676C118.058 93.6929 104.579 101.918 104.579 101.918C100.346 104.79 99.5173 107.124 99.5173 107.124C97.8155 111.457 101.074 114.961 101.074 114.961L114.451 126.737C117.079 129.319 118.344 129.61 118.344 129.61C120.143 130.095 122.625 128.877 122.625 128.877C122.625 128.877 123.406 128.78 123.357 129.61C123.357 129.61 123.26 130.192 122.14 131.847C122.14 131.847 115.672 142.798 107.546 146.981C90.6639 134.38 81.6166 134.865 81.6166 134.865L85.0688 132.337L85.2627 132.191L84.8264 131.949C84.8264 131.949 69.0154 119.59 72.3706 102.218L64.5403 107.571C64.5403 107.571 63.9536 108.007 63.2748 107.862C63.2748 107.862 62.7415 107.765 62.8384 106.789C62.8384 106.789 63.0324 94.5711 70.4263 81.5815C70.4263 81.5815 73.9803 74.5747 83.173 74.5747Z" fill="url(#paint30_linear_9797_9717)"/>
<path fill-rule="evenodd" clip-rule="evenodd" d="M87.6963 102.403C87.6963 102.403 98.4454 93.1593 111.095 89.2629C111.091 89.2646 111.076 89.2713 111.05 89.2828C110.214 89.6497 98.1619 94.9404 87.6963 102.403Z" fill="url(#paint31_linear_9797_9717)"/>
<path fill-rule="evenodd" clip-rule="evenodd" d="M62.4466 122.398C62.4459 122.398 62.4456 122.398 62.4456 122.398V122.403L62.4466 122.398ZM62.4466 122.398C62.4572 122.398 62.5483 122.401 62.6395 122.446C62.7365 122.495 62.8334 122.592 62.9304 122.737C62.9304 122.737 64.7292 126.483 69.5486 129.356C73.0492 131.399 78.0626 132.956 85.0686 132.277L85.2626 132.132L84.8262 131.889C84.8262 131.889 70.7171 133.35 64.0504 117.875C64.0504 117.875 63.905 117.342 63.5171 117.342L62.4466 122.398Z" fill="url(#paint32_linear_9797_9717)"/>
<defs>
<linearGradient id="paint0_linear_9797_9717" x1="179.951" y1="181.305" x2="73.9714" y2="75.4832" gradientUnits="userSpaceOnUse">
<stop stop-color="#737B7F"/>
<stop offset="0.5" stop-color="#8A9195"/>
<stop offset="1" stop-color="white"/>
</linearGradient>
<linearGradient id="paint1_linear_9797_9717" x1="7.11586" y1="7.04391" x2="123.91" y2="123.665" gradientUnits="userSpaceOnUse">
<stop stop-color="#2C3034"/>
<stop offset="0.5" stop-color="#8A9195"/>
<stop offset="1" stop-color="white"/>
</linearGradient>
<linearGradient id="paint2_linear_9797_9717" x1="99.5755" y1="47.8869" x2="88.9761" y2="98.672" gradientUnits="userSpaceOnUse">
<stop stop-color="#B9BFC2"/>
<stop offset="0.3" stop-color="#BABFC2"/>
<stop offset="0.44" stop-color="#D4D7D9"/>
<stop offset="0.64" stop-color="#F4F5F6"/>
<stop offset="0.76" stop-color="#E2E5E6"/>
<stop offset="0.96" stop-color="#B9BFC2"/>
<stop offset="1" stop-color="#B9BFC2"/>
</linearGradient>
<linearGradient id="paint3_linear_9797_9717" x1="84.7273" y1="67.9135" x2="123.901" y2="99.1383" gradientUnits="userSpaceOnUse">
<stop stop-color="#1D1E22"/>
<stop offset="0.21" stop-color="#1D1E22"/>
<stop offset="0.33" stop-color="#1F2024"/>
<stop offset="0.39" stop-color="#26292D"/>
<stop offset="0.45" stop-color="#33373B"/>
<stop offset="0.5" stop-color="#454B4F"/>
<stop offset="0.7" stop-color="#474D51"/>
<stop offset="0.78" stop-color="#4E5357"/>
<stop offset="0.83" stop-color="#595F63"/>
<stop offset="0.87" stop-color="#6A6F73"/>
<stop offset="0.91" stop-color="#808588"/>
<stop offset="0.94" stop-color="#9C9FA2"/>
<stop offset="0.97" stop-color="#BCBFC2"/>
<stop offset="1" stop-color="#E8EAEC"/>
</linearGradient>
<linearGradient id="paint4_linear_9797_9717" x1="93.6935" y1="99.0502" x2="123.081" y2="115.759" gradientUnits="userSpaceOnUse">
<stop stop-color="#2C3034"/>
<stop offset="0.3" stop-color="#2C3034"/>
<stop offset="0.35" stop-color="#303539"/>
<stop offset="0.41" stop-color="#3D4246"/>
<stop offset="0.48" stop-color="#53595D"/>
<stop offset="0.55" stop-color="#737B7F"/>
<stop offset="0.62" stop-color="#777F83"/>
<stop offset="0.69" stop-color="#828A8E"/>
<stop offset="0.76" stop-color="#969DA1"/>
<stop offset="0.79" stop-color="#A2A9AD"/>
<stop offset="0.83" stop-color="#BDC2C5"/>
<stop offset="0.89" stop-color="#E8EAEC"/>
<stop offset="1" stop-color="#E8EAEC"/>
</linearGradient>
<linearGradient id="paint5_linear_9797_9717" x1="52.1233" y1="22.7799" x2="52.1233" y2="99.2379" gradientUnits="userSpaceOnUse">
<stop stop-color="#676F73"/>
<stop offset="0.4" stop-color="#676F73"/>
<stop offset="0.47" stop-color="#8B9296"/>
<stop offset="0.56" stop-color="#ADB3B6"/>
<stop offset="0.6" stop-color="#BABFC2"/>
<stop offset="0.69" stop-color="#D3D6D9"/>
<stop offset="0.75" stop-color="#DDE0E2"/>
<stop offset="1" stop-color="#DDE0E2"/>
</linearGradient>
<linearGradient id="paint6_linear_9797_9717" x1="78.4269" y1="59.7728" x2="69.8533" y2="52.5534" gradientUnits="userSpaceOnUse">
<stop stop-color="#A2A9AD"/>
<stop offset="0.19" stop-color="#A2A9AD"/>
<stop offset="0.31" stop-color="#AEB4B8"/>
<stop offset="0.6" stop-color="#C8CCCF"/>
<stop offset="0.77" stop-color="#D1D5D8"/>
<stop offset="1" stop-color="#D1D5D8"/>
</linearGradient>
<linearGradient id="paint7_linear_9797_9717" x1="80.8277" y1="69.7153" x2="130.826" y2="71.8965" gradientUnits="userSpaceOnUse">
<stop stop-color="#A2A9AD"/>
<stop offset="0.11" stop-color="#A2A9AD"/>
<stop offset="0.23" stop-color="#C4C9CB"/>
<stop offset="0.34" stop-color="#DFE1E3"/>
<stop offset="0.44" stop-color="#EEF0F1"/>
<stop offset="0.52" stop-color="#F4F5F6"/>
<stop offset="0.6" stop-color="#EEEFF0"/>
<stop offset="0.71" stop-color="#DBDEE0"/>
<stop offset="0.84" stop-color="#BEC3C6"/>
<stop offset="0.93" stop-color="#A2A9AD"/>
<stop offset="1" stop-color="#A2A9AD"/>
</linearGradient>
<linearGradient id="paint8_linear_9797_9717" x1="106.847" y1="72.7514" x2="99.1546" y2="59.9134" gradientUnits="userSpaceOnUse">
<stop stop-color="#5C6468"/>
<stop offset="0.07" stop-color="#5C6468"/>
<stop offset="0.2" stop-color="#60676B"/>
<stop offset="0.32" stop-color="#6A7276"/>
<stop offset="0.43" stop-color="#7C8488"/>
<stop offset="0.49" stop-color="#8A9195"/>
<stop offset="0.54" stop-color="#83898D"/>
<stop offset="0.61" stop-color="#6E7478"/>
<stop offset="0.7" stop-color="#4D5256"/>
<stop offset="0.77" stop-color="#2C3034"/>
<stop offset="0.88" stop-color="#202226"/>
<stop offset="1" stop-color="#100F14"/>
</linearGradient>
<linearGradient id="paint9_linear_9797_9717" x1="108.426" y1="62.8755" x2="108.426" y2="66.0949" gradientUnits="userSpaceOnUse">
<stop stop-color="#2C3034"/>
<stop offset="0.07" stop-color="#2C3034"/>
<stop offset="0.19" stop-color="#303438"/>
<stop offset="0.32" stop-color="#3C4044"/>
<stop offset="0.45" stop-color="#505559"/>
<stop offset="0.58" stop-color="#6C7276"/>
<stop offset="0.71" stop-color="#90979B"/>
<stop offset="0.77" stop-color="#A2A9AD"/>
<stop offset="1" stop-color="#D1D5D8"/>
</linearGradient>
<linearGradient id="paint10_linear_9797_9717" x1="140.987" y1="83.2974" x2="110.725" y2="66.6737" gradientUnits="userSpaceOnUse">
<stop stop-color="#2C3034"/>
<stop offset="0.07" stop-color="#2C3034"/>
<stop offset="0.18" stop-color="#2F3337"/>
<stop offset="0.27" stop-color="#393E42"/>
<stop offset="0.36" stop-color="#4A4F53"/>
<stop offset="0.44" stop-color="#61686C"/>
<stop offset="0.49" stop-color="#737B7F"/>
<stop offset="0.57" stop-color="#7B8387"/>
<stop offset="0.69" stop-color="#90979B"/>
<stop offset="0.77" stop-color="#A2A9AD"/>
<stop offset="0.84" stop-color="#ADB3B7"/>
<stop offset="0.97" stop-color="#CACFD2"/>
<stop offset="1" stop-color="#D1D5D8"/>
</linearGradient>
<linearGradient id="paint11_linear_9797_9717" x1="64.052" y1="103.346" x2="68.3623" y2="82.976" gradientUnits="userSpaceOnUse">
<stop stop-color="#8A9195"/>
<stop offset="0.1" stop-color="#8B9296"/>
<stop offset="0.19" stop-color="#979EA2"/>
<stop offset="0.49" stop-color="#B7BCBF"/>
<stop offset="0.74" stop-color="#CACED1"/>
<stop offset="0.91" stop-color="#D1D5D8"/>
<stop offset="1" stop-color="#D1D5D8"/>
</linearGradient>
<linearGradient id="paint12_linear_9797_9717" x1="68.5165" y1="105.754" x2="57.0193" y2="117.617" gradientUnits="userSpaceOnUse">
<stop stop-color="#1D1E22"/>
<stop offset="0.84" stop-color="#5C6468"/>
<stop offset="0.86" stop-color="#636B6F"/>
<stop offset="0.9" stop-color="#767E81"/>
<stop offset="0.94" stop-color="#969CA0"/>
<stop offset="0.99" stop-color="#C2C7CA"/>
<stop offset="1" stop-color="#D1D5D8"/>
</linearGradient>
<linearGradient id="paint13_linear_9797_9717" x1="84.4254" y1="138.059" x2="72.9411" y2="112.322" gradientUnits="userSpaceOnUse">
<stop stop-color="#737B7F"/>
<stop offset="0.18" stop-color="#737B7F"/>
<stop offset="0.28" stop-color="#848B8F"/>
<stop offset="0.55" stop-color="#AEB3B7"/>
<stop offset="0.75" stop-color="#C7CCCF"/>
<stop offset="0.88" stop-color="#D1D5D8"/>
<stop offset="1" stop-color="#D1D5D8"/>
</linearGradient>
<linearGradient id="paint14_linear_9797_9717" x1="99.2376" y1="129.781" x2="88.8424" y2="156.63" gradientUnits="userSpaceOnUse">
<stop stop-color="#5C6468"/>
<stop offset="0.24" stop-color="#5C6468"/>
<stop offset="0.25" stop-color="#5C6468"/>
<stop offset="0.47" stop-color="#6D7579"/>
<stop offset="0.64" stop-color="#737B7F"/>
<stop offset="1" stop-color="#D1D5D8"/>
</linearGradient>
<linearGradient id="paint15_linear_9797_9717" x1="110.686" y1="134.662" x2="121.378" y2="145.337" gradientUnits="userSpaceOnUse">
<stop stop-color="#5C6468"/>
<stop offset="0.54" stop-color="#737B7F"/>
<stop offset="0.57" stop-color="#7D8589"/>
<stop offset="0.7" stop-color="#A2A8AB"/>
<stop offset="0.81" stop-color="#BCC1C4"/>
<stop offset="0.92" stop-color="#CBD0D3"/>
<stop offset="1" stop-color="#D1D5D8"/>
</linearGradient>
<linearGradient id="paint16_linear_9797_9717" x1="151.776" y1="108.306" x2="147.449" y2="80.4094" gradientUnits="userSpaceOnUse">
<stop stop-color="#2C3034"/>
<stop offset="0.05" stop-color="#2C3034"/>
<stop offset="0.55" stop-color="#A2A9AD"/>
<stop offset="0.59" stop-color="#A7AEB2"/>
<stop offset="0.63" stop-color="#B7BCC0"/>
<stop offset="0.67" stop-color="#D0D3D6"/>
<stop offset="0.71" stop-color="#E8EAEC"/>
<stop offset="0.72" stop-color="#E5E8EA"/>
<stop offset="0.82" stop-color="#D6DADD"/>
<stop offset="0.9" stop-color="#D1D5D8"/>
<stop offset="1" stop-color="#D1D5D8"/>
</linearGradient>
<linearGradient id="paint17_linear_9797_9717" x1="60.919" y1="46.1085" x2="85.1567" y2="53.8749" gradientUnits="userSpaceOnUse">
<stop stop-color="#2C3034"/>
<stop offset="0.17" stop-color="#2C3034"/>
<stop offset="0.32" stop-color="#2F3337"/>
<stop offset="0.44" stop-color="#383D41"/>
<stop offset="0.55" stop-color="#474D51"/>
<stop offset="0.64" stop-color="#5D6367"/>
<stop offset="0.72" stop-color="#737B7F"/>
<stop offset="0.79" stop-color="#7C8387"/>
<stop offset="0.9" stop-color="#939A9E"/>
<stop offset="0.96" stop-color="#A2A9AD"/>
<stop offset="1" stop-color="#A2A9AD"/>
</linearGradient>
<linearGradient id="paint18_linear_9797_9717" x1="59.3356" y1="68.8548" x2="100.072" y2="55.5817" gradientUnits="userSpaceOnUse">
<stop stop-color="#D1D5D8"/>
<stop offset="0.13" stop-color="#DFE1E4"/>
<stop offset="0.35" stop-color="#EEF0F1"/>
<stop offset="0.52" stop-color="#F4F5F6"/>
<stop offset="0.67" stop-color="#EEEFF1"/>
<stop offset="0.87" stop-color="#DCDFE1"/>
<stop offset="0.97" stop-color="#D1D5D8"/>
<stop offset="1" stop-color="#D1D5D8"/>
</linearGradient>
<linearGradient id="paint19_linear_9797_9717" x1="80.5384" y1="3.95191" x2="96.5424" y2="68.7154" gradientUnits="userSpaceOnUse">
<stop stop-color="#2C3034"/>
<stop offset="0.3" stop-color="#2C3034"/>
<stop offset="0.35" stop-color="#303539"/>
<stop offset="0.41" stop-color="#3D4246"/>
<stop offset="0.48" stop-color="#53595D"/>
<stop offset="0.55" stop-color="#737B7F"/>
<stop offset="0.62" stop-color="#777F83"/>
<stop offset="0.69" stop-color="#828A8E"/>
<stop offset="0.76" stop-color="#969DA1"/>
<stop offset="0.79" stop-color="#A2A9AD"/>
<stop offset="0.83" stop-color="#BDC2C5"/>
<stop offset="0.89" stop-color="#E8EAEC"/>
<stop offset="0.93" stop-color="#EAECEE"/>
<stop offset="0.95" stop-color="#F2F3F4"/>
<stop offset="0.97" stop-color="white"/>
<stop offset="1" stop-color="white"/>
</linearGradient>
<linearGradient id="paint20_linear_9797_9717" x1="124.28" y1="65.418" x2="123.92" y2="58.2949" gradientUnits="userSpaceOnUse">
<stop stop-color="#5C6468"/>
<stop offset="0.11" stop-color="#5B6367"/>
<stop offset="0.14" stop-color="#474D51"/>
<stop offset="0.17" stop-color="#383D41"/>
<stop offset="0.21" stop-color="#2F3337"/>
<stop offset="0.26" stop-color="#2C3034"/>
<stop offset="0.31" stop-color="#33373B"/>
<stop offset="0.39" stop-color="#464C50"/>
<stop offset="0.48" stop-color="#666D71"/>
<stop offset="0.51" stop-color="#737B7F"/>
<stop offset="1" stop-color="#737B7F"/>
</linearGradient>
<linearGradient id="paint21_linear_9797_9717" x1="112.492" y1="64.0494" x2="143.49" y2="74.2029" gradientUnits="userSpaceOnUse">
<stop stop-color="#AEB4B8"/>
<stop offset="0.36" stop-color="#F4F5F6"/>
<stop offset="0.48" stop-color="#EFF1F2"/>
<stop offset="0.61" stop-color="#E2E4E6"/>
<stop offset="0.75" stop-color="#CBCFD2"/>
<stop offset="0.9" stop-color="#ACB2B6"/>
<stop offset="0.94" stop-color="#A2A9AD"/>
<stop offset="1" stop-color="#A2A9AD"/>
</linearGradient>
<linearGradient id="paint22_linear_9797_9717" x1="64.0563" y1="142.279" x2="91.4938" y2="109.629" gradientUnits="userSpaceOnUse">
<stop stop-color="#D1D5D8"/>
<stop offset="0.05" stop-color="#C4C9CC"/>
<stop offset="0.45" stop-color="#696F72"/>
<stop offset="0.63" stop-color="#454B4F"/>
<stop offset="1" stop-color="#454B4F"/>
</linearGradient>
<linearGradient id="paint23_linear_9797_9717" x1="28.6469" y1="90.1299" x2="61.4857" y2="90.1299" gradientUnits="userSpaceOnUse">
<stop stop-color="#A2A9AD"/>
<stop offset="0.05" stop-color="#B9BEC2"/>
<stop offset="0.12" stop-color="#CED2D4"/>
<stop offset="0.2" stop-color="#DDDFE2"/>
<stop offset="0.29" stop-color="#E5E8EA"/>
<stop offset="0.42" stop-color="#E8EAEC"/>
<stop offset="0.62" stop-color="#E5E7E9"/>
<stop offset="0.77" stop-color="#DBDEE1"/>
<stop offset="0.9" stop-color="#CBCFD2"/>
<stop offset="1" stop-color="#BABFC2"/>
</linearGradient>
<linearGradient id="paint24_linear_9797_9717" x1="56.1971" y1="104.897" x2="57.6251" y2="86.6453" gradientUnits="userSpaceOnUse">
<stop stop-color="#454B4F"/>
<stop offset="0.08" stop-color="#454B4F"/>
<stop offset="0.18" stop-color="#4B5155"/>
<stop offset="0.32" stop-color="#5D6468"/>
<stop offset="0.48" stop-color="#7B8185"/>
<stop offset="0.55" stop-color="#8A9195"/>
<stop offset="0.69" stop-color="#A0A6A9"/>
<stop offset="0.83" stop-color="#BABFC2"/>
<stop offset="0.93" stop-color="#D8DBDD"/>
<stop offset="1" stop-color="#E8EAEC"/>
</linearGradient>
<linearGradient id="paint25_linear_9797_9717" x1="52.3429" y1="101.047" x2="57.6474" y2="102.14" gradientUnits="userSpaceOnUse">
<stop stop-color="#D1D5D8"/>
<stop offset="0.08" stop-color="#D1D5D8"/>
<stop offset="0.24" stop-color="#E9EBEC"/>
<stop offset="0.4" stop-color="#F9FAFA"/>
<stop offset="0.52" stop-color="white"/>
<stop offset="0.62" stop-color="#F8F9F9"/>
<stop offset="0.76" stop-color="#E6E8EA"/>
<stop offset="0.87" stop-color="#D1D5D8"/>
<stop offset="1" stop-color="#D1D5D8"/>
</linearGradient>
<linearGradient id="paint26_linear_9797_9717" x1="56.5376" y1="123.917" x2="58.0716" y2="99.4176" gradientUnits="userSpaceOnUse">
<stop stop-color="#454B4F"/>
<stop offset="0.04" stop-color="#454B4F"/>
<stop offset="0.23" stop-color="#595F63"/>
<stop offset="0.6" stop-color="#8A9195"/>
<stop offset="0.68" stop-color="#92999D"/>
<stop offset="0.8" stop-color="#A9AFB2"/>
<stop offset="0.87" stop-color="#BABFC2"/>
<stop offset="1" stop-color="#D1D5D8"/>
</linearGradient>
<linearGradient id="paint27_linear_9797_9717" x1="58.8518" y1="119.928" x2="63.4918" y2="119.928" gradientUnits="userSpaceOnUse">
<stop stop-color="#D1D5D8"/>
<stop offset="0.08" stop-color="#D1D5D8"/>
<stop offset="0.24" stop-color="#E9EBEC"/>
<stop offset="0.4" stop-color="#F9FAFA"/>
<stop offset="0.52" stop-color="white"/>
<stop offset="0.62" stop-color="#F8F9F9"/>
<stop offset="0.76" stop-color="#E6E8EA"/>
<stop offset="0.87" stop-color="#D1D5D8"/>
<stop offset="1" stop-color="#D1D5D8"/>
</linearGradient>
<linearGradient id="paint28_linear_9797_9717" x1="72.8062" y1="81.8422" x2="30.9881" y2="81.7181" gradientUnits="userSpaceOnUse">
<stop stop-color="#2C3034"/>
<stop offset="0.09" stop-color="#2C3034"/>
<stop offset="0.19" stop-color="#5B6266"/>
<stop offset="0.25" stop-color="#737B7F"/>
<stop offset="0.6" stop-color="#A2A9AD"/>
<stop offset="0.82" stop-color="#BEC4C7"/>
<stop offset="1" stop-color="#D1D5D8"/>
</linearGradient>
<linearGradient id="paint29_linear_9797_9717" x1="59.3898" y1="66.8657" x2="85.523" y2="53.532" gradientUnits="userSpaceOnUse">
<stop stop-color="#737B7F"/>
<stop offset="0.23" stop-color="#737B7F"/>
<stop offset="0.53" stop-color="#91999D"/>
<stop offset="0.67" stop-color="#A2A9AD"/>
<stop offset="0.68" stop-color="#A8AEB2"/>
<stop offset="0.73" stop-color="#BAC0C3"/>
<stop offset="0.78" stop-color="#C7CCCF"/>
<stop offset="0.86" stop-color="#CFD3D6"/>
<stop offset="1" stop-color="#D1D5D8"/>
</linearGradient>
<linearGradient id="paint30_linear_9797_9717" x1="51.0203" y1="33.1429" x2="114.647" y2="121.75" gradientUnits="userSpaceOnUse">
<stop stop-color="#5C6468"/>
<stop offset="0.05" stop-color="#5C6468"/>
<stop offset="0.16" stop-color="#92989A"/>
<stop offset="0.26" stop-color="#C1C4C6"/>
<stop offset="0.35" stop-color="#E3E4E5"/>
<stop offset="0.43" stop-color="#F8F8F8"/>
<stop offset="0.48" stop-color="white"/>
<stop offset="0.56" stop-color="#F0F1F1"/>
<stop offset="0.72" stop-color="#C7CBCC"/>
<stop offset="0.94" stop-color="#878E91"/>
<stop offset="1" stop-color="#737B7F"/>
</linearGradient>
<linearGradient id="paint31_linear_9797_9717" x1="87.5649" y1="96.8445" x2="110.969" y2="96.8445" gradientUnits="userSpaceOnUse">
<stop stop-color="#D1D5D8"/>
<stop offset="0.19" stop-color="#E9EBEC"/>
<stop offset="0.38" stop-color="#F9FAFA"/>
<stop offset="0.52" stop-color="white"/>
<stop offset="0.64" stop-color="#F8F9F9"/>
<stop offset="0.82" stop-color="#E6E8EA"/>
<stop offset="0.97" stop-color="#D1D5D8"/>
<stop offset="1" stop-color="#D1D5D8"/>
</linearGradient>
<linearGradient id="paint32_linear_9797_9717" x1="57.4271" y1="113.751" x2="79.316" y2="127.744" gradientUnits="userSpaceOnUse">
<stop stop-color="#A2A9AD"/>
<stop offset="0.2" stop-color="#BBC1C4"/>
<stop offset="0.57" stop-color="#E8EAEC"/>
<stop offset="0.69" stop-color="#E2E4E7"/>
<stop offset="0.85" stop-color="#D1D5D7"/>
<stop offset="1" stop-color="#BABFC2"/>
</linearGradient>
</defs>
</svg>
