<svg width="192" height="192" viewBox="0 0 192 192" fill="none" xmlns="http://www.w3.org/2000/svg">
<g opacity="0.8">
<path fill-rule="evenodd" clip-rule="evenodd" d="M95.7425 143.723C53.5091 143.723 19.1484 122.222 19.1484 95.7967C19.1484 69.3687 53.5085 47.8713 95.7419 47.8713C137.975 47.8713 172.336 69.3687 172.337 95.7967C172.337 122.222 137.975 143.723 95.7425 143.723ZM95.7427 50.2258C54.8038 50.2258 21.4991 70.6697 21.4991 95.7968C21.4991 120.93 54.8038 141.372 95.7427 141.372C136.68 141.372 169.986 120.929 169.986 95.7968C169.986 70.6697 136.68 50.2258 95.7427 50.2258Z" fill="black"/>
<path fill-rule="evenodd" clip-rule="evenodd" d="M55.3389 68.6894C57.5583 62.4297 70.579 57.6783 88.5056 56.5836L92.2051 56.3539L89.3129 58.6714C84.2084 62.757 80.2486 71.41 78.4446 82.4141L78.2495 83.5763L77.0861 83.386C66.0961 81.5109 58.3733 78.0153 55.8854 73.7763C55.2931 72.7668 54.9946 71.7109 54.9946 70.655C54.9964 69.9849 55.1129 69.3202 55.3389 68.6894ZM57.3423 70.6632C57.3423 71.2966 57.5309 71.9395 57.9141 72.5911C59.9336 76.0339 66.8027 79.0777 76.356 80.8452C78.0383 71.5581 81.263 63.914 85.4568 59.1703C70.7555 60.5176 59.2473 64.6943 57.5533 69.4762C57.4111 69.8734 57.3423 70.2636 57.3423 70.6632ZM85.2276 83.1174L84.9978 84.3961L86.2946 84.4948C89.3702 84.7245 92.5497 84.8485 95.7398 84.8485C98.9328 84.8485 102.114 84.7245 105.19 84.4948L106.485 84.3961L106.254 83.1174C104.486 73.1881 100.553 67.2569 95.7415 67.2569C90.9267 67.2569 86.9951 73.1881 85.2276 83.1174ZM103.669 82.2225C102.069 74.5331 99.0318 69.6073 95.7424 69.6073C92.4536 69.6073 89.4121 74.5331 87.8168 82.2225C90.4152 82.3923 93.0658 82.4981 95.74 82.4981C98.4177 82.4981 101.067 82.3923 103.669 82.2225ZM102.17 58.6726C107.272 62.7582 111.236 71.4124 113.04 82.4153L113.233 83.5776L114.395 83.3872C125.389 81.5121 133.116 78.0153 135.595 73.7769C136.56 72.1481 136.743 70.3888 136.147 68.6912C133.928 62.4321 120.907 57.6807 102.981 56.5848L99.2863 56.3551L102.17 58.6726ZM133.926 69.4762C132.237 64.702 120.729 60.5176 106.032 59.1703C110.226 63.9146 113.446 71.5587 115.128 80.8452C124.677 79.0777 131.548 76.0333 133.575 72.5911C133.949 71.9395 134.142 71.2966 134.142 70.6632C134.142 70.2636 134.073 69.8734 133.926 69.4762ZM43.9955 73.3027C35.9389 80.0513 31.6812 88.0686 31.6812 96.4919C31.6812 116.307 55.8434 133.056 87.8813 135.443L91.4598 135.711L88.7351 133.384C81.7161 127.379 77.3573 113.132 77.3573 96.2004L77.4307 92.2L76.4483 92.0002C59.5964 88.9799 47.6075 81.894 45.9006 73.959L45.4922 72.054L43.9955 73.3027ZM44.1725 76.3165C37.5573 82.3371 34.034 89.269 34.034 96.4919C34.034 114.411 55.6872 129.659 84.8793 132.773C78.7348 125.458 75.0094 111.9 75.0094 96.2004C75.0094 96.2004 75.0276 95.0393 75.0482 94.1215C58.7704 91.0136 47.2545 84.3344 44.1725 76.3165ZM84.2704 94.3741L84.2634 94.8007C84.2634 110.539 89.1981 122.413 95.7422 122.413C102.284 122.413 107.219 110.539 107.219 94.8007L107.203 93.1026L105.941 93.2107C102.613 93.5021 99.1861 93.6467 95.7434 93.6467C92.3006 93.6467 88.869 93.5021 85.5496 93.2107L84.2828 93.0961L84.2704 94.3741ZM95.7424 120.064C100.065 120.064 104.678 110.279 104.855 95.6357C101.862 95.8561 98.8185 95.9936 95.7424 95.9936C92.671 95.9936 89.6184 95.8561 86.6298 95.6357C86.802 110.279 91.4158 120.064 95.7424 120.064ZM145.58 73.9591C143.875 81.894 131.883 88.9794 115.037 92.0002L114.05 92.1836L114.128 96.1998C114.128 113.132 109.767 127.379 102.75 133.383L100.025 135.711L103.599 135.442C135.64 133.055 159.803 116.306 159.803 96.4913C159.803 88.068 155.54 80.0507 147.484 73.3021L145.992 72.0535L145.58 73.9591ZM157.453 96.4919C157.453 89.269 153.928 82.3371 147.308 76.3165C144.225 84.3338 132.71 91.0136 116.437 94.1215C116.453 95.0387 116.476 96.2004 116.476 96.2004C116.476 111.9 112.751 125.458 106.606 132.773C135.801 129.659 157.453 114.411 157.453 96.4919Z" fill="black"/>
<path d="M146.413 67.9091C146.521 68.2076 146.62 68.512 146.697 68.8181C147.14 70.5786 147.049 72.3073 146.474 73.992C154.118 80.2952 158.624 88.0692 158.624 96.4925C158.624 117.517 130.469 134.564 95.742 134.564C61.0123 134.564 32.8602 117.517 32.8602 96.4925C32.8602 88.0762 37.3706 80.2958 45.0048 73.992C44.4354 72.3073 44.3437 70.5786 44.7868 68.8181C44.8785 68.4841 45.0006 68.1591 45.1517 67.8474C34.7217 75.2782 28.3979 85.0166 28.3979 95.6822C28.3979 118.97 58.5467 137.847 95.7414 137.847C132.931 137.847 163.085 118.97 163.085 95.6822C163.086 85.0389 156.787 75.3229 146.413 67.9091Z" fill="url(#paint0_linear_9797_9710)"/>
<path fill-rule="evenodd" clip-rule="evenodd" d="M95.7421 55C117.646 55 137.133 60.738 139.497 68.5513C141.547 75.3293 130.338 81.6026 112.673 84.0905L114.203 82.2213C128.502 79.7892 136.995 74.6019 135.037 69.0861C132.664 62.3909 115.404 57.5408 95.7403 57.5408C76.0762 57.5408 58.8206 62.3897 56.445 69.0861C54.4847 74.6013 62.9815 79.7887 77.2767 82.2213L78.8121 84.0905C61.1405 81.6026 49.9396 75.3293 51.9915 68.5513C54.3554 60.7391 73.8421 55 95.7421 55ZM95.7397 83.6686C99.0015 83.6686 102.13 83.5469 105.098 83.3242L107.048 84.7333C103.467 85.0453 99.689 85.2222 95.7415 85.2222C91.7946 85.2222 88.0157 85.0453 84.4372 84.7333L86.3769 83.3242H86.3863C89.3543 83.5469 92.4803 83.6686 95.7397 83.6686Z" fill="url(#paint1_linear_9797_9710)"/>
<path d="M86.41 83.3243C88.0511 74.2047 91.6114 68.5055 95.7405 68.5055C99.8743 68.5055 103.432 74.2047 105.075 83.3243H105.108L107.028 84.7175C105.407 72.674 100.968 64.9775 95.7435 64.9775C90.515 64.9775 86.078 72.674 84.4597 84.7175L86.3788 83.3243H86.41Z" fill="url(#paint2_linear_9797_9710)"/>
<path d="M107.609 91.5413L106.039 94.3806C106.039 94.5874 106.049 94.8001 106.049 95.0158C106.049 110.132 101.426 121.594 95.7411 121.594C90.0507 121.594 85.4374 110.131 85.4374 95.0158C85.4374 94.7772 85.4421 94.5404 85.4468 94.3119L83.8744 91.5413C83.8282 92.6936 83.8052 93.8467 83.8057 94.9999C83.8057 112.139 89.1493 125.121 95.7434 125.121C102.337 125.121 107.686 112.139 107.686 94.9999C107.683 93.8467 107.658 92.6936 107.609 91.5413V91.5413Z" fill="url(#paint3_linear_9797_9710)"/>
<path d="M78.8373 84.0976C81.0961 67.358 87.81 54.9989 95.7426 54.9989C87.2383 54.9989 79.9896 65.9483 77.2996 82.2543L78.8144 84.0976H78.8373Z" fill="url(#paint4_linear_9797_9710)"/>
<path d="M112.65 84.0976H112.666L114.181 82.2543C111.495 65.9483 104.242 54.9989 95.7422 54.9989C103.675 55.0001 110.393 67.358 112.65 84.0976Z" fill="url(#paint5_linear_9797_9710)"/>
<path d="M115.236 93.1478L113.308 90.8456H113.293C113.401 92.6748 113.462 94.534 113.462 96.4226C113.462 119.3 105.527 137.846 95.7427 137.846C106.714 137.846 115.299 120.645 115.299 96.4226C115.299 95.3143 115.276 94.2273 115.236 93.1478Z" fill="url(#paint6_linear_9797_9710)"/>
<path d="M78.0267 96.4231C78.0267 94.5346 78.0884 92.6754 78.1942 90.8462H78.1812L76.2486 93.1414C76.2077 94.2348 76.1863 95.3289 76.1846 96.4231C76.1846 120.646 84.7759 137.846 95.7429 137.846C85.9617 137.846 78.0267 119.3 78.0267 96.4231Z" fill="url(#paint7_linear_9797_9710)"/>
<path fill-rule="evenodd" clip-rule="evenodd" d="M44.7872 68.8175C44.3441 70.578 44.4358 72.3067 45.0052 73.9914C42.083 76.4011 39.6227 79.0318 37.6948 81.8253C38.3667 77.3838 40.1337 73.1794 42.8363 69.5914C43.5962 68.994 44.3683 68.4124 45.1521 67.8468C45.001 68.1585 44.8789 68.4835 44.7872 68.8175ZM153.789 81.8253C151.861 79.0318 149.396 76.4017 146.474 73.9913C147.048 72.3067 147.14 70.5785 146.695 68.8187C146.619 68.5125 146.52 68.2081 146.411 67.9096C147.172 68.4502 147.917 69.011 148.648 69.5914C151.354 73.1771 153.122 77.3825 153.789 81.8253Z" fill="#2D2F34"/>
<path fill-rule="evenodd" clip-rule="evenodd" d="M95.7426 49.0482C54.0874 49.0482 20.3237 69.981 20.3237 95.7968C20.3237 121.618 54.0874 142.542 95.7426 142.543C137.392 142.543 171.156 121.618 171.156 95.7968C171.156 69.981 137.392 49.0482 95.7426 49.0482ZM163.086 95.6815C163.086 118.969 132.933 137.846 95.7422 137.846C58.5476 137.846 28.3965 118.969 28.3965 95.6815C28.3965 72.3925 58.547 53.5081 95.7422 53.5081C132.933 53.5081 163.086 72.3913 163.086 95.6815Z" fill="url(#paint8_linear_9797_9710)"/>
<path fill-rule="evenodd" clip-rule="evenodd" d="M95.7419 55C85.9618 55 78.0269 73.7857 78.0269 96.4231C78.0269 119.3 85.9571 137.846 95.7419 137.846C105.527 137.846 113.462 119.301 113.462 96.4231C113.462 73.7857 105.527 55 95.7419 55ZM107.685 95.0069C107.685 112.139 102.337 125.121 95.742 125.121C89.1479 125.121 83.8042 112.139 83.8042 95.0069C83.8042 77.2278 89.1479 64.9781 95.742 64.9781C102.336 64.9781 107.685 77.2278 107.685 95.0069Z" fill="url(#paint9_linear_9797_9710)"/>
<path fill-rule="evenodd" clip-rule="evenodd" d="M95.7419 49.9208C70.2388 49.9208 46.7311 61.1217 44.7873 68.8175C41.7001 81.0285 64.3539 92.0784 95.7419 92.0784C127.125 92.0784 149.78 81.0279 146.697 68.8175C143.943 57.9239 121.243 49.9208 95.7419 49.9208ZM51.9915 68.5514C54.3554 60.7392 73.8421 55.0001 95.742 55.0001C117.647 55.0001 137.133 60.738 139.497 68.5514C142.143 77.3025 122.697 85.2222 95.742 85.2222C68.7928 85.2222 49.3425 77.3037 51.9915 68.5514Z" fill="url(#paint10_linear_9797_9710)"/>
<path fill-rule="evenodd" clip-rule="evenodd" d="M76.2369 93.1578C56.8301 89.668 44.0621 81.1072 44.521 71.4576C44.9294 80.1888 58.3403 87.924 78.1813 90.8385L78.1766 90.8456L76.2369 93.1578ZM146.963 71.4576C146.559 80.1882 133.139 87.9234 113.301 90.8385L113.308 90.8456L115.243 93.1578C134.653 89.6686 147.423 81.0978 146.963 71.4576ZM83.85 91.5184L83.8635 91.5278L85.4818 94.3806C88.7753 94.6621 92.2004 94.8231 95.7419 94.8231C99.2999 94.8231 102.733 94.6626 106.048 94.3735L107.623 91.5266L107.633 91.5172C103.846 91.8774 99.8745 92.0772 95.7431 92.0772C91.7721 92.0795 87.8033 91.893 83.85 91.5184Z" fill="url(#paint11_linear_9797_9710)"/>
</g>
<defs>
<linearGradient id="paint0_linear_9797_9710" x1="146.989" y1="132.638" x2="146.989" y2="79.3691" gradientUnits="userSpaceOnUse">
<stop stop-color="#F0F3F5"/>
<stop offset="0.056" stop-color="#E2E5E8"/>
<stop offset="0.138" stop-color="#D4D8DD"/>
<stop offset="0.242" stop-color="#CCD0D6"/>
<stop offset="0.44" stop-color="#CACED4"/>
<stop offset="0.568" stop-color="#B3B7BD"/>
<stop offset="0.835" stop-color="#797C83"/>
<stop offset="1" stop-color="#52545C"/>
</linearGradient>
<linearGradient id="paint1_linear_9797_9710" x1="137.763" y1="92.0502" x2="137.763" y2="63.1847" gradientUnits="userSpaceOnUse">
<stop stop-color="#F0F3F5"/>
<stop offset="0.056" stop-color="#E2E5E8"/>
<stop offset="0.138" stop-color="#D4D8DD"/>
<stop offset="0.242" stop-color="#CCD0D6"/>
<stop offset="0.44" stop-color="#CACED4"/>
<stop offset="0.568" stop-color="#B3B7BD"/>
<stop offset="0.835" stop-color="#797C83"/>
<stop offset="1" stop-color="#52545C"/>
</linearGradient>
<linearGradient id="paint2_linear_9797_9710" x1="113.971" y1="78.8622" x2="98.2599" y2="61.6304" gradientUnits="userSpaceOnUse">
<stop stop-color="#F0F3F5"/>
<stop offset="0.056" stop-color="#E2E5E8"/>
<stop offset="0.138" stop-color="#D4D8DD"/>
<stop offset="0.242" stop-color="#CCD0D6"/>
<stop offset="0.44" stop-color="#CACED4"/>
<stop offset="0.568" stop-color="#B3B7BD"/>
<stop offset="0.835" stop-color="#797C83"/>
<stop offset="1" stop-color="#52545C"/>
</linearGradient>
<linearGradient id="paint3_linear_9797_9710" x1="112.555" y1="93.4257" x2="84.2552" y2="85.1628" gradientUnits="userSpaceOnUse">
<stop stop-color="#F0F3F5"/>
<stop offset="0.056" stop-color="#E2E5E8"/>
<stop offset="0.138" stop-color="#D4D8DD"/>
<stop offset="0.242" stop-color="#CCD0D6"/>
<stop offset="0.44" stop-color="#CACED4"/>
<stop offset="0.568" stop-color="#B3B7BD"/>
<stop offset="0.835" stop-color="#797C83"/>
<stop offset="1" stop-color="#52545C"/>
</linearGradient>
<linearGradient id="paint4_linear_9797_9710" x1="72.0123" y1="49.0441" x2="72.0123" y2="94.8278" gradientUnits="userSpaceOnUse">
<stop stop-color="#F0F3F5"/>
<stop offset="0.056" stop-color="#E2E5E8"/>
<stop offset="0.138" stop-color="#D4D8DD"/>
<stop offset="0.242" stop-color="#CCD0D6"/>
<stop offset="0.44" stop-color="#CACED4"/>
<stop offset="0.568" stop-color="#B3B7BD"/>
<stop offset="0.835" stop-color="#797C83"/>
<stop offset="1" stop-color="#52545C"/>
</linearGradient>
<linearGradient id="paint5_linear_9797_9710" x1="90.4563" y1="49.0441" x2="90.4563" y2="94.8278" gradientUnits="userSpaceOnUse">
<stop stop-color="#F0F3F5"/>
<stop offset="0.056" stop-color="#E2E5E8"/>
<stop offset="0.138" stop-color="#D4D8DD"/>
<stop offset="0.242" stop-color="#CCD0D6"/>
<stop offset="0.44" stop-color="#CACED4"/>
<stop offset="0.568" stop-color="#B3B7BD"/>
<stop offset="0.835" stop-color="#797C83"/>
<stop offset="1" stop-color="#52545C"/>
</linearGradient>
<linearGradient id="paint6_linear_9797_9710" x1="89.6242" y1="48.6592" x2="89.6242" y2="125.068" gradientUnits="userSpaceOnUse">
<stop stop-color="#F0F3F5"/>
<stop offset="0.056" stop-color="#E2E5E8"/>
<stop offset="0.138" stop-color="#D4D8DD"/>
<stop offset="0.242" stop-color="#CCD0D6"/>
<stop offset="0.44" stop-color="#CACED4"/>
<stop offset="0.568" stop-color="#B3B7BD"/>
<stop offset="0.835" stop-color="#797C83"/>
<stop offset="1" stop-color="#52545C"/>
</linearGradient>
<linearGradient id="paint7_linear_9797_9710" x1="70.0653" y1="48.6592" x2="70.0653" y2="125.068" gradientUnits="userSpaceOnUse">
<stop stop-color="#F0F3F5"/>
<stop offset="0.056" stop-color="#E2E5E8"/>
<stop offset="0.138" stop-color="#D4D8DD"/>
<stop offset="0.242" stop-color="#CCD0D6"/>
<stop offset="0.44" stop-color="#CACED4"/>
<stop offset="0.568" stop-color="#B3B7BD"/>
<stop offset="0.835" stop-color="#797C83"/>
<stop offset="1" stop-color="#52545C"/>
</linearGradient>
<linearGradient id="paint8_linear_9797_9710" x1="20.3234" y1="49.0482" x2="20.3234" y2="142.543" gradientUnits="userSpaceOnUse">
<stop stop-color="#F0F3F5"/>
<stop offset="0.253" stop-color="#EDF0F3"/>
<stop offset="0.406" stop-color="#E5E8EA"/>
<stop offset="0.531" stop-color="#D7DADC"/>
<stop offset="0.642" stop-color="#C3C5C9"/>
<stop offset="0.744" stop-color="#A9ABAF"/>
<stop offset="0.839" stop-color="#888B90"/>
<stop offset="0.926" stop-color="#63656B"/>
<stop offset="1" stop-color="#3D3F46"/>
</linearGradient>
<linearGradient id="paint9_linear_9797_9710" x1="75.748" y1="49.0435" x2="75.748" y2="142.544" gradientUnits="userSpaceOnUse">
<stop stop-color="#F0F3F5"/>
<stop offset="0.253" stop-color="#EDF0F3"/>
<stop offset="0.406" stop-color="#E5E8EA"/>
<stop offset="0.531" stop-color="#D7DADC"/>
<stop offset="0.642" stop-color="#C3C5C9"/>
<stop offset="0.744" stop-color="#A9ABAF"/>
<stop offset="0.839" stop-color="#888B90"/>
<stop offset="0.926" stop-color="#63656B"/>
<stop offset="1" stop-color="#3D3F46"/>
</linearGradient>
<linearGradient id="paint10_linear_9797_9710" x1="-17.8906" y1="49.0535" x2="-17.8906" y2="142.552" gradientUnits="userSpaceOnUse">
<stop stop-color="#F0F3F5"/>
<stop offset="0.253" stop-color="#EDF0F3"/>
<stop offset="0.406" stop-color="#E5E8EA"/>
<stop offset="0.531" stop-color="#D7DADC"/>
<stop offset="0.642" stop-color="#C3C5C9"/>
<stop offset="0.744" stop-color="#A9ABAF"/>
<stop offset="0.839" stop-color="#888B90"/>
<stop offset="0.926" stop-color="#63656B"/>
<stop offset="1" stop-color="#3D3F46"/>
</linearGradient>
<linearGradient id="paint11_linear_9797_9710" x1="37.3147" y1="68.4391" x2="37.3147" y2="95.0857" gradientUnits="userSpaceOnUse">
<stop stop-color="#CACED4"/>
<stop offset="1" stop-color="#52545C"/>
</linearGradient>
</defs>
</svg>
