<svg width="192" height="192" viewBox="0 0 192 192" fill="none" xmlns="http://www.w3.org/2000/svg">
<path d="M93.458 19.1485H99.0221C110.474 19.7121 121.82 22.7105 131.94 28.1283C149.479 37.3851 163.057 53.794 168.961 72.7187C170.536 77.7784 171.617 83.0031 172.071 88.2838C172.523 92.4156 172.255 96.5972 172.283 100.748C171.576 112.436 168.114 123.96 162.213 134.082C156.506 143.956 148.582 152.54 139.173 158.988C127.372 167.099 113.258 171.692 98.9692 172.34H92.6392C89.4228 172.115 86.2001 171.848 83.0211 171.29C67.1011 168.631 52.0622 160.81 40.8687 149.162C27.8225 135.817 19.8422 117.546 19.3191 98.8608C19.0171 96.5848 19.1728 94.2931 19.3503 92.0139C19.3005 89.9122 19.7084 87.8479 19.78 85.7555L19.9356 85.5656C22.4017 64.8692 34.1774 45.63 51.0627 33.5086C63.3491 24.6441 78.3226 19.6249 93.458 19.1485V19.1485ZM88.9215 26.559C88.1088 26.7458 87.2775 26.8018 86.4492 26.8766C85.2162 27.1257 83.9614 27.2564 82.7316 27.5211C82.224 27.6456 81.7072 27.7422 81.1965 27.8418C80.7793 27.9539 80.3558 28.0442 79.9324 28.1376C78.7025 28.4583 77.4602 28.7479 76.2614 29.1838C76.0902 29.2274 75.7445 29.3083 75.5702 29.3488C75.2588 29.4671 74.9474 29.5854 74.6361 29.6975C74.3216 29.7909 74.0071 29.8843 73.6927 29.9778C73.5307 30.0867 73.3688 30.1926 73.21 30.3016C73.484 30.8402 73.7425 31.3882 73.9791 31.9456C74.3341 32.7582 74.7046 33.5678 75.072 34.3742C75.5266 35.436 76.0154 36.4853 76.4545 37.5532C76.881 38.478 77.3045 39.409 77.6937 40.3524C78.5001 42.0867 79.2412 43.8521 80.0382 45.5895C83.9147 54.3389 87.8535 63.0602 91.7393 71.8064C92.1503 72.7405 92.5831 73.6652 92.9817 74.6056C93.3927 75.5397 93.8192 76.4675 94.2333 77.4016C94.6817 78.37 94.9713 79.4753 95.84 80.1728C96.6184 79.5282 96.9453 78.5599 97.3065 77.6569C97.7767 76.645 98.2219 75.6237 98.6703 74.6025C102.889 65.1339 107.149 55.6777 111.355 46.2029C111.766 45.2688 112.19 44.341 112.598 43.4069C113.009 42.4728 113.432 41.5418 113.84 40.6077C114.254 39.6736 114.671 38.7427 115.082 37.8054C115.531 36.7873 115.982 35.7691 116.43 34.751C116.841 33.8138 117.268 32.8859 117.667 31.9456C117.928 31.3758 118.187 30.8029 118.479 30.2455C117.997 30.0618 117.53 29.8501 117.05 29.6695C116.729 29.5699 116.415 29.464 116.1 29.355C115.929 29.3114 115.584 29.2243 115.409 29.1807C114.21 28.7541 112.968 28.4801 111.744 28.1345C110.81 27.9539 109.879 27.739 108.958 27.5024C107.712 27.3 106.461 27.1288 105.224 26.8735C104.39 26.8018 103.549 26.7458 102.734 26.5559C101.18 26.4126 99.6106 26.4967 98.0693 26.232C95.0117 26.0733 91.9697 26.4375 88.9215 26.559ZM61.4405 35.464C51.8972 41.0467 43.7612 48.9305 37.6367 58.122C37.8017 58.8755 38.1598 59.5605 38.5147 60.2361C38.9849 61.1484 39.4208 62.0794 39.8692 63.001C40.3829 64.0379 40.8967 65.0747 41.426 66.1053C46.8531 77.1338 52.4047 88.1063 57.81 99.1473C57.9625 99.4368 58.112 99.7264 58.2615 100.019C58.8811 101.268 59.5007 102.522 60.1078 103.78C64.3642 112.362 68.6454 120.93 72.9018 129.512C73.0824 130.035 73.5339 130.268 74.0694 130.259C74.5489 129.375 74.9755 128.459 75.3709 127.534C75.7134 126.675 76.0995 125.834 76.4669 124.984C76.8219 124.175 77.1612 123.359 77.5193 122.549C77.8836 121.696 78.2728 120.856 78.6215 119.996C78.9858 119.193 79.3346 118.38 79.6864 117.568C82.4015 111.331 85.1353 105.101 87.8815 98.8764C88.1711 98.1976 88.853 97.6932 89.6158 97.7897C93.7694 97.7835 97.9261 97.7804 102.083 97.7928C102.895 97.6932 103.571 98.2879 103.848 99.0072C106.56 105.194 109.291 111.371 111.975 117.571C112.33 118.383 112.682 119.196 113.049 120.002C113.398 120.859 113.781 121.702 114.148 122.549C114.503 123.359 114.843 124.178 115.194 124.99C115.998 126.719 116.627 128.531 117.576 130.187L118.336 130.212C121.783 123.589 125.027 116.855 128.381 110.179C135.838 95.0528 143.373 79.9641 150.867 64.8568C151.45 63.7545 151.938 62.6087 152.53 61.5127C153.059 60.4447 153.495 59.3176 154.211 58.3524C153.582 57.5833 153.053 56.7488 152.493 55.9362C146.62 47.657 138.989 40.6326 130.252 35.4733C129.925 35.2709 129.573 35.1184 129.2 35.0436C125.339 43.5501 121.496 52.0721 117.676 60.5973C117.184 61.74 116.642 62.8578 116.16 64.0005C115.798 64.8163 115.431 65.6289 115.051 66.4354C114.597 67.5002 114.111 68.5527 113.666 69.6206C113.195 70.6326 112.735 71.6476 112.286 72.6689C109.655 78.5505 107.009 84.4229 104.356 90.2921C104.063 90.9179 103.836 91.5874 103.415 92.1416C102.924 92.6802 102.111 92.6522 101.445 92.6834C97.593 92.6709 93.7414 92.6927 89.8929 92.674C89.0834 92.6927 88.1711 92.4125 87.8909 91.5687C85.0388 85.2729 82.196 78.974 79.375 72.6689C78.9236 71.6476 78.4659 70.6326 78.005 69.6175C77.5504 68.5526 77.0616 67.5065 76.5915 66.4509C76.1369 65.4297 75.6885 64.4084 75.2339 63.3871C71.0305 53.8967 66.6745 44.4686 62.4867 34.972C62.1348 35.1246 61.7799 35.2772 61.4405 35.464ZM160.7 71.5044C159.312 74.5464 157.736 77.5013 156.288 80.5153C155.865 81.3435 155.448 82.1717 155.046 83.0093C154.641 83.8406 154.227 84.6689 153.825 85.5033C153.667 85.7991 153.508 86.098 153.349 86.3938C153.203 86.7145 153.053 87.0352 152.901 87.3528C152.82 87.5147 152.661 87.8354 152.58 87.9973C152.424 88.29 152.272 88.5889 152.119 88.8847C151.879 89.4327 151.615 89.9683 151.356 90.5069C146.281 100.782 141.1 111.007 136.034 121.288C135.956 121.444 135.804 121.752 135.726 121.908C135.508 122.319 135.308 122.739 135.103 123.16C134.891 123.571 134.689 123.988 134.493 124.411C134.287 124.822 134.075 125.233 133.879 125.654C133.805 125.809 133.652 126.124 133.574 126.28C133.425 126.569 133.272 126.859 133.123 127.148C132.621 128.194 132.092 129.225 131.585 130.268C127.783 138.04 123.888 145.765 120.011 153.499C119.476 154.822 117.772 155.523 116.53 154.707C115.25 153.807 114.942 152.154 114.288 150.827C113.821 149.816 113.367 148.794 112.921 147.773C108.31 137.361 103.633 126.977 99.0066 116.571C98.5987 115.634 98.1628 114.709 97.7673 113.766C97.3501 112.829 96.908 111.901 96.5655 110.932C96.2977 110.549 95.8088 110.275 95.3729 110.59C94.716 111.717 94.2863 112.959 93.7476 114.146C89.074 124.636 84.3538 135.104 79.7144 145.609C79.3501 146.412 78.9827 147.219 78.6184 148.025C78.1763 149.09 77.6843 150.133 77.2329 151.198C76.7938 152.123 76.4638 153.11 75.9033 153.978C75.2993 154.86 74.1005 155.314 73.0855 154.906C72.3351 154.66 71.8867 153.954 71.5318 153.297C67.6802 145.528 63.7633 137.791 59.9366 130.013C59.7404 129.596 59.5349 129.181 59.3325 128.77C58.934 127.933 58.5168 127.105 58.0964 126.28C58.0186 126.124 57.866 125.809 57.7882 125.651C57.592 125.233 57.3772 124.825 57.1686 124.414C56.9662 123.997 56.7607 123.583 56.549 123.172C56.3964 122.833 56.2407 122.5 56.0819 122.166C55.8235 121.668 55.5744 121.17 55.3222 120.672C55.0139 120.046 54.7119 119.42 54.3881 118.804C49.3346 108.504 44.11 98.2879 39.0721 87.9787C38.9974 87.8199 38.8417 87.5054 38.7638 87.3497C38.412 86.6087 38.0415 85.8769 37.6803 85.139C37.3067 84.4322 36.9641 83.7099 36.5905 83.0031C36.4473 82.673 36.2978 82.343 36.1515 82.016C35.9927 81.7265 35.8401 81.4369 35.6876 81.1473C34.1276 77.9808 32.5708 74.8142 30.9828 71.6632C30.3819 72.6222 30.1359 73.7369 29.7654 74.7924C24.1671 92.0295 25.8702 111.462 34.3082 127.494C34.3393 127.578 34.4016 127.749 34.4359 127.833C35.2392 129.219 35.9834 130.639 36.8365 131.996C44.3684 144.304 55.8235 154.172 69.0938 159.835C69.6138 160.044 70.1306 160.259 70.6537 160.461C71.0367 160.62 71.4228 160.766 71.8089 160.925C72.251 161.074 72.6963 161.236 73.1415 161.389C73.4529 161.501 73.7643 161.613 74.0756 161.728C74.387 161.828 74.6984 161.928 75.0128 162.024C75.813 162.276 76.6257 162.488 77.4228 162.74C78.662 163.073 79.9106 163.372 81.1592 163.671C81.676 163.762 82.196 163.858 82.7098 163.976C83.2297 164.076 83.7559 164.176 84.2759 164.303C86.7793 164.608 89.2702 165.069 91.8047 165.082C94.3766 165.346 96.9858 165.387 99.5608 165.1C102.189 165.051 104.795 164.683 107.385 164.282C107.905 164.157 108.432 164.07 108.958 163.98C109.472 163.855 109.991 163.765 110.515 163.671C111.76 163.369 113.009 163.073 114.248 162.74C115.045 162.488 115.851 162.27 116.648 162.018C116.966 161.903 117.281 161.794 117.601 161.685C117.763 161.641 118.087 161.551 118.252 161.507C119.174 161.155 120.105 160.825 121.023 160.464C121.54 160.252 122.06 160.038 122.58 159.826C130.218 156.594 137.223 151.92 143.248 146.229C151.711 138.314 158.051 128.198 161.703 117.213C166.557 102.466 166.358 85.9953 160.7 71.5044Z" fill="#1F2F57"/>
</svg>
