<?xml version="1.0" encoding="UTF-8"?>
<svg xmlns="http://www.w3.org/2000/svg" viewBox="0 0 24.240234375 30.091796875" width="24.240234375" height="30.091796875" fill="currentColor">
  <path d="M4.8037 30.0902H19.4437C22.5437 30.0902 24.2437 28.3802 24.2437 25.2702V12.8802C24.2437 10.7502 23.9237 9.6802 22.5737 8.3102L16.0137 1.6802C14.6837 0.3402 13.5737 0.0002 11.5537 0.0002H4.8037C1.6937 0.0002 0.0037 1.7102 0.0037 4.8302V25.2702C0.0037 28.4002 1.6937 30.0902 4.8037 30.0902ZM5.2237 26.5602C4.0637 26.5602 3.5237 25.9802 3.5237 24.8802V5.2202C3.5237 4.1302 4.0637 3.5302 5.2237 3.5302H10.5937V10.2302C10.5937 12.6102 11.7337 13.7302 14.0937 13.7302H20.7137V24.8802C20.7137 25.9802 20.1837 26.5602 19.0137 26.5602ZM14.3537 10.8302C13.7637 10.8302 13.4937 10.5502 13.4937 9.9702V3.8102L20.4437 10.8302ZM8.5137 19.5502C7.8237 19.5502 7.3137 20.0402 7.3137 20.7102C7.3137 21.1002 7.4337 21.3702 7.7337 21.6402L11.0637 24.6502C11.4037 24.9602 11.7337 25.1402 12.1537 25.1402C12.5937 25.1402 12.9237 24.9602 13.2637 24.6502L16.5837 21.6402C16.8837 21.3702 17.0037 21.1002 17.0037 20.7102C17.0037 20.0402 16.4837 19.5502 15.7937 19.5502C15.4637 19.5502 15.1037 19.7302 14.9037 19.9702L14.2337 20.6902L13.3837 21.6002L13.5537 19.7002V16.3002C13.5537 15.5302 12.9237 15.0002 12.1537 15.0002C11.4037 15.0002 10.7737 15.5302 10.7737 16.3002V19.7002L10.9237 21.6202L10.0937 20.6902L9.4237 19.9702C9.2037 19.7302 8.8637 19.5502 8.5137 19.5502Z"/>
</svg>
