<svg width="20" height="20" viewBox="0 0 20 20" fill="currentColor" xmlns="http://www.w3.org/2000/svg">
<path d="M6.81039 16.5592H13.1934C14.545 16.5592 15.2862 15.8137 15.2862 14.4577V9.05569C15.2862 8.12701 15.1467 7.66049 14.5581 7.06317L11.6979 4.1725C11.1181 3.58826 10.6341 3.44002 9.75338 3.44002H6.81039C5.45443 3.44002 4.71759 4.18558 4.71759 5.54589V14.4577C4.71759 15.8224 5.45443 16.5592 6.81039 16.5592ZM6.99351 15.0202C6.48775 15.0202 6.25231 14.7673 6.25231 14.2877V5.71593C6.25231 5.24069 6.48775 4.97909 6.99351 4.97909H9.33482V7.90029C9.33482 8.93797 9.83186 9.42629 10.8608 9.42629H13.7471V14.2877C13.7471 14.7673 13.5161 15.0202 13.0059 15.0202H6.99351ZM10.9742 8.16189C10.7169 8.16189 10.5992 8.03981 10.5992 7.78693V5.10117L13.6294 8.16189H10.9742ZM8.42794 12.4172C8.58054 12.4172 8.72878 12.3388 8.8247 12.2254L9.11682 11.9202L9.4787 11.5104L9.4133 12.3518V13.8342C9.4133 14.17 9.68798 14.401 10.015 14.401C10.3507 14.401 10.6254 14.17 10.6254 13.8342V12.3518L10.5513 11.5191L10.9219 11.9202L11.214 12.2254C11.3012 12.3388 11.4581 12.4172 11.602 12.4172C11.9029 12.4172 12.1296 12.2036 12.1296 11.9115C12.1296 11.7414 12.0773 11.6237 11.9465 11.506L10.4989 10.1936C10.3507 10.0585 10.2068 9.98001 10.015 9.98001C9.83186 9.98001 9.68798 10.0585 9.53974 10.1936L8.08786 11.506C7.95706 11.6237 7.90474 11.7414 7.90474 11.9115C7.90474 12.2036 8.1271 12.4172 8.42794 12.4172Z" fill="currentColor"/>
</svg>
