<?xml version="1.0" encoding="UTF-8"?>
<svg xmlns="http://www.w3.org/2000/svg" viewBox="0 0 28.875 33.906048634003895" width="28.875" height="33.906048634003895" fill="currentColor">
  <path d="M25.2827 16.956C25.2827 19.646 24.2527 22.106 22.5727 23.926C21.8027 24.976 22.0827 25.926 22.6927 26.486C23.3927 27.096 24.5827 27.186 25.3327 26.206C27.5327 23.776 28.8727 20.526 28.8727 16.956C28.8727 9.926 23.8727 4.076 17.2027 2.776V1.086C17.2027 -0.014 16.2727 -0.284 15.4927 0.306L10.9627 3.696C10.3727 4.116 10.3927 4.846 10.9627 5.276L15.5027 8.646C16.2727 9.216 17.2027 8.956 17.2027 7.876V6.466C21.8627 7.686 25.2827 11.906 25.2827 16.956ZM3.5927 16.956C3.5927 14.266 4.6227 11.796 6.3027 9.966C7.0727 8.926 6.8127 7.986 6.1827 7.426C5.4827 6.806 4.3027 6.726 3.5427 7.696C1.3527 10.136 0.0027 13.386 0.0027 16.956C0.0027 23.986 5.0127 29.816 11.6727 31.116V32.826C11.6727 33.926 12.6027 34.196 13.3827 33.596L17.9127 30.216C18.5027 29.796 18.5027 29.066 17.9127 28.626L13.3827 25.266C12.6027 24.676 11.6727 24.956 11.6727 26.036V27.446C7.0127 26.206 3.5927 21.986 3.5927 16.956Z"/>
</svg>
