<?xml version="1.0" encoding="UTF-8"?>
<svg xmlns="http://www.w3.org/2000/svg" viewBox="0 0 21.3549945832664 21.33158500614134" width="21.3549945832664" height="21.33158500614134" fill="currentColor">
  <path d="M0.6332 20.7415C1.4232 21.5215 2.5432 21.5615 3.4632 20.6715L15.7232 8.4115L17.7232 6.2315L17.5232 10.5515V15.7615C17.5232 16.9015 18.3432 17.7915 19.4132 17.7915C20.4832 17.7915 21.3532 16.8815 21.3532 15.7515V2.0615C21.3532 0.8315 20.5332 0.0015 19.2732 0.0015H5.5932C4.4132 0.0015 3.5532 0.8715 3.5532 1.9415C3.5532 2.9915 4.4532 3.8115 5.5732 3.8115H10.6332L15.0832 3.6415L12.9232 5.6215L0.6532 17.8815C-0.2968 18.8715 -0.1268 20.0015 0.6332 20.7415Z"/>
</svg>
