<svg width="20" height="20" viewBox="0 0 20 20" fill="currentColor" xmlns="http://www.w3.org/2000/svg">
<path d="M6.81045 16.5592H13.1935C14.5451 16.5592 15.2863 15.8137 15.2863 14.4577V9.05569C15.2863 8.12701 15.1468 7.66049 14.5582 7.06317L11.698 4.1725C11.1181 3.58826 10.6342 3.44002 9.75344 3.44002H6.81045C5.45449 3.44002 4.71765 4.18558 4.71765 5.54589V14.4577C4.71765 15.8224 5.45449 16.5592 6.81045 16.5592ZM6.99357 15.0202C6.48781 15.0202 6.25237 14.7673 6.25237 14.2877V5.71593C6.25237 5.24069 6.48781 4.97909 6.99357 4.97909H9.33488V7.90029C9.33488 8.93797 9.83192 9.42629 10.8609 9.42629H13.7472V14.2877C13.7472 14.7673 13.5161 15.0202 13.006 15.0202H6.99357ZM10.9742 8.16189C10.717 8.16189 10.5993 8.03981 10.5993 7.78693V5.10117L13.6295 8.16189H10.9742ZM8.428 11.9638C8.12716 11.9638 7.90481 12.1774 7.90481 12.4696C7.90481 12.6396 7.95713 12.7573 8.08793 12.875L9.5398 14.1874C9.68804 14.3226 9.83192 14.401 10.015 14.401C10.2069 14.401 10.3508 14.3226 10.499 14.1874L11.9465 12.875C12.0773 12.7573 12.1296 12.6396 12.1296 12.4696C12.1296 12.1774 11.9029 11.9638 11.6021 11.9638C11.4582 11.9638 11.3012 12.0423 11.214 12.1469L10.9219 12.4608L10.5513 12.8576L10.6254 12.0292V10.5468C10.6254 10.2111 10.3508 9.98001 10.015 9.98001C9.68804 9.98001 9.41336 10.2111 9.41336 10.5468V12.0292L9.47876 12.8663L9.11688 12.4608L8.82476 12.1469C8.72884 12.0423 8.5806 11.9638 8.428 11.9638Z" fill="currentColor"/>
</svg>
