<svg width="20" height="20" viewBox="0 0 20 20" fill="currentColor" xmlns="http://www.w3.org/2000/svg">
<path d="M4.45272 10.9802H12.0677L13.5266 10.9013L12.048 12.2765L10.5348 13.7847C10.3525 13.9572 10.2243 14.1938 10.2243 14.4846C10.2243 15.0119 10.6186 15.4062 11.1904 15.4062C11.427 15.4062 11.6685 15.3077 11.8705 15.1056L16.2621 10.7239C16.4445 10.5415 16.5627 10.2655 16.5627 10.0043C16.5627 9.73813 16.4445 9.46212 16.2621 9.27976L11.8755 4.903C11.6685 4.69106 11.427 4.59248 11.1904 4.59248C10.6186 4.59248 10.2243 4.99172 10.2243 5.51417C10.2243 5.80989 10.3525 6.04155 10.5348 6.21405L12.048 7.73212L13.5266 9.10725L12.0677 9.02839H4.45272C3.84648 9.02839 3.44232 9.41776 3.44232 10.0043C3.44232 10.581 3.84648 10.9802 4.45272 10.9802Z" fill="currentColor"/>
</svg>
