<svg width="20" height="20" viewBox="0 0 20 20" fill="currentColor" xmlns="http://www.w3.org/2000/svg">
<path d="M7.88587 15.6547C8.43684 15.6547 8.85766 15.2338 8.85766 14.6829V13.8239L10.311 15.1818C10.6667 15.5072 10.9574 15.6547 11.3262 15.6547C11.8815 15.6547 12.2979 15.2338 12.2979 14.6829V12.774H12.4064C14.376 12.774 15.4996 13.4985 16.2762 14.9128C16.5582 15.4247 16.8705 15.5852 17.274 15.5852C17.8423 15.5852 18.198 15.0256 18.198 13.9237C18.198 9.74154 16.2501 7.25569 12.4064 7.25569H12.2979V5.33382C12.2979 4.78285 11.8815 4.34468 11.3218 4.34468C10.9617 4.34468 10.7014 4.48785 10.311 4.84359L8.85766 6.18846V5.33382C8.85766 4.78285 8.43684 4.34468 7.88154 4.34468C7.52579 4.34468 7.25682 4.48785 6.87071 4.84359L2.14195 9.22094C1.89901 9.44653 1.79922 9.7372 1.79922 9.9975C1.79922 10.2535 1.90768 10.5528 2.15063 10.7784L6.87071 15.1818C7.22211 15.5072 7.51712 15.6547 7.88587 15.6547ZM10.8967 13.7284C10.862 13.7284 10.8316 13.7154 10.8056 13.6807L7.01387 10.1016C6.96615 10.0626 6.9488 10.0322 6.9488 9.9975C6.9488 9.96279 6.96615 9.93676 7.01387 9.88904L10.7969 6.28824C10.8272 6.26655 10.862 6.2492 10.8967 6.2492C10.9531 6.2492 10.9921 6.28824 10.9921 6.34898V8.41402C10.9921 8.5485 11.0528 8.60924 11.183 8.60924H11.8901C15.3521 8.60924 16.8575 10.6916 16.9269 13.5419C16.9269 13.5809 16.9052 13.6026 16.8835 13.6026C16.8575 13.6026 16.8488 13.5853 16.8315 13.5506C16.1113 12.0799 14.4628 11.3988 11.8901 11.3988H11.183C11.0528 11.3988 10.9921 11.4552 10.9921 11.5853V13.6287C10.9921 13.6851 10.9531 13.7284 10.8967 13.7284ZM7.3566 13.6807L3.56926 10.1016C3.52587 10.0626 3.50852 10.0322 3.50852 9.9975C3.50852 9.96279 3.52587 9.93676 3.56926 9.88904L7.3566 6.28824C7.38697 6.26655 7.41734 6.2492 7.45204 6.2492C7.5041 6.2492 7.55182 6.28824 7.55182 6.34898V7.39885L5.59091 9.22094C5.34796 9.44653 5.2395 9.7372 5.2395 9.9975C5.2395 10.2535 5.3523 10.5528 5.59091 10.7784L7.55182 12.6048V13.6287C7.55182 13.6851 7.51278 13.7284 7.45204 13.7284C7.42167 13.7284 7.39131 13.7154 7.3566 13.6807Z" fill="currentColor"/>
</svg>
