<svg width="20" height="20" viewBox="0 0 20 20" fill="currentColor" xmlns="http://www.w3.org/2000/svg">
<path d="M15.2457 10.0014C15.2457 11.3026 14.7475 12.4925 13.9349 13.3728C13.5624 13.8806 13.6979 14.3401 13.9929 14.611C14.3315 14.9061 14.9071 14.9496 15.2699 14.4756C16.334 13.3002 16.9821 11.7282 16.9821 10.0014C16.9821 6.60111 14.5637 3.77152 11.3375 3.14272V2.32529C11.3375 1.79323 10.8876 1.66263 10.5104 1.94801L8.31925 3.58772C8.03387 3.79087 8.04354 4.14396 8.31925 4.35195L10.5152 5.98198C10.8876 6.25769 11.3375 6.13193 11.3375 5.60954V4.92754C13.5915 5.51764 15.2457 7.55881 15.2457 10.0014ZM4.75445 10.0014C4.75445 8.70032 5.25265 7.50561 6.06525 6.62046C6.43769 6.11742 6.31193 5.66275 6.00721 5.39188C5.66863 5.092 5.09787 5.0533 4.73027 5.52248C3.67099 6.70268 3.01801 8.27468 3.01801 10.0014C3.01801 13.4018 5.44129 16.2217 8.66267 16.8505V17.6776C8.66267 18.2097 9.1125 18.3403 9.48978 18.0501L11.6809 16.4152C11.9663 16.212 11.9663 15.8589 11.6809 15.6461L9.48978 14.0209C9.1125 13.7355 8.66267 13.871 8.66267 14.3934V15.0754C6.40867 14.4756 4.75445 12.4344 4.75445 10.0014Z" fill="currentColor"/>
</svg>
