<svg width="20" height="20" viewBox="0 0 20 20" fill="currentColor" xmlns="http://www.w3.org/2000/svg">
<path d="M18.2007 9.99684C18.2007 9.67087 18.0649 9.30688 17.7715 9.02438L11.8499 3.54278C11.3609 3.09729 11.0349 2.91801 10.5895 2.91801C9.88865 2.91801 9.36167 3.46672 9.36167 4.15667V6.56336H3.97786C2.60333 6.56336 1.79929 7.3674 1.79929 8.73101V11.3116C1.79929 12.6697 2.60333 13.4738 3.97786 13.4738H9.36167V15.8642C9.36167 16.5541 9.88865 17.0811 10.5786 17.0811C11.0404 17.0811 11.4044 16.8964 11.8499 16.4889L17.7606 10.9747C18.0594 10.6922 18.2007 10.3174 18.2007 9.99684ZM16.0602 9.99684C16.0602 10.0403 16.0384 10.0783 15.9841 10.1272L11.2414 14.6092C11.1979 14.6527 11.1599 14.669 11.1164 14.669C11.0458 14.669 10.9969 14.6146 10.9969 14.544V12.0069C10.9969 11.844 10.9209 11.7733 10.7579 11.7733H4.16257C3.73339 11.7733 3.49978 11.556 3.49978 11.1105V8.92659C3.49978 8.48111 3.73339 8.2638 4.16257 8.2638H10.7579C10.9209 8.2638 10.9969 8.19861 10.9969 8.0302V5.42793C10.9969 5.35187 11.0458 5.30297 11.1219 5.30297C11.1599 5.30297 11.2034 5.32471 11.2414 5.35187L15.9841 9.86102C16.0384 9.92078 16.0602 9.95337 16.0602 9.99684Z" fill="currentColor"/>
</svg>
