<svg width="20" height="20" viewBox="0 0 20 20" fill="currentColor" xmlns="http://www.w3.org/2000/svg">
<path d="M9.99624 16.5616C10.2719 16.5616 10.5425 16.4514 10.7279 16.261L15.1878 11.796C15.3932 11.5856 15.4985 11.345 15.4985 11.0845C15.4985 10.5232 15.0926 10.1273 14.5614 10.1273C14.2657 10.1273 14.0302 10.2476 13.8448 10.433L12.3064 11.9714L10.9283 13.575L10.9884 12.0717V4.46975C10.9884 3.85338 10.5926 3.43745 9.99624 3.43745C9.40994 3.43745 9.00404 3.85338 9.00404 4.46975V12.0717L9.07419 13.58L7.69613 11.9714L6.15269 10.433C5.9773 10.2476 5.74178 10.1273 5.44111 10.1273C4.90492 10.1273 4.50403 10.5232 4.50403 11.0845C4.50403 11.345 4.60425 11.5856 4.80971 11.796L9.26462 16.261C9.45003 16.4514 9.73065 16.5616 9.99624 16.5616Z" fill="currentColor"/>
</svg>
