<svg width="20" height="20" viewBox="0 0 20 20" fill="currentColor" xmlns="http://www.w3.org/2000/svg">
<path d="M10.0019 3.44255C9.74991 3.44255 9.44148 3.55116 9.21992 3.79009L4.8149 8.52526C4.48909 8.8728 4.34138 9.16386 4.34138 9.54181C4.34138 10.0935 4.75408 10.5062 5.3058 10.5062H7.22593V14.8157C7.22593 15.9147 7.86019 16.562 8.95493 16.562H11.0141C12.1088 16.562 12.7431 15.9147 12.7431 14.8157V10.5062H14.6762C15.228 10.5062 15.658 10.0935 15.658 9.52878C15.658 9.17255 15.5234 8.9119 15.1671 8.52526L10.7838 3.79009C10.5536 3.54681 10.2669 3.44255 10.0019 3.44255ZM10.0019 5.14982C10.0366 5.14982 10.067 5.1672 10.1061 5.21498L13.7162 9.00747C13.7422 9.03354 13.7553 9.07263 13.7553 9.10739C13.7553 9.15952 13.7162 9.20296 13.651 9.20296H11.5788C11.4442 9.20296 11.3833 9.25943 11.3833 9.38976V14.668C11.3833 15.0112 11.2183 15.1936 10.862 15.1936H9.11566C8.75944 15.1936 8.58567 15.0112 8.58567 14.668V9.38976C8.58567 9.25943 8.52919 9.20296 8.39452 9.20296H6.37013C6.31365 9.20296 6.26587 9.15952 6.26587 9.10739C6.26587 9.07263 6.28324 9.04222 6.31365 9.01182L9.89327 5.21498C9.94106 5.1672 9.97147 5.14982 10.0019 5.14982Z" fill="currentColor"/>
</svg>
