<svg width="20" height="20" viewBox="0 0 20 20" fill="currentColor" xmlns="http://www.w3.org/2000/svg">
<path d="M6.63508 9.94423L6.53184 7.8206L7.51992 8.89225L13.5516 14.919C13.9989 15.3565 14.5446 15.3369 14.9329 14.9534C15.3115 14.5897 15.3999 14.0342 14.9231 13.5475L8.90126 7.52074L7.83945 6.54741L10.0221 6.63098H12.5095C13.06 6.63098 13.5024 6.22788 13.5024 5.71172C13.5024 5.18573 13.0748 4.75806 12.4996 4.75806H5.77481C5.15542 4.75806 4.75232 5.16607 4.75232 5.77071V12.5004C4.75232 13.0559 5.18491 13.5033 5.70599 13.5033C6.23198 13.5033 6.63508 13.0658 6.63508 12.5054V9.94423Z" fill="currentColor"/>
</svg>
