<svg width="20" height="20" viewBox="0 0 20 20" fill="currentColor" xmlns="http://www.w3.org/2000/svg">
<path d="M9.99799 16.5617C13.3375 16.5617 16.0409 13.8499 16.0409 10.5188C16.0409 8.76957 15.275 7.12075 13.9526 5.99085C13.5718 5.63096 13.0906 5.67699 12.8227 5.99085C12.5214 6.34238 12.6302 6.78178 12.9567 7.1082C13.9359 7.95353 14.5385 9.1462 14.5385 10.5188C14.5385 13.0255 12.5131 15.0552 9.99799 15.0552C7.49547 15.0552 5.46165 13.0255 5.46165 10.5188C5.46165 8.43479 6.85938 6.68553 8.77184 6.14569V6.73575C8.77184 7.18771 9.16103 7.29652 9.47908 7.05798L11.379 5.6477C11.6175 5.46775 11.6259 5.16226 11.379 4.9865L9.48326 3.56784C9.16103 3.32094 8.77184 3.43393 8.77184 3.89426V4.60149C6.01823 5.17481 3.9593 7.60619 3.9593 10.5188C3.9593 13.8499 6.6627 16.5617 9.99799 16.5617Z" fill="currentColor"/>
</svg>
