<svg width="20" height="20" viewBox="0 0 20 20" fill="currentColor" xmlns="http://www.w3.org/2000/svg">
<path d="M6.4226 16.5608H13.6831C14.9934 16.5608 15.7569 15.7928 15.7569 14.3922V8.01719C15.7569 6.62111 14.9843 5.84852 13.5747 5.84852H12.7614C12.6214 4.44793 11.5009 3.4404 10.0009 3.4404C8.50542 3.4404 7.38043 4.44793 7.24037 5.84852H6.4226C5.01748 5.84852 4.2449 6.61659 4.2449 8.01719V14.3922C4.2449 15.7928 5.01748 16.5608 6.4226 16.5608ZM10.0009 4.76419C10.6605 4.76419 11.1485 5.20244 11.266 5.84852H8.74036C8.85783 5.20244 9.34126 4.76419 10.0009 4.76419ZM6.5988 14.966C6.10182 14.966 5.83525 14.7265 5.83525 14.2024V8.21598C5.83525 7.69189 6.10182 7.4434 6.5988 7.4434H13.403C13.9 7.4434 14.162 7.69189 14.162 8.21598V14.2024C14.162 14.7265 13.9 14.966 13.5069 14.966H6.5988Z" fill="currentColor"/>
</svg>
