<svg width="20" height="20" viewBox="0 0 20 20" fill="currentColor" xmlns="http://www.w3.org/2000/svg">
<path d="M3.79439 13.1964C3.79439 13.8392 4.24965 14.2721 4.98612 14.2721H7.38297C7.43207 15.4326 8.44527 16.5618 9.99853 16.5618C11.5563 16.5618 12.5695 15.4371 12.6186 14.2721H15.0154C15.743 14.2721 16.2071 13.8392 16.2071 13.1964C16.2071 12.4823 15.6581 11.9154 15.0645 11.3977C14.5825 10.9826 14.4932 10.1836 14.3638 9.09902C14.2165 6.94765 13.4621 5.4167 11.9178 4.86324C11.6366 4.02411 10.9269 3.43941 9.99853 3.43941C9.07461 3.43941 8.36492 4.02411 8.08373 4.86324C6.53939 5.4167 5.78507 6.94765 5.63778 9.09902C5.50834 10.1836 5.41907 10.9826 4.93702 11.3977C4.34339 11.9154 3.79439 12.4823 3.79439 13.1964ZM5.72705 12.8081V12.7412C5.97253 12.576 6.30729 12.3082 6.57509 11.9779C6.96341 11.5137 7.13748 10.4693 7.21783 9.37129C7.32941 7.22438 8.03017 6.44329 8.90946 6.20226C9.04783 6.17548 9.13263 6.10853 9.15049 5.9166C9.19958 5.32743 9.51202 4.96143 9.99853 4.96143C10.4895 4.96143 10.7975 5.32743 10.8466 5.9166C10.8689 6.10853 10.9537 6.17548 11.0921 6.20226C11.9714 6.44329 12.6721 7.22438 12.7748 9.37129C12.8551 10.4693 13.047 11.5137 13.422 11.9779C13.6942 12.3082 13.9933 12.576 14.2343 12.7412V12.8081H5.72705ZM8.89161 14.2721H11.1099C11.0698 14.9327 10.6145 15.3701 9.99853 15.3701C9.38258 15.3701 8.93178 14.9327 8.89161 14.2721Z" fill="currentColor"/>
</svg>
