<svg width="20" height="20" viewBox="0 0 20 20" fill="currentColor" xmlns="http://www.w3.org/2000/svg">
<path d="M7.39878 16.1803C7.78613 16.1803 8.09435 16.0179 8.56917 15.6014L10.4976 13.9145H13.7714C15.5124 13.9145 16.562 12.8483 16.562 11.1239V6.60899C16.562 4.87631 15.5124 3.81838 13.7714 3.81838H6.23256C4.48739 3.81838 3.44196 4.87631 3.44196 6.60899V11.1239C3.44196 12.8483 4.5582 13.9145 6.1326 13.9145H6.49912V15.1807C6.49912 15.8013 6.83233 16.1803 7.39878 16.1803ZM7.75281 14.5518V12.9732C7.75281 12.59 7.56955 12.4443 7.21968 12.4443H6.32003C5.37039 12.4443 4.90806 11.9653 4.90806 11.0323V6.69229C4.90806 5.75931 5.37039 5.28866 6.32003 5.28866H13.6797C14.6252 5.28866 15.0917 5.75931 15.0917 6.69229V11.0323C15.0917 11.9653 14.6252 12.4443 13.6797 12.4443H10.3893C9.99363 12.4443 9.81869 12.5192 9.53547 12.8025L7.75281 14.5518Z" fill="currentColor"/>
</svg>
