<svg width="20" height="20" viewBox="0 0 20 20" fill="currentColor" xmlns="http://www.w3.org/2000/svg">
<path d="M5.64535 15.9739H14.3548C15.7857 15.9739 16.5584 15.2012 16.5584 13.7794V6.21754C16.5584 4.80026 15.7857 4.02304 14.3548 4.02304H5.64535C4.2235 4.02304 3.44171 4.80026 3.44171 6.21754V13.7794C3.44171 15.2012 4.2235 15.9739 5.64535 15.9739ZM5.76422 14.3646C5.29789 14.3646 5.05101 14.136 5.05101 13.6422V8.08743C5.05101 7.59367 5.29789 7.36965 5.76422 7.36965H14.2359C14.6976 7.36965 14.9491 7.59367 14.9491 8.08743V13.6422C14.9491 14.136 14.6976 14.3646 14.2359 14.3646H5.76422ZM8.82737 9.39498H9.19769C9.42171 9.39498 9.504 9.3264 9.504 9.09324V8.72292C9.504 8.4989 9.42171 8.42575 9.19769 8.42575H8.82737C8.59877 8.42575 8.51648 8.4989 8.51648 8.72292V9.09324C8.51648 9.3264 8.59877 9.39498 8.82737 9.39498ZM10.8161 9.39498H11.1864C11.4105 9.39498 11.4928 9.3264 11.4928 9.09324V8.72292C11.4928 8.4989 11.4105 8.42575 11.1864 8.42575H10.8161C10.583 8.42575 10.5052 8.4989 10.5052 8.72292V9.09324C10.5052 9.3264 10.583 9.39498 10.8161 9.39498ZM12.8049 9.39498H13.1661C13.3992 9.39498 13.477 9.3264 13.477 9.09324V8.72292C13.477 8.4989 13.3992 8.42575 13.1661 8.42575H12.8049C12.5717 8.42575 12.4894 8.4989 12.4894 8.72292V9.09324C12.4894 9.3264 12.5717 9.39498 12.8049 9.39498ZM6.83861 11.3517H7.20893C7.44209 11.3517 7.51524 11.2832 7.51524 11.05V10.6797C7.51524 10.4557 7.44209 10.3825 7.20893 10.3825H6.83861C6.61001 10.3825 6.53229 10.4557 6.53229 10.6797V11.05C6.53229 11.2832 6.61001 11.3517 6.83861 11.3517ZM8.82737 11.3517H9.19769C9.42171 11.3517 9.504 11.2832 9.504 11.05V10.6797C9.504 10.4557 9.42171 10.3825 9.19769 10.3825H8.82737C8.59877 10.3825 8.51648 10.4557 8.51648 10.6797V11.05C8.51648 11.2832 8.59877 11.3517 8.82737 11.3517ZM10.8161 11.3517H11.1864C11.4105 11.3517 11.4928 11.2832 11.4928 11.05V10.6797C11.4928 10.4557 11.4105 10.3825 11.1864 10.3825H10.8161C10.583 10.3825 10.5052 10.4557 10.5052 10.6797V11.05C10.5052 11.2832 10.583 11.3517 10.8161 11.3517ZM12.8049 11.3517H13.1661C13.3992 11.3517 13.477 11.2832 13.477 11.05V10.6797C13.477 10.4557 13.3992 10.3825 13.1661 10.3825H12.8049C12.5717 10.3825 12.4894 10.4557 12.4894 10.6797V11.05C12.4894 11.2832 12.5717 11.3517 12.8049 11.3517ZM6.83861 13.3039H7.20893C7.44209 13.3039 7.51524 13.2308 7.51524 13.0068V12.6364C7.51524 12.4078 7.44209 12.3393 7.20893 12.3393H6.83861C6.61001 12.3393 6.53229 12.4078 6.53229 12.6364V13.0068C6.53229 13.2308 6.61001 13.3039 6.83861 13.3039ZM8.82737 13.3039H9.19769C9.42171 13.3039 9.504 13.2308 9.504 13.0068V12.6364C9.504 12.4078 9.42171 12.3393 9.19769 12.3393H8.82737C8.59877 12.3393 8.51648 12.4078 8.51648 12.6364V13.0068C8.51648 13.2308 8.59877 13.3039 8.82737 13.3039ZM10.8161 13.3039H11.1864C11.4105 13.3039 11.4928 13.2308 11.4928 13.0068V12.6364C11.4928 12.4078 11.4105 12.3393 11.1864 12.3393H10.8161C10.583 12.3393 10.5052 12.4078 10.5052 12.6364V13.0068C10.5052 13.2308 10.583 13.3039 10.8161 13.3039Z" fill="currentColor"/>
</svg>
