<svg width="20" height="20" viewBox="0 0 20 20" fill="currentColor" xmlns="http://www.w3.org/2000/svg">
<path d="M4.11543 16.4727H15.8853C17.3781 16.4727 18.1989 15.6614 18.1989 14.1686V7.26129C18.1989 5.77806 17.3781 4.95724 15.8853 4.95724H14.2244C13.7156 4.95724 13.5332 4.89004 13.178 4.54924L12.6692 4.03563C12.3092 3.68522 11.9444 3.52682 11.2916 3.52682H8.68992C8.03231 3.52682 7.6723 3.68522 7.31229 4.03563L6.79868 4.54924C6.44828 4.88524 6.26107 4.95724 5.75706 4.95724H4.11543C2.6226 4.95724 1.80179 5.77806 1.80179 7.26129V14.1686C1.80179 15.6614 2.6226 16.4727 4.11543 16.4727ZM4.30264 14.783C3.77463 14.783 3.49142 14.5238 3.49142 13.967V7.47249C3.49142 6.91088 3.77463 6.65168 4.30264 6.65168H6.32347C6.91388 6.65168 7.19229 6.55567 7.5283 6.20527L8.0083 5.69646C8.36351 5.31725 8.57472 5.22125 9.13633 5.22125H10.8452C11.4068 5.22125 11.618 5.32205 11.9588 5.68686L12.4532 6.20527C12.7844 6.55087 13.0676 6.65168 13.658 6.65168H15.698C16.2261 6.65168 16.5093 6.91088 16.5093 7.47249V13.967C16.5093 14.5238 16.2261 14.783 15.698 14.783H4.30264ZM10.0051 14.039C11.9348 14.039 13.4804 12.4886 13.4804 10.5493C13.4804 8.61011 11.9348 7.06448 10.0051 7.06448C8.07551 7.06448 6.52508 8.61011 6.52508 10.5493C6.52508 12.4886 8.07551 14.039 10.0051 14.039ZM14.6948 8.87412C15.146 8.87412 15.5108 8.51411 15.5108 8.0629C15.5108 7.60689 15.146 7.24689 14.6948 7.24689C14.2436 7.24689 13.8836 7.60689 13.8836 8.0629C13.8836 8.51411 14.2436 8.87412 14.6948 8.87412ZM10.0051 12.5558C8.90112 12.5558 8.0035 11.6582 8.0035 10.5493C8.0035 9.44053 8.89632 8.54771 10.0051 8.54771C11.114 8.54771 11.9972 9.44053 11.9972 10.5493C11.9972 11.6582 11.114 12.5558 10.0051 12.5558Z" fill="currentColor"/>
</svg>
