<?xml version="1.0" encoding="UTF-8"?>
<svg xmlns="http://www.w3.org/2000/svg" viewBox="0 0 28.875 28.875" width="28.875" height="28.875" fill="currentColor">
  <path d="M14.4327 28.8786C22.4127 28.8786 28.8727 22.4086 28.8727 14.4386C28.8727 6.4686 22.4127 -0.0014 14.4327 -0.0014C6.4627 -0.0014 0.0027 6.4686 0.0027 14.4386C0.0027 22.4086 6.4627 28.8786 14.4327 28.8786ZM15.6027 12.6986V3.6486C18.8227 3.9886 21.6127 5.7386 23.3627 8.2686ZM14.4327 25.2786C8.4527 25.2786 3.5927 20.4286 3.5927 14.4386C3.5927 8.9986 7.5927 4.4986 12.8127 3.7186V14.8986C12.8127 15.3986 12.9627 15.6686 13.2627 15.9586L20.7627 23.2386C18.9927 24.5286 16.8027 25.2786 14.4327 25.2786ZM16.7327 15.2886L24.6527 10.7586C25.0627 11.9086 25.2827 13.1486 25.2827 14.4386C25.2827 17.0386 24.3727 19.4186 22.8627 21.2886Z"/>
</svg>
