<svg width="20" height="20" viewBox="0 0 20 20" fill="currentColor" xmlns="http://www.w3.org/2000/svg">
<path d="M14.0779 14.5834H15.1144C16.0188 14.5834 16.5614 14.0721 16.5614 13.206V6.79223C16.5614 5.92616 16.0188 5.41834 15.1144 5.41834H14.0779C13.1736 5.41834 12.638 5.92616 12.638 6.79223V13.206C12.638 14.0721 13.1736 14.5834 14.0779 14.5834ZM14.2692 13.5121C13.9492 13.5121 13.7962 13.366 13.7962 13.0495V6.94875C13.7962 6.63571 13.9492 6.48963 14.2692 6.48963H14.9301C15.2466 6.48963 15.3996 6.63571 15.3996 6.94875V13.0495C15.3996 13.366 15.2466 13.5121 14.9231 13.5121H14.2692ZM9.47975 14.5834H10.5162C11.4206 14.5834 11.9632 14.0721 11.9632 13.206V8.17656C11.9632 7.31744 11.4206 6.80267 10.5162 6.80267H9.47975C8.57541 6.80267 8.03977 7.31744 8.03977 8.17656V13.206C8.03977 14.0721 8.57541 14.5834 9.47975 14.5834ZM9.67105 13.5121C9.35105 13.5121 9.19801 13.366 9.19801 13.0495V8.33307C9.19801 8.02004 9.35105 7.87047 9.67105 7.87047H10.3319C10.6484 7.87047 10.798 8.02004 10.798 8.33307V13.0495C10.798 13.366 10.6484 13.5121 10.3249 13.5121H9.67105ZM4.88156 14.5834H5.91807C6.8224 14.5834 7.35804 14.0721 7.35804 13.206V9.57479C7.35804 8.7122 6.8224 8.2009 5.91807 8.2009H4.88156C3.97723 8.2009 3.44159 8.7122 3.44159 9.57479V13.206C3.44159 14.0721 3.97723 14.5834 4.88156 14.5834ZM5.07287 13.5121C4.74939 13.5121 4.59983 13.366 4.59983 13.0495V9.73131C4.59983 9.41827 4.74939 9.26871 5.07287 9.26871H5.73372C6.05024 9.26871 6.1998 9.41827 6.1998 9.73131V13.0495C6.1998 13.366 6.05024 13.5121 5.72677 13.5121H5.07287Z" fill="currentColor"/>
</svg>
