<svg width="20" height="20" viewBox="0 0 20 20" fill="currentColor" xmlns="http://www.w3.org/2000/svg">
<path d="M8.84566 15.0604C9.23242 15.0604 9.53185 14.9106 9.73979 14.5987L15.0381 6.49746C15.1836 6.26872 15.246 6.06079 15.246 5.86117C15.246 5.32468 14.8509 4.93792 14.3061 4.93792C13.9277 4.93792 13.6948 5.07516 13.4702 5.43281L8.81655 12.7689L6.45853 9.8411C6.24643 9.59158 6.02186 9.47513 5.70163 9.47513C5.14852 9.47513 4.75343 9.87021 4.75343 10.4025C4.75343 10.6437 4.82413 10.8517 5.03207 11.0846L7.964 14.6403C8.20937 14.9273 8.48385 15.0604 8.84566 15.0604Z" fill="currentColor"/>
</svg>
