<svg width="20" height="20" viewBox="0 0 20 20" fill="currentColor" xmlns="http://www.w3.org/2000/svg">
<path d="M5.00925 11.5611C4.83744 11.7329 4.75363 11.9425 4.75363 12.1897C4.75363 12.701 5.16011 13.1116 5.66298 13.1116C5.91441 13.1116 6.14908 13.0111 6.33766 12.8225L10.0044 9.0468L13.6669 12.8225C13.8513 13.0152 14.0902 13.1116 14.3374 13.1116C14.8403 13.1116 15.2467 12.701 15.2467 12.1897C15.2467 11.9383 15.1629 11.7329 14.9911 11.5611L10.7503 7.22391C10.5282 6.99343 10.2851 6.88448 10.0002 6.88448C9.71942 6.88448 9.48475 6.98924 9.25008 7.22391L5.00925 11.5611Z" fill="currentColor"/>
</svg>
