<svg width="20" height="20" viewBox="0 0 20 20" fill="currentColor" xmlns="http://www.w3.org/2000/svg">
<path d="M8.87252 6.40242H13.6289V11.1325C13.6289 11.6694 14.0118 11.9735 14.4398 11.9735C14.8603 11.9735 15.2507 11.6694 15.2507 11.1325V5.73044C15.2507 5.17859 14.849 4.7769 14.2934 4.7769H8.87252C8.33193 4.7769 8.03161 5.16357 8.03161 5.59154C8.03161 6.00824 8.33193 6.40242 8.87252 6.40242ZM5.59522 9.6572H10.3479V14.3836C10.3479 14.9242 10.7308 15.2207 11.1625 15.2207C11.5792 15.2207 11.9734 14.9242 11.9734 14.3836V8.98522C11.9734 8.43337 11.5755 8.03168 11.0161 8.03168H5.59522C5.05463 8.03168 4.7543 8.4146 4.7543 8.84256C4.7543 9.26302 5.05463 9.6572 5.59522 9.6572Z" fill="currentColor"/>
</svg>
