<svg xmlns="http://www.w3.org/2000/svg" viewBox="-3.26 -1 36 36" width="36" height="36" fill="currentColor">
  <path d="M23.47 5.76C23.47 6.45 24.04 7.01 24.73 7.01C25.43 7.01 25.99 6.45 25.99 5.76C25.99 5.04 25.43 4.50 24.73 4.50C24.04 4.50 23.47 5.04 23.47 5.76ZM3.49 5.76C3.49 6.45 4.05 7.01 4.74 7.01C5.44 7.01 6.00 6.45 6.00 5.76C6.00 5.04 5.44 4.50 4.74 4.50C4.05 4.50 3.49 5.04 3.49 5.76ZM20.97 8.23C20.97 8.93 21.53 9.49 22.23 9.49C22.93 9.49 23.49 8.93 23.49 8.23C23.49 7.53 22.93 6.97 22.23 6.97C21.53 6.97 20.97 7.53 20.97 8.23ZM5.99 8.23C5.99 8.93 6.55 9.49 7.25 9.49C7.94 9.49 8.50 8.93 8.50 8.23C8.50 7.53 7.94 6.97 7.25 6.97C6.55 6.97 5.99 7.53 5.99 8.23ZM18.47 10.71C18.47 11.40 19.03 11.96 19.73 11.96C20.43 11.96 20.99 11.40 20.99 10.71C20.99 10.01 20.43 9.45 19.73 9.45C19.03 9.45 18.47 10.01 18.47 10.71ZM8.48 10.71C8.48 11.40 9.04 11.96 9.73 11.96C10.45 11.96 10.99 11.40 10.99 10.71C10.99 10.01 10.45 9.45 9.73 9.45C9.04 9.45 8.48 10.01 8.48 10.71ZM15.98 13.19C15.98 13.89 16.53 14.45 17.24 14.45C17.94 14.45 18.50 13.89 18.50 13.19C18.50 12.50 17.94 11.94 17.24 11.94C16.53 11.94 15.98 12.50 15.98 13.19ZM10.98 13.19C10.98 13.89 11.54 14.45 12.24 14.45C12.93 14.45 13.49 13.89 13.49 13.19C13.49 12.50 12.93 11.94 12.24 11.94C11.54 11.94 10.98 12.50 10.98 13.19ZM13.48 15.67C13.48 16.37 14.04 16.93 14.74 16.93C15.44 16.93 16.00 16.37 16.00 15.67C16.00 14.97 15.44 14.41 14.74 14.41C14.04 14.41 13.48 14.97 13.48 15.67ZM23.47 17.96C23.47 18.66 24.04 19.22 24.73 19.22C25.43 19.22 25.99 18.66 25.99 17.96C25.99 17.27 25.43 16.71 24.73 16.71C24.04 16.71 23.47 17.27 23.47 17.96ZM3.49 17.96C3.49 18.66 4.05 19.22 4.74 19.22C5.44 19.22 6.00 18.66 6.00 17.96C6.00 17.27 5.44 16.71 4.74 16.71C4.05 16.71 3.49 17.27 3.49 17.96ZM20.97 20.45C20.97 21.15 21.53 21.71 22.23 21.71C22.93 21.71 23.49 21.15 23.49 20.45C23.49 19.76 22.93 19.20 22.23 19.20C21.53 19.20 20.97 19.76 20.97 20.45ZM5.99 20.45C5.99 21.15 6.55 21.71 7.25 21.71C7.94 21.71 8.50 21.15 8.50 20.45C8.50 19.76 7.94 19.20 7.25 19.20C6.55 19.20 5.99 19.76 5.99 20.45ZM18.47 22.93C18.47 23.63 19.03 24.19 19.73 24.19C20.43 24.19 20.99 23.63 20.99 22.93C20.99 22.23 20.43 21.67 19.73 21.67C19.03 21.67 18.47 22.23 18.47 22.93ZM8.48 22.93C8.48 23.63 9.04 24.19 9.73 24.19C10.45 24.19 10.99 23.63 10.99 22.93C10.99 22.23 10.45 21.67 9.73 21.67C9.04 21.67 8.48 22.23 8.48 22.93ZM15.98 25.42C15.98 26.11 16.53 26.67 17.24 26.67C17.94 26.67 18.50 26.11 18.50 25.42C18.50 24.72 17.94 24.16 17.24 24.16C16.53 24.16 15.98 24.72 15.98 25.42ZM10.98 25.42C10.98 26.11 11.54 26.67 12.24 26.67C12.93 26.67 13.49 26.11 13.49 25.42C13.49 24.72 12.93 24.16 12.24 24.16C11.54 24.16 10.98 24.72 10.98 25.42ZM13.48 27.89C13.48 28.59 14.04 29.15 14.74 29.15C15.44 29.15 16.00 28.59 16.00 27.89C16.00 27.19 15.44 26.63 14.74 26.63C14.04 26.63 13.48 27.19 13.48 27.89Z" />
</svg>