<svg width="20" height="20" viewBox="0 0 20 20" fill="currentColor" xmlns="http://www.w3.org/2000/svg">
<path d="M6.88867 10.0007C6.88867 10.2815 6.98924 10.5161 7.22391 10.7466L11.5569 14.9916C11.7329 15.1634 11.9383 15.2472 12.1939 15.2472C12.6968 15.2472 13.1158 14.8408 13.1158 14.3379C13.1158 14.0781 13.0069 13.8518 12.8183 13.6632L9.04261 9.9965L12.8183 6.33397C13.0069 6.14959 13.1158 5.91491 13.1158 5.66348C13.1158 5.16481 12.6968 4.75414 12.1939 4.75414C11.9383 4.75414 11.7329 4.83795 11.5569 5.00976L7.22391 9.25478C6.98924 9.47687 6.89286 9.71573 6.88867 10.0007Z" fill="currentColor"/>
</svg>
