<?xml version="1.0" encoding="UTF-8"?>
<svg xmlns="http://www.w3.org/2000/svg" viewBox="0 0 26.263671875 26.25" width="26.263671875" height="26.25" fill="currentColor">
  <path d="M20.1937 12.1261C23.5437 12.1261 26.2637 9.4161 26.2637 6.0561C26.2637 2.7061 23.5437 -0.0039 20.1937 -0.0039C16.8337 -0.0039 14.1237 2.7061 14.1237 6.0561C14.1237 9.4161 16.8337 12.1261 20.1937 12.1261ZM6.0737 12.1361C9.4237 12.1361 12.1437 9.4161 12.1437 6.0661C12.1437 2.7161 9.4237 -0.0039 6.0737 -0.0039C2.7237 -0.0039 0.0037 2.7161 0.0037 6.0661C0.0037 9.4161 2.7237 12.1361 6.0737 12.1361ZM20.1937 9.0361C18.5537 9.0361 17.2137 7.7061 17.2137 6.0561C17.2137 4.4161 18.5537 3.0861 20.1937 3.0861C21.8337 3.0861 23.1637 4.4161 23.1637 6.0561C23.1637 7.7061 21.8337 9.0361 20.1937 9.0361ZM6.0737 9.0361C4.4337 9.0361 3.1037 7.7061 3.1037 6.0661C3.1037 4.4261 4.4337 3.1061 6.0737 3.1061C7.7137 3.1061 9.0337 4.4261 9.0337 6.0661C9.0337 7.7061 7.7137 9.0361 6.0737 9.0361ZM20.1937 26.2461C23.5437 26.2461 26.2637 23.5261 26.2637 20.1761C26.2637 16.8261 23.5437 14.1061 20.1937 14.1061C16.8337 14.1061 14.1237 16.8261 14.1237 20.1761C14.1237 23.5261 16.8337 26.2461 20.1937 26.2461ZM6.0737 26.2461C9.4237 26.2461 12.1437 23.5261 12.1437 20.1761C12.1437 16.8261 9.4237 14.1061 6.0737 14.1061C2.7237 14.1061 0.0037 16.8261 0.0037 20.1761C0.0037 23.5261 2.7237 26.2461 6.0737 26.2461ZM20.1937 23.1461C18.5537 23.1461 17.2137 21.8161 17.2137 20.1761C17.2137 18.5361 18.5537 17.1961 20.1937 17.1961C21.8337 17.1961 23.1637 18.5361 23.1637 20.1761C23.1637 21.8161 21.8337 23.1461 20.1937 23.1461ZM6.0737 23.1461C4.4337 23.1461 3.1037 21.8161 3.1037 20.1761C3.1037 18.5361 4.4337 17.2161 6.0737 17.2161C7.7137 17.2161 9.0337 18.5361 9.0337 20.1761C9.0337 21.8161 7.7137 23.1461 6.0737 23.1461Z"/>
</svg>
