<svg width="20" height="20" viewBox="0 0 20 20" fill="currentColor" xmlns="http://www.w3.org/2000/svg">
<path d="M9.99783 16.5618C13.6237 16.5618 16.559 13.622 16.559 10.0006C16.559 6.37928 13.6237 3.43949 9.99783 3.43949C6.37648 3.43949 3.44124 6.37928 3.44124 10.0006C3.44124 13.622 6.37648 16.5618 9.99783 16.5618ZM9.99783 14.926C7.28068 14.926 5.07243 12.7223 5.07243 10.0006C5.07243 7.27439 7.28068 5.07523 9.99783 5.07523C12.7286 5.07523 14.9278 7.27439 14.9278 10.0006C14.9278 12.7223 12.7286 14.926 9.99783 14.926ZM7.04895 10.9503H9.99783C10.3341 10.9503 10.5976 10.6822 10.5976 10.3459V6.48378C10.5976 6.14755 10.3341 5.88855 9.99783 5.88855C9.66613 5.88855 9.39806 6.14755 9.39806 6.48378V9.75072H7.04895C6.71272 9.75072 6.45372 10.0143 6.45372 10.3459C6.45372 10.6822 6.71272 10.9503 7.04895 10.9503Z" fill="currentColor"/>
</svg>
