<svg width="20" height="20" viewBox="0 0 20 20" fill="currentColor" xmlns="http://www.w3.org/2000/svg">
<path d="M4.21596 16.059H15.7807C17.3433 16.059 18.1998 15.2026 18.1998 13.6549V6.34249C18.1998 4.78985 17.3433 3.9384 15.7807 3.9384H4.21596C2.65831 3.9384 1.80185 4.78985 1.80185 6.34249V13.6549C1.80185 15.2126 2.65831 16.059 4.21596 16.059ZM3.56485 6.55786C3.56485 5.97186 3.86036 5.70641 4.41129 5.70641H15.5853C16.1313 5.70641 16.4318 5.97186 16.4318 6.55786V6.98859H3.56485V6.55786ZM4.41129 14.291C3.86036 14.291 3.56485 14.0206 3.56485 13.4396V8.67146H16.4318V13.4396C16.4318 14.0206 16.1313 14.291 15.5853 14.291H4.41129ZM5.38295 13.1591H7.06081C7.46149 13.1591 7.73195 12.8836 7.73195 12.498V11.2308C7.73195 10.8402 7.46149 10.5747 7.06081 10.5747H5.38295C4.97726 10.5747 4.71181 10.8402 4.71181 11.2308V12.498C4.71181 12.8836 4.97726 13.1591 5.38295 13.1591Z" fill="currentColor"/>
</svg>
