<?xml version="1.0" encoding="UTF-8"?>
<svg xmlns="http://www.w3.org/2000/svg" viewBox="0 0 28.779296875 32.1083984375" width="28.779296875" height="32.1083984375" fill="currentColor">
  <path d="M1.8837 25.4453L12.4937 31.5853C13.7037 32.2853 15.0837 32.2853 16.2837 31.5853L26.8937 25.4453C28.0637 24.7753 28.7837 23.5553 28.7837 22.1753V9.9153C28.7837 8.5453 28.0637 7.3353 26.8937 6.6653L16.2837 0.5253C15.0837 -0.1747 13.7037 -0.1747 12.4937 0.5253L1.8837 6.6653C0.7137 7.3353 0.0037 8.5453 0.0037 9.9153V22.1753C0.0037 23.5553 0.7137 24.7753 1.8837 25.4453ZM14.3437 14.4253L4.8437 8.9753C4.9037 8.9053 4.9337 8.8853 5.0437 8.8253L13.6737 3.8353C14.1237 3.5753 14.6537 3.5753 15.1037 3.8353L23.7337 8.8253C23.8337 8.8853 23.8437 8.9053 23.8937 8.9453ZM16.1037 27.6853V17.4053L25.3237 12.1353V21.5353C25.3237 22.0553 25.0637 22.5053 24.6137 22.7653L16.5337 27.4453C16.3637 27.5353 16.2837 27.5953 16.1037 27.6853ZM12.6637 27.6853C12.5537 27.6253 12.5237 27.6053 12.4037 27.5353L4.1737 22.7653C3.7237 22.5053 3.4437 22.0553 3.4437 21.5353V12.1753L12.6637 17.4453Z"/>
</svg>
