<svg width="20" height="20" viewBox="0 0 20 20" fill="currentColor" xmlns="http://www.w3.org/2000/svg">
<path d="M3.6557 14.6119H7.7468V15.6419H7.72763C7.33481 15.6419 7.01864 15.9772 7.01864 16.3509C7.01864 16.7245 7.33481 17.0551 7.72763 17.0551H12.2738C12.6666 17.0551 12.978 16.7245 12.978 16.3509C12.978 15.9772 12.6666 15.6419 12.2738 15.6419H12.2547V14.6119H16.341C17.5051 14.6119 18.1997 13.9221 18.1997 12.7532V4.79616C18.1997 3.63685 17.5051 2.94223 16.341 2.94223H3.6557C2.4964 2.94223 1.80177 3.63685 1.80177 4.79616V12.7532C1.80177 13.9221 2.4964 14.6119 3.6557 14.6119ZM3.67965 11.3256C3.49761 11.3256 3.41138 11.2538 3.41138 11.0621V4.97341C3.41138 4.70993 3.57426 4.55184 3.83774 4.55184H16.1637C16.4272 4.55184 16.5805 4.70993 16.5805 4.97341V11.0621C16.5805 11.2538 16.4991 11.3256 16.3218 11.3256H3.67965Z" fill="currentColor"/>
</svg>
