<?xml version="1.0" encoding="UTF-8"?>
<svg xmlns="http://www.w3.org/2000/svg" viewBox="0 0 26.783203125 6.125" width="26.783203125" height="6.125" fill="currentColor">
  <path d="M3.0627 6.1236C4.7627 6.1236 6.1227 4.7536 6.1227 3.0636C6.1227 1.3636 4.7627 0.0036 3.0627 0.0036C1.3627 0.0036 0.0027 1.3636 0.0027 3.0636C0.0027 4.7536 1.3627 6.1236 3.0627 6.1236ZM13.3827 6.1236C15.0827 6.1236 16.4627 4.7536 16.4627 3.0636C16.4627 1.3636 15.0827 0.0036 13.3827 0.0036C11.7027 0.0036 10.3227 1.3636 10.3227 3.0636C10.3227 4.7536 11.7027 6.1236 13.3827 6.1236ZM23.7227 6.1236C25.4027 6.1236 26.7827 4.7536 26.7827 3.0636C26.7827 1.3636 25.4027 0.0036 23.7227 0.0036C22.0227 0.0036 20.6427 1.3636 20.6427 3.0636C20.6427 4.7536 22.0227 6.1236 23.7227 6.1236Z"/>
</svg>
