<svg width="20" height="20" viewBox="0 0 20 20" fill="currentColor" xmlns="http://www.w3.org/2000/svg">
<path d="M4.94044 11.4997C5.7732 11.4997 6.43941 10.8286 6.43941 10.0007C6.43941 9.16796 5.7732 8.50175 4.94044 8.50175C4.10768 8.50175 3.44147 9.16796 3.44147 10.0007C3.44147 10.8286 4.10768 11.4997 4.94044 11.4997ZM9.99578 11.4997C10.8285 11.4997 11.5045 10.8286 11.5045 10.0007C11.5045 9.16796 10.8285 8.50175 9.99578 8.50175C9.17282 8.50175 8.49681 9.16796 8.49681 10.0007C8.49681 10.8286 9.17282 11.4997 9.99578 11.4997ZM15.0609 11.4997C15.8839 11.4997 16.5599 10.8286 16.5599 10.0007C16.5599 9.16796 15.8839 8.50175 15.0609 8.50175C14.2282 8.50175 13.5522 9.16796 13.5522 10.0007C13.5522 10.8286 14.2282 11.4997 15.0609 11.4997Z" fill="currentColor"/>
</svg>
