<?xml version="1.0" encoding="UTF-8"?>
<svg xmlns="http://www.w3.org/2000/svg" viewBox="0 0 28.875 28.875" width="28.875" height="28.875" fill="currentColor">
  <path d="M14.4327 28.8786C22.4127 28.8786 28.8727 22.4086 28.8727 14.4386C28.8727 6.4686 22.4127 -0.0014 14.4327 -0.0014C6.4627 -0.0014 0.0027 6.4686 0.0027 14.4386C0.0027 22.4086 6.4627 28.8786 14.4327 28.8786ZM14.4327 25.2786C8.4527 25.2786 3.5927 20.4286 3.5927 14.4386C3.5927 8.4386 8.4527 3.5986 14.4327 3.5986C20.4427 3.5986 25.2827 8.4386 25.2827 14.4386C25.2827 20.4286 20.4427 25.2786 14.4327 25.2786ZM10.4327 13.1786C11.2827 13.1786 12.0327 12.4186 12.0327 11.3586C12.0327 10.2986 11.2827 9.5286 10.4327 9.5286C9.5827 9.5286 8.8727 10.2986 8.8727 11.3586C8.8727 12.4186 9.5827 13.1786 10.4327 13.1786ZM18.4327 13.1786C19.2627 13.1786 20.0127 12.4186 20.0127 11.3586C20.0127 10.2986 19.2727 9.5286 18.4327 9.5286C17.5727 9.5286 16.8527 10.2986 16.8527 11.3586C16.8527 12.4186 17.5827 13.1786 18.4327 13.1786ZM14.4327 20.9486C17.3227 20.9486 19.2527 19.0486 19.2527 18.1186C19.2527 17.7686 18.9127 17.6086 18.5827 17.7586C17.5727 18.2486 16.4227 18.8686 14.4327 18.8686C12.4427 18.8686 11.2827 18.2686 10.2827 17.7586C9.9527 17.5986 9.6127 17.7686 9.6127 18.1186C9.6127 19.0486 11.5427 20.9486 14.4327 20.9486Z"/>
</svg>
