<svg width="20" height="20" viewBox="0 0 20 20" fill="currentColor" xmlns="http://www.w3.org/2000/svg">
<path d="M9.99728 18.202C14.5296 18.202 18.1987 14.5273 18.1987 10.0006C18.1987 5.47394 14.5296 1.79921 9.99728 1.79921C5.4706 1.79921 1.80154 5.47394 1.80154 10.0006C1.80154 14.5273 5.4706 18.202 9.99728 18.202ZM9.99728 16.1574C6.60085 16.1574 3.84054 13.4027 3.84054 10.0006C3.84054 6.59283 6.60085 3.84388 9.99728 3.84388C13.4107 3.84388 16.1597 6.59283 16.1597 10.0006C16.1597 13.4027 13.4107 16.1574 9.99728 16.1574ZM7.72542 9.28498C8.20819 9.28498 8.63416 8.85333 8.63416 8.25129C8.63416 7.64924 8.20819 7.21191 7.72542 7.21191C7.24265 7.21191 6.83939 7.64924 6.83939 8.25129C6.83939 8.85333 7.24265 9.28498 7.72542 9.28498ZM12.2691 9.28498C12.7405 9.28498 13.1665 8.85333 13.1665 8.25129C13.1665 7.64924 12.7462 7.21191 12.2691 7.21191C11.7807 7.21191 11.3718 7.64924 11.3718 8.25129C11.3718 8.85333 11.7864 9.28498 12.2691 9.28498ZM9.99728 13.6981C11.6387 13.6981 12.7349 12.6189 12.7349 12.0907C12.7349 11.8919 12.5418 11.8011 12.3543 11.8863C11.7807 12.1646 11.1275 12.5167 9.99728 12.5167C8.86703 12.5167 8.20819 12.1759 7.64022 11.8863C7.4528 11.7954 7.25969 11.8919 7.25969 12.0907C7.25969 12.6189 8.35586 13.6981 9.99728 13.6981Z" fill="currentColor"/>
</svg>
