<svg width="20" height="20" viewBox="0 0 20 20" fill="currentColor" xmlns="http://www.w3.org/2000/svg">
<path d="M3.49623 18.1977C4.03148 18.1977 4.47751 17.7635 4.47751 17.2105V12.8928C4.72135 12.8155 5.29227 12.6371 6.08919 12.6371C8.96167 12.6371 11.0967 14.1358 13.9692 14.1358C15.1883 14.1358 15.9198 13.9455 16.5621 13.6481C17.1806 13.3567 17.4899 12.8096 17.4899 12.0364V4.17429C17.4899 3.49036 17.0141 3.02648 16.3361 3.02648C15.7712 3.02648 15.0754 3.29411 13.9097 3.29411C11.1324 3.29411 8.9022 1.80137 6.02972 1.80137C4.85218 1.80137 4.18015 1.96789 3.4546 2.30688C2.85394 2.58045 2.509 3.0027 2.509 3.74609V17.2105C2.509 17.7517 2.96099 18.1977 3.49623 18.1977ZM13.8859 12.1197C11.3584 12.1197 9.14009 10.6388 6.15461 10.6388C5.51827 10.6388 4.94139 10.7043 4.56672 10.8351V4.22186C4.76298 4.0375 5.26254 3.80556 6.09514 3.80556C8.74163 3.80556 10.9599 5.2864 13.8383 5.2864C14.4628 5.2864 15.0159 5.23288 15.4322 5.11988V11.7093C15.2538 11.8996 14.7304 12.1197 13.8859 12.1197Z" fill="currentColor"/>
</svg>
