<svg width="20" height="20" viewBox="0 0 20 20" fill="currentColor" xmlns="http://www.w3.org/2000/svg">
<path d="M9.24744 18.2003H10.7496C11.4333 18.2003 11.9879 17.7642 12.1332 17.1128L12.4078 15.9391L12.5316 15.896L13.5546 16.5313C14.1307 16.8759 14.8144 16.7844 15.299 16.2998L16.3381 15.2715C16.8334 14.7762 16.9034 14.087 16.5534 13.5271L15.9235 12.5095L15.9612 12.3911L17.1241 12.1219C17.7756 11.9657 18.2009 11.4112 18.2009 10.7382V9.29531C18.2009 8.61693 17.781 8.06238 17.1241 7.90087L15.9774 7.6209L15.9235 7.50245L16.5588 6.49027C16.9034 5.93034 16.8388 5.23582 16.3381 4.73511L15.299 3.70678C14.8198 3.22761 14.1361 3.12531 13.56 3.48065L12.537 4.10519L12.4078 4.06212L12.1332 2.88842C11.9879 2.23696 11.4333 1.80086 10.7496 1.80086H9.24744C8.56368 1.80086 8.01452 2.24234 7.86377 2.88842L7.59457 4.06212L7.45997 4.10519L6.43703 3.48065C5.86094 3.13069 5.17718 3.22761 4.69801 3.70678L3.6643 4.73511C3.16359 5.23582 3.0936 5.93034 3.44355 6.49027L4.07348 7.50245L4.0304 7.6209L2.87286 7.90087C2.2214 8.06238 1.80145 8.61693 1.80145 9.29531V10.7382C1.80145 11.4112 2.22678 11.9657 2.87286 12.1219L4.03579 12.3911L4.08424 12.5095L3.44894 13.5271C3.0936 14.087 3.16897 14.7762 3.6643 15.2715L4.69801 16.2998C5.18795 16.7844 5.87171 16.8759 6.44241 16.5313L7.46536 15.896L7.59457 15.9391L7.86377 17.1128C8.01452 17.7642 8.56368 18.2003 9.24744 18.2003ZM9.54356 16.5367C9.42511 16.5367 9.36589 16.4775 9.34974 16.3752L8.92441 14.577C8.4237 14.4854 7.93376 14.2754 7.49766 13.9901L5.93093 14.9592C5.83941 15.0184 5.75326 15.013 5.67251 14.9323L5.0372 14.297C4.95106 14.2162 4.95644 14.1301 5.01028 14.0386L5.97939 12.4718C5.72096 12.0465 5.51637 11.5673 5.41408 11.0666L3.61584 10.6467C3.51355 10.6251 3.45432 10.5767 3.45432 10.4475V9.57527C3.45432 9.44067 3.51355 9.38683 3.61584 9.3653L5.41408 8.94535C5.52714 8.43926 5.73173 7.93855 5.97401 7.53476L5.01028 5.96803C4.95106 5.8765 4.94567 5.79036 5.02643 5.7096L5.66712 5.08506C5.75326 5.00431 5.82864 4.99354 5.93093 5.05276L7.49228 6.0111C7.853 5.76883 8.40216 5.53732 8.92441 5.41887L9.34974 3.62602C9.36589 3.52372 9.42511 3.4645 9.54356 3.4645H10.4588C10.5827 3.4645 10.6311 3.52372 10.6526 3.62602L11.0834 5.42964C11.6056 5.53732 12.0848 5.75267 12.5047 6.0111L14.0607 5.06353C14.1684 5.00431 14.2384 5.00969 14.3299 5.09045L14.9706 5.71499C15.0513 5.80651 15.0406 5.88727 14.9813 5.9788L14.0284 7.53476C14.2707 7.93855 14.4806 8.43926 14.5883 8.93997L16.3812 9.3653C16.4942 9.38683 16.5427 9.44067 16.5427 9.57527V10.4475C16.5427 10.5767 16.4835 10.6251 16.3812 10.6467L14.5883 11.072C14.4806 11.5619 14.276 12.0627 14.0176 12.4718L14.9813 14.0332C15.0352 14.1247 15.0406 14.2108 14.9544 14.2916L14.3191 14.9269C14.2384 15.013 14.1522 15.0077 14.0607 14.9538L12.5047 13.9901C12.0632 14.2754 11.6271 14.4693 11.0834 14.577L10.6526 16.3752C10.6311 16.4775 10.5827 16.5367 10.4588 16.5367H9.54356ZM10.0012 12.7679C11.5248 12.7679 12.7685 11.5296 12.7685 10.0006C12.7685 8.47156 11.5248 7.23326 10.0012 7.23326C8.46677 7.23326 7.23385 8.47156 7.23385 10.0006C7.23385 11.5296 8.46677 12.7679 10.0012 12.7679ZM10.0012 11.2874C9.28513 11.2874 8.71443 10.7167 8.71443 10.0006C8.71443 9.28454 9.28513 8.71384 10.0012 8.71384C10.7065 8.71384 11.288 9.28454 11.288 10.0006C11.288 10.7167 10.7065 11.2874 10.0012 11.2874Z" fill="currentColor"/>
</svg>
