<?xml version="1.0" encoding="UTF-8"?>
<svg xmlns="http://www.w3.org/2000/svg" viewBox="0 0 38.486328125 30.59765625" width="38.486328125" height="30.59765625" fill="currentColor">
  <path d="M9.9827 21.9699H11.9927C12.9427 21.9699 13.7527 21.3699 13.9327 20.4499L14.1527 19.4699C14.1827 19.0599 14.2027 18.9199 14.2327 18.8699L15.6727 19.7299C16.4627 20.1899 17.4427 20.0799 18.0927 19.4299L19.4827 18.0199C20.1627 17.3399 20.2727 16.3699 19.7727 15.5899L18.9227 14.2499L20.4627 13.8599C21.3527 13.6399 21.9727 12.8699 21.9727 11.9099V10.0499C21.9727 9.1099 21.3727 8.3299 20.4627 8.1099L18.9227 7.7199L19.7727 6.3799C20.2727 5.5899 20.1627 4.6299 19.4827 3.9399L18.0927 2.5299C17.4427 1.8699 16.4627 1.7799 15.6727 2.2399L14.2627 3.0799L13.9327 1.4999C13.7527 0.5999 12.9427 -0.0001 11.9927 -0.0001H9.9827C9.0227 -0.0001 8.2327 0.5999 8.0427 1.4999L7.6927 3.0799L6.3027 2.2399C5.5127 1.7599 4.5427 1.8699 3.8827 2.5299L2.4927 3.9399C1.8027 4.6199 1.6927 5.5899 2.2027 6.3799L3.0527 7.7199L1.5027 8.1099C0.6027 8.3299 0.0027 9.1099 0.0027 10.0499V11.9099C0.0027 12.8699 0.6027 13.6399 1.5027 13.8599L3.0527 14.2499L2.2027 15.5899C1.6927 16.3699 1.8027 17.3399 2.4927 18.0199L3.8827 19.4299C4.5427 20.0799 5.4827 20.1899 6.2927 19.7299L7.7427 18.8699C7.7627 18.8499 7.7927 18.8499 7.8227 19.4699L8.0427 20.4499C8.2127 21.3699 9.0227 21.9699 9.9827 21.9699ZM10.2627 19.5599H10.2427C10.2427 19.5199 10.2427 19.5199 10.2427 19.5199L9.6127 16.9499C8.8627 16.7999 8.2027 16.4599 7.6727 16.1699L5.4327 17.5099C5.4127 17.5999 5.3427 17.5699 5.3827 17.5499C5.3727 17.5299 5.3727 17.5299 5.3727 17.5299L4.3627 16.5399L4.3427 16.5299C4.3727 16.4899 4.3727 16.4899 4.3727 16.4899L5.7127 14.2899C5.5627 13.8399 5.1027 13.1399 4.9727 12.3199L2.4227 11.7199H2.3827C2.3927 11.7899 2.3227 11.7199 2.3927 11.6899V10.2799L2.3827 10.2499C2.4227 10.2499 2.4227 10.2499 2.4227 10.2499L4.9727 9.6399C5.1027 8.8199 5.5627 8.1199 5.7127 7.6799L4.3727 5.4699C4.3427 5.4399 4.3627 5.4599 4.3427 5.4399C4.3627 5.4299 4.3627 5.4299 4.3627 5.4299L5.3727 4.4399L5.3827 4.4199C5.4027 4.4199 5.4027 4.4299 5.4327 4.4399L7.6727 5.7999C8.2027 5.4999 8.8627 5.1499 9.6127 4.9999L10.2427 2.4299V2.3899C10.2627 2.4099 10.2627 2.4099 10.2627 2.4099H11.7027L11.7327 2.3899C11.7327 2.4299 11.7327 2.4299 11.7327 2.4299L12.3627 4.9999C13.1127 5.1499 13.7627 5.4999 14.3027 5.7999L16.5427 4.4399C16.5527 4.3799 16.6227 4.3999 16.5827 4.4199C16.5927 4.4399 16.5927 4.4399 16.5927 4.4399L17.6127 5.4299L17.6227 5.4399C17.6127 5.4699 17.6127 5.4699 17.6127 5.4699L16.2527 7.6799C16.4027 8.1199 16.8727 8.8199 17.0127 9.6399L19.5527 10.2499H19.5927C19.5927 10.2799 19.5927 10.2799 19.5927 10.2799V11.7199C19.5527 11.7199 19.5527 11.7199 19.5527 11.7199L17.0127 12.3199C16.8727 13.1399 16.4027 13.8399 16.2527 14.2899L17.6127 16.4899C17.6227 16.5199 17.6127 16.4999 17.6227 16.5299C17.6127 16.5399 17.6127 16.5399 17.6127 16.5399L16.5927 17.5299L16.5827 17.5499C16.5827 17.5399 16.5727 17.5299 16.5427 17.5099L14.3027 16.1699C13.7627 16.4599 13.1127 16.7999 12.3627 16.9499L11.7327 19.5199V19.5599C11.7027 19.5599 11.7027 19.5599 11.7027 19.5599ZM10.9827 15.0499C13.2227 15.0499 15.0527 13.2199 15.0527 10.9799C15.0527 8.7399 13.2227 6.8999 10.9827 6.8999C8.7327 6.8999 6.9227 8.7399 6.9227 10.9799C6.9227 13.2199 8.7327 15.0499 10.9827 15.0499ZM10.9827 12.7099C10.0227 12.7099 9.2527 11.9499 9.2527 10.9799C9.2527 10.0199 10.0227 9.2399 10.9827 9.2399C11.9527 9.2399 12.7127 10.0199 12.7127 10.9799C12.7127 11.9499 11.9527 12.7099 10.9827 12.7099ZM28.3927 30.5999H29.9827C30.8727 30.5999 31.6327 30.0499 31.7727 29.2399L31.9927 28.0699L33.0027 28.6999C33.7327 29.1499 34.6127 29.0399 35.2327 28.4099L36.3527 27.2799C36.9727 26.6299 37.0827 25.7399 36.6127 25.0299L35.9827 24.0799L37.1327 23.8399C37.9227 23.6899 38.4827 22.9399 38.4827 22.0699V20.5199C38.4827 19.6499 37.9227 18.9099 37.1327 18.7399L35.9827 18.5099L36.6127 17.5499C37.0827 16.8399 36.9727 15.9599 36.3527 15.3099L35.2327 14.1799C34.6127 13.5499 33.7327 13.4499 33.0027 13.8899L31.9927 14.5199L31.7727 13.3399C31.6327 12.5399 30.8727 11.9899 29.9827 11.9899H28.3927C27.5127 11.9899 26.7527 12.5399 26.6027 13.3399L26.3827 14.5199L25.3927 13.8899C24.6627 13.4499 23.7727 13.5499 23.1627 14.1799L22.0427 15.3099C21.4227 15.9599 21.3127 16.8399 21.7827 17.5499L22.4127 18.5099L21.2627 18.7399C20.4627 18.9099 19.9027 19.6499 19.9027 20.5199V22.0699C19.9027 22.9399 20.4627 23.6899 21.2627 23.8399L22.4127 24.0799L21.7827 25.0299C21.3127 25.7399 21.4227 26.6299 22.0427 27.2799L23.1627 28.4099C23.7727 29.0399 24.6627 29.1499 25.3927 28.6999L26.3827 28.0699L26.6027 29.2399C26.7527 30.0499 27.5127 30.5999 28.3927 30.5999ZM28.8027 28.2999C28.6727 28.2999 28.7427 28.3099 28.7127 28.2199L28.1927 26.1499C27.5627 26.0299 27.0327 25.8099 26.4527 25.4299L24.6327 26.5499C24.5927 26.5799 24.5927 26.6199 24.5227 26.5499L23.9227 25.9399C23.8527 25.8499 23.8827 25.8699 23.9127 25.8299L24.9827 24.0899C24.9227 23.7499 24.4327 23.0499 24.3227 22.2899L22.2627 21.7899C22.1627 21.7699 22.1927 21.8199 22.1927 21.7199V20.8599C22.1927 20.7699 22.1627 20.8199 22.2627 20.7899L24.3227 20.2999C24.4327 19.5399 24.9227 18.8399 24.9827 18.4999L23.9127 16.7799C23.8827 16.7199 23.8527 16.7299 23.9227 16.6499L24.5227 16.0499C24.5927 15.9699 24.5927 16.0199 24.6327 16.0399L26.4527 17.1599C27.0327 16.7799 27.5627 16.5599 28.1927 16.4299L28.7127 14.3699C28.7427 14.2699 28.6727 14.2899 28.8027 14.2899H29.5827C29.7227 14.2899 29.6527 14.2699 29.6827 14.3699L30.2027 16.4299C30.8327 16.5599 31.3627 16.7799 31.9327 17.1599L33.7527 16.0399C33.7927 16.0199 33.7927 15.9699 33.8627 16.0499L34.4627 16.6499C34.5327 16.7299 34.5127 16.7199 34.4827 16.7799L33.4127 18.4999C33.4727 18.8399 33.9627 19.5399 34.0727 20.2999L36.1327 20.7899C36.2327 20.8199 36.2027 20.7699 36.2027 20.8599V21.7199C36.2027 21.8199 36.2327 21.7699 36.1327 21.7899L34.0727 22.2899C33.9627 23.0499 33.4727 23.7499 33.4127 24.0899L34.4827 25.8299C34.5127 25.8699 34.5327 25.8499 34.4627 25.9399L33.8627 26.5499C33.7927 26.6199 33.7927 26.5799 33.7527 26.5499L31.9327 25.4299C31.3627 25.8099 30.8327 26.0299 30.2027 26.1499L29.6827 28.2199C29.6527 28.3099 29.7227 28.2999 29.5827 28.2999ZM29.1927 24.4899C30.9527 24.4899 32.3927 23.0599 32.3927 21.2999C32.3927 19.5199 30.9527 18.0999 29.1927 18.0999C27.4227 18.0999 25.9927 19.5199 25.9927 21.2999C25.9927 23.0599 27.4227 24.4899 29.1927 24.4899ZM29.1927 22.4499C28.5627 22.4499 28.0227 21.9299 28.0227 21.2999C28.0227 20.6599 28.5627 20.1399 29.1927 20.1399C29.8227 20.1399 30.3427 20.6599 30.3427 21.2999C30.3427 21.9299 29.8227 22.4499 29.1927 22.4499Z"/>
</svg>
