<svg width="20" height="20" viewBox="0 0 20 20" fill="currentColor" xmlns="http://www.w3.org/2000/svg">
<path d="M6.05388 12.8427H6.91039C7.3152 12.8427 7.66037 12.587 7.73707 12.195L7.83082 11.7774C7.8436 11.6027 7.85212 11.543 7.86491 11.5217L8.47853 11.8882C8.81516 12.0842 9.23277 12.0373 9.50975 11.7604L10.1021 11.1595C10.3918 10.8698 10.4387 10.4564 10.2256 10.124L9.86343 9.55304L10.5197 9.38685C10.8989 9.2931 11.1631 8.96499 11.1631 8.55591V7.76331C11.1631 7.36276 10.9074 7.03038 10.5197 6.93663L9.86343 6.77044L10.2256 6.19944C10.4387 5.8628 10.3918 5.45372 10.1021 5.15969L9.50975 4.55885C9.23277 4.27761 8.81516 4.23926 8.47853 4.43528L7.87769 4.79322L7.73707 4.11995C7.66037 3.73643 7.3152 3.48076 6.91039 3.48076H6.05388C5.6448 3.48076 5.30816 3.73643 5.22719 4.11995L5.07805 4.79322L4.48573 4.43528C4.1491 4.23074 3.73575 4.27761 3.45451 4.55885L2.8622 5.15969C2.56817 5.44946 2.5213 5.8628 2.73862 6.19944L3.10083 6.77044L2.44033 6.93663C2.05682 7.03038 1.80115 7.36276 1.80115 7.76331V8.55591C1.80115 8.96499 2.05682 9.2931 2.44033 9.38685L3.10083 9.55304L2.73862 10.124C2.5213 10.4564 2.56817 10.8698 2.8622 11.1595L3.45451 11.7604C3.73575 12.0373 4.13631 12.0842 4.48147 11.8882L5.09935 11.5217C5.10788 11.5132 5.12066 11.5132 5.13344 11.7774L5.22719 12.195C5.29963 12.587 5.6448 12.8427 6.05388 12.8427ZM6.17319 11.8158H6.16467C6.16467 11.7987 6.16467 11.7987 6.16467 11.7987L5.89621 10.7036C5.57662 10.6397 5.29537 10.4948 5.06953 10.3712L4.11501 10.9422C4.10648 10.9806 4.07665 10.9678 4.0937 10.9593C4.08944 10.9507 4.08944 10.9507 4.08944 10.9507L3.65905 10.5289L3.65053 10.5246C3.66331 10.5076 3.66331 10.5076 3.66331 10.5076L4.23432 9.57008C4.1704 9.37833 3.97439 9.08004 3.91899 8.73062L2.83237 8.47494H2.81532C2.81959 8.50477 2.78976 8.47494 2.81959 8.46216V7.86132L2.81532 7.84854C2.83237 7.84854 2.83237 7.84854 2.83237 7.84854L3.91899 7.5886C3.97439 7.23918 4.1704 6.94089 4.23432 6.7534L3.66331 5.81166C3.65053 5.79888 3.65905 5.8074 3.65053 5.79888C3.65905 5.79462 3.65905 5.79462 3.65905 5.79462L4.08944 5.37275L4.0937 5.36423C4.10222 5.36423 4.10222 5.36849 4.11501 5.37275L5.06953 5.95228C5.29537 5.82445 5.57662 5.6753 5.89621 5.61138L6.16467 4.51624V4.4992C6.17319 4.50772 6.17319 4.50772 6.17319 4.50772H6.78681L6.79959 4.4992C6.79959 4.51624 6.79959 4.51624 6.79959 4.51624L7.06805 5.61138C7.38765 5.6753 7.66463 5.82445 7.89473 5.95228L8.84925 5.37275C8.85352 5.34719 8.88334 5.35571 8.8663 5.36423C8.87056 5.37275 8.87056 5.37275 8.87056 5.37275L9.30521 5.79462L9.30947 5.79888C9.30521 5.81166 9.30521 5.81166 9.30521 5.81166L8.72568 6.7534C8.7896 6.94089 8.98988 7.23918 9.04953 7.5886L10.1319 7.84854H10.1489C10.1489 7.86132 10.1489 7.86132 10.1489 7.86132V8.47494C10.1319 8.47494 10.1319 8.47494 10.1319 8.47494L9.04953 8.73062C8.98988 9.08004 8.7896 9.37833 8.72568 9.57008L9.30521 10.5076C9.30947 10.5203 9.30521 10.5118 9.30947 10.5246C9.30521 10.5289 9.30521 10.5289 9.30521 10.5289L8.87056 10.9507L8.8663 10.9593C8.8663 10.955 8.86204 10.9507 8.84925 10.9422L7.89473 10.3712C7.66463 10.4948 7.38765 10.6397 7.06805 10.7036L6.79959 11.7987V11.8158C6.78681 11.8158 6.78681 11.8158 6.78681 11.8158H6.17319ZM6.48 9.89394C7.43452 9.89394 8.21433 9.11413 8.21433 8.15961C8.21433 7.20509 7.43452 6.42102 6.48 6.42102C5.52122 6.42102 4.74993 7.20509 4.74993 8.15961C4.74993 9.11413 5.52122 9.89394 6.48 9.89394ZM6.48 8.89681C6.07092 8.89681 5.7428 8.57295 5.7428 8.15961C5.7428 7.75053 6.07092 7.41815 6.48 7.41815C6.89334 7.41815 7.2172 7.75053 7.2172 8.15961C7.2172 8.57295 6.89334 8.89681 6.48 8.89681ZM13.8988 16.5202H14.5764C14.9556 16.5202 15.2795 16.2858 15.3391 15.9407L15.4329 15.4421L15.8633 15.7105C16.1743 15.9023 16.5493 15.8554 16.8135 15.587L17.2908 15.1054C17.555 14.8285 17.6019 14.4492 17.4016 14.1467L17.1331 13.7418L17.6232 13.6396C17.9598 13.5757 18.1984 13.2561 18.1984 12.8853V12.2248C18.1984 11.8541 17.9598 11.5388 17.6232 11.4663L17.1331 11.3683L17.4016 10.9593C17.6019 10.6567 17.555 10.2817 17.2908 10.0047L16.8135 9.52321C16.5493 9.25475 16.1743 9.21214 15.8633 9.39963L15.4329 9.66809L15.3391 9.16527C15.2795 8.82437 14.9556 8.59 14.5764 8.59H13.8988C13.5238 8.59 13.2 8.82437 13.1361 9.16527L13.0423 9.66809L12.6205 9.39963C12.3094 9.21214 11.9301 9.25475 11.6702 9.52321L11.1929 10.0047C10.9287 10.2817 10.8819 10.6567 11.0821 10.9593L11.3506 11.3683L10.8606 11.4663C10.5197 11.5388 10.281 11.8541 10.281 12.2248V12.8853C10.281 13.2561 10.5197 13.5757 10.8606 13.6396L11.3506 13.7418L11.0821 14.1467C10.8819 14.4492 10.9287 14.8285 11.1929 15.1054L11.6702 15.587C11.9301 15.8554 12.3094 15.9023 12.6205 15.7105L13.0423 15.4421L13.1361 15.9407C13.2 16.2858 13.5238 16.5202 13.8988 16.5202ZM14.0735 15.5401C14.0182 15.5401 14.048 15.5444 14.0352 15.506L13.8136 14.6239C13.5452 14.5728 13.3193 14.479 13.0722 14.3171L12.2966 14.7944C12.2796 14.8072 12.2796 14.8242 12.2497 14.7944L11.9941 14.5344C11.9642 14.4961 11.977 14.5046 11.9898 14.4876L12.4457 13.7461C12.4202 13.6012 12.2114 13.3029 12.1645 12.9791L11.2867 12.766C11.2441 12.7575 11.2569 12.7788 11.2569 12.7362V12.3697C11.2569 12.3314 11.2441 12.3527 11.2867 12.3399L12.1645 12.1311C12.2114 11.8072 12.4202 11.509 12.4457 11.3641L11.9898 10.6311C11.977 10.6056 11.9642 10.6098 11.9941 10.5757L12.2497 10.3201C12.2796 10.286 12.2796 10.3073 12.2966 10.3158L13.0722 10.7931C13.3193 10.6311 13.5452 10.5374 13.8136 10.482L14.0352 9.60417C14.048 9.56156 14.0182 9.57008 14.0735 9.57008H14.4059C14.4656 9.57008 14.4358 9.56156 14.4485 9.60417L14.6701 10.482C14.9386 10.5374 15.1644 10.6311 15.4073 10.7931L16.1829 10.3158C16.1999 10.3073 16.1999 10.286 16.2297 10.3201L16.4854 10.5757C16.5152 10.6098 16.5067 10.6056 16.4939 10.6311L16.038 11.3641C16.0636 11.509 16.2724 11.8072 16.3192 12.1311L17.197 12.3399C17.2397 12.3527 17.2269 12.3314 17.2269 12.3697V12.7362C17.2269 12.7788 17.2397 12.7575 17.197 12.766L16.3192 12.9791C16.2724 13.3029 16.0636 13.6012 16.038 13.7461L16.4939 14.4876C16.5067 14.5046 16.5152 14.4961 16.4854 14.5344L16.2297 14.7944C16.1999 14.8242 16.1999 14.8072 16.1829 14.7944L15.4073 14.3171C15.1644 14.479 14.9386 14.5728 14.6701 14.6239L14.4485 15.506C14.4358 15.5444 14.4656 15.5401 14.4059 15.5401H14.0735ZM14.2397 13.9166C14.9897 13.9166 15.6033 13.3072 15.6033 12.5572C15.6033 11.7987 14.9897 11.1936 14.2397 11.1936C13.4855 11.1936 12.8761 11.7987 12.8761 12.5572C12.8761 13.3072 13.4855 13.9166 14.2397 13.9166ZM14.2397 13.0473C13.9713 13.0473 13.7412 12.8257 13.7412 12.5572C13.7412 12.2845 13.9713 12.0629 14.2397 12.0629C14.5082 12.0629 14.7298 12.2845 14.7298 12.5572C14.7298 12.8257 14.5082 13.0473 14.2397 13.0473Z" fill="currentColor"/>
</svg>
