<?xml version="1.0" encoding="UTF-8"?>
<svg xmlns="http://www.w3.org/2000/svg" viewBox="0 0 28.875 28.875" width="28.875" height="28.875" fill="currentColor">
  <path d="M14.4327 28.8786C22.4127 28.8786 28.8727 22.4086 28.8727 14.4386C28.8727 6.4686 22.4127 -0.0014 14.4327 -0.0014C6.4627 -0.0014 0.0027 6.4686 0.0027 14.4386C0.0027 22.4086 6.4627 28.8786 14.4327 28.8786ZM6.1127 6.2786C7.4527 4.9086 9.1027 3.8786 10.9827 3.2986C9.9627 4.2786 9.1227 5.6786 8.4727 7.3786C7.5427 7.0786 6.7527 6.7086 6.1127 6.2786ZM17.9127 3.2986C19.7727 3.8786 21.4327 4.9086 22.7627 6.2786C22.1327 6.7086 21.3327 7.0786 20.4027 7.3786C19.7727 5.6786 18.9127 4.2786 17.9127 3.2986ZM10.6127 7.8886C11.3227 6.0186 12.3027 4.6086 13.3827 4.0286V8.1786C12.4027 8.1386 11.4727 8.0386 10.6127 7.8886ZM15.5027 4.0286C16.5727 4.6086 17.5527 6.0186 18.2627 7.8886C17.4027 8.0386 16.4727 8.1386 15.5027 8.1786ZM2.8327 13.3686C3.0127 11.3586 3.7027 9.4886 4.7827 7.8886C5.5827 8.4786 6.6327 8.9786 7.8727 9.3786C7.5927 10.6086 7.3927 11.9586 7.3327 13.3686ZM21.5427 13.3686C21.4827 11.9586 21.3027 10.6086 21.0027 9.3786C22.2427 8.9786 23.3127 8.4786 24.0927 7.8886C25.1727 9.4886 25.8627 11.3586 26.0627 13.3686ZM9.4927 13.3686C9.5527 12.1686 9.7327 10.9886 9.9927 9.9086C11.0427 10.0986 12.1927 10.2386 13.3827 10.2786V13.3686ZM15.5027 13.3686V10.2786C16.6927 10.2386 17.8327 10.0986 18.8927 9.9086C19.1527 10.9886 19.3227 12.1686 19.3827 13.3686ZM2.8327 15.4886H7.3327C7.3927 16.9386 7.5927 18.3086 7.8927 19.5686C6.6627 19.9486 5.6027 20.4486 4.8227 21.0286C3.7227 19.4286 3.0127 17.5386 2.8327 15.4886ZM9.4927 15.4886H13.3827V18.6486C12.1927 18.6986 11.0627 18.8386 9.9927 19.0286C9.7327 17.9286 9.5527 16.7386 9.4927 15.4886ZM15.5027 18.6486V15.4886H19.4027C19.3327 16.7386 19.1527 17.9286 18.8827 19.0286C17.8327 18.8386 16.6827 18.6986 15.5027 18.6486ZM21.0027 19.5686C21.3027 18.3086 21.4927 16.9386 21.5427 15.4886H26.0627C25.8627 17.5386 25.1527 19.4286 24.0627 21.0286C23.2727 20.4486 22.2327 19.9486 21.0027 19.5686ZM15.5027 20.7686C16.4727 20.8086 17.3927 20.9086 18.2527 21.0586C17.5427 22.8986 16.5527 24.2986 15.5027 24.8686ZM10.6227 21.0586C11.4827 20.9086 12.4127 20.8086 13.3827 20.7686V24.8686C12.3227 24.2986 11.3327 22.8986 10.6227 21.0586ZM6.1527 22.6386C6.7827 22.1986 7.5727 21.8486 8.4927 21.5586C9.1227 23.2186 9.9527 24.5986 10.9327 25.5686C9.1027 24.9786 7.4827 23.9686 6.1527 22.6386ZM20.3827 21.5586C21.3027 21.8486 22.0927 22.1986 22.7227 22.6386C21.4127 23.9686 19.7727 24.9786 17.9327 25.5686C18.9227 24.5986 19.7727 23.2186 20.3827 21.5586Z"/>
</svg>
