<svg width="20" height="20" viewBox="0 0 20 20" fill="currentColor" xmlns="http://www.w3.org/2000/svg">
<path d="M9.99727 18.202C14.5296 18.202 18.1987 14.5273 18.1987 10.0006C18.1987 5.47394 14.5296 1.79921 9.99727 1.79921C5.47059 1.79921 1.80154 5.47394 1.80154 10.0006C1.80154 14.5273 5.47059 18.202 9.99727 18.202ZM5.2718 5.36603C6.03288 4.58791 6.97002 4.00291 8.03779 3.67349C7.45847 4.2301 6.98138 5.02525 6.6122 5.99079C6.08399 5.8204 5.6353 5.61025 5.2718 5.36603ZM11.9738 3.67349C13.0302 4.00291 13.973 4.58791 14.7284 5.36603C14.3706 5.61025 13.9162 5.8204 13.388 5.99079C13.0302 5.02525 12.5418 4.2301 11.9738 3.67349ZM7.82765 6.28045C8.2309 5.21835 8.78751 4.41752 9.40091 4.0881V6.44516C8.8443 6.42244 8.3161 6.36564 7.82765 6.28045ZM10.605 4.0881C11.2127 4.41752 11.7693 5.21835 12.1726 6.28045C11.6841 6.36564 11.1559 6.42244 10.605 6.44516V4.0881ZM3.40888 9.3929C3.51111 8.25129 3.90301 7.18919 4.51641 6.28045C4.97078 6.61555 5.56714 6.89953 6.27142 7.12672C6.11239 7.82531 5.9988 8.59207 5.96472 9.3929H3.40888ZM14.0355 9.3929C14.0014 8.59207 13.8992 7.82531 13.7288 7.12672C14.4331 6.89953 15.0408 6.61555 15.4838 6.28045C16.0972 7.18919 16.4891 8.25129 16.6027 9.3929H14.0355ZM7.19152 9.3929C7.2256 8.71134 7.32784 8.04114 7.47551 7.42774C8.07187 7.53565 8.72503 7.61517 9.40091 7.63789V9.3929H7.19152ZM10.605 9.3929V7.63789C11.2809 7.61517 11.9284 7.53565 12.5304 7.42774C12.6781 8.04114 12.7746 8.71134 12.8087 9.3929H10.605ZM3.40888 10.597H5.96472C5.9988 11.4205 6.11239 12.1986 6.28278 12.9143C5.58418 13.1301 4.98214 13.4141 4.53913 13.7435C3.91437 12.8348 3.51111 11.7613 3.40888 10.597ZM7.19152 10.597H9.40091V12.3918C8.72503 12.4202 8.08323 12.4997 7.47551 12.6076C7.32784 11.9828 7.2256 11.3069 7.19152 10.597ZM10.605 12.3918V10.597H12.8201C12.7803 11.3069 12.6781 11.9828 12.5247 12.6076C11.9284 12.4997 11.2752 12.4202 10.605 12.3918ZM13.7288 12.9143C13.8992 12.1986 14.0071 11.4205 14.0355 10.597H16.6027C16.4891 11.7613 16.0859 12.8348 15.4668 13.7435C15.0181 13.4141 14.4274 13.1301 13.7288 12.9143ZM10.605 13.5958C11.1559 13.6186 11.6784 13.6754 12.1669 13.7605C11.7636 14.8056 11.2014 15.6008 10.605 15.9245V13.5958ZM7.83332 13.7605C8.32177 13.6754 8.84998 13.6186 9.40091 13.5958V15.9245C8.79887 15.6008 8.23658 14.8056 7.83332 13.7605ZM5.29452 14.6579C5.65234 14.408 6.10103 14.2092 6.62356 14.0445C6.98138 14.9874 7.45279 15.7711 8.00939 16.3221C6.97002 15.987 6.04991 15.4133 5.29452 14.6579ZM13.3767 14.0445C13.8992 14.2092 14.3479 14.408 14.7057 14.6579C13.9617 15.4133 13.0302 15.987 11.9851 16.3221C12.5474 15.7711 13.0302 14.9874 13.3767 14.0445Z" fill="currentColor"/>
</svg>
