<svg width="20" height="20" viewBox="0 0 20 20" fill="currentColor" xmlns="http://www.w3.org/2000/svg">
<path d="M6.9353 1.79796C4.74899 1.79796 2.98145 3.55577 2.98145 5.73234C2.98145 6.54551 3.25899 7.43658 3.71184 8.06472C3.87739 8.29845 4.09651 8.39583 4.30589 8.39583C4.82203 8.39583 5.19697 7.831 4.83664 7.33433C4.52501 6.90096 4.31076 6.32639 4.31076 5.73234C4.31076 4.2959 5.48426 3.13214 6.92556 3.13214C8.23053 3.13214 9.33586 4.11087 9.49654 5.41583C9.49654 5.44992 9.50628 5.47913 9.51115 5.52783C9.56958 5.88328 9.77896 6.10727 10.1344 6.10727C10.5337 6.10727 10.8112 5.83946 10.821 5.47426C10.821 5.4061 10.8161 5.28923 10.8015 5.19672C10.5434 3.22953 8.87327 1.79796 6.9353 1.79796ZM13.5137 17.8179C16.5667 16.7077 17.7548 14.1026 16.5667 10.8597L15.9435 9.13109C15.3738 7.58753 14.2392 6.90583 12.9245 7.33433C12.5545 6.92531 11.9799 6.79871 11.4102 7.01296C11.2397 7.06652 11.1034 7.14443 10.9671 7.23694C10.558 6.79384 10.0029 6.64776 9.4235 6.85714C9.34559 6.88636 9.26282 6.93505 9.18491 6.98374L8.62494 5.43531C8.26461 4.45659 7.38814 4.03783 6.46298 4.36894C5.5086 4.71466 5.08984 5.60574 5.4453 6.58446L7.08625 11.108C7.10086 11.147 7.09599 11.1713 7.06677 11.1859C7.04729 11.1957 7.02782 11.1859 7.00834 11.1665L6.57497 10.7087C6.16109 10.3679 5.67416 10.29 5.19697 10.4604C4.39354 10.7526 3.96504 11.5122 4.2718 12.3594C4.35945 12.6029 4.5104 12.8756 4.69056 13.0849L7.00347 15.8556C8.82458 18.037 11.0596 18.709 13.5137 17.8179ZM13.0316 16.3863C11.23 17.0437 9.62314 16.6249 8.11367 14.8963L5.7618 12.2133C5.70824 12.15 5.67416 12.1062 5.65468 12.0332C5.59625 11.8774 5.65468 11.7118 5.84458 11.6436C5.97605 11.5998 6.09778 11.6436 6.20978 11.7605L7.87507 13.3576C8.15262 13.6303 8.44478 13.6644 8.71259 13.5719C9.05344 13.4453 9.25308 13.0752 9.09726 12.6565L6.69671 6.0391C6.62854 5.85407 6.70644 5.67877 6.88661 5.60574C7.07651 5.5473 7.2518 5.63008 7.31997 5.81511L8.97066 10.3533C9.08265 10.66 9.4235 10.8061 9.73027 10.699C10.037 10.587 10.1977 10.2559 10.0857 9.94913L9.51115 8.37636C9.58906 8.32279 9.68157 8.26436 9.77896 8.23028C9.98347 8.15724 10.1782 8.24489 10.2562 8.464L10.8112 9.98809C10.9232 10.2949 11.2544 10.4361 11.5562 10.3289C11.8533 10.2169 12.014 9.89557 11.902 9.58881L11.5124 8.51757C11.5903 8.464 11.6828 8.41044 11.7754 8.37149C11.9799 8.29845 12.1795 8.38609 12.2623 8.61008L12.6178 9.60828C12.7346 9.91992 13.0803 10.066 13.3871 9.954C13.6841 9.84688 13.8497 9.51577 13.7377 9.20413L13.5673 8.71721C13.986 8.56139 14.3366 8.84381 14.5898 9.54011L15.2033 11.22C16.0944 13.6741 15.2764 15.5732 13.0316 16.3863Z" fill="currentColor"/>
</svg>
