<svg width="20" height="20" viewBox="0 0 20 20" fill="currentColor" xmlns="http://www.w3.org/2000/svg">
<path d="M17.7619 7.19656C17.7619 4.5973 16.1278 2.51891 13.8655 2.51891H11.6288C10.6688 2.05931 9.56578 1.79887 8.38615 1.79887H7.41079C6.46096 1.79887 5.66943 1.85505 5.16388 1.98782C4.06596 2.25336 3.35103 3.07553 3.35103 4.0611C3.35103 4.20409 3.36635 4.32665 3.40721 4.45431C2.93229 4.85773 2.66675 5.42457 2.66675 6.03736C2.66675 6.3029 2.71781 6.55313 2.80973 6.77782C2.49312 7.14039 2.3195 7.63062 2.3195 8.14639C2.3195 8.48343 2.3961 8.81025 2.52376 9.07579C2.33993 9.39751 2.23779 9.80604 2.23779 10.2554C2.23779 11.4606 3.13145 12.3696 4.3315 12.3696H6.8031C6.90523 12.3696 6.98183 12.4257 6.97162 12.5381C6.8746 13.1815 5.85327 14.8156 5.85327 16.2097C5.85327 17.3536 6.67544 18.2013 7.78868 18.2013C8.59552 18.2013 9.16236 17.7723 9.67302 16.8021C10.5514 15.0914 11.6697 13.6105 13.0281 11.91H14.1311C16.2605 11.91 17.7619 9.83668 17.7619 7.19656ZM13.0281 7.27827C13.0281 8.6979 12.7166 9.59156 11.7923 10.8325C10.7454 12.2368 9.29513 13.9322 8.24827 16.0208C8.09507 16.3272 7.98273 16.414 7.81421 16.414C7.62016 16.414 7.49249 16.2608 7.49249 16.0208C7.49249 15.1476 8.63638 13.4317 8.63638 12.2572C8.63638 11.3533 7.93166 10.7354 6.90013 10.7354H4.41321C4.10171 10.7354 3.87191 10.5056 3.87191 10.2044C3.87191 9.98988 3.93829 9.84178 4.12213 9.65284C4.39278 9.37708 4.42853 8.9277 4.18341 8.67237C4.03021 8.463 3.96893 8.32001 3.96893 8.14128C3.96893 7.93702 4.07107 7.75318 4.28044 7.59488C4.61747 7.36508 4.7145 6.93612 4.54087 6.56334C4.42342 6.34376 4.37236 6.2263 4.37236 6.05779C4.37236 5.80246 4.54087 5.59309 4.8677 5.41435C5.18941 5.23052 5.28644 4.82199 5.15367 4.50027C5.05154 4.25005 5.03622 4.19387 5.04132 4.08153C5.04132 3.85173 5.20984 3.673 5.60305 3.57087C5.99115 3.47384 6.6499 3.42788 7.59973 3.43299H8.32998C11.1437 3.44831 13.0281 5.01093 13.0281 7.27827ZM16.1788 7.19656C16.1788 8.87153 15.3822 10.1839 14.4068 10.3014C14.2843 10.3014 14.1566 10.3116 14.029 10.3116C14.4732 9.38219 14.6724 8.41704 14.6724 7.25273C14.6724 6.03736 14.2741 4.93433 13.5336 4.03557C13.7021 4.03557 13.8809 4.04068 14.0545 4.04578C15.2341 4.16834 16.1788 5.49095 16.1788 7.19656Z" fill="currentColor"/>
</svg>
