<svg width="20" height="20" viewBox="0 0 20 20" fill="currentColor" xmlns="http://www.w3.org/2000/svg">
<path d="M2.24109 12.7985C2.24109 15.3967 3.87451 17.4742 6.13578 17.4742H8.37152C9.32095 17.9438 10.4235 18.199 11.6128 18.199H12.5827C13.5321 18.199 14.3182 18.1378 14.8286 18.0051C15.9261 17.7396 16.6458 16.9178 16.6458 15.9327C16.6458 15.7948 16.6254 15.6672 16.5897 15.5396C17.0542 15.1364 17.3196 14.58 17.3196 13.9623C17.3196 13.6969 17.2737 13.4417 17.1869 13.2222C17.5034 12.8598 17.6718 12.3647 17.6718 11.8491C17.6718 11.5122 17.6003 11.1855 17.4676 10.9201C17.6565 10.6087 17.7586 10.1902 17.7586 9.74098C17.7586 8.54143 16.8602 7.62774 15.6658 7.62774H13.1901C13.0829 7.62774 13.0064 7.5767 13.0268 7.4644C13.1289 6.81613 14.1395 5.18271 14.1395 3.79431C14.1395 2.64581 13.3228 1.79847 12.205 1.79847C11.4036 1.79847 10.8319 2.22724 10.3214 3.19709C9.44345 4.90707 8.32558 6.39247 6.9627 8.08714H5.87035C3.74179 8.08714 2.24109 10.1595 2.24109 12.7985ZM6.9627 12.7169C6.9627 11.3029 7.27917 10.4046 8.20818 9.16418C9.24438 7.76046 10.7042 6.06578 11.7456 3.97807C11.9038 3.6718 12.011 3.59523 12.1794 3.59523C12.3785 3.59523 12.5061 3.73816 12.5061 3.98317C12.5061 4.85092 11.3525 6.56602 11.3525 7.74004C11.3525 8.64863 12.0569 9.26116 13.0931 9.26116H15.5841C15.8955 9.26116 16.1201 9.49086 16.1201 9.79713C16.1201 10.0064 16.0486 10.1544 15.8699 10.3484C15.6045 10.6189 15.5637 11.0732 15.8087 11.3285C15.9618 11.5428 16.0282 11.6756 16.0282 11.8542C16.0282 12.0635 15.9159 12.2473 15.7066 12.4004C15.3748 12.6301 15.2778 13.064 15.4565 13.4417C15.5688 13.651 15.6249 13.7735 15.6249 13.9368C15.6249 14.2023 15.4565 14.4013 15.1298 14.5851C14.8031 14.7689 14.7061 15.1772 14.8388 15.4988C14.9409 15.7438 14.9562 15.7999 14.9562 15.9174C14.9562 16.1419 14.7878 16.3308 14.3948 16.4227C13.9966 16.5197 13.3483 16.5656 12.3938 16.5656L11.6588 16.5605C8.84623 16.5452 6.9627 14.9832 6.9627 12.7169ZM3.82347 12.7985C3.82347 11.1243 4.61465 9.81244 5.5896 9.70014C5.71721 9.69504 5.83972 9.69504 5.96733 9.68483C5.52835 10.6138 5.32417 11.5837 5.32417 12.7424C5.32417 13.9572 5.72232 15.0598 6.46246 15.9582C6.29912 15.9582 6.11536 15.9531 5.9367 15.9531C4.76779 15.8357 3.82347 14.5034 3.82347 12.7985Z" fill="currentColor"/>
</svg>
