<svg width="20" height="20" viewBox="0 0 20 20" fill="currentColor" xmlns="http://www.w3.org/2000/svg">
<path d="M14.6547 16.6555C17.7475 15.5245 18.9375 12.9037 17.7475 9.62399L17.1132 7.88825C16.5428 6.32461 15.3922 5.63621 14.0597 6.06892C13.686 5.65588 13.1156 5.52804 12.5305 5.73947C12.3682 5.79848 12.2207 5.87715 12.0928 5.97058C11.67 5.52312 11.1094 5.37561 10.5341 5.58704C10.4456 5.61654 10.3669 5.66572 10.2883 5.71489L9.71787 4.14633C9.36384 3.16291 8.47385 2.7302 7.53959 3.0744C6.57092 3.42351 6.14805 4.33318 6.51192 5.31168L8.1739 9.87968C8.18865 9.91902 8.17882 9.9436 8.15423 9.95835C8.12473 9.96819 8.1149 9.95835 8.09031 9.93868L7.64777 9.47648C7.22982 9.13228 6.74302 9.0536 6.25623 9.22079C5.44491 9.52073 5.0122 10.2878 5.33181 11.1434C5.4154 11.3892 5.57275 11.6597 5.75468 11.876L8.08539 14.6739C9.91948 16.8767 12.1863 17.5553 14.6547 16.6555ZM14.1777 15.2147C12.3485 15.8736 10.7357 15.4508 9.20649 13.7052L6.83645 10.9959C6.78236 10.9319 6.74794 10.8877 6.72335 10.8139C6.66927 10.6566 6.72827 10.4894 6.91512 10.4206C7.0528 10.3763 7.17081 10.4206 7.27899 10.5386L8.96064 12.1563C9.25075 12.4267 9.54577 12.4612 9.8113 12.3677C10.1555 12.2399 10.3571 11.8662 10.2047 11.4433L7.77562 4.76097C7.70186 4.57412 7.78545 4.39218 7.9723 4.32334C8.15423 4.25942 8.33617 4.34793 8.40009 4.53478L10.067 9.11753C10.185 9.4273 10.5341 9.57482 10.8439 9.46664C11.1438 9.35355 11.311 9.01918 11.1979 8.70941L10.6177 7.12118C10.6964 7.06217 10.7947 7.00809 10.8832 6.97367C11.0996 6.89991 11.2913 6.98842 11.3749 7.20969L11.9306 8.74874C12.0437 9.05852 12.3829 9.20112 12.6829 9.09294C12.9779 8.98476 13.15 8.65532 13.032 8.34554L12.6436 7.26378C12.7173 7.20969 12.8107 7.15068 12.9042 7.11626C13.1156 7.04251 13.3074 7.13593 13.391 7.3572L13.7597 8.36521C13.8728 8.6799 14.2219 8.82742 14.5317 8.71432C14.8366 8.60615 15.0038 8.27178 14.8907 7.94725L14.7087 7.46538C15.1316 7.30803 15.4955 7.59322 15.7512 8.29145L16.3609 9.99277C17.2706 12.471 16.4396 14.3887 14.1777 15.2147ZM5.14988 4.75605C3.09944 6.02466 1.80133 8.34554 1.80133 11.1237C1.80133 11.4581 2.07668 11.7334 2.39138 11.7285C2.71591 11.7187 2.95685 11.463 2.96176 11.1434C3.02569 8.8225 3.98452 6.96875 5.56292 5.89682L5.14988 4.75605Z" fill="currentColor"/>
</svg>
