<svg width="20" height="20" viewBox="0 0 20 20" fill="currentColor" xmlns="http://www.w3.org/2000/svg">
<path d="M13.4278 17.7505C17.0246 16.4447 18.4106 13.3806 17.0246 9.56616L16.2915 7.53295C15.6271 5.71738 14.2869 4.91556 12.7463 5.41956C12.3053 4.93847 11.6294 4.78956 10.9479 5.04156C10.7646 5.10456 10.5985 5.1962 10.4439 5.30502C9.95705 4.78383 9.30414 4.61201 8.62258 4.85828C8.53095 4.89265 8.43931 4.94992 8.34194 5.00719L7.67757 3.1859C7.2652 2.0347 6.22855 1.54215 5.14036 1.93161C4.01207 2.33825 3.52525 3.38636 3.94335 4.53755L5.87919 9.85825C5.89064 9.90407 5.88491 9.93271 5.85055 9.94989C5.82191 9.96134 5.80473 9.94989 5.78182 9.92698L5.26636 9.38861C4.77954 8.9877 4.2068 8.89606 3.64552 9.09652C2.70624 9.44016 2.19651 10.3336 2.56306 11.3302C2.66615 11.6165 2.8437 11.9373 3.05561 12.1836L5.77609 15.4424C7.91812 18.0083 10.5527 18.7986 13.4278 17.7505ZM12.8665 16.0667C10.7474 16.8399 8.8574 16.3473 7.08193 14.3141L4.31562 11.1584C4.25835 11.0839 4.21826 11.0324 4.18389 10.9464C4.12089 10.7632 4.19535 10.5684 4.41299 10.4883C4.56763 10.4367 4.71081 10.4883 4.83681 10.6257L6.79556 12.5043C7.12775 12.825 7.47139 12.8651 7.78639 12.7563C8.18731 12.6074 8.42213 12.1721 8.23885 11.6795L5.41527 3.89609C5.32936 3.67845 5.421 3.47227 5.64437 3.38636C5.85055 3.31763 6.06246 3.41499 6.14264 3.63263L8.08421 8.97051C8.21594 9.33134 8.62258 9.50316 8.98341 9.37715C9.3385 9.24543 9.53323 8.85597 9.4015 8.49514L8.72568 6.64521C8.81159 6.58221 8.9204 6.51348 9.04068 6.47339C9.28123 6.38748 9.51032 6.49058 9.60196 6.74831L10.2549 8.54096C10.3866 8.90179 10.7761 9.06788 11.1312 8.94188C11.4805 8.81015 11.6695 8.43214 11.5378 8.07132L11.0853 6.81131C11.1712 6.74831 11.2801 6.6853 11.3889 6.63949C11.6294 6.55358 11.8585 6.65667 11.9502 6.92013L12.3854 8.09423C12.5172 8.46078 12.9238 8.6326 13.2846 8.50087C13.634 8.37487 13.8345 7.98541 13.697 7.61886L13.4965 7.04613C13.9834 6.86285 14.3957 7.19504 14.6993 8.01405L15.4152 9.98998C16.469 12.8766 15.5068 15.1102 12.8665 16.0667Z" fill="currentColor"/>
</svg>
