<?xml version="1.0" encoding="UTF-8"?>
<svg xmlns="http://www.w3.org/2000/svg" viewBox="0 0 26.3852774920207 28.63457039072739" width="26.3852774920207" height="28.63457039072739" fill="currentColor">
  <path d="M19.1777 27.8498C25.4577 25.5698 27.8777 20.2198 25.4577 13.5598L24.1777 10.0098C23.0177 6.8398 20.6777 5.4398 17.9877 6.3198C17.2177 5.4798 16.0377 5.2198 14.8477 5.6598C14.5277 5.7698 14.2377 5.9298 13.9677 6.1198C13.1177 5.2098 11.9777 4.9098 10.7877 5.3398C10.6277 5.3998 10.4677 5.4998 10.2977 5.5998L9.1377 2.4198C8.4177 0.4098 6.6077 -0.4502 4.7077 0.2298C2.7377 0.9398 1.8877 2.7698 2.6177 4.7798L5.9977 14.0698C6.0177 14.1498 6.0077 14.1998 5.9477 14.2298C5.8977 14.2498 5.8677 14.2298 5.8277 14.1898L4.9277 13.2498C4.0777 12.5498 3.0777 12.3898 2.0977 12.7398C0.4577 13.3398 -0.4323 14.8998 0.2077 16.6398C0.3877 17.1398 0.6977 17.6998 1.0677 18.1298L5.8177 23.8198C9.5577 28.2998 14.1577 29.6798 19.1777 27.8498ZM18.1977 24.9098C14.4977 26.2598 11.1977 25.3998 8.0977 21.8498L3.2677 16.3398C3.1677 16.2098 3.0977 16.1198 3.0377 15.9698C2.9277 15.6498 3.0577 15.3098 3.4377 15.1698C3.7077 15.0798 3.9577 15.1698 4.1777 15.4098L7.5977 18.6898C8.1777 19.2498 8.7777 19.3198 9.3277 19.1298C10.0277 18.8698 10.4377 18.1098 10.1177 17.2498L5.1877 3.6598C5.0377 3.2798 5.1977 2.9198 5.5877 2.7698C5.9477 2.6498 6.3177 2.8198 6.4577 3.1998L9.8477 12.5198C10.0777 13.1498 10.7877 13.4498 11.4177 13.2298C12.0377 12.9998 12.3777 12.3198 12.1477 11.6898L10.9677 8.4598C11.1177 8.3498 11.3077 8.2298 11.5177 8.1598C11.9377 8.0098 12.3377 8.1898 12.4977 8.6398L13.6377 11.7698C13.8677 12.3998 14.5477 12.6898 15.1677 12.4698C15.7777 12.2398 16.1077 11.5798 15.8777 10.9498L15.0877 8.7498C15.2377 8.6398 15.4277 8.5298 15.6177 8.4498C16.0377 8.2998 16.4377 8.4798 16.5977 8.9398L17.3577 10.9898C17.5877 11.6298 18.2977 11.9298 18.9277 11.6998C19.5377 11.4798 19.8877 10.7998 19.6477 10.1598L19.2977 9.1598C20.1477 8.8398 20.8677 9.4198 21.3977 10.8498L22.6477 14.2998C24.4877 19.3398 22.8077 23.2398 18.1977 24.9098Z"/>
</svg>
