<?xml version="1.0" encoding="UTF-8"?>
<svg xmlns="http://www.w3.org/2000/svg" viewBox="0 0 29.326171875 26.701171875" width="29.326171875" height="26.701171875" fill="currentColor">
  <path d="M4.1409 26.6991H25.1809C27.6809 26.6991 29.3309 24.8191 29.3309 22.5591C29.3309 21.8591 29.1509 21.1391 28.7609 20.4691L18.2409 2.0791C17.4309 0.6991 16.0609 -0.0009 14.6709 -0.0009C13.2609 -0.0009 11.8809 0.7091 11.0909 2.0791L0.5609 20.4791C0.1809 21.1491 0.0009 21.8591 0.0009 22.5591C0.0009 24.8191 1.6409 26.6991 4.1409 26.6991ZM4.7709 23.3691C4.0909 23.3691 3.6509 22.8191 3.6509 22.2191C3.6509 22.0291 3.6909 21.7791 3.8009 21.5891L13.7009 4.1691C13.9009 3.8191 14.3009 3.6591 14.6709 3.6591C15.0409 3.6591 15.4109 3.8191 15.6109 4.1791L25.5209 21.5991C25.6309 21.8091 25.6709 22.0391 25.6709 22.2191C25.6709 22.8191 25.2409 23.3691 24.5509 23.3691ZM14.6609 11.2491C15.6409 11.2491 16.4309 10.4491 16.4309 9.4891C16.4309 8.4891 15.6409 7.6991 14.6609 7.6991C13.7009 7.6991 12.8909 8.4891 12.8909 9.4891C12.8909 10.4491 13.7009 11.2491 14.6609 11.2491ZM12.5209 21.4391H17.3909C18.0009 21.4391 18.4809 20.9991 18.4809 20.3591C18.4809 19.7691 18.0009 19.3091 17.3909 19.3091H16.2809V14.2891C16.2809 13.4491 15.8709 12.9091 15.0809 12.9091H12.7509C12.1409 12.9091 11.6509 13.3891 11.6509 13.9691C11.6509 14.5991 12.1409 15.0391 12.7509 15.0391H13.8809V19.3091H12.5209C11.9109 19.3091 11.4309 19.7691 11.4309 20.3591C11.4309 20.9991 11.9109 21.4391 12.5209 21.4391Z"/>
</svg>
