<svg width="20" height="20" viewBox="0 0 20 20" fill="currentColor" xmlns="http://www.w3.org/2000/svg">
<path d="M6.97297 18.2019H13.116C14.4027 18.2019 15.2639 17.3407 15.2639 16.0488V3.95476C15.2639 2.66287 14.4027 1.80161 13.116 1.80161H6.97297C5.62919 1.80161 4.7368 2.66287 4.7368 3.95476V16.0488C4.7368 17.3407 5.62919 18.2019 6.97297 18.2019ZM7.36728 16.2615C6.86402 16.2615 6.56828 15.9865 6.56828 15.4884V4.5151C6.56828 4.02221 6.86402 3.74204 7.36728 3.74204H12.6334C13.1367 3.74204 13.4324 4.0274 13.4324 4.52548V15.4832C13.4324 15.9813 13.1367 16.2615 12.6334 16.2615H7.36728ZM9.0483 5.55796H10.9524C11.3052 5.55796 11.575 5.28816 11.575 4.93536C11.575 4.58255 11.3052 4.30238 10.9524 4.30238H9.0483C8.6955 4.30238 8.4257 4.58255 8.4257 4.93536C8.4257 5.28816 8.69031 5.55796 9.0483 5.55796ZM8.4257 15.6441H11.575C11.8085 15.6441 11.9797 15.4884 11.9797 15.2446C11.9797 15.0007 11.8085 14.8399 11.575 14.8399H8.4257C8.19742 14.8399 8.02101 15.0007 8.02101 15.2446C8.02101 15.4884 8.19742 15.6441 8.4257 15.6441Z" fill="currentColor"/>
</svg>
