<svg width="20" height="20" viewBox="0 0 20 20" fill="currentColor" xmlns="http://www.w3.org/2000/svg">
<path d="M9.43386 17.9652C9.77301 18.2619 10.2441 18.2949 10.5691 17.9699L12.5569 15.9821C12.8772 15.657 12.8678 15.1624 12.5522 14.8421L11.6808 13.9707L13.0091 12.647C13.3247 12.3314 13.3247 11.8274 13.0091 11.5071L11.8221 10.3201C13.5273 9.42506 14.4835 7.96952 14.4835 6.26903C14.4835 3.79602 12.4815 1.79877 9.99912 1.79877C7.50727 1.79877 5.51944 3.79131 5.51944 6.26903C5.51944 8.02133 6.50393 9.59464 8.07253 10.3248V16.3165C8.07253 16.5756 8.15731 16.8676 8.37871 17.0561L9.43386 17.9652ZM9.99912 16.6133L9.32552 15.9444V9.32614C7.9265 9.0388 6.87135 7.77639 6.87135 6.26903C6.87135 4.5497 8.26565 3.16011 9.99912 3.16011C11.7279 3.16011 13.1175 4.5497 13.1175 6.26903C13.1175 7.76225 12.0529 9.0388 10.4655 9.3544V10.8947L11.6431 12.0865L10.4042 13.3018V14.6301L11.1956 15.4027L9.99912 16.6133ZM9.99912 6.14185C10.5738 6.14185 11.0354 5.6708 11.0354 5.09612C11.0354 4.52615 10.5738 4.05981 9.99912 4.05981C9.41972 4.05981 8.96281 4.52615 8.96281 5.09612C8.96281 5.6708 9.42915 6.14185 9.99912 6.14185Z" fill="currentColor"/>
</svg>
