<svg width="20" height="20" viewBox="0 0 20 20" fill="currentColor" xmlns="http://www.w3.org/2000/svg">
<path d="M5.31511 6.13029C5.31511 8.62425 6.77236 9.49469 7.13423 13.6806C7.16357 14.1305 7.45209 14.3946 7.90198 14.3946H12.0928C12.5427 14.3946 12.8263 14.1305 12.8605 13.6806C13.2224 9.49469 14.6846 8.63403 14.6846 6.13029C14.6846 3.66568 12.5818 1.79765 9.99494 1.79765C7.41297 1.79765 5.31511 3.66078 5.31511 6.13029ZM6.76258 6.13029C6.76258 4.43342 8.24918 3.25002 9.99494 3.25002C11.7456 3.25002 13.2371 4.43342 13.2371 6.13029C13.2371 7.78804 12.0635 8.31128 11.5304 12.9471H8.46434C7.92643 8.31128 6.76258 7.78804 6.76258 6.13029ZM7.79929 16.1355H12.1906C12.4742 16.1355 12.6943 15.9007 12.6943 15.6416C12.6943 15.3726 12.4742 15.1428 12.1906 15.1428H7.79929C7.52055 15.1428 7.30049 15.3726 7.30049 15.6416C7.30049 15.9007 7.52055 16.1355 7.79929 16.1355ZM9.99494 18.1991C11.0952 18.1991 11.9314 17.6807 12.0048 16.8836H7.96555C8.03401 17.6807 8.89467 18.1991 9.99494 18.1991Z" fill="currentColor"/>
</svg>
