<svg width="20" height="20" viewBox="0 0 20 20" fill="currentColor" xmlns="http://www.w3.org/2000/svg">
<path d="M9.99727 18.202C14.5296 18.202 18.1987 14.5273 18.1987 10.0006C18.1987 5.47394 14.5296 1.7992 9.99727 1.7992C5.47059 1.7992 1.80153 5.47394 1.80153 10.0006C1.80153 14.5273 5.47059 18.202 9.99727 18.202ZM9.99727 16.1574C6.60084 16.1574 3.84053 13.4027 3.84053 10.0006C3.84053 6.59283 6.60084 3.84388 9.99727 3.84388C13.4107 3.84388 16.1597 6.59283 16.1597 10.0006C16.1597 13.4027 13.4107 16.1574 9.99727 16.1574ZM6.2203 8.6091H13.7913C14.257 8.6091 14.5637 8.32512 14.5637 7.89347C14.5637 7.46181 14.257 7.17215 13.7913 7.17215H6.2203C5.76025 7.17215 5.44219 7.46181 5.44219 7.89347C5.44219 8.32512 5.76025 8.6091 6.2203 8.6091ZM7.16312 11.1649H12.8428C13.3028 11.1649 13.6209 10.8753 13.6209 10.4436C13.6209 10.0177 13.3028 9.72231 12.8428 9.72231H7.16312C6.70875 9.72231 6.39069 10.0177 6.39069 10.4436C6.39069 10.8753 6.70875 11.1649 7.16312 11.1649ZM8.13434 13.7208H11.8716C12.3316 13.7208 12.6497 13.4311 12.6497 12.9995C12.6497 12.5678 12.3316 12.2725 11.8716 12.2725H8.13434C7.67997 12.2725 7.36191 12.5678 7.36191 12.9995C7.36191 13.4311 7.67997 13.7208 8.13434 13.7208Z" fill="currentColor"/>
</svg>
