<?xml version="1.0" encoding="UTF-8"?>
<svg xmlns="http://www.w3.org/2000/svg" viewBox="0 0 30.122583578860542 30.10546875" width="30.122583578860542" height="30.10546875" fill="currentColor">
  <path d="M13.6906 21.0327L16.2206 18.5027C14.8806 18.3527 13.7406 17.8527 13.0106 17.1127C10.8106 14.9127 10.8106 11.8427 12.9906 9.6627L17.6706 4.9927C19.8606 2.8127 22.9206 2.8127 25.1106 4.9927C27.3206 7.2127 27.3106 10.2727 25.1306 12.4527L23.3706 14.2127C23.9006 15.4327 24.1206 16.9827 23.7406 18.3427L27.5006 14.6127C31.0006 11.1227 31.0006 6.1427 27.4906 2.6327C23.9606 -0.8773 19.0106 -0.8673 15.5106 2.6227L10.6306 7.5127C7.1306 11.0027 7.1306 15.9627 10.6406 19.4727C11.3406 20.1727 12.3906 20.7627 13.6906 21.0327ZM16.4206 9.0727L13.9006 11.6027C15.2406 11.7527 16.3706 12.2527 17.1106 12.9927C19.3106 15.1927 19.3106 18.2727 17.1206 20.4427L12.4606 25.1127C10.2606 27.2927 7.2006 27.2927 5.0106 25.1127C2.8106 22.8927 2.8106 19.8427 4.9906 17.6527L6.7406 15.9027C6.2106 14.6927 5.9906 13.1227 6.3906 11.7627L2.6206 15.5127C-0.8794 18.9827 -0.8694 23.9627 2.6406 27.4727C6.1606 30.9827 11.1206 30.9727 14.6106 27.4827L19.4906 22.5927C22.9906 19.1027 22.9906 14.1427 19.4706 10.6327C18.7906 9.9427 17.7206 9.3427 16.4206 9.0727Z"/>
</svg>
