<svg width="20" height="20" viewBox="0 0 20 20" fill="currentColor" xmlns="http://www.w3.org/2000/svg">
<path d="M4.23341 8.38799C2.98139 8.95966 3.28377 10.703 4.63499 10.7078L9.232 10.7219C9.27924 10.7219 9.29342 10.7361 9.29342 10.7786L9.29814 15.352C9.30287 16.7221 11.0604 16.9962 11.6415 15.7158L16.3708 5.39734C17.0039 4.02249 15.9598 3.02088 14.5802 3.64925L4.23341 8.38799ZM6.66656 9.10612C6.63821 9.10612 6.62876 9.08723 6.66656 9.06833L14.4148 5.5438C14.4574 5.52018 14.4999 5.53435 14.4668 5.59577L10.9328 13.3299C10.9139 13.363 10.8856 13.3582 10.8856 13.3252L10.9139 9.9282C10.9187 9.32818 10.673 9.0825 10.073 9.08723L6.66656 9.10612Z" fill="currentColor"/>
</svg>
