<svg width="20" height="20" viewBox="0 0 20 20" fill="currentColor" xmlns="http://www.w3.org/2000/svg">
<path d="M3.70035 18.0203H11.3218C12.574 18.0203 13.2144 17.3742 13.2144 16.002V10.193C13.2144 8.99804 12.7055 8.35196 11.7106 8.22045V6.27649C11.7106 4.69272 12.7455 3.7722 14.0262 3.7722C15.307 3.7722 16.3419 4.69272 16.3419 6.27649V7.98603C16.3419 8.56922 16.7592 8.95802 17.2795 8.95802C17.777 8.95802 18.2001 8.57494 18.2001 7.98603V6.36225C18.2001 3.58352 16.319 1.9826 14.0262 1.9826C11.7335 1.9826 9.85815 3.58352 9.85815 6.36225V8.19186H3.70035C2.44249 8.19186 1.80212 8.84938 1.80212 10.193V16.002C1.80212 17.3742 2.44249 18.0203 3.70035 18.0203ZM4.24924 16.2307C3.94049 16.2307 3.76896 16.0592 3.76896 15.7047V10.5018C3.76896 10.1587 3.94049 9.98717 4.24924 9.98717H10.773C11.076 9.98717 11.2418 10.1587 11.2418 10.5018V15.7047C11.2418 16.0592 11.076 16.2307 10.773 16.2307H4.24924Z" fill="currentColor"/>
</svg>
