<?xml version="1.0" encoding="UTF-8"?>
<svg xmlns="http://www.w3.org/2000/svg" viewBox="0 0 23.748046875 28.177734375" width="23.748046875" height="28.177734375" fill="currentColor">
  <path d="M11.8837 28.176C12.1537 28.176 12.5537 28.056 12.9037 27.876C20.9137 23.706 23.7437 21.536 23.7437 16.556V6.436C23.7437 4.486 23.0937 3.696 21.3937 2.966C20.0437 2.396 15.0637 0.726 13.7937 0.316C13.2037 0.126 12.4737 -0.004 11.8837 -0.004C11.2837 -0.004 10.5537 0.146 9.9537 0.316C8.6837 0.666 3.7037 2.406 2.3537 2.966C0.6537 3.696 0.0037 4.486 0.0037 6.436V16.556C0.0037 21.536 2.8437 23.696 10.8437 27.876C11.1937 28.056 11.5937 28.176 11.8837 28.176ZM11.8837 24.596C11.7137 24.596 11.5637 24.546 11.1837 24.326C5.0537 20.536 3.2637 19.676 3.2637 16.036V6.886C3.2637 6.376 3.3737 6.166 3.7737 6.006C5.7037 5.226 9.4437 3.996 10.8737 3.456C11.3337 3.306 11.6037 3.236 11.8837 3.236C12.1537 3.236 12.4137 3.306 12.8837 3.456C14.3037 3.996 18.0337 5.276 19.9737 6.006C20.3737 6.156 20.4837 6.376 20.4837 6.886V16.036C20.4837 19.746 18.4937 20.786 12.5637 24.326C12.1837 24.546 12.0337 24.596 11.8837 24.596ZM7.0537 18.416C7.0537 19.486 7.5337 19.986 8.5337 19.986H15.2437C16.2237 19.986 16.7237 19.486 16.7237 18.416V13.286C16.7237 12.386 16.3637 11.906 15.6537 11.796V10.366C15.6537 7.866 14.1337 6.166 11.8837 6.166C9.6437 6.166 8.1237 7.866 8.1237 10.366V11.786C7.4137 11.906 7.0537 12.386 7.0537 13.286ZM10.0237 11.726V10.256C10.0237 8.896 10.7437 8.026 11.8837 8.026C13.0337 8.026 13.7537 8.896 13.7537 10.256V11.726Z"/>
</svg>
