<?xml version="1.0" encoding="UTF-8"?>
<svg xmlns="http://www.w3.org/2000/svg" viewBox="0 0 19.9609375 27.97265625" width="19.9609375" height="27.97265625" fill="currentColor">
  <path d="M3.3182 27.9729H16.6482C18.8382 27.9729 19.9582 26.8429 19.9582 24.4429V14.2829C19.9582 12.1729 19.0582 11.0329 17.2782 10.8329V7.6829C17.2782 2.8029 13.9882 0.0029 9.9782 0.0029C5.9782 0.0029 2.6982 2.8029 2.6982 7.6829V10.8329C0.9182 11.0329 -0.0018 12.1729 -0.0018 14.2829V24.4429C-0.0018 26.8429 1.1182 27.9729 3.3182 27.9729ZM5.9482 7.5229C5.9482 4.7529 7.7382 3.1429 9.9782 3.1429C12.2182 3.1429 14.0382 4.7529 14.0382 7.5229V10.7829H5.9482ZM4.2782 24.8429C3.7482 24.8429 3.4482 24.5429 3.4482 23.9229V14.8229C3.4482 14.2229 3.7482 13.9229 4.2782 13.9229H15.6982C16.2282 13.9229 16.5182 14.2229 16.5182 14.8229V23.9229C16.5182 24.5429 16.2282 24.8429 15.6982 24.8429Z"/>
</svg>
