<svg width="20" height="20" viewBox="0 0 20 20" fill="currentColor" xmlns="http://www.w3.org/2000/svg">
<path d="M10.0056 18.199C10.1628 18.199 10.3956 18.1291 10.5993 18.0244C15.2613 15.5974 16.9084 14.3344 16.9084 11.4359V5.54588C16.9084 4.41094 16.5301 3.95114 15.5407 3.52627C14.7549 3.19452 11.8565 2.22254 11.1173 1.98391C10.7739 1.87333 10.349 1.79767 10.0056 1.79767C9.65643 1.79767 9.23156 1.88497 8.88235 1.98391C8.14318 2.18762 5.24472 3.20034 4.45899 3.52627C3.46956 3.95114 3.09125 4.41094 3.09125 5.54588V11.4359C3.09125 14.3344 4.74418 15.5915 9.40034 18.0244C9.60405 18.1291 9.83686 18.199 10.0056 18.199ZM10.0056 16.1154C9.9067 16.1154 9.8194 16.0863 9.59823 15.9582C6.03045 13.7524 4.98863 13.2518 4.98863 11.1333V5.80779C4.98863 5.51096 5.05265 5.38873 5.28546 5.29561C6.40876 4.84163 8.58552 4.12575 9.4178 3.81146C9.68553 3.72415 9.84268 3.68341 10.0056 3.68341C10.1628 3.68341 10.3141 3.72415 10.5877 3.81146C11.4141 4.12575 13.5851 4.87073 14.7142 5.29561C14.947 5.38291 15.011 5.51096 15.011 5.80779V11.1333C15.011 13.2926 13.8528 13.8979 10.4014 15.9582C10.1803 16.0863 10.0929 16.1154 10.0056 16.1154ZM7.19449 12.5185C7.19449 13.1412 7.47386 13.4322 8.05588 13.4322H11.9612C12.5316 13.4322 12.8226 13.1412 12.8226 12.5185V9.53271C12.8226 9.0089 12.6131 8.72953 12.1999 8.6655V7.83322C12.1999 6.37817 11.3152 5.38873 10.0056 5.38873C8.70192 5.38873 7.81725 6.37817 7.81725 7.83322V8.65968C7.40402 8.72953 7.19449 9.0089 7.19449 9.53271V12.5185ZM8.92309 8.62476V7.76919C8.92309 6.97765 9.34214 6.47129 10.0056 6.47129C10.675 6.47129 11.094 6.97765 11.094 7.76919V8.62476H8.92309Z" fill="currentColor"/>
</svg>
