<svg width="20" height="20" viewBox="0 0 20 20" fill="currentColor" xmlns="http://www.w3.org/2000/svg">
<path d="M4.22405 16.5668H15.7722C17.3502 16.5668 18.1995 15.7176 18.1995 14.1547V5.8428C18.1995 4.28495 17.3502 3.43065 15.7722 3.43065H4.22405C2.66118 3.43065 1.80185 4.28495 1.80185 5.8428V14.1547C1.80185 15.7176 2.66118 16.5668 4.22405 16.5668ZM4.42004 14.7979C3.86726 14.7979 3.57076 14.5266 3.57076 13.9436V6.05387C3.57076 5.47093 3.86726 5.20459 4.42004 5.20459H15.5813C16.1341 5.20459 16.4255 5.47093 16.4255 6.05387V13.9436C16.4255 14.5266 16.1341 14.7979 15.5813 14.7979H4.42004ZM7.57594 12.5918C7.57594 13.1245 7.81716 13.3758 8.31969 13.3758H11.6917C12.1892 13.3758 12.4354 13.1245 12.4354 12.5918V10.0088C12.4354 9.56154 12.2545 9.3153 11.8977 9.26002V8.5414C11.8977 7.28004 11.1389 6.43579 10.0032 6.43579C8.8775 6.43579 8.11365 7.28004 8.11365 8.5414V9.24997C7.75685 9.3153 7.57594 9.56154 7.57594 10.0088V12.5918ZM9.06846 9.22987V8.48612C9.06846 7.8077 9.43531 7.3705 10.0032 7.3705C10.5811 7.3705 10.9429 7.80268 10.9429 8.48612V9.22987H9.06846Z" fill="currentColor"/>
</svg>
