<svg width="20" height="20" viewBox="0 0 20 20" fill="currentColor" xmlns="http://www.w3.org/2000/svg">
<path d="M6.09403 18.2001H13.9092C15.1932 18.2001 15.8498 17.5376 15.8498 16.1306V10.1739C15.8498 8.93681 15.3222 8.26844 14.2786 8.15119V6.30438C14.2786 3.4433 12.3497 1.8017 9.9987 1.8017C7.65355 1.8017 5.73053 3.4433 5.73053 6.30438V8.15119C4.68694 8.26844 4.14755 8.93681 4.14755 10.1739V16.1306C4.14755 17.5376 4.80419 18.2001 6.09403 18.2001ZM7.63596 6.21058C7.63596 4.58656 8.68541 3.64264 9.9987 3.64264C11.312 3.64264 12.379 4.58656 12.379 6.21058V8.12187H7.63596V6.21058ZM6.65686 16.3651C6.34613 16.3651 6.17024 16.1892 6.17024 15.8257V10.4905C6.17024 10.1387 6.34613 9.96281 6.65686 9.96281H13.3523C13.663 9.96281 13.833 10.1387 13.833 10.4905V15.8257C13.833 16.1892 13.663 16.3651 13.3523 16.3651H6.65686Z" fill="currentColor"/>
</svg>
