<?xml version="1.0" encoding="UTF-8"?>
<svg xmlns="http://www.w3.org/2000/svg" viewBox="0 0 28.68359375 28.0546875" width="28.68359375" height="28.0546875" fill="currentColor">
  <path d="M3.3237 28.0549H16.6537C18.8437 28.0549 19.9637 26.9249 19.9637 24.5249V14.3649C19.9637 12.2749 19.0737 11.1449 17.3337 10.9149V7.5149C17.3337 4.7449 19.1437 3.1349 21.3837 3.1349C23.6237 3.1349 25.4337 4.7449 25.4337 7.5149V10.5049C25.4337 11.5249 26.1637 12.2049 27.0737 12.2049C27.9437 12.2049 28.6837 11.5349 28.6837 10.5049V7.6649C28.6837 2.8049 25.3937 0.0049 21.3837 0.0049C17.3737 0.0049 14.0937 2.8049 14.0937 7.6649V10.8649H3.3237C1.1237 10.8649 0.0037 12.0149 0.0037 14.3649V24.5249C0.0037 26.9249 1.1237 28.0549 3.3237 28.0549ZM4.2837 24.9249C3.7437 24.9249 3.4437 24.6249 3.4437 24.0049V14.9049C3.4437 14.3049 3.7437 14.0049 4.2837 14.0049H15.6937C16.2237 14.0049 16.5137 14.3049 16.5137 14.9049V24.0049C16.5137 24.6249 16.2237 24.9249 15.6937 24.9249Z"/>
</svg>
