<svg width="20" height="20" viewBox="0 0 20 20" fill="currentColor" xmlns="http://www.w3.org/2000/svg">
<path d="M2.64115 14.7581H12.5782C12.4641 14.485 12.4315 14.1915 12.4315 14.004V13.0747H5.156V6.89154C5.156 6.57769 5.33126 6.40243 5.64918 6.40243H16.8254C16.8009 5.47719 16.2547 4.99216 15.3173 4.99216H5.33941C4.34489 4.99216 3.7498 5.56279 3.7498 6.57769V13.0747H2.64115C2.18465 13.0747 1.80151 13.4538 1.80151 13.9143C1.80151 14.379 2.18465 14.7581 2.64115 14.7581ZM13.2752 14.004C13.2752 14.6073 13.691 15.0067 14.3227 15.0067H17.184C17.7913 15.0067 18.1989 14.6073 18.1989 14.004V8.30996C18.1989 7.70672 17.7913 7.30728 17.184 7.30728H14.3227C13.691 7.30728 13.2752 7.70672 13.2752 8.30996V14.004ZM15.7412 8.31403C15.6107 8.31403 15.5088 8.20806 15.5088 8.07355C15.5088 7.93905 15.6107 7.84122 15.7412 7.84122C15.8757 7.84122 15.9776 7.93905 15.9776 8.07355C15.9776 8.20806 15.8757 8.31403 15.7412 8.31403ZM14.2371 13.4252V8.88466H17.2289V13.4252H14.2371ZM15.7412 14.5706C15.5455 14.5706 15.3906 14.4157 15.3906 14.22C15.3906 14.0325 15.5455 13.8777 15.7412 13.8777C15.9327 13.8777 16.0835 14.0325 16.0835 14.22C16.0835 14.4157 15.9327 14.5706 15.7412 14.5706Z" fill="currentColor"/>
</svg>
