<svg width="20" height="20" viewBox="0 0 20 20" fill="currentColor" xmlns="http://www.w3.org/2000/svg">
<path d="M3.10619 17.5801C3.4547 17.5801 3.73575 17.4564 4.12923 17.2316L7.60307 15.3485L11.431 17.4789C11.8133 17.6925 12.2124 17.7993 12.6058 17.7993C13.0049 17.7993 13.3984 17.6925 13.7638 17.4845L17.2714 15.5115C17.9234 15.1517 18.1988 14.6515 18.1988 13.9488V3.6847C18.1988 2.90899 17.6873 2.39747 16.8947 2.39747C16.5462 2.39747 16.2652 2.54362 15.8717 2.76846L12.2911 4.75271L8.46872 2.50427C8.10335 2.30191 7.70425 2.20073 7.31077 2.20073C6.93416 2.20073 6.56317 2.29067 6.23714 2.47616L2.72395 4.44917C2.07753 4.81454 1.80209 5.28671 1.80209 5.98935V16.3097C1.80209 17.091 2.30799 17.5801 3.10619 17.5801ZM6.61938 13.7408L3.92687 15.2192C3.85942 15.2585 3.79758 15.2698 3.75262 15.2698C3.62333 15.2698 3.5615 15.1742 3.5615 15.0281V6.5346C3.5615 6.25916 3.64581 6.12426 3.8819 5.98935L6.40577 4.54473C6.47885 4.50538 6.54068 4.46603 6.61938 4.42668V13.7408ZM8.43499 13.6509V4.65153C8.50807 4.69088 8.59238 4.74147 8.67108 4.78081L11.5659 6.49525V15.3935C11.476 15.3485 11.3861 15.3035 11.2905 15.2473L8.43499 13.6509ZM13.3816 15.4721V6.25916L16.0628 4.79206C16.119 4.75833 16.1696 4.74147 16.2146 4.74147C16.3495 4.74147 16.4394 4.84265 16.4394 4.97193V13.3642C16.4394 13.6453 16.3551 13.7746 16.119 13.9095L13.7413 15.2698C13.6176 15.3429 13.494 15.4103 13.3816 15.4721Z" fill="currentColor"/>
</svg>
