<svg width="20" height="20" viewBox="0 0 20 20" fill="currentColor" xmlns="http://www.w3.org/2000/svg">
<path d="M6.96265 4.86209C6.96265 6.23862 7.86825 7.3978 9.12058 7.78074V12.2001C9.12058 13.8405 9.66394 15.1136 10.0107 15.1136C10.3574 15.1136 10.8904 13.8405 10.8904 12.2001V7.78074C12.1479 7.40814 13.0535 6.23862 13.0535 4.86209C13.0535 3.18025 11.7029 1.79855 10.0107 1.79855C8.31847 1.79855 6.96265 3.18025 6.96265 4.86209ZM9.14645 5.03804C8.59792 5.03804 8.1063 4.5516 8.1063 3.99271C8.1063 3.42865 8.59792 2.95256 9.14645 2.95256C9.72604 2.95256 10.197 3.42865 10.197 3.99271C10.197 4.5516 9.72604 5.03804 9.14645 5.03804ZM9.99514 18.1978C14.8595 18.1978 17.9127 16.6246 17.9127 14.6064C17.9127 12.64 15.0614 11.2893 12.1686 11.0771V12.6814C14.0626 12.8314 16.0084 13.5456 16.0084 14.5081C16.0084 15.7242 13.4985 16.547 9.99514 16.547C6.49173 16.547 3.99225 15.7294 3.99225 14.5081C3.99225 13.5456 5.93284 12.8314 7.83203 12.6814V11.0771C4.93926 11.2893 2.08789 12.64 2.08789 14.6064C2.08789 16.6246 5.13591 18.1978 9.99514 18.1978Z" fill="currentColor"/>
</svg>
