<svg width="20" height="20" viewBox="0 0 20 20" fill="currentColor" xmlns="http://www.w3.org/2000/svg">
<path d="M9.99616 16.9105C14.7262 16.9105 18.2007 13.9955 18.2007 9.99544C18.2007 5.97101 14.7067 3.09016 9.99616 3.09016C5.28559 3.09016 1.80132 5.97101 1.80132 9.99544C1.80132 11.5478 2.25875 12.6135 2.81837 13.4748C3.12495 13.9663 3.29527 14.341 3.29527 14.745C3.29527 15.1683 3.18334 15.4506 2.83297 15.7863C2.32688 16.2292 2.60425 16.9105 3.30987 16.9105C4.21987 16.9105 5.18826 16.6233 5.91821 16.1172C7.09585 16.6379 8.46815 16.9105 9.99616 16.9105ZM9.99616 15.2267C8.75039 15.2267 7.64088 14.998 6.69681 14.5795C6.20532 14.3605 5.82575 14.3994 5.39751 14.6136C5.23206 14.7158 5.04227 14.7985 4.81355 14.8666C4.88655 14.6817 4.93521 14.5357 4.93521 14.3411C4.93521 13.8301 4.6919 13.2656 4.2734 12.6232C3.75757 11.8884 3.47532 10.9833 3.47532 9.99544C3.47532 6.97834 6.15179 4.76904 9.99616 4.76904C13.8503 4.76904 16.5219 6.9832 16.5219 9.99544C16.5219 13.0028 13.8503 15.2267 9.99616 15.2267Z" fill="currentColor"/>
</svg>
