<svg width="20" height="20" viewBox="0 0 20 20" fill="currentColor" xmlns="http://www.w3.org/2000/svg">
<path d="M4.82627 18.2005H15.1717C17.1354 18.2005 18.2019 17.1339 18.2019 15.1954V4.81228C18.2019 2.87369 17.1354 1.80087 15.1717 1.80087H4.82627C2.87514 1.80087 1.80232 2.86114 1.80232 4.81228V15.1954C1.80232 17.1339 2.87514 18.2005 4.82627 18.2005ZM5.07095 15.9858C4.38084 15.9858 4.01069 15.6533 4.01069 14.9256V5.08205C4.01069 4.35429 4.38084 4.01551 5.07095 4.01551H14.9333C15.6171 4.01551 15.9873 4.35429 15.9873 5.08205V14.9256C15.9873 15.6533 15.6171 15.9858 14.9333 15.9858H5.07095ZM6.94681 10.9668H13.07C13.6472 10.9668 14.055 10.5841 14.055 10.0195C14.055 9.44859 13.6535 9.06589 13.07 9.06589H6.94681C6.36335 9.06589 5.96183 9.44859 5.96183 10.0195C5.96183 10.5841 6.36962 10.9668 6.94681 10.9668Z" fill="currentColor"/>
</svg>
