<?xml version="1.0" encoding="UTF-8"?>
<svg xmlns="http://www.w3.org/2000/svg" viewBox="0 0 26.140625 26.140625" width="26.140625" height="26.140625" fill="currentColor">
  <path d="M4.8237 26.1414H21.3137C24.4437 26.1414 26.1437 24.4414 26.1437 21.3514V4.8014C26.1437 1.7114 24.4437 0.0014 21.3137 0.0014H4.8237C1.7137 0.0014 0.0037 1.6914 0.0037 4.8014V21.3514C0.0037 24.4414 1.7137 26.1414 4.8237 26.1414ZM5.2137 22.6114C4.1137 22.6114 3.5237 22.0814 3.5237 20.9214V5.2314C3.5237 4.0714 4.1137 3.5314 5.2137 3.5314H20.9337C22.0237 3.5314 22.6137 4.0714 22.6137 5.2314V20.9214C22.6137 22.0814 22.0237 22.6114 20.9337 22.6114ZM8.2037 14.6114H17.9637C18.8837 14.6114 19.5337 14.0014 19.5337 13.1014C19.5337 12.1914 18.8937 11.5814 17.9637 11.5814H8.2037C7.2737 11.5814 6.6337 12.1914 6.6337 13.1014C6.6337 14.0014 7.2837 14.6114 8.2037 14.6114Z"/>
</svg>
