<svg width="20" height="20" viewBox="0 0 20 20" fill="currentColor" xmlns="http://www.w3.org/2000/svg">
<path d="M11.5522 18.1999C12.1976 18.1999 12.6483 17.7159 12.9265 16.9759L18.0118 3.67855C18.1342 3.36142 18.2009 3.0721 18.2009 2.82173C18.2009 2.20416 17.7948 1.798 17.1828 1.798C16.9213 1.798 16.6319 1.87033 16.3204 1.99274L2.98409 7.08912C2.29975 7.35062 1.79901 7.79572 1.79901 8.44667C1.79901 9.21447 2.35539 9.55942 3.13987 9.78753L8.60903 11.3899L10.2003 16.8257C10.4339 17.6213 10.7733 18.1999 11.5522 18.1999ZM9.19879 9.62062L5.25966 8.40773C5.1762 8.38547 5.14838 8.35209 5.14838 8.30202C5.14838 8.25751 5.1762 8.21856 5.25409 8.19074L12.3757 5.43113C13.0934 5.14181 13.8056 4.81355 14.6846 4.4074C14.0615 4.9137 13.3215 5.52571 12.793 6.05427L9.19879 9.62062ZM11.7025 14.8617C11.6524 14.8617 11.619 14.8227 11.5968 14.7337L10.3783 10.8001L13.9502 7.21709C14.451 6.69966 15.113 5.91517 15.5915 5.30872C15.1965 6.1878 14.8627 6.90552 14.5789 7.6288L11.8082 14.7448C11.7859 14.8227 11.747 14.8617 11.7025 14.8617Z" fill="currentColor"/>
</svg>
