<svg width="20" height="20" viewBox="0 0 20 20" fill="currentColor" xmlns="http://www.w3.org/2000/svg">
<path d="M7.72324 3.76294C8.1829 3.76294 8.54884 3.397 8.54884 2.94627C8.54884 2.49108 8.1829 2.11621 7.72324 2.11621C7.25912 2.11621 6.9021 2.49108 6.9021 2.94627C6.9021 3.397 7.25912 3.76294 7.72324 3.76294ZM11.6102 4.74027C12.3287 4.74027 12.9044 4.16012 12.9044 3.44163C12.9044 2.71421 12.3287 2.14745 11.6102 2.14745C10.8828 2.14745 10.3116 2.71421 10.3116 3.44163C10.3116 4.16012 10.8828 4.74027 11.6102 4.74027ZM16.7111 3.87005C17.0904 3.87005 17.3939 3.55766 17.3939 3.17387C17.3939 2.79454 17.0904 2.47769 16.7111 2.47769C16.3228 2.47769 16.0149 2.79454 16.0149 3.17387C16.0149 3.55766 16.3228 3.87005 16.7111 3.87005ZM14.8055 4.17351L13.672 5.30703C13.4533 5.53909 13.4533 5.90503 13.672 6.13263C13.8996 6.35577 14.27 6.35577 14.4976 6.13709L15.6311 5.00357C15.8498 4.77597 15.8498 4.40557 15.6311 4.17351C15.3946 3.95484 15.0287 3.9593 14.8055 4.17351ZM12.052 14.2235C12.9669 13.8442 13.0606 12.9918 12.7572 12.0368C13.5069 12.0278 14.2522 12.0948 15.0019 12.2331C15.3277 12.3135 15.6177 12.0011 15.6177 11.6708C15.6177 11.354 15.3634 11.1532 15.0688 11.0862C14.1227 10.9077 13.1856 10.8497 12.2395 10.8988C11.9405 10.3856 11.5745 9.88575 11.1997 9.45734L13.257 7.40896C13.4578 7.19475 13.4846 6.81989 13.257 6.59675C13.0338 6.35577 12.6545 6.38254 12.4403 6.58783L10.383 8.63174C9.95012 8.24795 9.45476 7.86862 8.94602 7.56516C8.99511 6.63692 8.92817 5.70868 8.75412 4.77597C8.68718 4.4859 8.49082 4.23599 8.17397 4.23599C7.85266 4.23599 7.53581 4.51714 7.60721 4.85184C7.75002 5.5748 7.81696 6.30668 7.81696 7.04302C6.9021 6.75295 6.07651 6.88236 5.64363 7.82845L1.94406 16.0353C1.40853 17.2358 2.43941 18.2488 3.6131 17.7535L12.052 14.2235ZM10.4499 6.75295C10.8427 6.75295 11.1461 6.44502 11.1461 6.0523C11.1461 5.6819 10.8427 5.36505 10.4499 5.36505C10.0751 5.36505 9.76269 5.67297 9.76269 6.0523C9.76269 6.44502 10.0751 6.75295 10.4499 6.75295ZM14.6315 9.89022C15.2518 9.89022 15.7605 9.40378 15.7605 8.77901C15.7605 8.15869 15.2607 7.64995 14.6315 7.64995C14.0067 7.64995 13.5203 8.15869 13.5203 8.77901C13.5203 9.40378 14.0067 9.89022 14.6315 9.89022ZM17.376 9.64031C17.8268 9.64031 18.2016 9.27883 18.2016 8.81471C18.2016 8.35951 17.8268 7.99357 17.376 7.99357C16.9075 7.99357 16.546 8.35951 16.546 8.81471C16.546 9.27883 16.9119 9.64031 17.376 9.64031ZM6.83516 8.20778C6.97351 8.06051 7.29482 8.08283 7.73663 8.27919C7.70539 8.56034 7.66522 8.84595 7.60721 9.13156C7.53581 9.47072 7.84819 9.73849 8.16951 9.74295C8.46851 9.74295 8.68718 9.51981 8.75412 9.20296C8.76751 9.10925 8.78536 9.01107 8.80321 8.92181C9.03081 9.0914 9.26287 9.28775 9.51278 9.50643L9.25394 9.7608C9.03081 9.9884 9.03527 10.3588 9.25394 10.5864C9.48154 10.8051 9.85194 10.8095 10.0795 10.5864L10.3339 10.3276C10.5615 10.573 10.7579 10.8095 10.9275 11.0371C10.8337 11.055 10.7445 11.0728 10.6463 11.0862C10.3339 11.1576 10.1108 11.3808 10.1108 11.6708C10.1108 11.9966 10.383 12.3045 10.7132 12.2465C11.0078 12.1885 11.2934 12.1394 11.5879 12.1126C11.7888 12.5678 11.8111 12.9025 11.6638 13.0453C11.338 13.3845 10.0305 12.8311 8.53991 11.3361C7.04491 9.84113 6.49154 8.53356 6.83516 8.20778ZM3.18022 16.2763L6.02295 9.97055C6.37104 10.7024 6.95119 11.4879 7.66969 12.2108C8.36587 12.9115 9.13345 13.4738 9.84302 13.8174L3.3855 16.4995C3.22039 16.5709 3.09097 16.4593 3.18022 16.2763ZM17.0413 12.8356C17.4921 12.8356 17.858 12.4697 17.858 12.0145C17.858 11.5548 17.4921 11.1889 17.0413 11.1889C16.5817 11.1889 16.2157 11.5548 16.2157 12.0145C16.2157 12.4697 16.5817 12.8356 17.0413 12.8356Z" fill="currentColor"/>
</svg>
