<svg width="20" height="20" viewBox="0 0 20 20" fill="currentColor" xmlns="http://www.w3.org/2000/svg">
<path d="M5.37938 15.2532H14.6179C15.8803 15.2532 16.5597 14.5738 16.5597 13.3235V6.67399C16.5597 5.42771 15.8803 4.74426 14.6179 4.74426H5.37938C4.12908 4.74426 3.44162 5.42771 3.44162 6.67399V13.3235C3.44162 14.5738 4.12908 15.2532 5.37938 15.2532ZM4.85675 6.84284C4.85675 6.37649 5.09395 6.16341 5.53617 6.16341H14.4652C14.9074 6.16341 15.1406 6.37649 15.1406 6.84284V12.1978L12.7365 9.94647C12.4993 9.72536 12.2058 9.61681 11.9203 9.61681C11.6188 9.61681 11.3495 9.72134 11.0962 9.93843L8.62373 12.1536L7.61063 11.249C7.38147 11.04 7.12417 10.9355 6.8709 10.9355C6.60556 10.9355 6.39249 11.0319 6.16735 11.237L4.85675 12.3908V6.84284ZM7.98451 10.1877C8.72826 10.1877 9.33934 9.57259 9.33934 8.82482C9.33934 8.0851 8.72826 7.46598 7.98451 7.46598C7.23674 7.46598 6.62968 8.0851 6.62968 8.82482C6.62968 9.57259 7.23674 10.1877 7.98451 10.1877Z" fill="currentColor"/>
</svg>
