<svg width="20" height="20" viewBox="0 0 20 20" fill="currentColor" xmlns="http://www.w3.org/2000/svg">
<path d="M4.22405 16.5668H15.7722C17.3502 16.5668 18.1995 15.7175 18.1995 14.1547V5.84279C18.1995 4.28494 17.3502 3.43063 15.7722 3.43063H4.22405C2.66118 3.43063 1.80185 4.28494 1.80185 5.84279V14.1547C1.80185 15.7175 2.66118 16.5668 4.22405 16.5668ZM4.42004 14.7979C3.86726 14.7979 3.57076 14.5265 3.57076 13.9436V6.05385C3.57076 5.47091 3.86726 5.20457 4.42004 5.20457H15.5813C16.1341 5.20457 16.4255 5.47091 16.4255 6.05385V13.9436C16.4255 14.5265 16.1341 14.7979 15.5813 14.7979H4.42004ZM8.93278 12.7023L12.5812 10.5415C13.0133 10.2902 13.0083 9.69218 12.5812 9.43589L8.93278 7.28505C8.4805 7.01871 7.93777 7.24485 7.93777 7.77251V12.2048C7.93777 12.7325 8.47045 12.9687 8.93278 12.7023Z" fill="currentColor"/>
</svg>
