<?xml version="1.0" encoding="UTF-8"?>
<svg xmlns="http://www.w3.org/2000/svg" viewBox="0 0 32.634765625 26.140625" width="32.634765625" height="26.140625" fill="currentColor">
  <path d="M4.8237 26.1377H27.8037C30.9437 26.1377 32.6337 24.4477 32.6337 21.3377V4.7977C32.6337 1.6977 30.9437 -0.0023 27.8037 -0.0023H4.8237C1.7137 -0.0023 0.0037 1.6977 0.0037 4.7977V21.3377C0.0037 24.4477 1.7137 26.1377 4.8237 26.1377ZM5.2137 22.6177C4.1137 22.6177 3.5237 22.0777 3.5237 20.9177V5.2177C3.5237 4.0577 4.1137 3.5277 5.2137 3.5277H27.4237C28.5237 3.5277 29.1037 4.0577 29.1037 5.2177V20.9177C29.1037 22.0777 28.5237 22.6177 27.4237 22.6177ZM14.1937 18.4477L21.4537 14.1477C22.3137 13.6477 22.3037 12.4577 21.4537 11.9477L14.1937 7.6677C13.2937 7.1377 12.2137 7.5877 12.2137 8.6377V17.4577C12.2137 18.5077 13.2737 18.9777 14.1937 18.4477Z"/>
</svg>
