<?xml version="1.0" encoding="UTF-8"?>
<svg xmlns="http://www.w3.org/2000/svg" viewBox="0 0 26.140625 26.140625" width="26.140625" height="26.140625" fill="currentColor">
  <path d="M4.8237 26.1414H21.3137C24.4437 26.1414 26.1437 24.4414 26.1437 21.3514V4.8014C26.1437 1.7114 24.4437 0.0014 21.3137 0.0014H4.8237C1.7137 0.0014 0.0037 1.6914 0.0037 4.8014V21.3514C0.0037 24.4414 1.7137 26.1414 4.8237 26.1414ZM5.2137 22.6114C4.1137 22.6114 3.5237 22.0814 3.5237 20.9214V5.2314C3.5237 4.0714 4.1137 3.5314 5.2137 3.5314H20.9337C22.0237 3.5314 22.6137 4.0714 22.6137 5.2314V20.9214C22.6137 22.0814 22.0237 22.6114 20.9337 22.6114ZM10.9337 18.4614L18.1937 14.1614C19.0537 13.6614 19.0437 12.4714 18.1937 11.9614L10.9337 7.6814C10.0337 7.1514 8.9737 7.6014 8.9737 8.6514V17.4714C8.9737 18.5214 10.0237 18.9914 10.9337 18.4614Z"/>
</svg>
