<svg width="20" height="20" viewBox="0 0 20 20" fill="currentColor" xmlns="http://www.w3.org/2000/svg">
<path d="M5.86142 16.5605H14.1378C15.7087 16.5605 16.5619 15.7073 16.5619 14.1564V5.84995C16.5619 4.29908 15.7087 3.44083 14.1378 3.44083H5.86142C4.30051 3.44083 3.44226 4.28904 3.44226 5.84995V14.1564C3.44226 15.7073 4.30051 16.5605 5.86142 16.5605ZM6.05716 14.7888C5.50507 14.7888 5.20895 14.5228 5.20895 13.9406V6.06577C5.20895 5.48356 5.50507 5.21254 6.05716 5.21254H13.947C14.4941 5.21254 14.7902 5.48356 14.7902 6.06577V13.9406C14.7902 14.5228 14.4941 14.7888 13.947 14.7888H6.05716ZM8.92804 12.7059L12.5718 10.5477C13.0035 10.2968 12.9985 9.69953 12.5718 9.44356L8.92804 7.29542C8.47633 7.02942 7.94431 7.25527 7.94431 7.78227V12.209C7.94431 12.736 8.47131 12.9719 8.92804 12.7059Z" fill="currentColor"/>
</svg>
