<?xml version="1.0" encoding="UTF-8"?>
<svg xmlns="http://www.w3.org/2000/svg" viewBox="0 0 22.44921875 25.15625" width="22.44921875" height="25.15625" fill="currentColor">
  <path d="M0.0037 22.5192C0.0037 24.2692 1.0837 25.1592 2.3637 25.1592C2.8937 25.1592 3.4737 24.9892 4.0337 24.6792L20.5737 15.0392C21.8337 14.2992 22.4537 13.6292 22.4537 12.5792C22.4537 11.5292 21.8337 10.8392 20.5737 10.1192L4.0337 0.4792C3.4737 0.1492 2.8937 -0.0008 2.3637 -0.0008C1.0837 -0.0008 0.0037 0.8892 0.0037 2.6292ZM3.5437 20.3692V4.7892C3.5437 4.4892 3.8037 4.3292 4.0637 4.4892L17.5137 12.2792C17.6337 12.3492 17.7037 12.4692 17.7037 12.5792C17.7037 12.6892 17.6337 12.7992 17.5137 12.8692L4.0637 20.6692C3.8037 20.8192 3.5437 20.6692 3.5437 20.3692Z"/>
</svg>
