<?xml version="1.0" encoding="UTF-8"?>
<svg xmlns="http://www.w3.org/2000/svg" viewBox="0 0 26.140625 26.140625" width="26.140625" height="26.140625" fill="currentColor">
  <path d="M4.8237 26.1414H21.3137C24.4437 26.1414 26.1437 24.4414 26.1437 21.3514V4.8014C26.1437 1.7114 24.4437 0.0014 21.3137 0.0014H4.8237C1.7137 0.0014 0.0037 1.6914 0.0037 4.8014V21.3514C0.0037 24.4414 1.7137 26.1414 4.8237 26.1414ZM5.2137 22.6114C4.1137 22.6114 3.5237 22.0814 3.5237 20.9214V5.2314C3.5237 4.0714 4.1137 3.5314 5.2137 3.5314H20.9337C22.0237 3.5314 22.6137 4.0714 22.6137 5.2314V20.9214C22.6137 22.0814 22.0237 22.6114 20.9337 22.6114ZM8.3037 14.5714H11.5637V17.8514C11.5637 18.7214 12.1937 19.3414 13.0737 19.3414C13.9437 19.3414 14.6037 18.7214 14.6037 17.8514V14.5714H17.8737C18.7337 14.5714 19.3637 13.9414 19.3637 13.0714C19.3637 12.1814 18.7337 11.5414 17.8737 11.5414H14.6037V8.2714C14.6037 7.4014 13.9437 6.7814 13.0737 6.7814C12.1937 6.7814 11.5637 7.4014 11.5637 8.2714V11.5414H8.3037C7.4237 11.5414 6.7937 12.1814 6.7937 13.0714C6.7937 13.9414 7.4237 14.5714 8.3037 14.5714Z"/>
</svg>
