<svg width="20" height="20" viewBox="0 0 20 20" fill="currentColor" xmlns="http://www.w3.org/2000/svg">
<path d="M5.86144 16.5605H14.1378C15.7087 16.5605 16.562 15.7073 16.562 14.1564V5.84995C16.562 4.29908 15.7087 3.44083 14.1378 3.44083H5.86144C4.30053 3.44083 3.44228 4.28904 3.44228 5.84995V14.1564C3.44228 15.7073 4.30053 16.5605 5.86144 16.5605ZM6.05718 14.7888C5.50509 14.7888 5.20897 14.5228 5.20897 13.9406V6.06577C5.20897 5.48356 5.50509 5.21254 6.05718 5.21254H13.9471C14.4941 5.21254 14.7903 5.48356 14.7903 6.06577V13.9406C14.7903 14.5228 14.4941 14.7888 13.9471 14.7888H6.05718ZM7.60805 10.7535H9.24425V12.3998C9.24425 12.8364 9.56045 13.1476 10.0021 13.1476C10.4388 13.1476 10.77 12.8364 10.77 12.3998V10.7535H12.4112C12.8429 10.7535 13.1591 10.4373 13.1591 10.0007C13.1591 9.55398 12.8429 9.23276 12.4112 9.23276H10.77V7.59155C10.77 7.15489 10.4388 6.84371 10.0021 6.84371C9.56045 6.84371 9.24425 7.15489 9.24425 7.59155V9.23276H7.60805C7.16638 9.23276 6.85018 9.55398 6.85018 10.0007C6.85018 10.4373 7.16638 10.7535 7.60805 10.7535Z" fill="currentColor"/>
</svg>
