<svg width="20" height="20" viewBox="0 0 20 20" fill="currentColor" xmlns="http://www.w3.org/2000/svg">
<path d="M5.68309 10.9273H9.07675V14.3165C9.07675 14.8262 9.4881 15.2465 10.0023 15.2465C10.5165 15.2465 10.9278 14.8262 10.9278 14.3165V10.9273H14.3215C14.8312 10.9273 15.247 10.5115 15.247 9.99727C15.247 9.48755 14.8312 9.07172 14.3215 9.07172H10.9278V5.68255C10.9278 5.17283 10.5165 4.75253 10.0023 4.75253C9.4881 4.75253 9.07675 5.17283 9.07675 5.68255V9.07172H5.68309C5.17338 9.07172 4.75755 9.48755 4.75755 9.99727C4.75755 10.5115 5.17338 10.9273 5.68309 10.9273Z" fill="currentColor"/>
</svg>
