<?xml version="1.0" encoding="UTF-8"?>
<svg xmlns="http://www.w3.org/2000/svg" viewBox="0 0 44.02535512974125 27.831361591610833" width="44.02535512974125" height="27.831361591610833" fill="currentColor">
  <path d="M42.2737 4.4501L43.4937 3.1901C44.1437 2.5101 44.2237 1.5001 43.5737 0.8301L43.1237 0.3801C42.5337 -0.1999 41.5237 -0.0999 40.8637 0.5601L39.6237 1.7901ZM29.4237 17.3001L41.2737 5.4501L38.6137 2.7701L26.7537 14.6401L25.5437 17.7101C25.3437 18.2101 25.8537 18.6601 26.3037 18.4801ZM6.1237 27.8301H32.8937C36.8137 27.8301 39.0237 25.6301 39.0237 21.7101V11.0001L35.4937 14.5101V21.5101C35.4937 23.2901 34.4837 24.3001 32.7037 24.3001H6.3137C4.5237 24.3001 3.5237 23.2901 3.5237 21.5101V12.7501C3.5237 10.9701 4.5237 9.9601 6.3137 9.9601H28.1537L31.6937 6.4301H6.1237C2.2037 6.4301 0.0037 8.6401 0.0037 12.5601V21.7101C0.0037 25.6301 2.2037 27.8301 6.1237 27.8301ZM8.8637 19.4901C10.0537 19.4901 11.0237 18.5201 11.0237 17.3301C11.0237 16.1301 10.0537 15.1601 8.8637 15.1601C7.6537 15.1601 6.6837 16.1301 6.6837 17.3301C6.6837 18.5201 7.6537 19.4901 8.8637 19.4901ZM15.0637 19.4901C16.2537 19.4901 17.2437 18.5201 17.2437 17.3301C17.2437 16.1301 16.2537 15.1601 15.0637 15.1601C13.8737 15.1601 12.8937 16.1301 12.8937 17.3301C12.8937 18.5201 13.8737 19.4901 15.0637 19.4901ZM21.2737 19.4901C22.4737 19.4901 23.4437 18.5201 23.4437 17.3301C23.4437 16.1301 22.4737 15.1601 21.2737 15.1601C20.0837 15.1601 19.1137 16.1301 19.1137 17.3301C19.1137 18.5201 20.0837 19.4901 21.2737 19.4901Z"/>
</svg>
