<svg width="20" height="20" viewBox="0 0 20 20" fill="currentColor" xmlns="http://www.w3.org/2000/svg">
<path d="M4.201 10.3921C4.62419 10.3921 4.96024 10.0519 4.96024 9.62452V9.18474C4.96024 8.18901 5.62821 7.57083 6.70692 7.57083H11.0176V8.83623C11.0176 9.18889 11.2333 9.40048 11.5818 9.40048C11.7437 9.40048 11.8764 9.3424 11.9843 9.25112L14.3533 7.25551C14.6147 7.03147 14.6147 6.67467 14.3533 6.45478L11.9843 4.45917C11.8764 4.3679 11.7437 4.30981 11.5818 4.30981C11.2333 4.30981 11.0176 4.52556 11.0176 4.87821V6.08138H6.78575C4.71131 6.08138 3.44176 7.18498 3.44176 8.98974V9.62452C3.44176 10.0519 3.78196 10.3921 4.201 10.3921ZM8.9805 15.1218V13.9186H13.2124C15.2909 13.9186 16.5605 12.815 16.5605 11.0102V10.3755C16.5605 9.94813 16.2203 9.60792 15.8012 9.60792C15.3739 9.60792 15.042 9.94813 15.042 10.3755V10.8152C15.042 11.811 14.3699 12.4292 13.2995 12.4292H8.9805V11.1638C8.9805 10.8111 8.76476 10.5995 8.4204 10.5995C8.26275 10.5995 8.12583 10.6576 8.01796 10.7489L5.64481 12.7445C5.38758 12.9685 5.38758 13.3253 5.64481 13.5452L8.01796 15.5408C8.12583 15.6321 8.26275 15.6902 8.4204 15.6902C8.76476 15.6902 8.9805 15.4744 8.9805 15.1218Z" fill="currentColor"/>
</svg>
