<svg width="20" height="20" viewBox="0 0 20 20" fill="currentColor" xmlns="http://www.w3.org/2000/svg">
<path d="M2.32012 13.9808H5.49381C5.48228 14.073 5.47844 14.1613 5.47844 14.2459C5.47844 15.2986 6.07782 15.9787 7.18823 15.9787C8.44464 15.9787 9.43209 15.2333 10.0776 13.9808H17.6814C17.9695 13.9808 18.2001 13.731 18.2001 13.4467C18.2001 13.1585 17.9695 12.9165 17.6814 12.9165H10.5079C10.7653 12.0942 10.919 11.1452 10.9575 10.1001C11.2879 10.0309 11.6337 9.98868 11.9795 9.98868C12.1063 9.98868 12.1754 10.0463 12.1754 10.1347C12.1754 10.5343 11.9103 10.8724 11.9103 11.3757C11.9103 11.8368 12.2523 12.1442 12.7326 12.1442C13.8699 12.1442 15.2262 10.3767 15.572 10.3767C15.8794 10.3767 15.572 11.9367 16.9168 11.9367C17.1742 11.9367 17.4892 11.8637 17.7275 11.7062C17.8965 11.5909 18.0118 11.418 18.0118 11.199C18.0118 10.9147 17.8158 10.6572 17.5161 10.6572C17.3432 10.6572 17.1972 10.7763 17.0589 10.7763C16.6401 10.7763 17.0551 9.08192 15.8832 9.08192C14.9188 9.08192 13.624 10.6572 13.3243 10.6572C13.2782 10.6572 13.2513 10.6303 13.2513 10.5765C13.2513 10.4344 13.3781 10.1846 13.3781 9.91184C13.3781 9.25866 12.9016 8.86675 12.1217 8.86675C11.7182 8.86675 11.3225 8.90133 10.9459 8.97049C10.7577 6.13877 9.34372 4.0217 7.32655 4.0217C5.81271 4.0217 4.74073 5.18974 4.74073 6.79963C4.74073 8.57474 5.87034 10.0578 7.11138 11.0261C6.51584 11.6178 6.05861 12.2787 5.78581 12.9165H2.32012C2.03196 12.9165 1.80142 13.1624 1.80142 13.4467C1.80142 13.731 2.0358 13.9808 2.32012 13.9808ZM5.8665 6.79195C5.8665 5.84292 6.46973 5.15131 7.33039 5.15131C8.74433 5.15131 9.74331 6.93027 9.83168 9.27403C9.14392 9.52761 8.50996 9.87726 7.95283 10.2999C6.95385 9.53146 5.8665 8.34421 5.8665 6.79195ZM2.05117 11.9713C2.22407 12.1442 2.49302 12.1365 2.66208 11.9713L3.25379 11.3757L3.84933 11.9713C4.02607 12.1365 4.2835 12.1365 4.4564 11.9713C4.63315 11.7984 4.63315 11.5294 4.4564 11.3565L3.86854 10.7687L4.4564 10.177C4.63315 10.004 4.63315 9.74278 4.4564 9.56988C4.29119 9.39698 4.02223 9.39698 3.84933 9.56219L3.25379 10.1577L2.66208 9.56988C2.48918 9.39698 2.22407 9.39698 2.05117 9.56988C1.87827 9.73894 1.87827 10.0117 2.05117 10.177L2.64671 10.7687L2.05117 11.3604C1.87827 11.5333 1.88595 11.7907 2.05117 11.9713ZM8.34474 11.8176C8.44464 11.8714 8.54454 11.8906 8.64443 11.8906C8.92876 11.8906 9.16314 11.6793 9.16314 11.4026C9.16314 11.2412 9.1055 11.0876 8.94797 10.9646C9.21693 10.7879 9.50509 10.6265 9.80479 10.4843C9.73563 11.4026 9.55888 12.2325 9.30146 12.9165H7.06528C7.3035 12.5015 7.64545 12.0712 8.07194 11.6639C8.16031 11.7177 8.25637 11.7715 8.34474 11.8176ZM6.66569 14.1229C6.66569 14.0768 6.66569 14.0307 6.66953 13.9808H8.74433C8.35242 14.534 7.86062 14.8529 7.32655 14.8529C6.88469 14.8529 6.66569 14.5648 6.66569 14.1229Z" fill="currentColor"/>
</svg>
