<svg width="20" height="20" viewBox="0 0 20 20" fill="currentColor" xmlns="http://www.w3.org/2000/svg">
<path d="M3.44208 11.995C3.44208 12.7464 3.88719 13.4021 4.53333 13.6988V15.508C4.53333 15.9244 4.8923 16.2595 5.31827 16.2595C5.74903 16.2595 6.10321 15.9244 6.10321 15.508V13.6988C6.74456 13.4021 7.19446 12.7512 7.19446 11.995C7.19446 11.2387 6.74456 10.5926 6.10321 10.2911V4.50454C6.10321 4.08335 5.74424 3.74353 5.31827 3.74353C4.90666 3.74353 4.53333 4.08335 4.53333 4.50454V10.2911C3.88719 10.5926 3.44208 11.2387 3.44208 11.995ZM10.004 16.2595C10.4347 16.2595 10.7889 15.9244 10.7889 15.4937V9.69757C11.4303 9.40083 11.8754 8.74512 11.8754 7.99368C11.8754 7.24225 11.4303 6.59611 10.7889 6.29458V4.49496C10.7889 4.08335 10.4299 3.74353 10.004 3.74353C9.58278 3.74353 9.20946 4.08335 9.20946 4.49496V6.29458C8.57289 6.58654 8.12778 7.24225 8.12778 7.99368C8.12778 8.74033 8.57289 9.39604 9.20946 9.69757V15.4937C9.20946 15.9244 9.578 16.2595 10.004 16.2595ZM12.8087 11.995C12.8087 12.7464 13.2538 13.4021 13.8952 13.6988V15.508C13.8952 15.9244 14.2637 16.2595 14.6801 16.2595C15.1204 16.2595 15.4746 15.9244 15.4746 15.508V13.6988C16.116 13.4021 16.5611 12.7464 16.5611 11.995C16.5611 11.2387 16.116 10.5926 15.4746 10.2911V4.50454C15.4746 4.08335 15.1061 3.74353 14.6801 3.74353C14.2685 3.74353 13.8952 4.08335 13.8952 4.50454V10.2911C13.2538 10.5926 12.8087 11.2387 12.8087 11.995ZM9.13288 7.99368C9.13288 7.51506 9.52056 7.13217 10.004 7.13217C10.4922 7.13217 10.8655 7.51506 10.8655 7.99368C10.8655 8.48666 10.4922 8.85999 10.004 8.85999C9.52056 8.85999 9.13288 8.48666 9.13288 7.99368ZM4.45675 11.995C4.45675 11.5163 4.83965 11.1286 5.31827 11.1286C5.81125 11.1286 6.17979 11.5163 6.17979 11.995C6.17979 12.4831 5.81125 12.8613 5.31827 12.8613C4.83965 12.8613 4.45675 12.4831 4.45675 11.995ZM13.8186 11.995C13.8186 11.5163 14.211 11.1286 14.6897 11.1286C15.1779 11.1286 15.5512 11.5163 15.5512 11.995C15.5512 12.4831 15.1779 12.8613 14.6897 12.8613C14.211 12.8613 13.8186 12.4831 13.8186 11.995Z" fill="currentColor"/>
</svg>
