<svg width="20" height="20" viewBox="0 0 20 20" fill="currentColor" xmlns="http://www.w3.org/2000/svg">
<path d="M5.10926 13.8579C5.25564 13.8579 5.41016 13.8172 5.57281 13.7359V8.01875C5.57281 7.53893 5.65007 7.40475 6.07296 7.16484L11.0256 4.3022C10.9931 3.74919 10.6353 3.44016 10.1717 3.44016C9.94809 3.44016 9.70412 3.50522 9.45201 3.6516L5.00354 6.21334C4.33261 6.60776 4.22282 6.77041 4.22282 7.57146V12.6665C4.22282 13.3781 4.57658 13.8579 5.10926 13.8579ZM7.41075 15.1794C7.55714 15.1794 7.71166 15.1469 7.87431 15.0574V9.34841C7.87431 8.8564 7.9475 8.73034 8.37039 8.48637L13.3271 5.63186C13.2946 5.07885 12.9368 4.76169 12.4651 4.76169C12.2415 4.76169 12.0056 4.83488 11.7535 4.97313L7.30097 7.543C6.63004 7.93336 6.51618 8.10008 6.51618 8.89706V13.9961C6.51618 14.7077 6.88621 15.1794 7.41075 15.1794ZM9.81391 16.5579C10.0579 16.5579 10.3466 16.4725 10.6638 16.2854L14.9455 13.8254C15.6002 13.4391 15.7791 13.1585 15.7791 12.3737V7.43728C15.7791 6.6037 15.4253 6.14828 14.8601 6.14828C14.6161 6.14828 14.3356 6.23773 14.0184 6.41258L9.74071 8.8808C9.05759 9.27522 8.90307 9.54766 8.90307 10.3324V15.2689C8.90307 16.0984 9.2487 16.5579 9.81391 16.5579ZM10.31 14.8866C10.2815 14.8866 10.2693 14.8622 10.2693 14.8378L10.3181 10.4097C10.3181 10.243 10.375 10.1535 10.5133 10.0722L14.3112 7.82764C14.3274 7.81544 14.3437 7.81137 14.36 7.81137C14.3884 7.81544 14.4047 7.83577 14.4047 7.87643L14.3681 12.3005C14.3681 12.4388 14.3112 12.5567 14.1729 12.6339L10.3588 14.8744C10.3385 14.8866 10.3263 14.8907 10.31 14.8866Z" fill="currentColor"/>
</svg>
