<svg width="20" height="20" viewBox="0 0 20 20" fill="currentColor" xmlns="http://www.w3.org/2000/svg">
<path d="M4.3671 14.5062H5.5858V15.5652C5.5858 17.2203 6.49051 18.1197 8.15093 18.1197H15.6334C17.2885 18.1197 18.1986 17.2203 18.1986 15.5652V8.0561C18.1986 6.40633 17.2885 5.50161 15.6334 5.50161H14.4147V4.43192C14.4147 2.78748 13.5047 1.87744 11.8496 1.87744H4.3671C2.71201 1.87744 1.80197 2.78215 1.80197 4.43192V11.9517C1.80197 13.6015 2.71201 14.5062 4.3671 14.5062ZM4.57465 12.6276C3.98925 12.6276 3.67526 12.3349 3.67526 11.7175V4.66609C3.67526 4.04875 3.98925 3.76669 4.57465 3.76669H11.6421C12.2275 3.76669 12.5414 4.04875 12.5414 4.66609V5.50161H8.15093C6.49051 5.50161 5.5858 6.40633 5.5858 8.0561V12.6276H4.57465ZM8.35316 16.2411C7.77308 16.2411 7.45909 15.959 7.45909 15.3417V8.28494C7.45909 7.66228 7.77308 7.38022 8.35316 7.38022H15.4259C16.0113 7.38022 16.3253 7.66228 16.3253 8.28494V15.3417C16.3253 15.959 16.0113 16.2411 15.4259 16.2411H8.35316Z" fill="currentColor"/>
</svg>
