<?xml version="1.0" encoding="UTF-8"?>
<svg xmlns="http://www.w3.org/2000/svg" viewBox="0 0 25.484375 30.173828125" width="25.484375" height="30.173828125" fill="currentColor">
  <path d="M7.9537 13.7573C7.2337 13.7573 6.5937 14.2973 6.5937 15.0773C6.5937 15.4773 6.7437 15.7673 7.0137 16.0373L11.4937 20.3473C11.9037 20.7573 12.3137 20.8873 12.7437 20.8873C13.1637 20.8873 13.5737 20.7573 14.0037 20.3473L18.4737 16.0373C18.7437 15.7673 18.8937 15.4773 18.8937 15.0773C18.8937 14.2973 18.2537 13.7573 17.5237 13.7573C17.1337 13.7573 16.7637 13.9173 16.5037 14.2073L14.8337 15.9873L14.1737 16.9073L14.3237 14.9573V1.5573C14.3237 0.7273 13.6337 -0.0027 12.7437 -0.0027C11.8637 -0.0027 11.1737 0.7273 11.1737 1.5573V14.9573L11.3037 16.9073L10.6637 15.9873L8.9937 14.2073C8.7237 13.9173 8.3537 13.7573 7.9537 13.7573ZM6.1237 30.1773H19.3737C23.2937 30.1773 25.4837 27.9873 25.4837 24.0473V13.4973C25.4837 9.5673 23.2937 7.3673 19.3737 7.3673H16.9237V10.8973H19.1637C20.9637 10.8973 21.9537 11.9073 21.9537 13.6973V23.8573C21.9537 25.6373 20.9637 26.6473 19.1637 26.6473H6.3137C4.5237 26.6473 3.5237 25.6373 3.5237 23.8573V13.6973C3.5237 11.9073 4.5237 10.8973 6.3137 10.8973H8.5737V7.3673H6.1237C2.2037 7.3673 0.0037 9.5673 0.0037 13.4973V24.0473C0.0037 27.9873 2.2037 30.1773 6.1237 30.1773Z"/>
</svg>
