<svg width="20" height="20" viewBox="0 0 20 20" fill="currentColor" xmlns="http://www.w3.org/2000/svg">
<path d="M9.99925 11.0757C10.266 11.0757 10.5123 10.969 10.8489 10.7802L15.1586 8.28467C15.6717 7.98504 15.9303 7.69772 15.9303 7.25444C15.9303 6.81936 15.6717 6.53204 15.1586 6.23652L10.8489 3.73687C10.5123 3.53985 10.266 3.44135 9.99925 3.44135C9.73656 3.44135 9.49029 3.53985 9.15372 3.73687L4.83577 6.23652C4.32681 6.53204 4.06413 6.81936 4.06413 7.25444C4.06413 7.69772 4.32681 7.98504 4.83577 8.28467L9.15372 10.7802C9.49029 10.969 9.73656 11.0757 9.99925 11.0757ZM9.99925 9.56938C9.93768 9.56938 9.88432 9.54475 9.80223 9.4996L5.91936 7.3119C5.89884 7.29548 5.88653 7.28317 5.88653 7.25444C5.88653 7.23391 5.89884 7.2175 5.91936 7.20518L9.80223 5.00927C9.88432 4.97233 9.93768 4.9477 9.99925 4.9477C10.0608 4.9477 10.1183 4.97233 10.1963 5.00927L14.075 7.20518C14.0956 7.2175 14.1079 7.23391 14.1079 7.25444C14.1079 7.28317 14.0956 7.29548 14.075 7.3119L10.1963 9.4996C10.1183 9.54475 10.0608 9.56938 9.99925 9.56938ZM9.99925 13.8832C10.2455 13.8832 10.4713 13.7724 10.7914 13.5877L15.3351 10.9198C15.7168 10.694 15.9385 10.419 15.9385 10.0496C15.9385 9.71304 15.7415 9.45035 15.4829 9.27796L10.5 12.1716C10.2989 12.2907 10.1511 12.3646 9.99925 12.3646C9.84738 12.3646 9.70372 12.2907 9.5026 12.1716L4.51973 9.27796C4.26114 9.45035 4.06413 9.71304 4.06413 10.0496C4.06413 10.419 4.28166 10.7022 4.65928 10.9198L9.20708 13.5877C9.52313 13.7724 9.74887 13.8832 9.99925 13.8832ZM9.99925 16.5594C10.2455 16.5594 10.4713 16.4485 10.7914 16.2638L15.3351 13.5959C15.7168 13.3784 15.9385 13.0993 15.9385 12.734C15.9385 12.3892 15.7415 12.1265 15.4829 11.9541L10.5 14.856C10.2989 14.9709 10.1511 15.0407 9.99925 15.0407C9.84738 15.0407 9.70372 14.9709 9.5026 14.856L4.51973 11.9541C4.26114 12.1265 4.06413 12.3892 4.06413 12.734C4.06413 13.0993 4.28166 13.3784 4.65928 13.5959L9.20708 16.2638C9.52313 16.4485 9.74887 16.5594 9.99925 16.5594Z" fill="currentColor"/>
</svg>
