<svg xmlns="http://www.w3.org/2000/svg" viewBox="3.49 4.22 25.17 25.17" width="25.17" height="25.17" fill="currentColor">
  <path d="M3.49 11.43L5.69 11.43L5.69 8.57C5.69 7.15 6.44 6.43 7.81 6.43L10.64 6.43L10.64 4.22L7.78 4.22C4.92 4.22 3.49 5.63 3.49 8.46ZM12.51 6.43L19.63 6.43L19.63 4.22L12.51 4.22ZM26.46 11.43L28.66 11.43L28.66 8.46C28.66 5.65 27.22 4.22 24.36 4.22L21.51 4.22L21.51 6.43L24.34 6.43C25.69 6.43 26.46 7.15 26.46 8.57ZM26.46 20.32L28.66 20.32L28.66 13.30L26.46 13.30ZM3.49 20.32L5.69 20.32L5.69 13.30L3.49 13.30ZM21.51 29.39L24.36 29.39C27.22 29.39 28.66 27.97 28.66 25.16L28.66 22.19L26.46 22.19L26.46 25.05C26.46 26.47 25.69 27.19 24.34 27.19L21.51 27.19ZM7.78 29.39L10.64 29.39L10.64 27.19L7.81 27.19C6.44 27.19 5.69 26.47 5.69 25.05L5.69 22.19L3.49 22.19L3.49 25.16C3.49 27.99 4.92 29.39 7.78 29.39ZM12.51 29.39L19.63 29.39L19.63 27.19L12.51 27.19Z" />
</svg>