<svg width="20" height="20" viewBox="0 0 20 20" fill="currentColor" xmlns="http://www.w3.org/2000/svg">
<path d="M7.39738 9.27732C7.00604 9.27732 6.65819 9.57082 6.65819 9.99476C6.65819 10.2122 6.73972 10.3698 6.88647 10.5165L9.32143 12.8591C9.54427 13.0819 9.76711 13.1526 10.0008 13.1526C10.2291 13.1526 10.4519 13.0819 10.6857 12.8591L13.1152 10.5165C13.2619 10.3698 13.3435 10.2122 13.3435 9.99476C13.3435 9.57082 12.9956 9.27732 12.5988 9.27732C12.3869 9.27732 12.1858 9.36428 12.0444 9.5219L11.1368 10.4894L10.7781 10.9894L10.8596 9.92954V2.64641C10.8596 2.19529 10.4846 1.79852 10.0008 1.79852C9.52253 1.79852 9.1475 2.19529 9.1475 2.64641V9.92954L9.21816 10.9894L8.87031 10.4894L7.96263 9.5219C7.81588 9.36428 7.61478 9.27732 7.39738 9.27732ZM6.40274 18.2019H13.6043C15.7349 18.2019 16.9252 17.0116 16.9252 14.8701V9.136C16.9252 6.99998 15.7349 5.80424 13.6043 5.80424H12.2727V7.72286H13.4902C14.4685 7.72286 15.0066 8.27181 15.0066 9.24471V14.7668C15.0066 15.7343 14.4685 16.2833 13.4902 16.2833H6.50601C5.53311 16.2833 4.9896 15.7343 4.9896 14.7668V9.24471C4.9896 8.27181 5.53311 7.72286 6.50601 7.72286H7.73436V5.80424H6.40274C4.27215 5.80424 3.07642 6.99998 3.07642 9.136V14.8701C3.07642 17.0116 4.27215 18.2019 6.40274 18.2019Z" fill="currentColor"/>
</svg>
