<svg width="20" height="20" viewBox="0 0 20 20" fill="currentColor" xmlns="http://www.w3.org/2000/svg">
<path d="M10.0008 12.3582C10.4507 12.3582 10.7995 11.9993 10.7995 11.5747V4.80108L10.7237 3.82042L11.0522 4.28042L11.9015 5.1802C12.0329 5.32679 12.2199 5.40767 12.4171 5.40767C12.7861 5.40767 13.1096 5.13976 13.1096 4.74547C13.1096 4.53822 13.0338 4.39163 12.8973 4.25514L10.6377 2.08151C10.4204 1.87426 10.2131 1.79843 10.0008 1.79843C9.78343 1.79843 9.57618 1.87426 9.36892 2.08151L7.1043 4.25514C6.96782 4.39163 6.89199 4.53822 6.89199 4.74547C6.89199 5.13976 7.21551 5.40767 7.57947 5.40767C7.77661 5.40767 7.9687 5.32679 8.10518 5.1802L8.94936 4.28042L9.27288 3.81031L9.20717 4.80108V11.5747C9.20717 11.9993 9.55596 12.3582 10.0008 12.3582ZM6.65441 18.2018H13.3522C15.3338 18.2018 16.4408 17.0947 16.4408 15.1031V9.7701C16.4408 7.7835 15.3338 6.67141 13.3522 6.67141H12.1138V8.45581H13.2461C14.156 8.45581 14.6564 8.96636 14.6564 9.8712V15.007C14.6564 15.9119 14.156 16.4174 13.2461 16.4174H6.75046C5.84562 16.4174 5.34012 15.9119 5.34012 15.007V9.8712C5.34012 8.96636 5.84562 8.45581 6.75046 8.45581H7.89288V6.67141H6.65441C4.67287 6.67141 3.56078 7.7835 3.56078 9.7701V15.1031C3.56078 17.0947 4.67287 18.2018 6.65441 18.2018Z" fill="currentColor"/>
</svg>
