<svg width="20" height="20" viewBox="0 0 20 20" fill="currentColor" xmlns="http://www.w3.org/2000/svg">
<path d="M4.75433 13.6706C4.75433 14.6442 5.36171 15.2426 6.38443 15.2426H13.6104C14.6376 15.2426 15.2495 14.6442 15.2495 13.6706V6.32845C15.2495 5.35933 14.6376 4.75195 13.6104 4.75195H6.38443C5.36171 4.75195 4.75433 5.35933 4.75433 6.32845V13.6706ZM6.32637 13.1302V6.86884C6.32637 6.51156 6.53627 6.30612 6.88909 6.30612H13.1683C13.5166 6.30612 13.7221 6.51156 13.7221 6.86884V13.1302C13.7221 13.4919 13.5166 13.6974 13.1683 13.6974H6.88909C6.53627 13.6974 6.32637 13.4919 6.32637 13.1302Z" fill="currentColor"/>
</svg>
