<?xml version="1.0" encoding="UTF-8"?>
<svg xmlns="http://www.w3.org/2000/svg" viewBox="0 0 31.5 27.42578125" width="31.5" height="27.42578125" fill="currentColor">
  <path d="M15.8227 -0.005C7.0827 -0.005 0.0027 7.085 0.0027 15.815C0.0027 20.005 1.6027 23.805 4.3227 26.685C5.0827 27.495 6.3727 27.435 7.1127 26.715C7.8327 25.995 7.6727 24.745 6.9027 23.855C5.0027 21.755 3.8427 18.895 3.8427 15.815C3.8427 9.145 9.1627 3.815 15.8227 3.815C21.3127 3.815 25.9127 7.515 27.2227 12.555C27.7027 13.905 28.9127 14.245 29.8427 13.865C30.6927 13.505 31.2827 12.565 30.8327 11.295C29.0227 4.775 22.9527 -0.005 15.8227 -0.005ZM14.0727 18.065C15.1327 19.125 16.7727 19.125 17.8427 18.065C18.9227 16.995 18.9227 15.355 17.8427 14.285C17.6627 14.105 17.2627 13.825 16.8027 13.525L10.5127 9.315C10.0227 8.995 9.5327 9.055 9.1727 9.395C8.8427 9.745 8.7727 10.225 9.1227 10.715L13.3027 17.025C13.5927 17.485 13.8927 17.885 14.0727 18.065ZM29.6527 18.975C30.6627 18.975 31.5027 18.145 31.5027 17.145C31.5027 16.115 30.6627 15.295 29.6527 15.295C28.6527 15.295 27.8227 16.115 27.8227 17.145C27.8227 18.145 28.6527 18.975 29.6527 18.975ZM28.3827 23.585C29.3827 23.585 30.2127 22.765 30.2127 21.755C30.2127 20.745 29.3827 19.905 28.3827 19.905C27.3727 19.905 26.5327 20.745 26.5327 21.755C26.5327 22.765 27.3727 23.585 28.3827 23.585ZM25.5227 27.425C26.5527 27.425 27.3727 26.595 27.3727 25.595C27.3727 24.565 26.5527 23.745 25.5227 23.745C24.5127 23.745 23.6927 24.565 23.6927 25.595C23.6927 26.595 24.5127 27.425 25.5227 27.425Z"/>
</svg>
