<svg width="20" height="20" viewBox="0 0 20 20" fill="currentColor" xmlns="http://www.w3.org/2000/svg">
<path d="M7.37605 16.5618H12.621C13.5935 16.5618 14.192 16.0215 14.2377 15.049L14.6118 6.99038H15.1396C15.5095 6.99038 15.7796 6.72855 15.7796 6.36697C15.7796 6.00955 15.5012 5.74772 15.1396 5.74772H12.7291V4.92482C12.7291 3.97308 12.1347 3.4411 11.0749 3.4411H8.90963C7.85399 3.4411 7.26383 3.97308 7.26383 4.92482V5.74772H4.85332C4.49589 5.74772 4.21744 6.00955 4.21744 6.36697C4.21744 6.72855 4.49589 6.99038 4.85332 6.99038H5.38945L5.76349 15.049C5.80921 16.0257 6.39937 16.5618 7.37605 16.5618ZM8.56884 4.97053C8.56884 4.72532 8.73924 4.57571 9.00938 4.57571H10.9794C11.2537 4.57571 11.4241 4.72532 11.4241 4.97053V5.74772H8.56884V4.97053ZM7.54644 15.2942C7.25136 15.2942 7.06019 15.0822 7.04356 14.7498L6.67783 6.99038H13.3109L12.9535 14.7498C12.941 15.0905 12.7457 15.2942 12.4464 15.2942H7.54644ZM8.3361 14.4713C8.62287 14.4713 8.79742 14.2884 8.79326 14.0266L8.62287 8.28707C8.61455 8.02108 8.42753 7.85069 8.16154 7.85069C7.88309 7.85069 7.70853 8.02524 7.71684 8.29123L7.88309 14.0308C7.88724 14.2926 8.07842 14.4713 8.3361 14.4713ZM9.99852 14.4713C10.2687 14.4713 10.4557 14.2926 10.4557 14.0308V8.28292C10.4557 8.02108 10.2687 7.85069 9.99852 7.85069C9.72838 7.85069 9.54136 8.02108 9.54136 8.28292V14.0308C9.54136 14.2926 9.72838 14.4713 9.99852 14.4713ZM11.6609 14.4713C11.9228 14.4713 12.1056 14.2967 12.1098 14.0308L12.2802 8.29123C12.2885 8.02524 12.1098 7.85069 11.8397 7.85069C11.5654 7.85069 11.3825 8.02108 11.3783 8.28707L11.2079 14.0266C11.1996 14.2884 11.3783 14.4713 11.6609 14.4713Z" fill="currentColor"/>
</svg>
