<?xml version="1.0" encoding="UTF-8"?>
<svg xmlns="http://www.w3.org/2000/svg" viewBox="0 0 26.536034404850355 26.019292563531074" width="26.536034404850355" height="26.019292563531074" fill="currentColor">
  <path d="M16.7337 11.4697H24.1137C26.2137 11.4697 27.1137 9.7897 26.1537 8.0397L22.3537 1.2097C21.4637 -0.3903 19.4037 -0.4103 18.5137 1.2097L14.7137 8.0397C13.7537 9.7797 14.6337 11.4697 16.7337 11.4697ZM3.1037 10.8997L6.2737 7.7297L9.4637 10.8997C10.0337 11.4697 10.8537 11.3997 11.4037 10.8597C11.9337 10.3197 12.0137 9.4797 11.4437 8.9197L8.2737 5.7297L11.4437 2.5597C12.0037 1.9997 11.9337 1.1397 11.4037 0.6197C10.8937 0.0997 10.0037 0.0197 9.4437 0.5797L6.2737 3.7497L3.1037 0.5797C2.5537 0.0197 1.6637 0.0997 1.1637 0.6197C0.6337 1.1397 0.5637 1.9997 1.1037 2.5597L4.2937 5.7297L1.1037 8.9197C0.5437 9.4797 0.6337 10.3197 1.1637 10.8597C1.6937 11.3997 2.5137 11.4697 3.1037 10.8997ZM17.8137 8.7197C17.5837 8.7197 17.4837 8.5697 17.6137 8.3697L20.2237 3.5597C20.3437 3.3197 20.5237 3.3197 20.6437 3.5597L23.2537 8.3697C23.3837 8.5697 23.2737 8.7197 23.0537 8.7197ZM6.2437 26.0197C9.6937 26.0197 12.4937 23.2297 12.4937 19.7697C12.4937 16.3297 9.6937 13.5397 6.2437 13.5397C2.8037 13.5397 0.0037 16.3297 0.0037 19.7697C0.0037 23.2297 2.8037 26.0197 6.2437 26.0197ZM17.8137 25.7997H22.8837C25.2837 25.7997 26.4037 24.6797 26.4037 22.2597V17.2397C26.4037 14.8197 25.2837 13.6897 22.8837 13.6897H17.8137C15.4237 13.6897 14.2837 14.8197 14.2837 17.2397V22.2597C14.2837 24.6797 15.4237 25.7997 17.8137 25.7997ZM6.2437 23.1997C4.3637 23.1997 2.8137 21.6697 2.8137 19.7697C2.8137 17.8797 4.3637 16.3497 6.2437 16.3497C8.1337 16.3497 9.6837 17.8797 9.6837 19.7697C9.6837 21.6697 8.1337 23.1997 6.2437 23.1997ZM17.8137 22.9797C17.3337 22.9797 17.1037 22.7497 17.1037 22.2697V17.2297C17.1037 16.7397 17.3337 16.4997 17.8137 16.4997H22.8837C23.3637 16.4997 23.5837 16.7397 23.5837 17.2297V22.2697C23.5837 22.7497 23.3637 22.9797 22.8837 22.9797Z"/>
</svg>
