<svg width="20" height="20" viewBox="0 0 20 20" fill="currentColor" xmlns="http://www.w3.org/2000/svg">
<path d="M11.7138 9.23879H15.3627C16.401 9.23879 16.8459 8.40816 16.3713 7.54293L14.4925 4.16602C14.0525 3.37495 13.0339 3.36506 12.5939 4.16602L10.7151 7.54293C10.2405 8.40322 10.6756 9.23879 11.7138 9.23879ZM4.97486 8.95697L6.54218 7.38966L8.11939 8.95697C8.40121 9.23879 8.80664 9.20418 9.07857 8.9372C9.34061 8.67021 9.38017 8.25489 9.09835 7.97802L7.53103 6.40081L9.09835 4.83349C9.37522 4.55661 9.34061 4.13141 9.07857 3.87431C8.82641 3.61721 8.38638 3.57766 8.1095 3.85453L6.54218 5.42185L4.97486 3.85453C4.70293 3.57766 4.2629 3.61721 4.01568 3.87431C3.75364 4.13141 3.71903 4.55661 3.98602 4.83349L5.56323 6.40081L3.98602 7.97802C3.70914 8.25489 3.75364 8.67021 4.01568 8.9372C4.27773 9.20418 4.68315 9.23879 4.97486 8.95697ZM12.2478 7.87913C12.1341 7.87913 12.0847 7.80497 12.1489 7.70609L13.4394 5.32791C13.4987 5.20925 13.5877 5.20925 13.647 5.32791L14.9375 7.70609C15.0018 7.80497 14.9474 7.87913 14.8386 7.87913H12.2478ZM6.52735 16.4326C8.23311 16.4326 9.61749 15.0532 9.61749 13.3425C9.61749 11.6417 8.23311 10.2622 6.52735 10.2622C4.82654 10.2622 3.44215 11.6417 3.44215 13.3425C3.44215 15.0532 4.82654 16.4326 6.52735 16.4326ZM12.2478 16.3239H14.7545C15.9412 16.3239 16.4949 15.7701 16.4949 14.5736V12.0916C16.4949 10.8951 15.9412 10.3364 14.7545 10.3364H12.2478C11.0661 10.3364 10.5025 10.8951 10.5025 12.0916V14.5736C10.5025 15.7701 11.0661 16.3239 12.2478 16.3239ZM6.52735 15.0384C5.59784 15.0384 4.83148 14.2819 4.83148 13.3425C4.83148 12.408 5.59784 11.6516 6.52735 11.6516C7.46181 11.6516 8.22816 12.408 8.22816 13.3425C8.22816 14.2819 7.46181 15.0384 6.52735 15.0384ZM12.2478 14.9296C12.0105 14.9296 11.8968 14.8159 11.8968 14.5786V12.0867C11.8968 11.8444 12.0105 11.7257 12.2478 11.7257H14.7545C14.9919 11.7257 15.1006 11.8444 15.1006 12.0867V14.5786C15.1006 14.8159 14.9919 14.9296 14.7545 14.9296H12.2478Z" fill="currentColor"/>
</svg>
