<svg width="29" height="30" viewBox="0 0 29 30" fill="none" xmlns="http://www.w3.org/2000/svg">
<g clip-path="url(#clip0_2549_6)">
<path d="M0 14.61C0 23.62 6.09 29.09 14.49 29.09C16.76 29.09 18.92 28.78 20.26 28.34C21.2 28.04 21.5 27.55 21.5 27.04C21.5 26.53 21.11 26.15 20.6 26.15C20.44 26.15 20.22 26.18 19.96 26.25C18.29 26.66 16.85 26.93 14.93 26.93C7.45 26.93 2.35 22.42 2.35 14.69C2.35 7.3 7.16 2.14 14.41 2.14C20.82 2.14 26.18 6.09 26.18 13.19C26.18 17.33 24.78 20.12 22.53 20.12C21.02 20.12 20.18 19.25 20.18 17.76V8.49C20.18 7.75 19.77 7.3 19.07 7.3C18.39 7.3 17.96 7.75 17.96 8.49V10.05H17.84C17.14 8.36 15.43 7.3 13.4 7.3C9.85 7.3 7.37 10.32 7.37 14.65C7.37 19.03 9.84 22.08 13.45 22.08C15.57 22.08 17.21 20.93 18 18.99H18.13C18.39 20.91 20.01 22.09 22.17 22.09C25.99 22.09 28.35 18.34 28.35 13.09C28.35 5.15 22.51 0 14.43 0C5.94 0 0 5.81 0 14.61ZM13.82 19.92C11.37 19.92 9.81 17.88 9.81 14.64C9.81 11.45 11.39 9.42 13.83 9.42C16.35 9.42 17.93 11.41 17.93 14.58C17.93 17.82 16.31 19.92 13.82 19.92Z" fill="black"/>
</g>
<defs>
<clipPath id="clip0_2549_6">
<rect width="28.36" height="29.09" fill="white"/>
</clipPath>
</defs>
</svg>
