<svg width="24" height="24" viewBox="0 0 24 24" fill="none" xmlns="http://www.w3.org/2000/svg">
<g clip-path="url(#clip0_2549_12)">
<path d="M19.365 9.86278C19.714 9.86278 19.995 10.1478 19.995 10.4938C19.995 10.8388 19.714 11.1238 19.365 11.1238H17.61V12.2488H19.365C19.714 12.2488 19.995 12.5318 19.995 12.8788C19.995 13.2228 19.714 13.5078 19.365 13.5078H16.979C16.634 13.5078 16.352 13.2228 16.352 12.8788V8.10778C16.352 7.76278 16.634 7.47778 16.982 7.47778H19.368C19.714 7.47778 19.995 7.76278 19.995 8.10778C19.995 8.45678 19.714 8.73778 19.365 8.73778H17.61V9.86278H19.365ZM15.51 12.8788C15.51 13.1488 15.336 13.3888 15.078 13.4748C15.014 13.4958 14.945 13.5058 14.879 13.5058C14.668 13.5058 14.488 13.4158 14.369 13.2558L11.926 9.93878V12.8788C11.926 13.2228 11.647 13.5078 11.295 13.5078C10.949 13.5078 10.669 13.2228 10.669 12.8788V8.10778C10.669 7.83778 10.842 7.59778 11.099 7.51278C11.159 7.48978 11.235 7.47978 11.293 7.47978C11.488 7.47978 11.668 7.58378 11.788 7.73378L14.25 11.0638V8.10778C14.25 7.76278 14.532 7.47778 14.88 7.47778C15.225 7.47778 15.51 7.76278 15.51 8.10778V12.8788ZM9.769 12.8788C9.769 13.2228 9.487 13.5078 9.138 13.5078C8.793 13.5078 8.511 13.2228 8.511 12.8788V8.10778C8.511 7.76278 8.793 7.47778 9.141 7.47778C9.487 7.47778 9.769 7.76278 9.769 8.10778V12.8788ZM7.303 13.5078H4.917C4.572 13.5078 4.287 13.2228 4.287 12.8788V8.10778C4.287 7.76278 4.572 7.47778 4.917 7.47778C5.265 7.47778 5.547 7.76278 5.547 8.10778V12.2488H7.303C7.651 12.2488 7.932 12.5318 7.932 12.8788C7.932 13.2228 7.65 13.5078 7.303 13.5078ZM24 10.3138C24 4.94278 18.615 0.571777 12 0.571777C5.385 0.571777 0 4.94278 0 10.3138C0 15.1248 4.27 19.1558 10.035 19.9218C10.426 20.0038 10.958 20.1798 11.093 20.5118C11.213 20.8128 11.172 21.2778 11.131 21.5918L10.967 22.6118C10.922 22.9128 10.727 23.7978 12.016 23.2568C13.307 22.7178 18.932 19.1788 21.452 16.2818C23.176 14.3928 24 12.4578 24 10.3138Z" fill="black"/>
</g>
<defs>
<clipPath id="clip0_2549_12">
<rect width="24" height="24" fill="white"/>
</clipPath>
</defs>
</svg>
