<svg width="24" height="24" viewBox="0 0 24 24" fill="none" xmlns="http://www.w3.org/2000/svg">
<path fill-rule="evenodd" clip-rule="evenodd" d="M21.4287 1C22.2965 1.00008 22.9999 1.70352 23 2.57129V21.4287C22.9999 22.2965 22.2965 22.9999 21.4287 23H2.57129C1.70352 22.9999 1.00008 22.2965 1 21.4287V2.57129C1.00008 1.70352 1.70352 1.00007 2.57129 1H21.4287ZM4.14258 8.85742V19.8574H7.28613V8.85742H4.14258ZM15.3633 8.54297C13.9441 8.54314 12.6179 9.25027 11.8271 10.4287V8.85742H8.85742V19.8574H12V14.7188C11.9166 13.9648 12.1499 13.2098 12.6445 12.6348C13.1391 12.0597 13.8505 11.7159 14.6084 11.6855C16.4313 11.6855 16.7139 13.4773 16.7139 14.7188V19.8574H19.8574V14.0273C19.8574 10.5703 18.7101 8.54314 15.3633 8.54297ZM5.71387 3.75C4.62935 3.75022 3.75023 4.62935 3.75 5.71387C3.75 6.79857 4.62921 7.67849 5.71387 7.67871C6.79871 7.67871 7.67871 6.79871 7.67871 5.71387C7.67848 4.62921 6.79857 3.75 5.71387 3.75Z" fill="black"/>
</svg>
