<svg width="24" height="24" viewBox="0 0 24 24" fill="none" xmlns="http://www.w3.org/2000/svg">
<g clip-path="url(#clip0_2549_27)">
<path d="M5.06371 15.1719C5.06371 16.5669 3.93632 17.6942 2.54141 17.6942C1.1465 17.6942 0.0191067 16.5669 0.0191067 15.1719C0.0191067 13.777 1.1465 12.6496 2.54141 12.6496H5.06371V15.1719ZM6.32486 15.1719C6.32486 13.777 7.45225 12.6496 8.84716 12.6496C10.2421 12.6496 11.3695 13.777 11.3695 15.1719V21.4777C11.3695 22.8726 10.2421 24 8.84716 24C7.45225 24 6.32486 22.8726 6.32486 21.4777V15.1719Z" fill="black"/>
<path d="M8.84716 5.0446C7.45225 5.0446 6.32486 3.91721 6.32486 2.5223C6.32486 1.12739 7.45225 0 8.84716 0C10.2421 0 11.3695 1.12739 11.3695 2.5223V5.0446H8.84716ZM8.84716 6.32486C10.2421 6.32486 11.3695 7.45225 11.3695 8.84716C11.3695 10.2421 10.2421 11.3695 8.84716 11.3695H2.5223C1.12739 11.3695 0 10.2421 0 8.84716C0 7.45225 1.12739 6.32486 2.5223 6.32486H8.84716Z" fill="black"/>
<path d="M18.9555 8.84716C18.9555 7.45225 20.0829 6.32486 21.4778 6.32486C22.8727 6.32486 24.0001 7.45225 24.0001 8.84716C24.0001 10.2421 22.8727 11.3695 21.4778 11.3695H18.9555V8.84716ZM17.6943 8.84716C17.6943 10.2421 16.5669 11.3695 15.172 11.3695C13.7771 11.3695 12.6497 10.2421 12.6497 8.84716V2.5223C12.6497 1.12739 13.7771 0 15.172 0C16.5669 0 17.6943 1.12739 17.6943 2.5223V8.84716Z" fill="black"/>
<path d="M15.172 18.9554C16.5669 18.9554 17.6943 20.0828 17.6943 21.4777C17.6943 22.8726 16.5669 24 15.172 24C13.7771 24 12.6497 22.8726 12.6497 21.4777V18.9554H15.172ZM15.172 17.6942C13.7771 17.6942 12.6497 16.5669 12.6497 15.1719C12.6497 13.777 13.7771 12.6496 15.172 12.6496H21.4969C22.8918 12.6496 24.0192 13.777 24.0192 15.1719C24.0192 16.5669 22.8918 17.6942 21.4969 17.6942H15.172Z" fill="black"/>
</g>
<defs>
<clipPath id="clip0_2549_27">
<rect width="24" height="24" fill="white"/>
</clipPath>
</defs>
</svg>
