<svg width="192" height="192" viewBox="0 0 192 192" fill="none" xmlns="http://www.w3.org/2000/svg">
<path d="M95.7449 19.149C53.4433 19.149 19.1489 53.4434 19.1489 95.745C19.1489 138.047 53.4433 172.341 95.7449 172.341C138.047 172.341 172.341 138.047 172.341 95.745C172.341 53.4434 138.047 19.149 95.7449 19.149ZM167.36 95.745C167.36 135.295 135.299 167.36 95.7449 167.36C56.1904 167.36 24.1298 135.295 24.1298 95.745C24.1298 56.195 56.1949 24.1299 95.7449 24.1299C135.295 24.1299 167.36 56.195 167.36 95.745Z" fill="#6F6F6F"/>
<path d="M95.7452 50.355V52.8437C119.399 52.8437 138.647 72.0871 138.647 95.7453H141.135C141.135 70.6785 120.812 50.355 95.7452 50.355ZM95.7452 138.647C72.0915 138.647 52.8437 119.403 52.8437 95.7453H50.355C50.355 120.812 70.6784 141.135 95.7452 141.135" fill="#6F6F6F"/>
<path d="M132.42 63.4219C133.459 64.5301 134.957 66.3174 135.799 67.4032L151.295 57.6354C150.521 56.63 149.288 55.1019 148.366 54.025L138.552 60.4684L137.882 61.0403L138.381 60.3164L142.714 51.7282L139.65 48.6853L130.998 52.9883L130.269 53.4843L130.849 52.8185L137.342 43.0775C136.199 42.1123 135.101 41.2276 133.702 40.1552L123.866 55.5308C125.113 56.4826 126.755 57.8812 127.803 58.8329L137.063 54.0607L137.657 53.6273L137.221 54.2171L132.42 63.4219Z" fill="#6F6F6F"/>
<path d="M97.2572 43.9358L101.491 34.5165L101.761 33.6809L101.685 34.5522L102.13 47.1396C103.615 47.2781 105.149 47.4836 106.661 47.7339L105.972 29.0919C103.858 28.8595 101.752 28.6942 99.6463 28.6048L95.4754 38.8865L95.327 39.6506L95.1785 38.8865L91.0121 28.6048C88.9064 28.6942 86.8007 28.8595 84.686 29.0919L83.9976 47.7339C85.5093 47.4836 87.0436 47.2826 88.5284 47.1396L88.9739 34.5522L88.8974 33.6809L89.1673 34.5165L93.4012 43.9358H97.2572Z" fill="#6F6F6F"/>
<path d="M63.0121 58.7929C65.4597 56.2325 66.8455 53.2745 64.3979 50.4505C63.0661 48.9178 60.8299 48.5827 58.9762 49.3378L58.7917 49.4093L58.8502 49.2485C59.1246 48.5201 59.3001 46.1966 57.3069 44.5924C56.335 43.8105 55.1157 43.52 53.8829 43.6451C51.5837 43.8775 49.8154 45.437 45.0011 50.7677C43.5478 52.3763 41.4331 54.9143 40.1643 56.5587L53.3879 69.0165C57.7703 64.1996 59.5566 62.4078 63.0121 58.7929ZM45.757 55.7455C48.4206 52.5104 51.2507 49.5747 52.5331 48.4129C52.938 48.0465 53.3789 47.6801 53.9144 47.5371C54.7827 47.3003 55.6781 47.9124 55.8806 48.7972C56.0831 49.6864 55.5206 50.5309 54.8952 51.228C53.4869 52.8053 48.3217 58.1718 48.3217 58.1718L45.757 55.7455ZM50.9358 60.6249C50.9358 60.6249 55.9661 55.3433 57.6084 53.6543C58.2608 52.984 58.6792 52.5774 59.1291 52.3584C59.7096 52.0769 60.344 52.0189 60.9109 52.3942C61.4688 52.7651 61.7253 53.404 61.5858 54.0386C61.4193 54.7937 60.7984 55.5131 60.2855 56.0627C59.5926 56.8 53.6264 63.1406 53.6174 63.1495L50.9358 60.6249Z" fill="#6F6F6F"/>
<path d="M95.7452 50.355V95.7453H50.355C50.355 70.6605 70.6604 50.355 95.7452 50.355Z" fill="#0066B1"/>
<path d="M141.135 95.745C141.135 120.83 120.83 141.135 95.7449 141.135V95.745H141.135Z" fill="#0066B1"/>
</svg>
