<svg width="192" height="192" viewBox="0 0 192 192" fill="none" xmlns="http://www.w3.org/2000/svg">
<path fill-rule="evenodd" clip-rule="evenodd" d="M94.7869 53.859C110.756 53.859 123.705 85.5791 123.705 124.693C123.705 126.066 123.687 127.428 123.656 128.782C117.613 116.564 106.942 108.447 94.7869 108.447C82.6319 108.447 71.9613 116.564 65.9185 128.782C65.8872 127.428 65.8689 126.066 65.8689 124.693C65.8689 85.5791 78.8189 53.859 94.7869 53.859ZM118.893 64.2884C146.692 70.5647 166.596 87.3858 166.596 107.147C166.596 132.266 134.44 152.637 94.7869 152.637C55.1348 152.637 22.9788 132.266 22.9788 107.147C22.9788 87.3858 42.8837 70.5647 70.6809 64.2884L70.6658 64.3251C76.8852 49.412 85.3976 40.2129 94.7869 40.2129C104.168 40.2129 112.675 49.3964 118.893 64.2884ZM34.263 107.147C34.263 120.333 44.7783 131.966 60.7837 138.865C60.4648 134.258 60.2974 129.523 60.2974 124.693C60.2974 105.788 63.9251 87.5132 68.2114 73.4362C53.2602 74.1644 35.6665 89.6866 34.263 107.147ZM66.653 141.097C75.0593 143.9 84.63 145.488 94.7869 145.488C104.944 145.488 114.515 143.899 122.922 141.097C123.079 139.476 123.214 137.835 123.325 136.174C117.227 125.738 106.723 118.845 94.7869 118.845C82.8507 118.845 72.3462 125.738 66.2498 136.174C66.3612 137.836 66.4952 139.477 66.653 141.097ZM128.791 138.865C144.797 131.966 155.312 120.333 155.312 107.147C155.312 92.1843 141.771 79.2214 122.034 72.9052L128.791 138.865ZM128.791 138.865C129.109 134.257 129.277 129.523 129.277 124.693C129.277 105.178 126.572 87.207 122.033 72.904L128.791 138.865Z" fill="#ED1C24"/>
</svg>
