<svg width="192" height="192" viewBox="0 0 192 192" fill="none" xmlns="http://www.w3.org/2000/svg">
<path d="M72.4147 55.7978C57.3252 65.753 41.5261 72.4858 38.5881 73.7051L113.094 125.888C113.132 125.914 113.163 125.949 113.184 125.99C113.205 126.031 113.215 126.077 113.215 126.123V126.126C113.214 126.173 113.202 126.219 113.18 126.26C113.157 126.301 113.125 126.336 113.086 126.362L109.76 128.551C109.713 128.582 109.657 128.598 109.6 128.598C109.544 128.597 109.489 128.58 109.442 128.548L82.2328 109.819C71.8508 102.805 60.3986 104.294 52.6227 106.78C45.1584 109.162 39.6583 112.812 38.2969 113.763C38.9488 114.22 94.5791 153.098 94.9533 153.362C96.1539 152.235 104.304 144.792 121.434 134.224C139.497 123.097 150.147 119.207 152.611 118.384L77.9672 66.1137C77.9296 66.0875 77.8988 66.0525 77.8776 66.0119C77.8563 65.9712 77.8453 65.9259 77.8453 65.88V65.8767C77.8458 65.8301 77.8577 65.7843 77.8798 65.7433C77.9019 65.7023 77.9337 65.6673 77.9723 65.6413L81.149 63.5347C81.1955 63.5041 81.25 63.4877 81.3057 63.4877C81.3614 63.4877 81.4158 63.5041 81.4623 63.5347C81.5622 63.5991 91.57 70.1693 109.56 82.8357C126.428 94.7027 149.954 80.4717 153.188 78.4058C152.504 77.9334 95.9913 38.5611 95.634 38.3104C94.2201 39.5161 83.7958 48.3114 72.4147 55.7978Z" fill="#D52B1E"/>
</svg>
