<svg width="192" height="192" viewBox="0 0 192 192" fill="none" xmlns="http://www.w3.org/2000/svg">
<path d="M95.7498 171.765L114.502 66.3028C132.376 66.3028 138.014 68.2628 138.828 76.2629C138.828 76.2629 150.818 71.7921 156.865 62.7122C133.266 51.7769 109.555 51.2837 109.555 51.2837L95.7186 68.136L95.7498 68.1338L81.9137 51.2811C81.9137 51.2811 58.2016 51.7748 34.6057 62.7101C40.6479 71.79 52.643 76.2608 52.643 76.2608C53.4618 68.2602 59.0927 66.3002 76.8467 66.2875L95.7498 171.765Z" fill="#E82127"/>
<path d="M95.7425 46.416C114.819 46.2701 136.654 49.3671 159.007 59.1094C161.994 53.7321 162.762 51.3556 162.762 51.3556C138.328 41.6884 115.445 38.38 95.7398 38.297C76.0359 38.38 53.1542 41.6889 28.7227 51.3556C28.7227 51.3556 29.8126 54.2829 32.4756 59.1094C54.824 49.3671 76.6628 46.2701 95.7398 46.416H95.7425Z" fill="#E82127"/>
</svg>
