<svg width="192" height="192" viewBox="0 0 192 192" fill="none" xmlns="http://www.w3.org/2000/svg">
<path fill-rule="evenodd" clip-rule="evenodd" d="M44.4067 88.957V90.7924H47.4379L53.3334 101.86H60.5916L66.4871 90.7646L69.5183 90.7368V88.9292H60.4804V90.7368H62.8719L58.7006 98.6067L54.1955 90.7646L57.477 90.7368V88.9014H44.4067V88.957ZM102.667 88.957V90.7924H105.698L111.593 101.86H118.852L124.747 90.7646L127.778 90.7368V88.9292H118.74V90.7368H121.132L116.961 98.6067L112.455 90.7646L115.737 90.7368V88.9014H102.667V88.957ZM87.7889 88.957V90.7924H90.82V99.8303H87.6498V101.86L90.82 101.888H105.893V95.8815H103.918C103.807 99.0517 101.054 99.8581 99.8858 99.8581C98.829 99.8581 96.7434 99.8581 96.7434 99.8581V90.8202L99.7189 90.7924V88.957H87.7889ZM77.6385 88.5677C72.5217 88.5677 68.3503 91.6267 68.3503 95.3809C68.3503 99.1351 72.5217 102.194 77.6385 102.194C82.7554 102.194 86.9268 99.1351 86.9268 95.3809C86.9268 91.6267 82.7832 88.5677 77.6385 88.5677ZM77.4995 100.22C75.6919 100.22 74.218 98.0506 74.218 95.3809C74.218 92.7112 75.6919 90.5421 77.4995 90.5421C79.3071 90.5421 80.781 92.7112 80.781 95.3809C80.781 98.0506 79.3071 100.22 77.4995 100.22ZM135.899 88.3452C130.782 88.3452 126.61 91.4598 126.61 95.2697C126.61 99.1073 130.782 102.194 135.899 102.194C141.015 102.194 145.187 99.0795 145.187 95.2697C145.187 91.4598 141.043 88.3452 135.899 88.3452ZM135.759 100.164C133.952 100.164 132.478 97.9671 132.478 95.2418C132.478 92.5166 133.952 90.3196 135.759 90.3196C137.567 90.3196 139.041 92.5166 139.041 95.2418C139.041 97.9671 137.567 100.164 135.759 100.164Z" fill="#1D1D1B"/>
<path d="M129.336 32.1155V33.5059C133.507 35.675 137.456 38.2891 141.043 41.2925L131.477 50.8588C135.064 53.6953 138.29 56.949 141.099 60.5363L150.637 50.9978C153.585 54.6408 156.144 58.6175 158.257 62.8167H160.037V32.1155H129.336Z" fill="#1D1D1B"/>
<path fill-rule="evenodd" clip-rule="evenodd" d="M151.166 58.0613L144.019 64.6521C149.831 73.6344 153.224 84.3409 153.224 95.8538C153.224 127.556 127.528 153.252 95.8259 153.252C64.1236 153.252 38.428 127.556 38.428 95.8538C38.428 64.1515 64.1236 38.4559 95.8259 38.4559C107.367 38.4559 118.129 41.8764 127.139 47.7442L134.341 40.9588C123.385 33.2278 110.092 28.7228 95.7425 28.7228C58.7286 28.7228 28.7227 58.7287 28.7227 95.7426C28.7227 132.756 58.7286 162.762 95.7425 162.762C132.756 162.762 162.762 132.756 162.762 95.7426C162.762 81.7546 158.48 68.7956 151.166 58.0613Z" fill="#1D1D1B"/>
</svg>
