<svg width="3060" height="557" viewBox="0 0 3060 557" fill="none" xmlns="http://www.w3.org/2000/svg">
<path d="M236 84.8164C301.17 84.8164 360.169 111.232 402.877 153.939L319.438 237.378C298.085 216.024 268.585 202.816 236 202.816C170.83 202.816 118 255.647 118 320.816C118 385.986 170.83 438.816 236 438.816C268.585 438.816 298.085 425.609 319.438 404.255L402.877 487.693C360.169 530.401 301.17 556.816 236 556.816C105.661 556.816 0 451.156 0 320.816C0 190.477 105.661 84.8164 236 84.8164Z" fill="#212121" style="fill:#212121;fill:color(display-p3 0.1294 0.1294 0.1294);fill-opacity:1;"/>
<path d="M908.194 136.657C938.263 136.657 964.592 142.118 987.182 153.038C1009.77 163.959 1027.65 179.292 1040.81 199.039C1053.98 218.786 1061.23 241.973 1062.58 268.602H972.372C969.829 251.398 963.096 237.561 952.176 227.089C941.405 216.468 927.268 211.156 909.766 211.156C894.956 211.156 882.015 215.196 870.944 223.274C860.024 231.203 851.497 242.797 845.363 258.056C839.23 273.315 836.163 291.79 836.163 313.481C836.163 335.472 839.156 354.172 845.14 369.58C851.273 384.988 859.874 396.732 870.944 404.811C882.015 412.889 894.956 416.928 909.766 416.928C920.686 416.928 930.485 414.683 939.161 410.195C947.987 405.707 955.243 399.2 960.928 390.673C966.762 381.996 970.577 371.6 972.372 359.482H1062.58C1061.08 385.811 1053.9 408.999 1041.04 429.045C1028.32 448.941 1010.74 464.5 988.304 475.72C965.864 486.939 939.311 492.549 908.644 492.549C873.339 492.549 842.97 485.069 817.538 470.109C792.256 455 772.809 434.056 759.195 407.278C745.732 380.5 739 349.683 739 314.827C739 279.522 745.807 248.556 759.42 221.928C773.183 195.15 792.705 174.281 817.987 159.321C843.269 144.212 873.338 136.657 908.194 136.657Z" fill="#212121" style="fill:#212121;fill:color(display-p3 0.1294 0.1294 0.1294);fill-opacity:1;"/>
<path d="M1534.19 136.657C1564.26 136.657 1590.59 142.118 1613.18 153.038C1635.77 163.959 1653.65 179.292 1666.81 199.039C1679.98 218.786 1687.23 241.973 1688.58 268.602H1598.37C1595.83 251.398 1589.1 237.561 1578.18 227.089C1567.4 216.468 1553.27 211.156 1535.77 211.156C1520.96 211.156 1508.01 215.196 1496.94 223.274C1486.02 231.203 1477.5 242.797 1471.36 258.056C1465.23 273.315 1462.16 291.79 1462.16 313.481C1462.16 335.472 1465.16 354.172 1471.14 369.58C1477.27 384.988 1485.87 396.732 1496.94 404.811C1508.01 412.889 1520.96 416.928 1535.77 416.928C1546.69 416.928 1556.48 414.683 1565.16 410.195C1573.99 405.707 1581.24 399.2 1586.93 390.673C1592.76 381.996 1596.58 371.6 1598.37 359.482H1688.58C1687.08 385.811 1679.9 408.999 1667.04 429.045C1654.32 448.941 1636.74 464.5 1614.3 475.72C1591.86 486.939 1565.31 492.549 1534.64 492.549C1499.34 492.549 1468.97 485.069 1443.54 470.109C1418.26 455 1398.81 434.056 1385.2 407.278C1371.73 380.5 1365 349.683 1365 314.827C1365 279.522 1371.81 248.556 1385.42 221.928C1399.18 195.15 1418.71 174.281 1443.99 159.321C1469.27 144.212 1499.34 136.657 1534.19 136.657Z" fill="#212121" style="fill:#212121;fill:color(display-p3 0.1294 0.1294 0.1294);fill-opacity:1;"/>
<path fill-rule="evenodd" clip-rule="evenodd" d="M2189.17 136.657C2211.91 136.657 2233.08 140.322 2252.68 147.652C2272.43 154.833 2289.63 165.679 2304.29 180.19C2319.1 194.701 2330.62 212.952 2338.85 234.942C2347.07 256.783 2351.19 282.365 2351.19 311.686V337.94H2116.47V338.165C2116.47 355.219 2119.61 369.955 2125.9 382.371C2132.33 394.787 2141.38 404.362 2153.05 411.094C2164.72 417.826 2178.55 421.191 2194.56 421.191C2205.18 421.191 2214.91 419.695 2223.73 416.703C2232.56 413.711 2240.11 409.223 2246.4 403.239C2252.68 397.255 2257.47 389.925 2260.76 381.249L2349.17 387.083C2344.68 408.326 2335.48 426.876 2321.57 442.733C2307.81 458.441 2290 470.708 2268.16 479.534C2246.47 488.211 2221.41 492.549 2192.99 492.549C2157.54 492.549 2127.02 485.368 2101.44 471.007C2076.01 456.496 2056.41 436.001 2042.64 409.522C2028.88 382.894 2022 351.404 2022 315.052C2022 279.597 2028.88 248.481 2042.64 221.703C2056.41 194.925 2075.78 174.056 2100.76 159.097C2125.9 144.137 2155.37 136.657 2189.17 136.657ZM2190.75 208.015C2176.24 208.015 2163.37 211.381 2152.15 218.113C2141.08 224.696 2132.4 233.597 2126.12 244.816C2120.32 255.029 2117.14 266.323 2116.56 278.7H2261.21C2261.21 264.937 2258.21 252.744 2252.23 242.123C2246.25 231.502 2237.94 223.199 2227.32 217.215C2216.85 211.082 2204.66 208.015 2190.75 208.015Z" fill="#212121" style="fill:#212121;fill:color(display-p3 0.1294 0.1294 0.1294);fill-opacity:1;"/>
<path fill-rule="evenodd" clip-rule="evenodd" d="M2549.17 136.657C2571.91 136.657 2593.08 140.322 2612.68 147.652C2632.43 154.833 2649.63 165.679 2664.29 180.19C2679.1 194.701 2690.62 212.952 2698.85 234.942C2707.07 256.783 2711.19 282.365 2711.19 311.686V337.94H2476.47V338.165C2476.47 355.219 2479.61 369.955 2485.9 382.371C2492.33 394.787 2501.38 404.362 2513.05 411.094C2524.72 417.826 2538.55 421.191 2554.56 421.191C2565.18 421.191 2574.91 419.695 2583.73 416.703C2592.56 413.711 2600.11 409.223 2606.4 403.239C2612.68 397.255 2617.47 389.925 2620.76 381.249L2709.17 387.083C2704.68 408.326 2695.48 426.876 2681.57 442.733C2667.81 458.441 2650 470.708 2628.16 479.534C2606.47 488.211 2581.41 492.549 2552.99 492.549C2517.54 492.549 2487.02 485.368 2461.44 471.007C2436.01 456.496 2416.41 436.001 2402.64 409.522C2388.88 382.894 2382 351.404 2382 315.052C2382 279.597 2388.88 248.481 2402.64 221.703C2416.41 194.925 2435.78 174.056 2460.76 159.097C2485.9 144.137 2515.37 136.657 2549.17 136.657ZM2550.75 208.015C2536.24 208.015 2523.37 211.381 2512.15 218.113C2501.08 224.696 2492.4 233.597 2486.12 244.816C2480.32 255.029 2477.14 266.323 2476.56 278.7H2621.21C2621.21 264.937 2618.21 252.744 2612.23 242.123C2606.25 231.502 2597.94 223.199 2587.32 217.215C2576.85 211.082 2564.66 208.015 2550.75 208.015Z" fill="#212121" style="fill:#212121;fill:color(display-p3 0.1294 0.1294 0.1294);fill-opacity:1;"/>
<path d="M2940.81 136.657C2964.75 136.657 2985.62 141.893 3003.42 152.365C3021.22 162.837 3035.06 177.797 3044.93 197.244C3054.81 216.542 3059.74 239.581 3059.74 266.358V485.817H2964.15V283.412C2964.3 262.319 2958.92 245.863 2948 234.045C2937.07 222.077 2922.04 216.094 2902.89 216.094C2890.03 216.094 2878.66 218.86 2868.78 224.396C2859.06 229.931 2851.43 238.009 2845.9 248.631C2840.51 259.103 2837.74 271.744 2837.59 286.554V485.817H2742V141.146H2833.1V201.956H2837.14C2844.77 181.91 2857.56 166.053 2875.52 154.385C2893.47 142.567 2915.23 136.657 2940.81 136.657Z" fill="#212121" style="fill:#212121;fill:color(display-p3 0.1294 0.1294 0.1294);fill-opacity:1;"/>
<path d="M443 322.816L600.451 485.816H453.145L295 322.816L456.339 155.816H603.632L443 322.816Z" fill="#212121" style="fill:#212121;fill:color(display-p3 0.1294 0.1294 0.1294);fill-opacity:1;"/>
<path d="M1191.59 485.816H1096V26.2539H1191.59V485.816Z" fill="#212121" style="fill:#212121;fill:color(display-p3 0.1294 0.1294 0.1294);fill-opacity:1;"/>
<path d="M1330.18 485.816H1234.59V141.145H1330.18V485.816Z" fill="#212121" style="fill:#212121;fill:color(display-p3 0.1294 0.1294 0.1294);fill-opacity:1;"/>
<path d="M1815.59 271.968H1820.75L1931.16 141.145H2040.89L1913.05 290.445L2047.39 485.816H1935.42L1841.5 346.804L1815.59 376.385V485.816H1720V26.2539H1815.59V271.968Z" fill="#212121" style="fill:#212121;fill:color(display-p3 0.1294 0.1294 0.1294);fill-opacity:1;"/>
<path d="M1282.61 0C1296.82 5.48244e-05 1308.94 4.78724 1318.96 14.3613C1329.14 23.7859 1334.22 35.0806 1334.22 48.2451C1334.22 61.5593 1329.14 73.0039 1318.96 82.5781C1308.94 92.0025 1296.82 96.7148 1282.61 96.7148C1268.4 96.7148 1256.21 92.0027 1246.03 82.5781C1236.01 73.0039 1231 61.5593 1231 48.2451C1231 35.0806 1236.01 23.7859 1246.03 14.3613C1256.21 4.78709 1268.4 0 1282.61 0Z" fill="#212121" style="fill:#212121;fill:color(display-p3 0.1294 0.1294 0.1294);fill-opacity:1;"/>
</svg>
